<svg width="406" height="203" viewBox="0 0 406 203" fill="none" xmlns="http://www.w3.org/2000/svg">
<g clip-path="url(#clip0)">
<path d="M275.987 144.429C276.536 143.282 277.27 142.204 278.163 141.286C278.645 140.781 279.24 140.3 279.928 140.208C278.691 141.699 277.384 143.098 275.987 144.429Z" fill="#3A3A3A"/>
<path d="M285.657 24.2015C286.757 24.2015 287.834 24.4309 288.842 24.8897C289.69 25.2796 290.469 25.8073 291.225 26.3578C289.232 26.0596 287.33 25.3255 285.657 24.2015Z" fill="#3A3A3A"/>
<path d="M281.257 26.5413C279.034 26.7707 276.811 26.8166 274.566 26.7248C276.789 26.3578 279.034 26.289 281.257 26.5413Z" fill="#3A3A3A"/>
<path d="M243.195 178.976C243.034 178.861 242.897 178.747 242.736 178.632C243.195 177.967 244.157 177.715 244.89 178.059C244.57 178.632 243.905 178.999 243.241 178.93L243.195 178.976Z" fill="#3A3A3A"/>
<path d="M261.412 144.865C261.16 144.498 261.458 144.016 261.756 143.672C262.81 142.479 263.841 141.263 264.896 140.07C265.171 140.46 264.85 140.965 264.529 141.309C263.498 142.502 262.444 143.695 261.412 144.865Z" fill="#3A3A3A"/>
<path d="M256.371 77.33C257.517 77.6741 258.571 78.3623 259.35 79.3028C258.181 78.9817 257.127 78.2705 256.371 77.33Z" fill="#3A3A3A"/>
<path d="M365.425 101.623C364.6 102.656 363.569 103.504 362.4 104.124C363.179 103.068 364.21 102.197 365.425 101.623Z" fill="#3A3A3A"/>
<path d="M312.101 17.6407C311.436 18.4206 310.749 19.2006 310.084 19.9576C309.878 20.187 309.557 20.4164 309.328 20.2329C310.062 19.1777 311.001 18.283 312.101 17.6407Z" fill="#3A3A3A"/>
<path d="M367.923 98.6411C367.419 99.444 366.914 100.247 366.387 101.05C366.089 100.017 366.869 98.8016 367.923 98.6411Z" fill="#3A3A3A"/>
<path d="M354.403 117.589C354.701 120.434 355.732 123.187 357.405 125.527C358.252 126.696 359.009 127.935 359.696 129.22C357.496 127.683 356.121 125.228 355.067 122.751C354.38 121.122 353.807 119.287 354.403 117.589Z" fill="#3A3A3A"/>
<path d="M268.837 80.4728C268.47 80.4957 268.081 80.2434 267.966 79.8763C268.906 79.9452 269.845 80.1975 270.67 80.6563C270.051 80.5875 269.433 80.5187 268.837 80.4498V80.4728Z" fill="#3A3A3A"/>
<path d="M225.527 124.219C225.917 124.632 226.031 125.251 225.802 125.779C225.138 125.159 224.84 124.173 225.069 123.301C225.39 123.462 225.573 123.852 225.527 124.219Z" fill="#3A3A3A"/>
<path d="M318.265 11.1487C317.394 11.7911 316.547 12.4563 315.676 13.0986C315.492 13.2363 315.217 13.3739 315.057 13.2133C316.02 12.3416 317.097 11.6534 318.265 11.1487Z" fill="#3A3A3A"/>
<path d="M321.198 140.208C321.313 139.382 321.771 138.602 322.459 138.098C322.413 138.969 321.932 139.772 321.198 140.208Z" fill="#3A3A3A"/>
<path d="M232.585 146.516C232.356 146.402 232.195 146.149 232.15 145.897C232.745 145.714 233.433 146.149 233.524 146.746C233.204 146.861 232.814 146.769 232.585 146.493V146.516Z" fill="#3A3A3A"/>
<path d="M328.738 134.427C328.898 134.542 329.035 134.657 329.196 134.771C328.531 135.161 327.683 135.207 326.996 134.863C327.546 134.679 328.119 134.588 328.692 134.565L328.738 134.427Z" fill="#3A3A3A"/>
<path d="M277.132 140.644C277.247 140.414 277.339 140.185 277.453 139.979C277.614 139.933 277.797 139.979 277.934 140.07C277.774 140.529 277.499 140.942 277.109 141.217C276.949 141.08 276.972 140.781 277.155 140.69L277.132 140.644Z" fill="#3A3A3A"/>
<path d="M244.661 162.184C244.547 162.551 244.409 162.918 244.295 163.285C243.905 162.781 244.066 161.978 244.593 161.634C244.638 161.817 244.684 162.001 244.753 162.184H244.661Z" fill="#3A3A3A"/>
<path d="M232.379 118.163C231.943 118.232 231.76 117.521 232.058 117.222C232.356 116.901 232.86 116.901 233.295 116.924C232.975 117.314 232.654 117.727 232.31 118.117L232.379 118.163Z" fill="#3A3A3A"/>
<path d="M259.144 175.856C259.35 175.627 259.533 175.398 259.74 175.191C259.625 175.902 259.213 176.545 258.594 176.935C258.685 176.545 258.892 176.178 259.167 175.902L259.144 175.856Z" fill="#3A3A3A"/>
<path d="M230.729 138.166C230.316 138.006 230.087 137.455 230.293 137.042C230.546 137.157 230.82 137.272 230.935 137.501C231.073 137.73 230.958 138.12 230.683 138.143L230.729 138.166Z" fill="#3A3A3A"/>
<path d="M369.206 98.664C369.252 99.1916 368.862 99.7192 368.358 99.8339C368.473 99.3752 368.771 98.9393 369.183 98.687L369.206 98.664Z" fill="#3A3A3A"/>
<path d="M231.898 157.986C231.691 157.963 231.462 157.963 231.256 157.94C231.645 157.482 232.516 157.573 232.791 158.101C232.493 158.055 232.195 158.009 231.898 157.94V157.986Z" fill="#3A3A3A"/>
<path d="M245.876 59.2764C245.715 59.2993 245.555 59.3223 245.395 59.3452C245.303 59.1617 245.188 59.0011 245.097 58.8176C245.418 58.7258 245.784 58.9323 245.876 59.2305V59.2764Z" fill="#3A3A3A"/>
<path d="M233.387 133.51C233.387 133.188 233.41 132.867 233.41 132.546C233.708 132.844 233.868 133.51 233.456 133.532L233.387 133.51Z" fill="#3A3A3A"/>
<path d="M228.712 130.986C228.598 130.826 228.919 130.642 229.056 130.803C229.194 130.963 229.148 131.193 229.056 131.376C228.987 131.56 228.896 131.789 228.987 131.973C228.827 131.881 228.644 131.812 228.483 131.72C228.575 131.468 228.666 131.216 228.758 130.986H228.712Z" fill="#3A3A3A"/>
<path d="M267.943 39.9611C267.852 40.2823 267.76 40.6034 267.668 40.9246C267.462 40.6264 267.554 40.1446 267.875 39.9382L267.943 39.9611Z" fill="#3A3A3A"/>
<path d="M230.041 138.763C230.293 138.809 230.362 139.176 230.202 139.382C230.041 139.589 229.766 139.657 229.514 139.703C229.331 139.382 229.652 138.9 230.018 138.946L230.041 138.763Z" fill="#3A3A3A"/>
<path d="M296.221 139.359C299.933 139.405 303.645 139.451 307.358 139.474C308.091 139.474 308.847 139.497 309.58 139.657C309.191 140.254 308.343 140.277 307.633 140.231C303.829 139.933 300.025 139.657 296.221 139.359Z" fill="#3A3A3A"/>
<path d="M253.094 155.142C252.98 155.348 252.773 155.509 252.521 155.555C252.544 155.371 252.59 155.165 252.75 155.05C252.911 154.935 253.186 154.981 253.186 155.188L253.094 155.142Z" fill="#3A3A3A"/>
<path d="M228.987 152.068C228.735 151.93 228.712 151.471 228.964 151.311C229.102 151.54 229.102 151.861 228.964 152.114L228.987 152.068Z" fill="#3A3A3A"/>
<path d="M271.403 0.43585C271.22 0.48173 271.151 0.137633 271.335 0.0458741C271.495 -0.0458851 271.701 0.0229343 271.885 0.0917537C271.724 0.183513 271.564 0.298212 271.381 0.389971L271.403 0.43585Z" fill="#3A3A3A"/>
<path d="M234.647 161.794C234.67 161.565 235.106 161.634 235.129 161.863C235.174 162.093 234.968 162.299 234.808 162.482C234.693 162.276 234.67 162.024 234.739 161.794H234.647Z" fill="#3A3A3A"/>
<path d="M326.904 83.822C327.408 83.9826 327.89 84.1202 328.394 84.2808C327.592 84.4643 326.744 84.3726 326.011 84.0285C326.217 83.7532 326.606 83.6844 326.904 83.822Z" fill="#3A3A3A"/>
<path d="M248.717 128.05C248.672 127.912 248.649 127.729 248.763 127.614C248.832 127.545 248.924 127.522 248.992 127.545C249.244 128.21 249.428 128.899 249.542 129.61C249.153 129.151 248.855 128.6 248.717 128.05Z" fill="#3A3A3A"/>
<path d="M246.884 115.479C245.967 115.594 245.028 115.548 244.134 115.364C243.768 115.295 243.355 115.158 243.149 114.814C243.195 114.607 243.355 114.447 243.538 114.401C244.661 114.814 245.761 115.158 246.884 115.479Z" fill="#3A3A3A"/>
<path d="M338.866 85.9095C338.316 85.5883 337.652 85.4507 337.033 85.5424C337.56 84.969 338.683 85.1525 338.981 85.8865L338.866 85.9095Z" fill="#3A3A3A"/>
<path d="M341.685 84.4643C341.639 84.3037 341.662 84.1202 341.753 83.9825C342.051 84.0743 342.326 84.1661 342.624 84.2578C342.372 84.5102 341.983 84.6019 341.639 84.5102L341.685 84.4643Z" fill="#3A3A3A"/>
<path d="M299.406 111.786C299.452 111.464 299.658 111.166 299.956 111.006C300.025 111.35 299.773 111.717 299.429 111.763L299.406 111.786Z" fill="#3A3A3A"/>
<path d="M254.286 135.758C253.988 135.895 253.621 135.895 253.3 135.758C253.598 135.62 253.965 135.62 254.286 135.758Z" fill="#3A3A3A"/>
<path d="M343.724 84.1661C343.976 83.9367 344.389 83.9137 344.664 84.0973C344.48 84.4414 343.953 84.5102 343.678 84.212L343.724 84.1661Z" fill="#3A3A3A"/>
<path d="M263.566 183.633C263.635 183.427 264.002 183.518 263.979 183.725C264.002 183.885 263.819 184.023 263.658 183.977C263.498 183.931 263.429 183.725 263.544 183.587L263.566 183.633Z" fill="#3A3A3A"/>
<path d="M321.221 85.4277C321.542 84.923 321.863 84.3725 322.367 84.0284C323.1 83.5008 324.154 83.432 324.934 83.8908C323.513 83.799 322.321 84.9689 321.542 86.1389C320.74 87.3317 320.053 88.6852 318.815 89.3734C319.594 88.0429 320.419 86.7353 321.221 85.4277Z" fill="#3A3A3A"/>
<path d="M253.392 128.807C251.88 130.137 250.367 131.468 248.878 132.798C248.213 133.372 247.549 133.968 246.907 134.542C246.632 134.771 246.082 134.909 246.059 134.542C248.786 132.064 251.513 129.587 254.263 127.086C254.446 127.752 253.896 128.371 253.392 128.807Z" fill="#3A3A3A"/>
<path d="M297.641 31.8404C297.664 32.4598 297.939 33.0562 298.398 33.4691C299.406 34.4097 301.079 34.3867 302.018 35.419C300.414 35.4878 298.81 34.7997 297.779 33.5838C297.412 33.148 296.656 33.3086 296.221 33.6756C295.785 34.0426 295.465 34.5703 295.006 34.8914C294.548 35.2126 293.746 35.2584 293.494 34.7308C294.96 33.9279 296.358 32.9645 297.641 31.8404Z" fill="#3A3A3A"/>
<path d="M274.772 71.8015C275.666 73.6138 277.155 75.1278 278.92 76.0683C277.361 75.7013 275.597 74.9443 275.23 73.3844C275.093 72.7879 274.222 72.6962 273.718 73.0632C273.214 73.4073 272.962 74.0037 272.572 74.4625C272.183 74.9443 271.518 75.3113 270.991 75.036C272.183 73.8661 273.443 72.7879 274.772 71.8015Z" fill="#3A3A3A"/>
<path d="M290.194 34.7309C288.017 34.9602 285.771 33.4003 285.221 31.2899C284.121 32.1845 283.022 33.1021 281.899 33.9968C281.624 34.2262 281.326 34.4556 280.982 34.4785C280.638 34.5244 280.226 34.2721 280.249 33.928C282.151 33.4921 283.388 31.7028 284.946 30.5329C285.198 30.3494 285.657 30.2805 285.703 30.5788C285.794 31.6569 286.482 32.5975 287.33 33.2627C288.2 33.928 289.209 34.3409 290.194 34.7309Z" fill="#3A3A3A"/>
<path d="M276.926 49.7105C276.811 49.2746 276.743 48.747 277.041 48.4259C277.98 51.3163 279.722 53.9544 282.013 55.9501C279.561 54.7114 277.659 52.3715 276.926 49.7105Z" fill="#3A3A3A"/>
<path d="M272.71 63.8644C272.618 63.635 272.503 63.3826 272.572 63.1532C272.618 63.0156 272.71 62.878 272.824 62.8091C273.787 64.8967 275.184 66.8007 276.88 68.3376C274.772 67.9935 273.58 65.8143 272.71 63.8644Z" fill="#3A3A3A"/>
<path d="M278.713 40.2134C279.355 41.0622 280.02 41.9339 280.959 42.4157C282.403 43.1727 284.19 42.8515 285.611 42.0945C287.032 41.3375 288.2 40.1446 289.392 39.0435C289.644 40.1217 289.965 41.2687 290.813 41.9569C291.821 42.7598 293.379 42.7598 294.181 43.7691C292.256 43.7232 290.377 42.668 289.369 41.0393C289.14 40.6493 288.59 40.2134 288.338 40.6034C287.49 41.9339 286.207 42.9892 284.694 43.448C283.182 43.9067 281.463 43.7003 280.203 42.7827C279.401 42.2092 278.805 41.4063 278.209 40.6034C277.751 39.984 277.27 39.2729 277.407 38.5159C277.843 39.0894 278.278 39.64 278.713 40.2134Z" fill="#3A3A3A"/>
<path d="M302.637 43.4938C302.247 43.0809 301.858 42.645 301.354 42.3698C300.85 42.1174 300.185 42.0716 299.727 42.4156C298.696 43.1956 297.619 43.9067 296.473 44.5261C296.198 44.4114 296.427 43.9985 296.679 43.815C298.008 42.8974 299.36 42.0027 300.689 41.0851C301.491 41.8192 302.293 42.5074 303.141 43.1956C302.981 43.3103 302.82 43.4021 302.637 43.4938Z" fill="#3A3A3A"/>
<path d="M271.885 42.0257C273.053 41.0163 274.497 40.3282 276.009 40.0299C275.047 41.2916 273.466 42.0486 271.885 42.0257Z" fill="#3A3A3A"/>
<path d="M278.026 67.6265C279.928 66.8236 281.784 65.9519 283.594 65.0114C282.426 66.8236 280.18 67.8788 278.026 67.6265Z" fill="#3A3A3A"/>
<path d="M287.536 72.7879C286.207 74.4855 284.374 75.7472 282.334 76.4124C282.174 76.4583 281.922 76.4812 281.876 76.3206C283.709 75.0131 285.588 73.8432 287.536 72.7879Z" fill="#3A3A3A"/>
<path d="M291.042 67.6494C292.486 67.0301 293.815 66.1125 294.937 65.0114C294.181 66.8465 292.279 68.1312 290.286 68.1541C290.469 67.8788 290.767 67.7641 291.042 67.6494Z" fill="#3A3A3A"/>
<path d="M290.859 54.5967C290.171 54.2985 289.575 53.7709 289.163 53.1285C288.75 52.4633 288.567 51.6375 288.773 50.9034C289.415 52.1651 290.102 53.4038 290.859 54.5967Z" fill="#3A3A3A"/>
<path d="M284.03 55.629C285.267 54.8031 286.505 53.9773 287.742 53.1285C287.238 54.6655 285.634 55.7666 284.03 55.629Z" fill="#3A3A3A"/>
<path d="M296.794 55.1931C297.114 54.9637 297.55 54.9408 297.894 55.1243C297.069 55.5831 296.06 55.7437 295.121 55.5831C295.602 55.239 296.244 55.1014 296.817 55.239L296.794 55.1931Z" fill="#3A3A3A"/>
<path d="M297.091 65.3096C298.214 66.2501 299.337 67.2136 300.323 68.3376C298.696 67.7871 297.275 66.6171 296.427 65.1261C296.633 64.9884 296.908 65.149 297.091 65.3096Z" fill="#3A3A3A"/>
<path d="M284.396 64.0937C284.236 63.7955 284.099 63.3826 284.374 63.1991C285.153 64.9425 286.298 66.5254 287.742 67.787C287.559 68.1311 287.032 67.8559 286.78 67.5577C285.863 66.4795 285.084 65.3096 284.396 64.0937Z" fill="#3A3A3A"/>
<path d="M272.343 52.5321C273.832 52.3945 275.23 51.5457 276.055 50.284C276.399 50.674 275.964 51.2475 275.528 51.5457C274.497 52.2798 273.328 52.8074 272.091 53.1056C272.183 52.9221 272.251 52.7386 272.343 52.5321Z" fill="#3A3A3A"/>
<path d="M293.723 76.7565C292.073 76.2289 290.492 75.5637 288.934 74.8066C288.521 74.6002 288.475 74.0496 288.384 73.6138C288.292 73.1779 287.88 72.6503 287.49 72.8568C287.582 72.398 288.315 72.4209 288.613 72.7879C288.911 73.155 288.957 73.6597 289.186 74.0726C290.011 75.6554 292.669 75.2884 293.723 76.7565Z" fill="#3A3A3A"/>
<path d="M309.649 65.5619C311.001 64.4608 311.849 62.7862 311.941 61.0428C313.018 63.1532 314.805 64.9196 316.959 65.9519C316.592 66.3419 315.905 66.0895 315.47 65.7913C314.301 65.0114 313.316 63.9791 312.559 62.7862C311.78 63.8644 310.772 64.8279 309.649 65.5619Z" fill="#3A3A3A"/>
<path d="M327.569 35.2584C326.538 34.9602 325.873 33.9968 325.277 33.1021C325.025 32.7351 324.452 33.0333 324.132 33.3315C323.33 34.1344 322.505 34.9373 321.703 35.7172C321.336 35.2584 321.817 34.6161 322.275 34.2262C323.33 33.3315 324.361 32.4368 325.415 31.5193C326.125 32.7809 326.836 34.0197 327.569 35.2584Z" fill="#3A3A3A"/>
<path d="M331.167 54.872C330.158 54.6426 329.196 54.1379 328.463 53.4038C328.165 53.1056 327.638 53.335 327.294 53.5644C325.667 54.6426 324.04 55.6978 322.413 56.776C322.275 56.363 322.757 56.0189 323.169 55.8125C324.956 54.9408 326.561 53.7479 327.913 52.2798C328.99 53.1515 330.067 54.0232 331.167 54.872Z" fill="#3A3A3A"/>
<path d="M325.048 61.0886C324.109 62.3733 323.169 63.6349 322.252 64.9196C321.909 65.3784 321.542 65.8601 321.061 66.1583C320.557 66.4565 319.892 66.5254 319.411 66.1813C320.603 65.7454 321.657 64.9425 322.39 63.9102C323.146 62.8091 323.742 61.3639 325.048 61.0886Z" fill="#3A3A3A"/>
<path d="M316.18 37.7589C316.73 40.2823 318.242 42.5762 320.305 44.0903C318.403 43.5397 316.913 41.7963 316.638 39.8464C316.592 39.5023 316.134 39.3417 315.79 39.4794C315.47 39.617 315.24 39.9152 315.034 40.1905C313.98 41.5898 312.582 42.7139 311.001 43.4479C312.605 41.4063 315.172 40.1217 316.18 37.7589Z" fill="#3A3A3A"/>
<path d="M332.954 34.5473C331.808 35.419 330.525 36.0613 329.15 36.4513C330.387 35.2814 331.854 34.3409 333.412 33.6985C333.527 34.0197 333.229 34.3409 332.954 34.5473Z" fill="#3A3A3A"/>
<path d="M317.142 52.4403C318.105 54.0691 319.067 55.6749 320.03 57.3036C318.311 56.0419 317.051 54.2067 316.501 52.1651C316.684 51.9357 317.005 52.2109 317.142 52.4403Z" fill="#3A3A3A"/>
<path d="M311.78 56.0419C311.574 56.0878 311.368 56.1337 311.161 56.1107C310.978 56.1107 310.726 55.996 310.772 55.7896C312.422 55.1931 314.026 54.4361 315.538 53.5185C314.645 54.8031 313.293 55.7207 311.78 56.0419Z" fill="#3A3A3A"/>
<path d="M325.094 62.8321C326.217 63.9561 327.202 65.1949 328.05 66.5254C326.515 65.906 325.346 64.4608 325.094 62.8321Z" fill="#3A3A3A"/>
<path d="M328.577 73.6138C328.302 73.2467 327.752 73.2008 327.34 73.3614C326.927 73.522 326.583 73.8661 326.24 74.1643C325.048 75.2196 323.604 75.9995 322.069 76.3895C321.473 76.5271 320.763 76.5959 320.373 76.1142C322.986 75.5407 325.415 74.2561 327.363 72.4438C327.798 72.0309 328.463 72.6044 328.852 73.0632C330.09 74.5543 331.946 75.4031 333.71 76.206C331.717 76.2289 329.746 75.2425 328.577 73.6138Z" fill="#3A3A3A"/>
<path d="M312.926 75.5407C312.147 76.0454 311.23 76.3436 310.291 76.3895C309.764 76.4124 309.214 76.3665 308.71 76.1601C308.755 75.7013 309.351 75.5866 309.809 75.5637C310.841 75.5637 311.895 75.5636 312.926 75.5407Z" fill="#3A3A3A"/>
<path d="M330.479 39.6858C331.373 40.397 332.198 41.2228 332.908 42.1174C333.046 42.301 333.046 42.7139 332.816 42.6221C332.06 42.0716 331.373 41.4522 330.731 40.7869C330.456 40.4887 330.158 39.984 330.479 39.6858Z" fill="#3A3A3A"/>
<path d="M336.368 62.1209C336.895 63.2221 337.422 64.3002 337.972 65.4013C336.872 64.7131 336.231 63.4056 336.368 62.1209Z" fill="#3A3A3A"/>
<path d="M335.223 33.2856C335.245 34.2262 335.956 34.9832 336.414 35.809C336.506 35.9925 336.552 36.3137 336.345 36.3596C335.108 35.2585 334.421 33.5609 334.512 31.9092C334.787 31.7716 335.131 32.0469 335.223 32.3451C335.291 32.6433 335.223 32.9645 335.223 33.2856Z" fill="#3A3A3A"/>
<path d="M331.969 66.1583C332.129 65.7225 332.679 65.4931 333.091 65.6537C332.816 65.9519 332.427 66.1583 332.014 66.1813L331.969 66.1583Z" fill="#3A3A3A"/>
<path d="M318.013 75.7242C317.349 75.7013 316.684 75.426 316.226 74.9443C315.997 74.7149 315.79 74.3708 315.928 74.0496C316.638 74.5543 317.349 75.1049 318.013 75.7242Z" fill="#3A3A3A"/>
<path d="M324.773 44.4344C324.636 44.5032 324.475 44.572 324.338 44.5491C324.246 44.5261 324.154 44.4802 324.109 44.3885C324.956 43.8838 325.896 43.5397 326.858 43.3791C326.171 43.7232 325.461 44.0673 324.773 44.4344Z" fill="#3A3A3A"/>
<path d="M244.73 88.9146C245.097 87.6759 246.174 86.6665 247.411 86.3683C246.632 87.3547 245.738 88.2035 244.73 88.9146Z" fill="#3A3A3A"/>
<path d="M244.066 98.7328C244.088 98.5034 244.157 98.297 244.272 98.1135C244.478 97.8153 244.822 97.6317 245.165 97.4941C244.936 98.5493 244.707 99.6275 244.547 100.683C244.134 100.132 243.974 99.421 244.066 98.7328Z" fill="#3A3A3A"/>
<path d="M315.401 25.2796C315.172 25.509 314.782 25.5549 314.507 25.3714C314.69 25.0502 315.149 24.9585 315.447 25.1879L315.401 25.2796Z" fill="#3A3A3A"/>
<path d="M335.36 54.3673C334.993 54.6196 334.329 54.7343 334.283 54.2985C335.727 53.9544 336.987 52.945 337.652 51.6145C337.812 51.5228 337.995 51.7063 337.995 51.8669C337.995 52.0504 337.858 52.188 337.743 52.3256C337.033 53.0597 336.231 53.7709 335.36 54.3673Z" fill="#3A3A3A"/>
<path d="M318.471 35.3502C317.211 35.6943 316.134 34.4556 315.103 33.6527C314.851 33.4691 314.553 33.2856 314.255 33.2627C313.041 33.2397 312.72 35.4649 311.505 35.3502C312.17 34.2032 313.109 33.2397 314.232 32.5286C314.461 32.391 314.805 32.2763 314.965 32.4827C315.928 33.6527 317.119 34.6391 318.471 35.3502Z" fill="#3A3A3A"/>
<path d="M247.48 92.4932C246.701 92.585 245.899 91.9197 245.876 91.1398C245.853 90.6351 245.12 90.6351 244.661 90.7957C246.357 88.9834 248.122 87.2629 249.978 85.6342C249.588 86.3683 249.084 87.0794 248.511 87.6988C247.824 88.4329 247.022 89.0752 246.632 89.9928C246.265 90.8874 246.54 92.195 247.48 92.4932Z" fill="#3A3A3A"/>
<path d="M353.005 104.261C353.005 103.229 353.005 102.197 353.005 101.164C343.61 112.611 334.329 124.196 325.209 135.872C329.379 135.689 333.55 135.528 337.72 135.345C339.989 135.253 342.785 134.771 343.449 132.615C344.732 128.532 349.659 126.651 351.538 122.82C352.294 121.26 352.501 119.493 352.684 117.75C354.036 104.124 354.861 89.3734 363.66 78.8899C362.996 79.0964 362.331 79.3029 361.667 79.5093C364.76 77.2612 368.45 74.8755 372.139 75.8848C376.401 77.0547 378.303 82.4456 377.203 86.7353C376.126 91.0251 372.941 94.4202 369.87 97.6088C372.093 94.0073 374.316 90.3828 376.539 86.7812C378.326 83.8679 376.608 79.6699 373.514 78.2247C370.42 76.7795 366.571 77.7888 364.004 80.0369C361.438 82.285 359.971 85.5654 359.192 88.8917C361.163 86.0013 363.34 82.9732 366.571 81.6886C369.825 80.404 374.362 81.918 374.935 85.359C375.233 87.1712 374.362 89.0064 373.101 90.3139C374.041 88.2723 374.958 85.8636 373.881 83.8908C372.391 81.161 368.221 81.4592 365.654 83.2256C358.023 88.4099 358.711 99.7651 354.586 108.023C356.007 106.716 357.45 105.408 358.871 104.078C358.069 105.064 357.267 106.051 356.465 107.037C357.657 107.129 358.848 106.693 359.719 105.89C359.375 106.831 358.779 107.656 357.977 108.253C362.492 110.616 366.8 113.391 370.833 116.488C366.662 114.401 362.606 112.038 358.711 109.446C364.073 116.695 374.82 119.356 378.166 127.729C371.933 120.159 363.981 114.034 355.09 109.905C354.701 119.883 360.498 129.839 369.343 134.427C371.314 135.459 373.583 136.239 375.714 135.666C377.868 135.092 379.586 132.661 378.716 130.619C378.28 129.61 377.845 127.82 378.922 128.004C379.082 130.16 380.136 132.225 381.763 133.647C380.641 127.086 376.562 121.099 370.902 117.635C374.522 119.952 378.235 122.476 380.343 126.215C382.451 129.977 382.336 135.322 378.968 137.983C376.172 140.185 372.047 139.864 368.931 138.166C365.814 136.469 363.477 133.67 361.231 130.94C365.173 134.978 369.939 139.336 375.553 138.832C377.18 138.694 378.876 138.052 379.861 136.721C380.847 135.414 380.916 133.326 379.701 132.225C379.38 134.381 377.364 136.033 375.21 136.423C373.056 136.813 370.833 136.194 368.862 135.23C360.338 131.055 356.098 121.374 353.807 112.153C353.005 118.736 352.226 125.297 351.424 131.881C351.286 133.12 351.057 134.473 350.072 135.253C349.315 135.826 348.307 135.918 347.368 135.964C312.468 137.914 277.476 138.671 242.53 138.235C242.049 138.235 241.43 138.327 241.293 138.786C241.155 139.245 242.232 139.267 241.957 138.877C238.428 138.258 237.81 133.487 238.085 129.885C239.162 114.768 240.262 99.6275 241.339 84.5102C241.407 85.5883 241.499 86.6665 241.568 87.7447C242.461 86.0701 242.714 84.0743 242.255 82.2391C253.965 82.6062 265.675 82.1933 277.339 81.0233C275.345 80.8169 273.283 80.5875 271.495 79.6469C269.708 78.7064 268.264 76.8712 268.402 74.8525C268.768 69.2552 269.135 63.6579 269.479 58.0606C267.897 64.9196 267.233 71.9851 267.531 79.0046C266.568 77.2383 266.706 75.1049 266.843 73.0862C267.806 60.6069 268.745 48.1277 269.708 35.6255C269.181 36.589 268.654 37.5524 268.127 38.5159C268.699 35.419 269.295 32.2992 269.868 29.2024C268.929 28.6289 270.235 26.8854 271.037 27.6195C279.309 27.5048 287.559 27.4131 295.831 27.2984C290.836 25.142 286.23 22.114 282.242 18.4207C279.126 15.5303 276.239 10.8964 278.507 7.29487C280.776 3.67038 286.23 4.24388 290.171 5.91848C298.352 9.40533 305.318 15.7138 309.557 23.5133C313.613 15.3926 320.465 8.69419 328.692 4.86325C329.402 4.54209 330.181 4.22094 330.937 4.40445C331.648 4.58797 332.152 5.16147 332.587 5.7579C335.429 9.72648 335.704 15.3697 333.252 19.5906C330.8 23.8115 325.759 26.3578 320.9 25.8532C325.094 25.7843 329.196 23.5821 331.533 20.1182C333.893 16.6543 334.42 12.0205 332.931 8.09776C332.587 7.18017 332.037 6.23964 331.121 5.91848C330.342 5.66614 329.517 5.91848 328.76 6.19376C324.956 7.63896 321.496 10.0247 318.792 13.0986C321.198 12.2957 323.375 10.8505 325.048 8.94653C324.475 9.84118 323.902 10.7358 323.307 11.6305C325.277 10.1623 328.302 12.2269 328.554 14.6585C328.806 17.0902 327.225 19.3383 325.484 21.0587C322.665 23.8345 319.159 25.922 315.378 27.1148C323.925 27.8489 332.564 27.7113 341.089 26.7478C343.449 29.0647 343.541 32.781 343.403 36.0843C343.128 43.058 342.555 50.0317 341.708 56.9595C341.524 55.3767 341.341 53.7938 341.158 52.211C340.195 60.584 339.21 68.957 338.247 77.33C338.179 77.9494 338.064 78.6147 337.606 79.0046C337.193 79.3487 336.597 79.3946 336.07 79.4176C326.698 79.7387 317.303 80.0828 307.93 80.404C322.78 80.6334 337.606 80.8857 352.455 81.1151C353.601 81.138 354.861 81.2069 355.64 82.0556C356.488 82.9962 356.327 84.4414 356.121 85.6801C355.113 91.8968 354.059 98.0676 353.005 104.261ZM307.266 102.403C311.986 96.0489 316.707 89.6946 321.428 83.3632C319.892 85.9095 318.449 88.5017 317.097 91.1398C317.646 91.7821 316.73 92.9291 315.974 92.5391C316.272 93.5485 315.561 94.5349 314.92 95.3378C303.508 109.423 292.073 123.485 280.661 137.57C282.563 136.951 283.915 135.345 285.176 133.785C288.407 129.816 291.638 125.871 294.869 121.902C291.179 126.88 287.49 131.858 283.778 136.859C296.908 135.551 310.13 134.932 323.329 135.001C318.792 135.276 314.278 135.551 309.741 135.804C313.728 136.469 317.807 136.629 321.84 136.285C322.734 136.216 323.696 136.056 324.269 135.368C330.571 127.591 336.872 119.815 343.174 112.015C343.587 111.51 343.747 110.409 343.082 110.478C338.774 115.249 334.443 120.021 330.135 124.792C335.979 115.617 345.626 109.262 351.172 99.9028C351.355 100.499 351.561 101.119 351.744 101.715C353.967 96.4847 355.25 90.8645 355.457 85.1754C355.503 84.1431 355.434 82.9503 354.609 82.3538C354.013 81.8951 353.188 81.918 352.432 81.9639C351.034 82.0327 349.636 82.1015 348.238 82.1703C348.605 82.5374 348.972 82.8815 349.361 83.2485C327.683 81.9409 305.937 81.8721 284.259 83.0879C284.832 83.1338 284.213 84.0055 283.64 84.0743C277.843 84.7396 271.953 84.6019 266.202 83.6385C265.56 83.5238 264.987 84.0514 264.529 84.5331C258.273 91.071 252.017 97.5859 245.761 104.124C244.661 105.271 243.516 106.464 242.897 107.932C242.301 109.331 242.164 110.868 242.049 112.382C241.522 119.333 240.972 126.306 240.445 133.257C240.353 134.427 241.247 135.482 242.324 135.964C243.401 136.446 244.593 136.469 245.761 136.469C248.236 136.492 250.711 136.515 253.209 136.561C253.942 136.561 254.652 136.583 255.363 136.4C256.852 136.01 257.975 134.84 259.006 133.693C264.529 127.591 269.639 121.076 274.222 114.24C274.337 115.984 273.145 117.521 272.022 118.874C267.279 124.609 262.512 130.344 257.769 136.079C258.433 136.423 259.144 135.804 259.625 135.253C274.451 118.232 288.842 100.797 302.752 83.0191C290.721 102.334 273.557 117.933 260.725 136.698C266.248 136.996 271.793 137.111 277.316 137.042C278.209 137.019 279.126 136.996 279.905 136.606C280.661 136.216 281.211 135.505 281.738 134.817C287.605 127.132 293.471 119.425 299.314 111.74C297.825 114.011 296.335 116.282 294.846 118.553C298.237 115.823 300.964 112.267 302.683 108.253C303.852 108.138 304.447 106.876 304.997 105.844C305.639 104.605 306.464 103.504 307.266 102.403ZM271.587 78.8211C278.118 79.8305 284.694 80.5875 291.294 81.0692C290.652 80.7251 290.011 80.404 289.392 80.0599C292.188 80.014 294.96 80.1975 297.733 80.5875C298.581 80.7022 299.36 79.9452 299.543 79.0964C299.727 78.2476 299.498 77.3759 299.268 76.5501C298.879 76.573 298.466 76.573 298.077 76.596C299.016 76.183 299.818 75.449 300.323 74.5543C300.185 76.5042 300.07 78.4311 299.933 80.381C300.437 80.7481 301.193 80.4269 301.491 79.8993C301.789 79.3717 301.789 78.7064 301.766 78.087C301.285 62.0751 305.501 46.1549 304.631 30.1429C304.585 29.1335 303.256 28.8124 302.225 28.8124C292.531 28.6289 282.815 28.5371 273.122 28.56C272.549 28.56 271.862 28.6059 271.518 29.0647C271.243 29.4088 271.243 29.8906 271.243 30.3264C271.243 31.2669 271.266 32.2304 271.266 33.1709C272.274 32.4139 273.283 31.6569 274.291 30.8999C275.322 32.4369 276.811 33.6297 278.53 34.295C276.628 34.3179 274.772 33.2398 273.832 31.5881C270.739 33.8821 270.693 38.4012 270.853 42.2551C271.335 53.9085 270.876 65.6078 269.501 77.1924C269.387 78.1788 270.624 78.6605 271.587 78.8211ZM340.585 44.0215C340.585 43.8379 340.585 43.6315 340.493 43.4709C340.012 42.691 338.797 44.2509 337.995 43.815C340.287 43.058 341.73 40.3052 341.043 37.9654C340.928 37.5754 340.424 37.1625 340.218 37.4836C340.562 34.5015 340.928 31.5422 341.272 28.56C331.441 28.4453 321.588 28.3306 311.757 28.216C309.145 44.7785 307.724 61.5016 307.495 78.2476C307.495 78.5688 307.495 78.9358 307.701 79.1882C307.999 79.5552 308.526 79.5552 308.985 79.5093C317.692 78.9129 326.423 78.8211 335.154 79.234C335.841 79.257 336.666 79.234 337.033 78.6376C337.17 78.4082 337.216 78.11 337.239 77.8347C337.743 73.912 338.224 69.9664 338.729 66.0437C338.958 64.3002 339.164 62.5339 339.37 60.7904C340.012 55.239 340.424 49.6188 340.585 44.0215ZM242.393 98.4576C242.232 99.5816 242.095 100.706 242.141 101.83C242.255 103.688 242.874 105.775 241.728 107.221C249.153 99.3063 256.577 91.3921 264.002 83.4779C257.861 84.0285 251.696 84.579 245.555 85.1525C245.165 85.1984 244.73 85.2443 244.432 85.5195C244.134 85.7948 244.066 86.2307 244.02 86.6436C243.47 90.5434 242.92 94.5119 242.393 98.4576ZM308.893 36.8413C309.191 33.9968 309.718 30.9687 311.666 28.9041C310.107 28.7436 308.572 28.6059 307.014 28.4453C306.487 28.3995 305.891 28.3765 305.547 28.7665C305.249 29.0877 305.249 29.5694 305.272 30.0053C305.433 33.9738 305.57 37.9195 305.731 41.8881C305.776 42.9892 305.799 44.1591 305.295 45.1455C304.883 45.9713 304.791 46.9119 304.722 47.8524C303.92 57.9689 303.141 68.0853 302.339 78.2017C302.27 79.0505 302.225 79.9681 302.752 80.6334C303.324 81.0922 303.989 80.1287 304.104 79.4176C304.608 76.6189 305.112 73.8202 305.616 71.0216C306.074 68.5212 306.533 65.9978 306.876 63.4744C308.091 54.6426 307.953 45.6961 308.893 36.8413ZM283.617 14.7503C286.619 18.1454 290.309 20.9211 294.387 22.8939C298.077 24.6832 302.041 25.7843 306.006 26.8625C306.097 26.8854 306.212 26.9084 306.303 26.8854C306.624 26.7707 306.464 26.3119 306.258 26.0367C301.583 20.0723 296.519 13.8098 289.415 11.1717C287.948 10.6211 286.275 10.2541 284.832 10.8964C283.411 11.5387 282.563 13.5804 283.617 14.7503ZM306.212 20.8064C302.797 15.5991 298.169 11.1717 292.783 8.02894C289.438 6.05612 285.359 4.56503 281.715 5.8726C281.097 6.102 280.432 6.81313 280.89 7.27193C279.424 7.59308 278.53 9.24475 278.599 10.7588C278.691 12.2728 279.515 13.6262 280.455 14.8191C284.167 19.5677 289.644 22.5269 295.006 25.2797C295.739 25.6696 296.931 25.8761 297.16 25.0732C292.302 23.0545 287.788 20.1641 283.938 16.5625C282.884 15.5761 281.807 14.3833 281.807 12.9381C281.807 11.4928 282.953 10.2541 284.305 9.77236C285.657 9.29063 287.146 9.42827 288.544 9.77236C295.419 11.424 300.46 17.159 305.02 22.5728C305.708 23.3757 306.395 24.2015 306.876 25.142C307.243 25.8302 307.472 26.5872 307.61 27.3672C308.641 25.2797 307.495 22.7792 306.212 20.8064ZM308.48 26.5413C309.26 27.5736 310.841 27.4589 312.078 27.1378C316.157 26.1514 320.076 24.4079 323.307 21.724C325.231 20.1182 326.904 18.1224 327.615 15.7367C327.89 14.7732 327.958 13.5574 327.179 12.9151C326.881 12.6628 326.515 12.5251 326.148 12.4563C324.475 12.0663 322.688 12.5022 321.175 13.328C319.663 14.1539 318.38 15.3238 317.119 16.5167C313.865 19.4988 310.612 22.6416 308.48 26.5413ZM347.597 134.381C348.124 134.519 348.605 134.932 349.132 134.909C350.072 134.863 350.461 133.716 350.622 132.798C351.08 129.977 351.401 127.132 351.63 124.265C351.034 124.563 350.645 125.182 350.301 125.756C348.215 129.082 345.718 132.133 342.899 134.863C344.274 135.712 346.039 133.945 347.597 134.381ZM240.307 119.241C239.735 122.544 239.299 125.894 239.001 129.22C239.597 128.784 239.872 128.027 240.055 127.316C240.972 123.783 241.087 120.113 241.224 116.465C241.316 113.85 241.407 111.212 241.499 108.597C241.155 108.505 240.949 108.987 240.903 109.354C240.514 112.726 240.124 116.075 239.735 119.447C239.666 119.998 239.597 120.549 239.712 121.076C239.872 120.48 240.101 119.86 240.307 119.241ZM341.41 32.9645C341.203 33.3545 340.951 33.8821 341.249 34.2032C341.937 34.9373 341.96 36.0614 341.891 37.0707C341.662 40.7181 341.043 44.3885 341.639 47.9671C342.441 47.1872 342.487 45.9484 342.51 44.8244C342.532 40.0758 342.578 35.3043 342.601 30.5558C342.601 30.3035 342.601 30.0511 342.464 29.8447C342.326 29.6382 342.028 29.5235 341.822 29.6612C342.097 30.7623 341.937 31.9551 341.41 32.9645ZM306.051 70.104C306.097 72.8568 305.708 75.6095 304.837 78.2017C304.676 78.7064 304.493 79.234 304.539 79.7617C304.608 80.2893 304.997 80.8398 305.524 80.8398C305.983 80.8628 306.372 80.4957 306.533 80.0828C306.716 79.6699 306.693 79.2111 306.693 78.7523C306.67 76.1142 306.647 73.4532 306.624 70.8151C306.647 70.4481 306.395 69.8975 306.051 70.104ZM282.586 83.9826C282.884 83.7073 283.205 83.432 283.503 83.1567C279.355 82.3997 275.116 82.308 270.945 82.8815C270.876 83.4549 271.678 83.6843 272.274 83.7073C274.612 83.7302 276.972 83.6614 279.309 83.5238C280.432 83.432 281.647 83.3632 282.586 83.9826ZM303.806 27.0001C302.202 26.5643 300.598 26.1055 298.993 25.6696C298.512 25.532 297.916 25.4402 297.619 25.8302C299.383 27.4131 301.904 28.0783 304.218 27.5966C304.447 27.3901 304.104 27.069 303.806 27.0001ZM356.557 97.0353C357.175 95.3378 357.817 93.6402 358.436 91.9427C358.711 91.2086 358.986 90.3369 358.619 89.6487C358.092 90.2681 357.794 91.071 357.771 91.8968C356.877 93.4108 356.442 95.2231 356.557 97.0353ZM241.407 97.7923C241.728 95.4295 242.026 93.0897 242.347 90.7269C242.393 90.3139 242.393 89.7863 242.026 89.6028C241.728 89.901 241.659 90.3828 241.614 90.7957C241.43 92.6997 241.224 94.6037 241.041 96.5077C241.018 96.9894 241.018 97.5629 241.407 97.7923ZM262.146 133.854C261.183 134.358 260.312 135.001 259.556 135.781C259.258 136.079 258.983 136.561 259.258 136.882C260.519 136.262 261.573 135.161 262.146 133.854ZM269.112 48.4488C269.754 47.6918 269.914 46.6595 270.051 45.6731C270.12 45.1455 270.143 44.5032 269.708 44.205C269.066 45.5126 268.86 47.0266 269.112 48.4488ZM371.658 77.0318C371.818 76.7565 371.429 76.5042 371.131 76.4354C369.779 76.1601 368.335 76.3207 367.075 76.8483C368.45 76.963 369.802 77.0547 371.177 77.1694C371.337 77.1694 371.566 77.1694 371.658 77.0318ZM290.629 136.4C290.629 136.79 291.088 136.973 291.477 136.996C292.073 137.065 292.692 137.019 293.288 136.882C292.646 136.194 291.5 135.987 290.629 136.4ZM357.909 94.6496C357.84 95.0166 358.069 95.4066 358.413 95.5442C358.573 95.1084 358.757 94.6954 358.917 94.2596C358.527 94.1678 358.115 94.3055 357.863 94.6037L357.909 94.6496ZM239.574 134.955C239.849 134.588 239.895 134.083 239.689 133.693C239.414 133.9 239.139 134.129 239.07 134.473C239.001 134.817 239.345 135.207 239.666 135.047L239.574 134.955ZM357.382 109.239C357.336 108.758 356.694 108.482 356.327 108.758C356.419 108.987 356.534 109.193 356.625 109.423C356.9 109.492 357.198 109.446 357.45 109.331L357.382 109.239ZM269.708 43.5397C270.051 43.0121 270.12 42.301 269.868 41.7275C269.547 42.2322 269.433 42.8974 269.593 43.4939L269.708 43.5397ZM238.428 131.055C238.428 131.261 238.428 131.468 238.405 131.674C238.68 131.812 239.001 131.514 239.001 131.216C239.001 130.917 238.818 130.642 238.635 130.413C238.543 130.619 238.428 130.826 238.337 131.032L238.428 131.055ZM253.209 83.3632C252.842 83.4091 252.475 83.4549 252.109 83.4779C252.43 83.7073 252.796 83.8679 253.209 83.9367C253.392 83.7532 253.438 83.2714 253.186 83.3632H253.209ZM350.37 102.931C350.69 102.862 350.874 102.472 350.782 102.174C350.484 102.357 350.209 102.541 349.911 102.701C349.682 102.931 350.255 103.275 350.37 102.977V102.931ZM354.128 110.455C353.692 110.616 353.555 111.281 353.898 111.602C354.242 111.304 354.334 110.776 354.105 110.386L354.128 110.455ZM306.647 68.0165C306.739 67.6724 306.716 67.1677 306.372 67.1448C306.441 67.81 306.51 68.4523 306.578 69.1176C306.716 68.7735 306.739 68.4065 306.67 68.0394L306.647 68.0165ZM306.074 104.628C306.189 104.468 305.845 104.261 305.753 104.445C305.685 104.697 305.593 104.95 305.524 105.225C305.685 105.362 305.96 105.362 306.12 105.225C306.097 105.041 306.097 104.835 306.074 104.628ZM256.44 83.2944C256.073 83.1338 255.615 83.1567 255.248 83.3402C255.615 83.4779 256.004 83.6155 256.371 83.7532C256.394 83.5926 256.44 83.455 256.463 83.2944H256.44ZM283.136 137.065C282.976 137.157 282.815 137.226 282.655 137.318C282.747 137.501 282.838 137.685 282.953 137.845C283.274 137.73 283.526 137.432 283.594 137.088C283.434 137.065 283.296 137.019 283.136 136.996V137.065ZM293.929 82.6291C294.09 82.1703 293.196 81.8492 293.035 82.308C293.265 82.5144 293.585 82.6062 293.883 82.6062L293.929 82.6291ZM357.519 97.7464C357.13 97.6088 356.74 98.2282 357.061 98.5034C357.313 98.3658 357.496 98.0676 357.496 97.7923L357.519 97.7464ZM309.214 136.148C309.26 135.987 309.237 135.804 309.122 135.666C308.962 135.62 308.778 135.666 308.618 135.758C308.595 136.056 308.962 136.308 309.214 136.148ZM346.955 128.899C346.932 129.059 347.093 129.22 347.253 129.197C347.345 128.967 347.459 128.738 347.551 128.509C347.322 128.394 347.001 128.646 347.047 128.899H346.955ZM307.495 21.2193C307.243 21.0358 306.922 21.5405 307.197 21.701C307.335 21.7928 307.541 21.7699 307.633 21.6552C307.724 21.5175 307.633 21.2881 307.472 21.2881L307.495 21.2193ZM288.086 82.5144C288.132 82.3309 288.086 82.1244 287.971 81.9868C287.811 82.1015 287.65 82.1933 287.513 82.308C287.582 82.5374 287.88 82.6521 288.109 82.5603L288.086 82.5144Z" fill="#3A3A3A"/>
</g>
<g clip-path="url(#clip1)">
<path d="M269.134 140.108C267.984 139.566 266.901 138.84 265.977 137.952C265.469 137.475 264.984 136.882 264.887 136.195C266.387 137.423 267.795 138.719 269.134 140.108Z" fill="#3A3A3A"/>
<path d="M148.845 131.243C148.838 130.143 149.06 129.065 149.512 128.054C149.896 127.203 150.418 126.421 150.964 125.661C150.679 127.656 149.958 129.563 148.845 131.243Z" fill="#3A3A3A"/>
<path d="M151.214 135.627C151.458 137.849 151.519 140.071 151.443 142.317C151.061 140.097 150.977 137.852 151.214 135.627Z" fill="#3A3A3A"/>
<path d="M303.901 172.668C303.787 172.829 303.673 172.967 303.56 173.129C302.891 172.675 302.632 171.714 302.972 170.978C303.547 171.295 303.919 171.958 303.854 172.622L303.901 172.668Z" fill="#3A3A3A"/>
<path d="M269.668 154.679C269.303 154.934 268.819 154.639 268.473 154.343C267.273 153.297 266.05 152.274 264.85 151.228C265.238 150.951 265.745 151.268 266.091 151.587C267.291 152.61 268.491 153.656 269.668 154.679Z" fill="#3A3A3A"/>
<path d="M202.168 160.173C202.505 159.025 203.186 157.966 204.121 157.181C203.808 158.351 203.104 159.41 202.168 160.173Z" fill="#3A3A3A"/>
<path d="M225.731 50.9586C226.769 51.7766 227.624 52.8021 228.251 53.9666C227.191 53.1946 226.312 52.1693 225.731 50.9586Z" fill="#3A3A3A"/>
<path d="M142.107 104.844C142.892 105.503 143.676 106.185 144.438 106.845C144.668 107.049 144.9 107.369 144.718 107.599C143.658 106.873 142.757 105.939 142.107 104.844Z" fill="#3A3A3A"/>
<path d="M222.732 48.4809C223.538 48.9796 224.345 49.4784 225.151 50C224.121 50.3048 222.9 49.5339 222.732 48.4809Z" fill="#3A3A3A"/>
<path d="M241.77 61.8737C244.613 61.5568 247.359 60.5072 249.687 58.8187C250.851 57.963 252.085 57.1986 253.365 56.5025C251.843 58.7126 249.398 60.1039 246.927 61.1746C245.303 61.873 243.472 62.4581 241.77 61.8737Z" fill="#3A3A3A"/>
<path d="M205.228 147.686C205.253 148.052 205.003 148.444 204.637 148.561C204.7 147.621 204.946 146.68 205.399 145.852C205.334 146.471 205.269 147.09 205.205 147.686L205.228 147.686Z" fill="#3A3A3A"/>
<path d="M249.263 190.702C249.673 190.309 250.292 190.191 250.821 190.416C250.206 191.085 249.222 191.389 248.348 191.166C248.507 190.844 248.895 190.658 249.263 190.702Z" fill="#3A3A3A"/>
<path d="M135.574 98.7231C136.222 99.5895 136.893 100.433 137.541 101.299C137.68 101.482 137.82 101.756 137.66 101.917C136.782 100.961 136.087 99.8883 135.574 98.7231Z" fill="#3A3A3A"/>
<path d="M264.611 94.9257C263.784 94.8167 263.001 94.3636 262.492 93.6796C263.364 93.7196 264.17 94.1954 264.611 94.9257Z" fill="#3A3A3A"/>
<path d="M271.513 183.495C271.399 183.725 271.148 183.887 270.896 183.934C270.709 183.34 271.14 182.65 271.736 182.554C271.852 182.874 271.763 183.264 271.49 183.495L271.513 183.495Z" fill="#3A3A3A"/>
<path d="M258.78 87.4255C258.893 87.2643 259.007 87.126 259.121 86.9649C259.515 87.6268 259.567 88.4743 259.227 89.1641C259.04 88.6154 258.944 88.0431 258.918 87.4704L258.78 87.4255Z" fill="#3A3A3A"/>
<path d="M265.342 138.988C265.112 138.875 264.882 138.785 264.674 138.672C264.627 138.511 264.672 138.328 264.763 138.19C265.223 138.347 265.637 138.619 265.915 139.007C265.779 139.168 265.48 139.147 265.387 138.965L265.342 138.988Z" fill="#3A3A3A"/>
<path d="M287.099 171.314C287.467 171.426 287.835 171.561 288.203 171.673C287.701 172.066 286.897 171.911 286.549 171.386C286.732 171.339 286.916 171.292 287.099 171.222L287.099 171.314Z" fill="#3A3A3A"/>
<path d="M243.161 183.891C243.233 184.326 242.523 184.514 242.223 184.218C241.899 183.922 241.896 183.418 241.916 182.983C242.308 183.301 242.723 183.619 243.116 183.96L243.161 183.891Z" fill="#3A3A3A"/>
<path d="M300.674 156.74C300.443 156.536 300.213 156.354 300.005 156.149C300.717 156.259 301.362 156.667 301.756 157.283C301.365 157.194 300.997 156.99 300.72 156.717L300.674 156.74Z" fill="#3A3A3A"/>
<path d="M263.175 185.407C263.017 185.82 262.468 186.053 262.054 185.85C262.167 185.597 262.28 185.321 262.508 185.205C262.737 185.066 263.128 185.178 263.152 185.453L263.175 185.407Z" fill="#3A3A3A"/>
<path d="M222.746 47.1975C223.274 47.1481 223.804 47.5342 223.922 48.0375C223.462 47.926 223.025 47.631 222.769 47.2203L222.746 47.1975Z" fill="#3A3A3A"/>
<path d="M282.987 184.106C282.965 184.312 282.967 184.541 282.945 184.747C282.484 184.361 282.57 183.49 283.095 183.211C283.052 183.509 283.008 183.808 282.941 184.106L282.987 184.106Z" fill="#3A3A3A"/>
<path d="M184.185 170.789C184.209 170.949 184.234 171.109 184.258 171.269C184.075 171.362 183.915 171.478 183.732 171.571C183.638 171.251 183.842 170.883 184.14 170.789L184.185 170.789Z" fill="#3A3A3A"/>
<path d="M258.501 182.78C258.179 182.782 257.858 182.761 257.537 182.764C257.833 182.464 258.497 182.299 258.523 182.711L258.501 182.78Z" fill="#3A3A3A"/>
<path d="M256.009 187.472C255.849 187.587 255.663 187.268 255.823 187.129C255.982 186.99 256.212 187.035 256.396 187.125C256.58 187.193 256.81 187.283 256.993 187.19C256.902 187.351 256.835 187.535 256.744 187.696C256.491 187.606 256.238 187.516 256.008 187.426L256.009 187.472Z" fill="#3A3A3A"/>
<path d="M164.723 148.851C165.045 148.94 165.366 149.03 165.688 149.119C165.391 149.328 164.909 149.239 164.7 148.92L164.723 148.851Z" fill="#3A3A3A"/>
<path d="M263.776 186.09C263.82 185.838 264.187 185.767 264.394 185.926C264.602 186.085 264.673 186.359 264.72 186.611C264.4 186.797 263.916 186.479 263.96 186.112L263.776 186.09Z" fill="#3A3A3A"/>
<path d="M263.929 119.909C263.95 116.196 263.971 112.484 263.969 108.771C263.965 108.038 263.982 107.282 264.138 106.547C264.737 106.933 264.766 107.78 264.725 108.491C264.452 112.297 264.202 116.103 263.929 119.909Z" fill="#3A3A3A"/>
<path d="M280 162.928C280.208 163.042 280.37 163.247 280.417 163.499C280.233 163.477 280.027 163.432 279.911 163.273C279.795 163.113 279.839 162.838 280.046 162.836L280 162.928Z" fill="#3A3A3A"/>
<path d="M277.088 187.055C276.952 187.308 276.493 187.334 276.331 187.083C276.56 186.944 276.881 186.942 277.134 187.078L277.088 187.055Z" fill="#3A3A3A"/>
<path d="M125.175 145.655C125.222 145.839 124.879 145.91 124.786 145.727C124.693 145.567 124.76 145.36 124.828 145.177C124.921 145.336 125.037 145.496 125.13 145.679L125.175 145.655Z" fill="#3A3A3A"/>
<path d="M286.776 181.33C286.547 181.309 286.613 180.873 286.842 180.849C287.071 180.801 287.279 181.006 287.463 181.165C287.258 181.281 287.005 181.306 286.776 181.239L286.776 181.33Z" fill="#3A3A3A"/>
<path d="M208.188 89.5975C208.345 89.0923 208.48 88.6102 208.637 88.105C208.826 88.9058 208.74 89.7543 208.4 90.4898C208.124 90.2854 208.052 89.8963 208.188 89.5975Z" fill="#3A3A3A"/>
<path d="M252.938 167.487C252.801 167.533 252.618 167.557 252.502 167.444C252.433 167.375 252.409 167.284 252.432 167.215C253.095 166.958 253.782 166.771 254.493 166.651C254.037 167.044 253.488 167.345 252.938 167.487Z" fill="#3A3A3A"/>
<path d="M240.38 169.404C240.501 170.32 240.461 171.26 240.284 172.154C240.217 172.522 240.082 172.935 239.74 173.144C239.533 173.099 239.371 172.94 239.324 172.757C239.73 171.631 240.066 170.529 240.38 169.404Z" fill="#3A3A3A"/>
<path d="M210.195 77.6221C209.878 78.1742 209.745 78.8396 209.841 79.4577C209.264 78.9345 209.44 77.8104 210.172 77.5076L210.195 77.6221Z" fill="#3A3A3A"/>
<path d="M208.731 74.8132C208.571 74.8601 208.387 74.8384 208.249 74.7477C208.339 74.4492 208.429 74.1736 208.518 73.8751C208.773 74.1255 208.867 74.5144 208.777 74.8587L208.731 74.8132Z" fill="#3A3A3A"/>
<path d="M236.335 116.908C236.014 116.864 235.714 116.66 235.551 116.363C235.895 116.292 236.264 116.542 236.312 116.885L236.335 116.908Z" fill="#3A3A3A"/>
<path d="M260.609 161.867C260.748 162.164 260.751 162.53 260.615 162.852C260.476 162.555 260.473 162.188 260.609 161.867Z" fill="#3A3A3A"/>
<path d="M208.419 72.7758C208.188 72.5253 208.163 72.113 208.344 71.8368C208.69 72.0178 208.762 72.5443 208.466 72.8213L208.419 72.7758Z" fill="#3A3A3A"/>
<path d="M308.421 152.266C308.214 152.198 308.303 151.831 308.51 151.853C308.67 151.829 308.809 152.011 308.764 152.172C308.719 152.332 308.513 152.402 308.375 152.289L308.421 152.266Z" fill="#3A3A3A"/>
<path d="M209.832 95.2697C209.325 94.9522 208.772 94.6351 208.425 94.1333C207.892 93.4035 207.816 92.3499 208.27 91.5678C208.188 92.9891 209.366 94.1728 210.541 94.9441C211.739 95.7381 213.097 96.4165 213.793 97.6493C212.458 96.8791 211.145 96.0629 209.832 95.2697Z" fill="#3A3A3A"/>
<path d="M253.664 162.807C255.005 164.31 256.345 165.814 257.686 167.294C258.264 167.955 258.865 168.616 259.442 169.253C259.674 169.527 259.815 170.076 259.448 170.101C256.952 167.391 254.457 164.681 251.938 161.948C252.602 161.76 253.225 162.306 253.664 162.807Z" fill="#3A3A3A"/>
<path d="M156.403 119.208C157.023 119.181 157.617 118.902 158.027 118.441C158.961 117.426 158.927 115.754 159.953 114.807C160.032 116.411 159.355 118.019 158.146 119.059C157.713 119.428 157.878 120.183 158.248 120.616C158.618 121.049 159.148 121.366 159.472 121.823C159.796 122.279 159.848 123.08 159.322 123.336C158.509 121.875 157.536 120.483 156.403 119.208Z" fill="#3A3A3A"/>
<path d="M196.517 141.809C198.323 140.903 199.827 139.404 200.756 137.633C200.399 139.194 199.654 140.963 198.097 141.34C197.501 141.482 197.415 142.353 197.786 142.855C198.133 143.357 198.731 143.605 199.192 143.991C199.677 144.377 200.048 145.04 199.777 145.568C198.599 144.385 197.512 143.132 196.517 141.809Z" fill="#3A3A3A"/>
<path d="M159.344 126.636C159.588 128.811 158.043 131.067 155.936 131.631C156.838 132.725 157.763 133.819 158.665 134.936C158.896 135.209 159.128 135.506 159.153 135.849C159.201 136.193 158.952 136.607 158.607 136.586C158.159 134.687 156.361 133.462 155.181 131.911C154.996 131.66 154.924 131.203 155.222 131.155C156.299 131.056 157.235 130.362 157.895 129.51C158.554 128.635 158.96 127.624 159.344 126.636Z" fill="#3A3A3A"/>
<path d="M174.412 139.803C173.977 139.921 173.45 139.993 173.127 139.697C176.011 138.738 178.637 136.979 180.617 134.674C179.395 137.134 177.068 139.052 174.412 139.803Z" fill="#3A3A3A"/>
<path d="M188.594 143.925C188.365 144.018 188.113 144.134 187.883 144.067C187.745 144.022 187.607 143.931 187.538 143.817C189.619 142.841 191.513 141.43 193.039 139.724C192.709 141.835 190.538 143.041 188.594 143.925Z" fill="#3A3A3A"/>
<path d="M164.903 138.079C165.748 137.432 166.615 136.762 167.09 135.819C167.838 134.37 167.504 132.585 166.738 131.169C165.971 129.754 164.771 128.593 163.662 127.409C164.738 127.15 165.883 126.821 166.565 125.969C167.362 124.955 167.351 123.397 168.355 122.588C168.322 124.513 167.279 126.399 165.658 127.418C165.269 127.65 164.837 128.203 165.229 128.452C166.565 129.291 167.629 130.568 168.097 132.077C168.566 133.586 168.371 135.306 167.462 136.573C166.894 137.379 166.095 137.98 165.296 138.581C164.68 139.043 163.972 139.529 163.214 139.397C163.785 138.958 164.332 138.519 164.903 138.079Z" fill="#3A3A3A"/>
<path d="M168.023 114.134C167.613 114.527 167.18 114.919 166.908 115.425C166.659 115.931 166.617 116.596 166.964 117.052C167.751 118.078 168.47 119.15 169.097 120.291C168.984 120.567 168.569 120.341 168.384 120.09C167.458 118.767 166.554 117.421 165.628 116.098C166.356 115.291 167.039 114.485 167.722 113.632C167.837 113.792 167.93 113.952 168.023 114.134Z" fill="#3A3A3A"/>
<path d="M166.761 144.896C165.744 143.734 165.046 142.295 164.738 140.784C166.006 141.738 166.773 143.315 166.761 144.896Z" fill="#3A3A3A"/>
<path d="M192.32 138.583C191.504 136.687 190.62 134.836 189.668 133.032C191.488 134.189 192.558 136.428 192.32 138.583Z" fill="#3A3A3A"/>
<path d="M197.418 129.039C199.124 130.357 200.398 132.181 201.077 134.216C201.124 134.376 201.149 134.628 200.988 134.675C199.668 132.851 198.486 130.98 197.418 129.039Z" fill="#3A3A3A"/>
<path d="M192.256 125.567C191.627 124.128 190.7 122.805 189.592 121.69C191.432 122.434 192.729 124.327 192.766 126.32C192.489 126.139 192.372 125.842 192.256 125.567Z" fill="#3A3A3A"/>
<path d="M179.205 125.838C178.911 126.528 178.387 127.127 177.748 127.544C177.085 127.961 176.261 128.149 175.525 127.948C176.783 127.298 178.017 126.602 179.205 125.838Z" fill="#3A3A3A"/>
<path d="M180.283 132.66C179.449 131.428 178.614 130.196 177.757 128.964C179.298 129.458 180.41 131.055 180.283 132.66Z" fill="#3A3A3A"/>
<path d="M179.761 119.899C179.53 119.58 179.504 119.145 179.685 118.8C180.149 119.622 180.317 120.629 180.162 121.569C179.815 121.091 179.673 120.45 179.807 119.876L179.761 119.899Z" fill="#3A3A3A"/>
<path d="M189.876 119.534C190.809 118.405 191.764 117.275 192.882 116.282C192.342 117.913 191.182 119.342 189.696 120.199C189.557 119.994 189.716 119.718 189.876 119.534Z" fill="#3A3A3A"/>
<path d="M188.745 132.237C188.448 132.399 188.036 132.539 187.85 132.265C189.588 131.475 191.164 130.318 192.416 128.866C192.761 129.047 192.489 129.576 192.193 129.83C191.121 130.754 189.956 131.541 188.745 132.237Z" fill="#3A3A3A"/>
<path d="M177.264 144.367C177.116 142.879 176.258 141.486 174.991 140.67C175.379 140.324 175.955 140.755 176.256 141.189C176.997 142.215 177.533 143.38 177.839 144.615C177.655 144.525 177.471 144.457 177.264 144.367Z" fill="#3A3A3A"/>
<path d="M201.345 122.825C200.828 124.479 200.174 126.064 199.427 127.628C199.223 128.042 198.673 128.091 198.238 128.186C197.803 128.28 197.278 128.696 197.487 129.084C197.027 128.996 197.045 128.262 197.411 127.962C197.776 127.662 198.28 127.612 198.691 127.381C200.269 126.545 199.884 123.889 201.345 122.825Z" fill="#3A3A3A"/>
<path d="M190.044 106.975C188.934 105.63 187.253 104.793 185.509 104.713C187.613 103.622 189.367 101.823 190.385 99.6622C190.777 100.026 190.53 100.715 190.234 101.153C189.462 102.327 188.436 103.319 187.249 104.083C188.332 104.855 189.302 105.857 190.044 106.975Z" fill="#3A3A3A"/>
<path d="M159.621 89.2582C159.33 90.2914 158.371 90.9624 157.48 91.5641C157.115 91.8186 157.417 92.3895 157.717 92.7083C158.525 93.505 159.334 94.3245 160.119 95.1213C159.663 95.491 159.017 95.0141 158.624 94.5584C157.723 93.5103 156.821 92.4852 155.896 91.4372C157.153 90.7184 158.387 89.9998 159.621 89.2582Z" fill="#3A3A3A"/>
<path d="M179.21 85.5292C178.987 86.539 178.489 87.5048 177.76 88.243C177.464 88.5429 177.697 89.0684 177.928 89.4106C179.017 91.0303 180.084 92.6502 181.173 94.2699C180.761 94.4102 180.413 93.9313 180.204 93.5202C179.32 91.7387 178.117 90.1426 176.64 88.8005C177.504 87.7177 178.369 86.6348 179.21 85.5292Z" fill="#3A3A3A"/>
<path d="M185.468 91.6059C186.758 92.5368 188.026 93.4678 189.317 94.3758C189.778 94.7165 190.262 95.0799 190.564 95.5591C190.865 96.0612 190.939 96.7253 190.598 97.2088C190.154 96.0202 189.344 94.9715 188.307 94.2451C187.201 93.4963 185.752 92.9102 185.468 91.6059Z" fill="#3A3A3A"/>
<path d="M162.198 100.63C164.717 100.063 167.001 98.5355 168.501 96.463C167.963 98.3687 166.23 99.8698 164.282 100.158C163.938 100.206 163.781 100.665 163.921 101.008C164.06 101.328 164.36 101.555 164.637 101.76C166.043 102.804 167.177 104.195 167.921 105.771C165.869 104.18 164.567 101.623 162.198 100.63Z" fill="#3A3A3A"/>
<path d="M158.874 83.878C159.753 85.0179 160.404 86.2968 160.803 87.6691C159.625 86.4395 158.675 84.9793 158.022 83.4254C158.342 83.3087 158.666 83.6044 158.874 83.878Z" fill="#3A3A3A"/>
<path d="M176.872 99.5694C178.495 98.596 180.094 97.6229 181.716 96.6495C180.466 98.3766 178.639 99.6492 176.601 100.213C176.371 100.031 176.644 99.7084 176.872 99.5694Z" fill="#3A3A3A"/>
<path d="M180.51 104.907C180.557 105.113 180.604 105.319 180.583 105.526C180.584 105.709 180.471 105.962 180.264 105.917C179.657 104.271 178.889 102.672 177.961 101.166C179.252 102.051 180.178 103.397 180.51 104.907Z" fill="#3A3A3A"/>
<path d="M187.211 91.5484C188.327 90.418 189.559 89.4244 190.884 88.5676C190.275 90.107 188.838 91.2854 187.211 91.5484Z" fill="#3A3A3A"/>
<path d="M197.969 87.9931C197.604 88.2706 197.561 88.8208 197.725 89.2322C197.888 89.6436 198.234 89.985 198.535 90.3267C199.598 91.5112 200.388 92.9496 200.788 94.4823C200.93 95.0772 201.003 95.7871 200.524 96.1799C199.933 93.5714 198.632 91.151 196.807 89.2154C196.391 88.7828 196.96 88.1144 197.416 87.7218C198.899 86.4744 199.735 84.6127 200.527 82.8429C200.563 84.8363 199.59 86.8136 197.969 87.9931Z" fill="#3A3A3A"/>
<path d="M200 103.631C200.51 104.407 200.815 105.321 200.867 106.261C200.893 106.787 200.851 107.338 200.648 107.843C200.189 107.8 200.07 107.205 200.044 106.747C200.037 105.716 200.03 104.662 200 103.631Z" fill="#3A3A3A"/>
<path d="M164.029 86.3184C164.734 85.42 165.554 84.5895 166.444 83.8732C166.627 83.7344 167.04 83.7317 166.949 83.9614C166.404 84.7213 165.789 85.4129 165.128 86.059C164.832 86.3359 164.329 86.6372 164.029 86.3184Z" fill="#3A3A3A"/>
<path d="M186.424 80.2791C187.522 79.7447 188.596 79.2104 189.694 78.6531C189.013 79.7576 187.71 80.4079 186.424 80.2791Z" fill="#3A3A3A"/>
<path d="M157.597 81.6179C158.537 81.5887 159.29 80.8733 160.112 80.4094C160.295 80.3165 160.616 80.2686 160.663 80.4745C159.571 81.7193 157.878 82.4181 156.225 82.3375C156.086 82.0634 156.359 81.7179 156.656 81.6242C156.954 81.5535 157.276 81.62 157.597 81.6179Z" fill="#3A3A3A"/>
<path d="M190.491 84.6517C190.054 84.4942 189.821 83.9458 189.979 83.5322C190.279 83.8052 190.488 84.1934 190.513 84.6057L190.491 84.6517Z" fill="#3A3A3A"/>
<path d="M200.15 98.5427C200.131 99.2074 199.861 99.8737 199.382 100.335C199.154 100.566 198.811 100.774 198.489 100.639C198.989 99.9254 199.535 99.2114 200.15 98.5427Z" fill="#3A3A3A"/>
<path d="M168.815 91.9924C168.885 92.1294 168.955 92.2893 168.933 92.427C168.911 92.5188 168.865 92.6108 168.774 92.6572C168.264 91.8127 167.913 90.8755 167.746 89.9142C168.095 90.5993 168.444 91.3074 168.815 91.9924Z" fill="#3A3A3A"/>
<path d="M213.831 171.736C212.59 171.377 211.573 170.307 211.266 169.072C212.258 169.844 213.113 170.732 213.831 171.736Z" fill="#3A3A3A"/>
<path d="M223.653 172.335C223.424 172.313 223.217 172.246 223.032 172.133C222.733 171.928 222.547 171.586 222.407 171.243C223.464 171.465 224.543 171.687 225.6 171.84C225.052 172.256 224.342 172.422 223.653 172.335Z" fill="#3A3A3A"/>
<path d="M149.724 101.493C149.955 101.72 150.003 102.11 149.822 102.386C149.499 102.205 149.404 101.747 149.632 101.448L149.724 101.493Z" fill="#3A3A3A"/>
<path d="M178.677 81.3392C178.932 81.7042 179.051 82.3679 178.616 82.4167C178.262 80.9754 177.244 79.7218 175.909 79.0662C175.816 78.9064 175.999 78.7218 176.159 78.7208C176.343 78.7195 176.481 78.8561 176.62 78.9698C177.359 79.6752 178.075 80.4725 178.677 81.3392Z" fill="#3A3A3A"/>
<path d="M159.774 98.3547C160.126 99.6128 158.895 100.698 158.099 101.735C157.917 101.988 157.735 102.287 157.714 102.585C157.7 103.8 159.927 104.106 159.82 105.321C158.669 104.664 157.699 103.731 156.981 102.613C156.841 102.385 156.724 102.042 156.93 101.88C158.093 100.91 159.072 99.7115 159.774 98.3547Z" fill="#3A3A3A"/>
<path d="M217.391 168.962C217.488 169.741 216.828 170.547 216.048 170.575C215.544 170.601 215.549 171.335 215.712 171.792C213.889 170.108 212.156 168.355 210.515 166.51C211.252 166.895 211.966 167.394 212.59 167.963C213.328 168.646 213.976 169.443 214.896 169.827C215.793 170.187 217.099 169.904 217.391 168.962Z" fill="#3A3A3A"/>
<path d="M228.452 63.3608C227.42 63.3677 226.387 63.3746 225.355 63.3815C236.865 72.6999 248.511 81.9028 260.248 90.9447C260.037 86.7754 259.849 82.606 259.637 78.4368C259.53 76.1688 259.03 73.3764 256.869 72.7264C252.777 71.4705 250.863 66.5564 247.02 64.703C245.455 63.9573 243.687 63.7629 241.942 63.5912C228.307 62.3305 213.552 61.6044 203.01 52.8753C203.221 53.5384 203.432 54.2016 203.643 54.8647C201.374 51.7863 198.963 48.113 199.948 44.417C201.089 40.147 206.467 38.2089 210.764 39.2801C215.061 40.3284 218.478 43.4908 221.687 46.54C218.07 44.3414 214.431 42.143 210.815 39.9444C207.889 38.1765 203.703 39.9232 202.279 43.0264C200.854 46.1296 201.889 49.9725 204.154 52.5239C206.42 55.0753 209.71 56.5199 213.041 57.2767C210.138 55.3254 207.095 53.1688 205.789 49.9464C204.483 46.7011 205.966 42.1538 209.403 41.5579C211.213 41.2479 213.054 42.1064 214.37 43.3579C212.322 42.4321 209.908 41.5316 207.942 42.6218C205.222 44.1296 205.548 48.2981 207.332 50.8527C212.567 58.4486 223.918 57.6851 232.203 61.7544C230.886 60.3425 229.569 58.9076 228.229 57.4958C229.221 58.2912 230.213 59.0866 231.205 59.8821C231.288 58.6899 230.844 57.5012 230.036 56.6358C230.979 56.9733 231.808 57.5635 232.41 58.3615C234.743 53.8315 237.489 49.5049 240.559 45.4512C238.5 49.6357 236.164 53.7074 233.598 57.6203C240.811 52.2097 243.4 41.4448 251.75 38.0432C244.222 44.3267 238.151 52.3191 234.081 61.2377C244.062 61.5605 253.979 55.6964 258.508 46.8205C259.527 44.8429 260.292 42.5692 259.704 40.4419C259.116 38.2918 256.673 36.5895 254.637 37.4739C253.631 37.916 251.844 38.3634 252.021 37.2852C254.176 37.1103 256.233 36.0424 257.645 34.406C251.092 35.5727 245.132 39.6916 241.706 45.3748C243.998 41.7387 246.497 38.0096 250.222 35.8764C253.97 33.7431 259.315 33.8219 261.999 37.1725C264.22 39.9534 263.926 44.0802 262.25 47.208C260.573 50.3358 257.79 52.6918 255.075 54.9557C259.086 50.9873 263.413 46.1919 262.871 40.5811C262.722 38.9551 262.068 37.2637 260.731 36.2873C259.417 35.3107 257.329 35.256 256.236 36.4778C258.395 36.7842 260.06 38.7896 260.464 40.941C260.869 43.0924 260.264 45.3193 259.314 47.2964C255.196 55.8486 245.544 60.1527 236.338 62.5059C242.927 63.2638 249.493 63.999 256.081 64.7569C257.321 64.8861 258.676 65.1062 259.463 66.0863C260.041 66.8387 260.14 67.8463 260.192 68.7855C262.375 103.672 263.367 138.657 263.165 173.605C263.168 174.087 263.264 174.705 263.724 174.839C264.183 174.973 264.199 173.896 263.811 174.174C263.215 177.707 258.448 178.358 254.845 178.107C239.721 177.131 224.573 176.132 209.449 175.157C210.527 175.081 211.604 174.982 212.682 174.906C211.001 174.023 209.004 173.785 207.172 174.255C207.461 162.543 206.969 150.837 205.721 139.181C205.528 141.176 205.313 143.24 204.384 145.033C203.455 146.827 201.63 148.283 199.61 148.159C194.011 147.83 188.411 147.501 182.812 147.194C189.681 148.73 196.751 149.347 203.768 149.002C202.008 149.976 199.874 149.853 197.855 149.729C185.369 148.85 172.884 147.994 160.376 147.116C161.342 147.636 162.309 148.157 163.276 148.677C160.176 148.125 157.052 147.55 153.951 146.998C153.384 147.942 151.632 146.647 152.361 145.84C152.191 137.569 152.044 129.32 151.874 121.048C149.751 126.058 146.754 130.684 143.087 134.696C140.218 137.832 135.603 140.75 131.987 138.506C128.347 136.262 128.884 130.804 130.532 126.852C133.964 118.648 140.226 111.639 147.997 107.348C139.849 103.346 133.105 96.5397 129.219 88.3389C128.893 87.6307 128.567 86.8538 128.745 86.0964C128.924 85.3848 129.494 84.8768 130.088 84.4374C134.037 81.5694 139.678 81.2567 143.915 83.6803C148.153 86.1039 150.733 91.1281 150.261 95.9894C150.164 91.7964 147.934 87.7095 144.455 85.3953C140.975 83.0583 136.338 82.5623 132.425 84.078C131.51 84.4279 130.573 84.9841 130.258 85.9029C130.011 86.6837 130.269 87.5069 130.549 88.2613C132.02 92.0554 134.428 95.4996 137.52 98.183C136.701 95.7823 135.242 93.6151 133.327 91.955C134.225 92.5219 135.123 93.0888 136.022 93.6786C134.541 91.7177 136.585 88.6792 139.015 88.4108C141.445 88.1425 143.703 89.7085 145.436 91.4385C148.23 94.2385 150.341 97.7305 151.559 101.503C152.236 92.9513 152.041 84.3133 151.02 75.7955C153.321 73.4198 157.037 73.3032 160.341 73.4186C167.316 73.6469 174.294 74.173 181.227 74.9745C179.645 75.1684 178.064 75.3623 176.482 75.5562C184.861 76.4626 193.241 77.3919 201.62 78.2982C202.24 78.3628 202.906 78.4729 203.299 78.9286C203.646 79.3388 203.696 79.9342 203.722 80.4611C204.106 89.8311 204.513 99.2239 204.897 108.594C205.027 93.7436 205.18 78.916 205.31 64.0657C205.325 62.9198 205.386 61.6591 206.229 60.8743C207.164 60.0201 208.61 60.1708 209.85 60.3688C216.074 61.3354 222.251 62.3482 228.452 63.3608ZM226.9 109.111C220.514 104.433 214.129 99.7553 207.766 95.0773C210.322 96.5955 212.924 98.0218 215.571 99.3561C216.21 98.8018 217.363 99.7107 216.978 100.47C217.985 100.165 218.977 100.869 219.784 101.505C233.945 112.822 248.083 124.162 262.244 135.48C261.612 133.582 259.997 132.241 258.429 130.991C254.439 127.786 250.472 124.582 246.482 121.377C251.484 125.033 256.487 128.689 261.512 132.368C260.117 119.247 259.409 106.029 259.389 92.8295C259.695 97.3648 260.001 101.877 260.283 106.413C260.922 102.421 261.055 98.3411 260.684 94.3104C260.609 93.4172 260.442 92.4558 259.75 91.8876C251.931 85.6381 244.113 79.3886 236.271 73.1393C235.764 72.7302 234.662 72.5772 234.735 73.2412C239.535 77.5173 244.336 81.8162 249.136 86.0922C239.921 80.3104 233.502 70.7058 224.106 65.2231C224.701 65.0358 225.319 64.8254 225.914 64.6381C220.669 62.4504 215.04 61.2048 209.35 61.0367C208.318 60.9978 207.125 61.0745 206.534 61.9034C206.079 62.5023 206.108 63.3271 206.159 64.0829C206.237 65.4803 206.315 66.8776 206.393 68.275C206.758 67.9059 207.1 67.5369 207.464 67.1449C206.302 88.831 206.378 110.578 207.739 132.247C207.781 131.674 208.657 132.287 208.73 132.859C209.434 138.652 209.336 144.542 208.411 150.3C208.3 150.942 208.832 151.512 209.317 151.967C215.896 158.179 222.453 164.391 229.033 170.603C230.187 171.695 231.387 172.833 232.86 173.442C234.263 174.028 235.801 174.155 237.316 174.26C244.27 174.74 251.247 175.243 258.201 175.724C259.372 175.808 260.421 174.907 260.895 173.827C261.37 172.747 261.385 171.555 261.377 170.386C261.383 167.911 261.39 165.436 261.419 162.938C261.414 162.205 261.432 161.495 261.244 160.785C260.844 159.299 259.666 158.184 258.513 157.16C252.374 151.678 245.825 146.612 238.958 142.075C240.701 141.949 242.246 143.13 243.607 144.244C249.373 148.949 255.14 153.677 260.907 158.381C261.246 157.715 260.622 157.008 260.068 156.531C242.948 141.819 225.418 127.545 207.547 113.755C226.942 125.656 242.656 142.715 261.506 155.421C261.767 149.897 261.845 144.351 261.739 138.829C261.71 137.935 261.681 137.019 261.286 136.242C260.891 135.489 260.176 134.944 259.484 134.421C251.76 128.606 244.014 122.792 236.29 117C238.571 118.474 240.852 119.948 243.133 121.423C240.38 118.05 236.806 115.347 232.78 113.655C232.658 112.487 231.392 111.9 230.356 111.357C229.113 110.723 228.007 109.906 226.9 109.111ZM203.558 144.947C204.523 138.41 205.236 131.828 205.674 125.226C205.334 125.869 205.017 126.513 204.677 127.134C204.612 124.339 204.777 121.565 205.149 118.79C205.258 117.941 204.496 117.167 203.646 116.989C202.796 116.812 201.925 117.047 201.101 117.281C201.127 117.671 201.13 118.083 201.155 118.473C200.736 117.536 199.996 116.739 199.098 116.241C201.049 116.365 202.977 116.467 204.928 116.591C205.291 116.085 204.965 115.331 204.435 115.036C203.906 114.742 203.241 114.746 202.621 114.773C186.613 115.362 170.665 111.252 154.659 112.23C153.65 112.283 153.338 113.614 153.345 114.645C153.226 124.339 153.199 134.056 153.287 143.749C153.291 144.321 153.342 145.009 153.803 145.349C154.149 145.622 154.63 145.619 155.066 145.616C156.007 145.609 156.97 145.58 157.911 145.574C157.147 144.571 156.383 143.567 155.619 142.564C157.149 141.523 158.332 140.025 158.986 138.302C159.022 140.204 157.956 142.067 156.311 143.018C158.625 146.096 163.145 146.112 166.997 145.925C178.647 145.366 190.349 145.746 201.943 147.043C202.93 147.151 203.403 145.911 203.558 144.947ZM168.297 76.184C168.113 76.1852 167.907 76.1866 167.747 76.2793C166.97 76.7657 168.538 77.9698 168.108 78.7747C167.335 76.4883 164.573 75.0631 162.238 75.7662C161.848 75.8834 161.439 76.3903 161.761 76.5944C158.777 76.2706 155.815 75.9238 152.831 75.6C152.782 85.4312 152.733 95.2854 152.685 105.117C169.264 107.618 185.996 108.927 202.744 109.044C203.065 109.042 203.432 109.039 203.683 108.831C204.048 108.531 204.044 108.004 203.995 107.546C203.341 98.8422 203.19 90.1122 203.545 81.379C203.563 80.6914 203.535 79.8666 202.936 79.5039C202.705 79.368 202.407 79.3242 202.132 79.3031C198.206 78.8252 194.257 78.3704 190.331 77.8926C188.586 77.6751 186.818 77.4807 185.073 77.2861C179.518 76.6817 173.895 76.3069 168.297 76.184ZM223.389 174.009C224.514 174.162 225.639 174.292 226.763 174.239C228.62 174.112 230.703 173.479 232.156 174.615C224.193 167.244 216.229 159.872 208.265 152.501C208.857 158.638 209.449 164.799 210.063 170.936C210.112 171.325 210.16 171.76 210.438 172.056C210.715 172.352 211.151 172.418 211.564 172.461C215.468 172.985 219.44 173.509 223.389 174.009ZM161.329 107.923C158.482 107.644 155.451 107.138 153.373 105.204C153.223 106.763 153.096 108.299 152.946 109.858C152.903 110.386 152.884 110.982 153.277 111.323C153.6 111.619 154.082 111.615 154.517 111.589C158.485 111.402 162.429 111.239 166.397 111.052C167.497 110.998 168.667 110.968 169.657 111.465C170.486 111.872 171.427 111.957 172.368 112.02C182.489 112.754 192.611 113.466 202.732 114.2C203.581 114.263 204.499 114.303 205.161 113.771C205.616 113.195 204.648 112.537 203.936 112.427C201.134 111.942 198.332 111.456 195.53 110.971C193.027 110.53 190.501 110.088 187.975 109.761C179.135 108.606 170.19 108.803 161.329 107.923ZM139.408 133.346C142.783 130.321 145.533 126.614 147.479 122.522C149.244 118.82 150.318 114.849 151.37 110.877C151.392 110.785 151.414 110.671 151.391 110.579C151.274 110.259 150.816 110.423 150.542 110.631C144.609 115.345 138.381 120.451 135.79 127.573C135.25 129.043 134.894 130.718 135.546 132.157C136.198 133.574 138.245 134.408 139.408 133.346ZM145.312 110.712C140.128 114.161 135.732 118.819 132.625 124.225C130.675 127.584 129.211 131.673 130.543 135.307C130.776 135.925 131.492 136.584 131.948 136.123C132.279 137.587 133.936 138.47 135.45 138.391C136.963 138.289 138.311 137.455 139.498 136.508C144.221 132.764 147.144 127.267 149.86 121.887C150.246 121.151 150.444 119.958 149.64 119.734C147.653 124.606 144.793 129.139 141.218 133.013C140.238 134.074 139.053 135.159 137.608 135.168C136.162 135.178 134.916 134.041 134.425 132.692C133.934 131.343 134.062 129.853 134.397 128.453C136.002 121.567 141.703 116.488 147.087 111.891C147.885 111.198 148.706 110.506 149.643 110.018C150.329 109.647 151.085 109.413 151.864 109.27C149.769 108.253 147.276 109.415 145.312 110.712ZM151.032 108.405C152.059 107.619 151.934 106.038 151.604 104.803C150.591 100.731 148.821 96.824 146.115 93.611C144.497 91.6969 142.49 90.0375 140.099 89.3431C139.134 89.0746 137.918 89.014 137.281 89.7974C137.03 90.097 136.895 90.4645 136.829 90.8316C136.45 92.507 136.898 94.2914 137.734 95.7983C138.57 97.3051 139.748 98.5805 140.95 99.8328C143.954 103.067 147.118 106.3 151.032 108.405ZM258.607 68.567C258.742 68.039 259.151 67.555 259.125 67.0281C259.073 66.0889 257.923 65.7071 257.004 65.5528C254.18 65.1134 251.333 64.8117 248.464 64.6017C248.766 65.1955 249.388 65.5809 249.964 65.9208C253.304 67.9837 256.372 70.461 259.121 73.2613C259.96 71.8807 258.182 70.1281 258.607 68.567ZM244.186 175.955C247.493 176.506 250.845 176.919 254.173 177.195C253.734 176.602 252.975 176.332 252.262 176.153C248.724 175.26 245.052 175.17 241.404 175.057C238.789 174.983 236.15 174.909 233.534 174.835C233.445 175.179 233.928 175.382 234.295 175.426C237.67 175.793 241.022 176.16 244.396 176.527C244.947 176.592 245.498 176.657 246.025 176.539C245.428 176.382 244.807 176.157 244.186 175.955ZM157.234 75.4331C157.626 75.6367 158.155 75.8852 158.474 75.5852C159.204 74.8928 160.328 74.8624 161.337 74.9243C164.986 75.1291 168.661 75.7232 172.235 75.1034C171.45 74.3067 170.211 74.2691 169.087 74.2537C164.338 74.2626 159.566 74.2487 154.818 74.2576C154.565 74.2593 154.313 74.261 154.108 74.3999C153.902 74.5387 153.789 74.8374 153.928 75.0427C155.028 74.7604 156.222 74.9128 157.234 75.4331ZM194.61 110.542C197.362 110.478 200.118 110.849 202.716 111.702C203.221 111.859 203.75 112.039 204.277 111.99C204.805 111.917 205.352 111.524 205.349 110.997C205.369 110.539 204.999 110.151 204.585 109.994C204.171 109.813 203.712 109.839 203.254 109.842C200.616 109.883 197.955 109.924 195.317 109.964C194.95 109.944 194.401 110.2 194.61 110.542ZM208.645 133.914C208.368 133.618 208.091 133.299 207.813 133.003C207.084 137.155 207.021 141.395 207.622 145.562C208.196 145.627 208.42 144.823 208.439 144.227C208.446 141.89 208.362 139.53 208.208 137.194C208.109 136.071 208.032 134.857 208.645 133.914ZM151.522 113.076C151.097 114.683 150.649 116.29 150.224 117.897C150.089 118.379 150.002 118.976 150.394 119.271C151.965 117.496 152.613 114.971 152.116 112.66C151.908 112.432 151.589 112.778 151.522 113.076ZM221.202 59.8574C219.501 59.25 217.799 58.6198 216.097 58.0125C215.361 57.7424 214.488 57.4733 213.802 57.8445C214.425 58.3674 215.23 58.6599 216.056 58.6773C217.576 59.5608 219.391 59.9841 221.202 59.8574ZM222.73 174.999C220.366 174.694 218.024 174.412 215.659 174.107C215.246 174.064 214.718 174.067 214.537 174.435C214.837 174.731 215.319 174.797 215.733 174.84C217.638 175.01 219.543 175.204 221.448 175.374C221.93 175.394 222.504 175.39 222.73 174.999ZM258.652 154.02C259.163 154.979 259.811 155.845 260.596 156.596C260.897 156.892 261.38 157.164 261.699 156.887C261.072 155.63 259.963 154.584 258.652 154.02ZM173.203 147.625C172.441 146.989 171.408 146.835 170.421 146.705C169.893 146.639 169.25 146.621 168.955 147.058C170.267 147.691 171.782 147.887 173.203 147.625ZM201.098 44.8905C200.822 44.7319 200.572 45.1232 200.505 45.4215C200.239 46.7753 200.409 48.2179 200.945 49.4747C201.051 48.099 201.134 46.7464 201.239 45.3708C201.238 45.2104 201.236 44.9812 201.098 44.8905ZM261.008 125.52C261.398 125.517 261.578 125.057 261.598 124.668C261.663 124.071 261.613 123.453 261.472 122.858C260.788 123.504 260.589 124.652 261.008 125.52ZM218.808 58.5214C219.175 58.5877 219.564 58.3559 219.699 58.0113C219.262 57.8538 218.848 57.6732 218.411 57.5157C218.322 57.9059 218.462 58.3174 218.762 58.5675L218.808 58.5214ZM259.904 176.583C259.535 176.311 259.03 176.268 258.642 176.477C258.85 176.751 259.081 177.024 259.426 177.091C259.771 177.157 260.158 176.811 259.995 176.491L259.904 176.583ZM233.401 58.9507C232.919 58.9998 232.648 59.6432 232.926 60.008C233.155 59.9148 233.36 59.7989 233.589 59.7057C233.656 59.4302 233.608 59.1326 233.492 58.8814L233.401 58.9507ZM168.29 147.063C167.76 146.722 167.048 146.658 166.476 146.914C166.983 147.232 167.649 147.342 168.244 147.177L168.29 147.063ZM256.012 177.755C256.219 177.754 256.425 177.752 256.632 177.774C256.768 177.498 256.467 177.179 256.169 177.181C255.871 177.183 255.597 177.368 255.369 177.553C255.576 177.644 255.783 177.757 255.99 177.847L256.012 177.755ZM208.223 163.295C208.271 163.661 208.319 164.027 208.345 164.394C208.572 164.071 208.73 163.704 208.796 163.291C208.611 163.109 208.129 163.066 208.223 163.317L208.223 163.295ZM227.139 66.0049C227.068 65.6845 226.677 65.5038 226.379 65.5975C226.565 65.8941 226.75 66.1679 226.913 66.4647C227.144 66.6923 227.484 66.1171 227.185 66.0046L227.139 66.0049ZM234.638 62.1965C234.802 62.6308 235.468 62.7638 235.787 62.4179C235.486 62.0762 234.958 61.9881 234.569 62.2198L234.638 62.1965ZM192.518 109.96C192.174 109.871 191.669 109.897 191.649 110.241C192.313 110.168 192.955 110.095 193.62 110.021C193.275 109.886 192.908 109.866 192.541 109.937L192.518 109.96ZM229.133 110.288C228.972 110.174 228.768 110.519 228.952 110.61C229.205 110.677 229.458 110.767 229.733 110.834C229.87 110.672 229.868 110.397 229.729 110.238C229.546 110.262 229.34 110.263 229.133 110.288ZM208.132 160.064C207.974 160.432 208 160.89 208.186 161.255C208.321 160.888 208.456 160.497 208.591 160.13C208.431 160.108 208.293 160.063 208.132 160.041L208.132 160.064ZM261.723 133.008C261.816 133.168 261.886 133.328 261.979 133.488C262.161 133.395 262.344 133.302 262.504 133.186C262.387 132.866 262.087 132.616 261.743 132.55C261.721 132.71 261.676 132.848 261.654 133.009L261.723 133.008ZM207.216 122.58C206.756 122.423 206.441 123.318 206.901 123.476C207.106 123.245 207.195 122.924 207.193 122.626L207.216 122.58ZM221.907 58.8902C221.772 59.2807 222.394 59.6661 222.667 59.3434C222.528 59.0923 222.228 58.9109 221.953 58.9128L221.907 58.8902ZM260.631 106.937C260.47 106.893 260.287 106.917 260.15 107.032C260.105 107.193 260.152 107.376 260.245 107.536C260.543 107.557 260.793 107.188 260.631 106.937ZM253.129 69.2453C253.29 69.2671 253.45 69.1056 253.426 68.9454C253.196 68.8553 252.965 68.7422 252.735 68.6521C252.622 68.882 252.877 69.2011 253.129 69.1536L253.129 69.2453ZM145.717 109.426C145.535 109.679 146.042 109.996 146.2 109.72C146.291 109.582 146.267 109.376 146.152 109.285C146.013 109.194 145.785 109.288 145.786 109.448L145.717 109.426ZM207.14 128.424C206.956 128.379 206.75 128.427 206.613 128.542C206.729 128.702 206.822 128.861 206.938 128.998C207.167 128.928 207.279 128.629 207.186 128.401L207.14 128.424Z" fill="#3A3A3A"/>
<rect x="-3.99998" y="-35" width="404" height="755" rx="34" stroke="#3A3A3A" stroke-width="2"/>
<rect x="-1.99998" y="-35" width="404" height="755" rx="34" stroke="#3A3A3A" stroke-width="2"/>
</g>
<path fill-rule="evenodd" clip-rule="evenodd" d="M0 90.0002L0 203H406V90.0002C342.931 115.396 274.501 129.303 203 129.303C131.498 129.303 63.0692 115.396 0 90.0002Z" fill="white"/>
<defs>
<clipPath id="clip0">
<rect width="156.832" height="184" fill="white" transform="translate(225)"/>
</clipPath>
<clipPath id="clip1">
<rect width="156.832" height="184" fill="white" transform="translate(125.05 192.061) rotate(-90.3837)"/>
</clipPath>
</defs>
</svg>
