<svg width="500" height="201" viewBox="0 0 500 201" fill="none" xmlns="http://www.w3.org/2000/svg">
<g clip-path="url(#clip0)">
<path d="M373.986 144.429C374.536 143.282 375.27 142.204 376.163 141.286C376.645 140.781 377.24 140.3 377.928 140.208C376.69 141.699 375.384 143.098 373.986 144.429Z" fill="#3A3A3A"/>
<path d="M383.657 24.2015C384.757 24.2015 385.834 24.4309 386.842 24.8897C387.69 25.2796 388.469 25.8073 389.225 26.3578C387.232 26.0596 385.33 25.3255 383.657 24.2015Z" fill="#3A3A3A"/>
<path d="M379.257 26.5413C377.034 26.7707 374.812 26.8166 372.566 26.7248C374.789 26.3578 377.034 26.289 379.257 26.5413Z" fill="#3A3A3A"/>
<path d="M341.195 178.976C341.034 178.861 340.897 178.747 340.736 178.632C341.195 177.967 342.157 177.714 342.89 178.059C342.57 178.632 341.905 178.999 341.24 178.93L341.195 178.976Z" fill="#3A3A3A"/>
<path d="M359.412 144.865C359.16 144.498 359.458 144.016 359.756 143.672C360.81 142.479 361.841 141.263 362.895 140.07C363.17 140.46 362.849 140.965 362.529 141.309C361.497 142.502 360.443 143.695 359.412 144.865Z" fill="#3A3A3A"/>
<path d="M354.371 77.33C355.517 77.6741 356.571 78.3623 357.35 79.3028C356.181 78.9817 355.127 78.2705 354.371 77.33Z" fill="#3A3A3A"/>
<path d="M463.425 101.623C462.6 102.656 461.569 103.504 460.4 104.124C461.179 103.068 462.21 102.197 463.425 101.623Z" fill="#3A3A3A"/>
<path d="M410.101 17.6407C409.436 18.4207 408.749 19.2006 408.084 19.9576C407.878 20.187 407.557 20.4164 407.328 20.2329C408.061 19.1777 409.001 18.283 410.101 17.6407Z" fill="#3A3A3A"/>
<path d="M465.923 98.6411C465.419 99.444 464.914 100.247 464.387 101.05C464.089 100.017 464.869 98.8016 465.923 98.6411Z" fill="#3A3A3A"/>
<path d="M452.403 117.589C452.7 120.434 453.732 123.187 455.404 125.527C456.252 126.696 457.009 127.935 457.696 129.22C455.496 127.683 454.121 125.228 453.067 122.751C452.38 121.122 451.807 119.287 452.403 117.589Z" fill="#3A3A3A"/>
<path d="M366.837 80.4728C366.47 80.4957 366.081 80.2434 365.966 79.8763C366.906 79.9451 367.845 80.1975 368.67 80.6563C368.052 80.5875 367.433 80.5186 366.837 80.4498V80.4728Z" fill="#3A3A3A"/>
<path d="M323.527 124.219C323.917 124.632 324.032 125.251 323.802 125.779C323.138 125.159 322.84 124.173 323.069 123.301C323.39 123.462 323.573 123.852 323.527 124.219Z" fill="#3A3A3A"/>
<path d="M416.265 11.1487C415.394 11.7911 414.547 12.4563 413.676 13.0986C413.493 13.2363 413.218 13.3739 413.057 13.2133C414.02 12.3416 415.097 11.6534 416.265 11.1487Z" fill="#3A3A3A"/>
<path d="M419.198 140.208C419.313 139.382 419.771 138.602 420.459 138.098C420.413 138.969 419.932 139.772 419.198 140.208Z" fill="#3A3A3A"/>
<path d="M330.585 146.516C330.356 146.402 330.195 146.149 330.149 145.897C330.745 145.714 331.433 146.149 331.524 146.746C331.204 146.861 330.814 146.769 330.585 146.493V146.516Z" fill="#3A3A3A"/>
<path d="M426.738 134.427C426.898 134.542 427.036 134.657 427.196 134.771C426.531 135.161 425.684 135.207 424.996 134.863C425.546 134.679 426.119 134.588 426.692 134.565L426.738 134.427Z" fill="#3A3A3A"/>
<path d="M375.132 140.644C375.247 140.414 375.338 140.185 375.453 139.979C375.613 139.933 375.797 139.979 375.934 140.07C375.774 140.529 375.499 140.942 375.109 141.217C374.949 141.08 374.972 140.781 375.155 140.69L375.132 140.644Z" fill="#3A3A3A"/>
<path d="M342.661 162.184C342.547 162.551 342.409 162.918 342.295 163.285C341.905 162.781 342.065 161.978 342.592 161.634C342.638 161.817 342.684 162.001 342.753 162.184H342.661Z" fill="#3A3A3A"/>
<path d="M330.379 118.163C329.944 118.232 329.76 117.521 330.058 117.222C330.356 116.901 330.86 116.901 331.296 116.924C330.975 117.314 330.654 117.727 330.31 118.117L330.379 118.163Z" fill="#3A3A3A"/>
<path d="M357.144 175.856C357.35 175.627 357.533 175.398 357.74 175.191C357.625 175.902 357.212 176.545 356.594 176.935C356.685 176.545 356.892 176.178 357.167 175.902L357.144 175.856Z" fill="#3A3A3A"/>
<path d="M328.729 138.166C328.316 138.006 328.087 137.455 328.293 137.042C328.545 137.157 328.82 137.272 328.935 137.501C329.072 137.73 328.958 138.12 328.683 138.143L328.729 138.166Z" fill="#3A3A3A"/>
<path d="M467.206 98.664C467.252 99.1916 466.862 99.7192 466.358 99.8339C466.472 99.3752 466.77 98.9393 467.183 98.687L467.206 98.664Z" fill="#3A3A3A"/>
<path d="M329.897 157.986C329.691 157.963 329.462 157.963 329.256 157.94C329.645 157.482 330.516 157.573 330.791 158.101C330.493 158.055 330.195 158.009 329.897 157.94V157.986Z" fill="#3A3A3A"/>
<path d="M343.876 59.2764C343.715 59.2993 343.555 59.3223 343.395 59.3452C343.303 59.1617 343.188 59.0011 343.097 58.8176C343.417 58.7258 343.784 58.9323 343.876 59.2305V59.2764Z" fill="#3A3A3A"/>
<path d="M331.387 133.51C331.387 133.188 331.41 132.867 331.41 132.546C331.708 132.844 331.868 133.51 331.456 133.532L331.387 133.51Z" fill="#3A3A3A"/>
<path d="M326.712 130.986C326.597 130.826 326.918 130.642 327.056 130.803C327.193 130.963 327.147 131.193 327.056 131.376C326.987 131.56 326.895 131.789 326.987 131.973C326.827 131.881 326.643 131.812 326.483 131.72C326.575 131.468 326.666 131.216 326.758 130.986H326.712Z" fill="#3A3A3A"/>
<path d="M365.943 39.9611C365.852 40.2823 365.76 40.6034 365.668 40.9246C365.462 40.6264 365.554 40.1446 365.874 39.9382L365.943 39.9611Z" fill="#3A3A3A"/>
<path d="M328.041 138.763C328.293 138.809 328.362 139.176 328.202 139.382C328.041 139.589 327.766 139.657 327.514 139.703C327.331 139.382 327.652 138.9 328.018 138.946L328.041 138.763Z" fill="#3A3A3A"/>
<path d="M394.221 139.359C397.933 139.405 401.645 139.451 405.358 139.474C406.091 139.474 406.847 139.497 407.58 139.657C407.191 140.254 406.343 140.277 405.633 140.231C401.829 139.933 398.025 139.657 394.221 139.359Z" fill="#3A3A3A"/>
<path d="M351.094 155.142C350.98 155.348 350.774 155.509 350.521 155.555C350.544 155.371 350.59 155.165 350.751 155.05C350.911 154.935 351.186 154.981 351.186 155.188L351.094 155.142Z" fill="#3A3A3A"/>
<path d="M326.987 152.068C326.735 151.93 326.712 151.471 326.964 151.311C327.102 151.54 327.102 151.861 326.964 152.114L326.987 152.068Z" fill="#3A3A3A"/>
<path d="M369.404 0.43585C369.22 0.48173 369.152 0.137633 369.335 0.0458741C369.495 -0.0458851 369.702 0.0229343 369.885 0.0917537C369.724 0.183513 369.564 0.298212 369.381 0.389971L369.404 0.43585Z" fill="#3A3A3A"/>
<path d="M332.647 161.794C332.67 161.565 333.106 161.634 333.129 161.863C333.175 162.093 332.968 162.299 332.808 162.482C332.693 162.276 332.67 162.024 332.739 161.794H332.647Z" fill="#3A3A3A"/>
<path d="M424.904 83.822C425.409 83.9826 425.89 84.1202 426.394 84.2808C425.592 84.4643 424.744 84.3725 424.011 84.0284C424.217 83.7532 424.607 83.6843 424.904 83.822Z" fill="#3A3A3A"/>
<path d="M346.717 128.05C346.671 127.912 346.648 127.729 346.763 127.614C346.832 127.545 346.923 127.522 346.992 127.545C347.244 128.21 347.428 128.899 347.542 129.61C347.153 129.151 346.855 128.6 346.717 128.05Z" fill="#3A3A3A"/>
<path d="M344.884 115.479C343.968 115.594 343.028 115.548 342.134 115.364C341.768 115.295 341.355 115.158 341.149 114.814C341.195 114.607 341.355 114.447 341.538 114.401C342.661 114.814 343.761 115.158 344.884 115.479Z" fill="#3A3A3A"/>
<path d="M436.866 85.9095C436.316 85.5883 435.651 85.4507 435.033 85.5424C435.56 84.969 436.683 85.1525 436.981 85.8865L436.866 85.9095Z" fill="#3A3A3A"/>
<path d="M439.685 84.4643C439.639 84.3037 439.662 84.1202 439.753 83.9825C440.051 84.0743 440.326 84.1661 440.624 84.2578C440.372 84.5102 439.982 84.6019 439.639 84.5102L439.685 84.4643Z" fill="#3A3A3A"/>
<path d="M397.406 111.786C397.452 111.464 397.658 111.166 397.956 111.006C398.024 111.35 397.772 111.717 397.429 111.763L397.406 111.786Z" fill="#3A3A3A"/>
<path d="M352.286 135.758C351.988 135.895 351.621 135.895 351.3 135.758C351.598 135.62 351.965 135.62 352.286 135.758Z" fill="#3A3A3A"/>
<path d="M441.724 84.1661C441.976 83.9367 442.389 83.9137 442.664 84.0973C442.48 84.4414 441.953 84.5102 441.678 84.212L441.724 84.1661Z" fill="#3A3A3A"/>
<path d="M361.567 183.633C361.635 183.427 362.002 183.518 361.979 183.725C362.002 183.885 361.819 184.023 361.658 183.977C361.498 183.931 361.429 183.725 361.544 183.587L361.567 183.633Z" fill="#3A3A3A"/>
<path d="M419.221 85.4277C419.542 84.9231 419.863 84.3725 420.367 84.0284C421.1 83.5008 422.154 83.432 422.933 83.8908C421.513 83.799 420.321 84.9689 419.542 86.1389C418.74 87.3317 418.052 88.6852 416.815 89.3734C417.594 88.0429 418.419 86.7353 419.221 85.4277Z" fill="#3A3A3A"/>
<path d="M351.392 128.807C349.88 130.137 348.367 131.468 346.878 132.798C346.213 133.372 345.549 133.968 344.907 134.542C344.632 134.771 344.082 134.909 344.059 134.542C346.786 132.064 349.513 129.587 352.263 127.086C352.446 127.752 351.896 128.371 351.392 128.807Z" fill="#3A3A3A"/>
<path d="M395.641 31.8404C395.664 32.4598 395.939 33.0562 396.398 33.4691C397.406 34.4097 399.079 34.3867 400.018 35.419C398.414 35.4878 396.81 34.7997 395.779 33.5838C395.412 33.148 394.656 33.3086 394.221 33.6756C393.785 34.0426 393.464 34.5703 393.006 34.8914C392.548 35.2126 391.746 35.2584 391.494 34.7308C392.96 33.9279 394.358 32.9645 395.641 31.8404Z" fill="#3A3A3A"/>
<path d="M372.772 71.8015C373.666 73.6138 375.155 75.1278 376.92 76.0683C375.362 75.7013 373.597 74.9443 373.231 73.3844C373.093 72.7879 372.222 72.6962 371.718 73.0632C371.214 73.4073 370.962 74.0037 370.572 74.4625C370.183 74.9443 369.518 75.3113 368.991 75.036C370.183 73.8661 371.443 72.7879 372.772 71.8015Z" fill="#3A3A3A"/>
<path d="M388.194 34.7308C386.017 34.9602 383.772 33.4003 383.222 31.2899C382.122 32.1845 381.022 33.1021 379.899 33.9968C379.624 34.2262 379.326 34.4556 378.982 34.4785C378.639 34.5244 378.226 34.272 378.249 33.9279C380.151 33.4921 381.388 31.7028 382.947 30.5329C383.199 30.3493 383.657 30.2805 383.703 30.5787C383.794 31.6569 384.482 32.5974 385.33 33.2627C386.201 33.9279 387.209 34.3409 388.194 34.7308Z" fill="#3A3A3A"/>
<path d="M374.926 49.7105C374.811 49.2746 374.743 48.747 375.041 48.4259C375.98 51.3163 377.722 53.9544 380.013 55.9501C377.561 54.7114 375.659 52.3715 374.926 49.7105Z" fill="#3A3A3A"/>
<path d="M370.71 63.8644C370.618 63.635 370.503 63.3826 370.572 63.1532C370.618 63.0156 370.71 62.8779 370.824 62.8091C371.787 64.8966 373.185 66.8007 374.88 68.3376C372.772 67.9935 371.581 65.8142 370.71 63.8644Z" fill="#3A3A3A"/>
<path d="M376.713 40.2134C377.355 41.0622 378.02 41.9339 378.959 42.4157C380.403 43.1727 382.19 42.8515 383.611 42.0945C385.032 41.3375 386.2 40.1446 387.392 39.0435C387.644 40.1217 387.965 41.2687 388.813 41.9569C389.821 42.7598 391.379 42.7598 392.181 43.7691C390.256 43.7232 388.377 42.668 387.369 41.0393C387.14 40.6493 386.59 40.2134 386.338 40.6034C385.49 41.9339 384.207 42.9892 382.694 43.448C381.182 43.9067 379.463 43.7003 378.203 42.7827C377.401 42.2092 376.805 41.4063 376.209 40.6034C375.751 39.984 375.27 39.2729 375.407 38.5159C375.843 39.0894 376.278 39.64 376.713 40.2134Z" fill="#3A3A3A"/>
<path d="M400.637 43.4938C400.247 43.0809 399.858 42.645 399.353 42.3698C398.849 42.1174 398.185 42.0716 397.727 42.4156C396.695 43.1956 395.618 43.9067 394.473 44.5261C394.198 44.4114 394.427 43.9985 394.679 43.815C396.008 42.8974 397.36 42.0027 398.689 41.0851C399.491 41.8192 400.293 42.5074 401.141 43.1956C400.98 43.3103 400.82 43.4021 400.637 43.4938Z" fill="#3A3A3A"/>
<path d="M369.885 42.0257C371.053 41.0163 372.497 40.3281 374.01 40.0299C373.047 41.2916 371.466 42.0486 369.885 42.0257Z" fill="#3A3A3A"/>
<path d="M376.026 67.6265C377.928 66.8236 379.784 65.9519 381.594 65.0114C380.426 66.8236 378.18 67.8788 376.026 67.6265Z" fill="#3A3A3A"/>
<path d="M385.536 72.7879C384.207 74.4855 382.374 75.7472 380.334 76.4124C380.174 76.4583 379.922 76.4812 379.876 76.3206C381.709 75.0131 383.588 73.8432 385.536 72.7879Z" fill="#3A3A3A"/>
<path d="M389.042 67.6494C390.486 67.0301 391.815 66.1125 392.937 65.0114C392.181 66.8465 390.279 68.1312 388.286 68.1541C388.469 67.8788 388.767 67.7641 389.042 67.6494Z" fill="#3A3A3A"/>
<path d="M388.858 54.5967C388.171 54.2985 387.575 53.7709 387.163 53.1285C386.75 52.4633 386.567 51.6375 386.773 50.9034C387.415 52.1651 388.102 53.4038 388.858 54.5967Z" fill="#3A3A3A"/>
<path d="M382.03 55.629C383.267 54.8031 384.505 53.9773 385.742 53.1285C385.238 54.6655 383.634 55.7666 382.03 55.629Z" fill="#3A3A3A"/>
<path d="M394.793 55.1931C395.114 54.9637 395.55 54.9408 395.893 55.1243C395.068 55.5831 394.06 55.7437 393.121 55.5831C393.602 55.239 394.243 55.1014 394.816 55.239L394.793 55.1931Z" fill="#3A3A3A"/>
<path d="M395.091 65.3096C396.214 66.2501 397.337 67.2136 398.322 68.3376C396.695 67.7871 395.275 66.6171 394.427 65.126C394.633 64.9884 394.908 65.149 395.091 65.3096Z" fill="#3A3A3A"/>
<path d="M382.396 64.0938C382.236 63.7955 382.098 63.3826 382.373 63.1991C383.153 64.9425 384.298 66.5254 385.742 67.7871C385.559 68.1312 385.032 67.8559 384.779 67.5577C383.863 66.4795 383.084 65.3096 382.396 64.0938Z" fill="#3A3A3A"/>
<path d="M370.343 52.5321C371.832 52.3945 373.23 51.5457 374.055 50.284C374.399 50.674 373.964 51.2475 373.528 51.5457C372.497 52.2798 371.328 52.8074 370.091 53.1056C370.182 52.9221 370.251 52.7386 370.343 52.5321Z" fill="#3A3A3A"/>
<path d="M391.723 76.7565C390.073 76.2289 388.492 75.5637 386.933 74.8066C386.521 74.6002 386.475 74.0496 386.383 73.6138C386.292 73.1779 385.879 72.6503 385.49 72.8568C385.581 72.398 386.315 72.4209 386.613 72.7879C386.91 73.155 386.956 73.6597 387.185 74.0726C388.01 75.6554 390.669 75.2884 391.723 76.7565Z" fill="#3A3A3A"/>
<path d="M407.649 65.5619C409.001 64.4608 409.849 62.7862 409.94 61.0428C411.017 63.1532 412.805 64.9196 414.959 65.9519C414.592 66.3419 413.905 66.0895 413.469 65.7913C412.301 65.0114 411.315 63.9791 410.559 62.7862C409.78 63.8644 408.772 64.8278 407.649 65.5619Z" fill="#3A3A3A"/>
<path d="M425.569 35.2585C424.538 34.9602 423.873 33.9968 423.277 33.1021C423.025 32.7351 422.452 33.0333 422.131 33.3315C421.329 34.1344 420.504 34.9373 419.702 35.7173C419.336 35.2585 419.817 34.6161 420.275 34.2262C421.329 33.3315 422.361 32.4369 423.415 31.5193C424.125 32.781 424.835 34.0197 425.569 35.2585Z" fill="#3A3A3A"/>
<path d="M429.166 54.872C428.158 54.6426 427.196 54.1379 426.462 53.4038C426.164 53.1056 425.637 53.335 425.294 53.5644C423.667 54.6426 422.04 55.6978 420.413 56.776C420.275 56.3631 420.756 56.019 421.169 55.8125C422.956 54.9408 424.56 53.7479 425.912 52.2798C426.989 53.1515 428.066 54.0232 429.166 54.872Z" fill="#3A3A3A"/>
<path d="M423.048 61.0886C422.109 62.3733 421.169 63.635 420.253 64.9196C419.909 65.3784 419.542 65.8601 419.061 66.1583C418.557 66.4565 417.892 66.5254 417.411 66.1813C418.603 65.7454 419.657 64.9425 420.39 63.9102C421.146 62.8091 421.742 61.3639 423.048 61.0886Z" fill="#3A3A3A"/>
<path d="M414.18 37.7589C414.73 40.2823 416.242 42.5762 418.305 44.0903C416.403 43.5397 414.913 41.7963 414.638 39.8464C414.592 39.5023 414.134 39.3417 413.79 39.4794C413.469 39.617 413.24 39.9152 413.034 40.1905C411.98 41.5898 410.582 42.7139 409.001 43.4479C410.605 41.4063 413.172 40.1217 414.18 37.7589Z" fill="#3A3A3A"/>
<path d="M430.954 34.5473C429.808 35.419 428.525 36.0613 427.15 36.4513C428.387 35.2814 429.854 34.3408 431.412 33.6985C431.527 34.0197 431.229 34.3408 430.954 34.5473Z" fill="#3A3A3A"/>
<path d="M415.143 52.4404C416.105 54.0691 417.068 55.6749 418.03 57.3036C416.311 56.0419 415.051 54.2067 414.501 52.1651C414.684 51.9357 415.005 52.211 415.143 52.4404Z" fill="#3A3A3A"/>
<path d="M409.78 56.0419C409.574 56.0878 409.368 56.1337 409.162 56.1107C408.978 56.1107 408.726 55.996 408.772 55.7896C410.422 55.1931 412.026 54.4361 413.538 53.5185C412.645 54.8031 411.293 55.7207 409.78 56.0419Z" fill="#3A3A3A"/>
<path d="M423.094 62.8321C424.217 63.9561 425.202 65.1949 426.05 66.5254C424.515 65.906 423.346 64.4608 423.094 62.8321Z" fill="#3A3A3A"/>
<path d="M426.577 73.6138C426.302 73.2467 425.752 73.2008 425.34 73.3614C424.927 73.522 424.584 73.8661 424.24 74.1643C423.048 75.2196 421.605 75.9995 420.069 76.3895C419.473 76.5271 418.763 76.5959 418.374 76.1142C420.986 75.5407 423.415 74.2561 425.363 72.4438C425.798 72.0309 426.463 72.6044 426.852 73.0632C428.09 74.5543 429.946 75.4031 431.71 76.206C429.717 76.2289 427.746 75.2425 426.577 73.6138Z" fill="#3A3A3A"/>
<path d="M410.926 75.5407C410.147 76.0454 409.23 76.3436 408.291 76.3895C407.764 76.4124 407.214 76.3665 406.709 76.1601C406.755 75.7013 407.351 75.5866 407.809 75.5637C408.841 75.5637 409.895 75.5636 410.926 75.5407Z" fill="#3A3A3A"/>
<path d="M428.479 39.6858C429.373 40.397 430.198 41.2228 430.908 42.1174C431.045 42.301 431.045 42.7139 430.816 42.6221C430.06 42.0716 429.373 41.4522 428.731 40.7869C428.456 40.4887 428.158 39.984 428.479 39.6858Z" fill="#3A3A3A"/>
<path d="M434.369 62.1209C434.896 63.2221 435.423 64.3002 435.973 65.4013C434.873 64.7131 434.231 63.4056 434.369 62.1209Z" fill="#3A3A3A"/>
<path d="M433.222 33.2856C433.245 34.2261 433.956 34.9832 434.414 35.809C434.506 35.9925 434.552 36.3137 434.345 36.3595C433.108 35.2584 432.42 33.5609 432.512 31.9092C432.787 31.7716 433.131 32.0469 433.222 32.3451C433.291 32.6433 433.222 32.9645 433.222 33.2856Z" fill="#3A3A3A"/>
<path d="M429.969 66.1583C430.129 65.7225 430.679 65.4931 431.092 65.6537C430.817 65.9519 430.427 66.1583 430.015 66.1813L429.969 66.1583Z" fill="#3A3A3A"/>
<path d="M416.013 75.7242C415.349 75.7013 414.684 75.426 414.226 74.9443C413.997 74.7149 413.791 74.3708 413.928 74.0496C414.638 74.5543 415.349 75.1049 416.013 75.7242Z" fill="#3A3A3A"/>
<path d="M422.773 44.4344C422.635 44.5032 422.475 44.572 422.338 44.5491C422.246 44.5261 422.154 44.4802 422.108 44.3885C422.956 43.8838 423.896 43.5397 424.858 43.3791C424.171 43.7232 423.46 44.0673 422.773 44.4344Z" fill="#3A3A3A"/>
<path d="M342.73 88.9146C343.097 87.6759 344.174 86.6665 345.411 86.3683C344.632 87.3547 343.738 88.2035 342.73 88.9146Z" fill="#3A3A3A"/>
<path d="M342.066 98.7328C342.088 98.5034 342.157 98.297 342.272 98.1135C342.478 97.8153 342.822 97.6317 343.165 97.4941C342.936 98.5493 342.707 99.6275 342.547 100.683C342.134 100.132 341.974 99.421 342.066 98.7328Z" fill="#3A3A3A"/>
<path d="M413.401 25.2796C413.172 25.509 412.782 25.5549 412.507 25.3714C412.691 25.0502 413.149 24.9585 413.447 25.1879L413.401 25.2796Z" fill="#3A3A3A"/>
<path d="M433.36 54.3673C432.994 54.6196 432.329 54.7343 432.283 54.2985C433.727 53.9544 434.987 52.945 435.652 51.6145C435.812 51.5228 435.995 51.7063 435.995 51.8669C435.995 52.0504 435.858 52.188 435.743 52.3256C435.033 53.0597 434.231 53.7709 433.36 54.3673Z" fill="#3A3A3A"/>
<path d="M416.472 35.3502C415.211 35.6943 414.134 34.4556 413.103 33.6527C412.851 33.4691 412.553 33.2856 412.255 33.2627C411.041 33.2397 410.72 35.4649 409.505 35.3502C410.17 34.2032 411.109 33.2397 412.232 32.5286C412.461 32.391 412.805 32.2763 412.966 32.4827C413.928 33.6527 415.12 34.6391 416.472 35.3502Z" fill="#3A3A3A"/>
<path d="M345.48 92.4932C344.701 92.585 343.899 91.9197 343.876 91.1398C343.853 90.6351 343.119 90.6351 342.661 90.7957C344.357 88.9834 346.121 87.2629 347.977 85.6342C347.588 86.3683 347.084 87.0794 346.511 87.6988C345.823 88.4329 345.021 89.0752 344.632 89.9928C344.265 90.8874 344.54 92.195 345.48 92.4932Z" fill="#3A3A3A"/>
<path d="M451.005 104.261C451.005 103.229 451.005 102.197 451.005 101.164C441.609 112.611 432.329 124.196 423.208 135.872C427.379 135.689 431.549 135.528 435.72 135.345C437.989 135.253 440.784 134.771 441.449 132.615C442.732 128.532 447.659 126.651 449.538 122.82C450.294 121.26 450.5 119.493 450.684 117.75C452.036 104.124 452.861 89.3734 461.66 78.8899C460.996 79.0964 460.331 79.3028 459.667 79.5093C462.76 77.2612 466.449 74.8755 470.139 75.8848C474.401 77.0547 476.303 82.4456 475.203 86.7353C474.126 91.0251 470.941 94.4202 467.87 97.6088C470.093 94.0072 472.316 90.3828 474.539 86.7812C476.326 83.8679 474.607 79.6699 471.514 78.2247C468.42 76.7795 464.57 77.7888 462.004 80.0369C459.437 82.285 457.971 85.5654 457.192 88.8917C459.162 86.0013 461.339 82.9732 464.57 81.6886C467.824 80.4039 472.362 81.918 472.934 85.3589C473.232 87.1712 472.362 89.0064 471.101 90.3139C472.041 88.2723 472.957 85.8636 471.88 83.8908C470.391 81.161 466.22 81.4592 463.654 83.2255C456.023 88.4099 456.71 99.7651 452.586 108.023C454.006 106.716 455.45 105.408 456.871 104.078C456.069 105.064 455.267 106.051 454.465 107.037C455.656 107.129 456.848 106.693 457.719 105.89C457.375 106.831 456.779 107.656 455.977 108.253C460.491 110.616 464.8 113.391 468.833 116.488C464.662 114.401 460.606 112.038 456.71 109.446C462.073 116.695 472.82 119.356 476.166 127.729C469.933 120.159 461.981 114.034 453.09 109.905C452.7 119.883 458.498 129.839 467.343 134.427C469.314 135.459 471.582 136.239 473.714 135.666C475.868 135.092 477.586 132.661 476.715 130.619C476.28 129.61 475.845 127.82 476.922 128.004C477.082 130.16 478.136 132.225 479.763 133.647C478.64 127.086 474.561 121.099 468.901 117.635C472.522 119.952 476.234 122.476 478.342 126.215C480.451 129.977 480.336 135.322 476.968 137.983C474.172 140.185 470.047 139.864 466.931 138.166C463.814 136.469 461.477 133.67 459.231 130.94C463.173 134.978 467.939 139.336 473.553 138.832C475.18 138.694 476.876 138.052 477.861 136.721C478.847 135.414 478.915 133.326 477.701 132.225C477.38 134.381 475.363 136.033 473.209 136.423C471.055 136.813 468.833 136.194 466.862 135.23C458.337 131.055 454.098 121.374 451.807 112.153C451.005 118.736 450.225 125.297 449.423 131.881C449.286 133.12 449.057 134.473 448.071 135.253C447.315 135.826 446.307 135.918 445.367 135.964C410.467 137.914 375.476 138.671 340.53 138.235C340.049 138.235 339.43 138.327 339.293 138.786C339.155 139.244 340.232 139.267 339.957 138.877C336.428 138.258 335.809 133.487 336.084 129.885C337.161 114.768 338.261 99.6275 339.338 84.5102C339.407 85.5883 339.499 86.6665 339.568 87.7447C340.461 86.0701 340.713 84.0743 340.255 82.2391C351.965 82.6062 363.674 82.1933 375.338 81.0233C373.345 80.8169 371.282 80.5875 369.495 79.6469C367.707 78.7064 366.264 76.8712 366.401 74.8525C366.768 69.2552 367.135 63.6579 367.478 58.0606C365.897 64.9196 365.233 71.985 365.531 79.0046C364.568 77.2383 364.706 75.1049 364.843 73.0862C365.806 60.6069 366.745 48.1277 367.707 35.6255C367.18 36.589 366.653 37.5524 366.126 38.5159C366.699 35.419 367.295 32.2992 367.868 29.2023C366.928 28.6289 368.235 26.8854 369.037 27.6195C377.309 27.5048 385.558 27.413 393.831 27.2983C388.835 25.142 384.229 22.114 380.242 18.4206C377.126 15.5302 374.238 10.8964 376.507 7.29485C378.776 3.67037 384.229 4.24386 388.171 5.91846C396.352 9.40531 403.318 15.7138 407.557 23.5133C411.613 15.3926 418.465 8.69418 426.691 4.86323C427.402 4.54208 428.181 4.22092 428.937 4.40444C429.647 4.58796 430.152 5.16145 430.587 5.75789C433.429 9.72647 433.704 15.3697 431.252 19.5906C428.8 23.8115 423.758 26.3578 418.9 25.8531C423.094 25.7843 427.196 23.5821 429.533 20.1182C431.893 16.6543 432.42 12.0204 430.931 8.09774C430.587 7.18015 430.037 6.23962 429.12 5.91846C428.341 5.66613 427.516 5.91846 426.76 6.19374C422.956 7.63895 419.496 10.0247 416.792 13.0986C419.198 12.2957 421.375 10.8505 423.048 8.94652C422.475 9.84117 421.902 10.7358 421.306 11.6305C423.277 10.1623 426.302 12.2269 426.554 14.6585C426.806 17.0901 425.225 19.3382 423.483 21.0587C420.665 23.8344 417.159 25.922 413.378 27.1148C421.925 27.8489 430.564 27.7113 439.089 26.7478C441.449 29.0647 441.541 32.781 441.403 36.0843C441.128 43.058 440.555 50.0317 439.707 56.9595C439.524 55.3766 439.341 53.7938 439.157 52.211C438.195 60.584 437.21 68.957 436.247 77.33C436.178 77.9494 436.064 78.6146 435.605 79.0046C435.193 79.3487 434.597 79.3946 434.07 79.4175C424.698 79.7387 415.303 80.0828 405.93 80.4039C420.779 80.6333 435.605 80.8857 450.455 81.1151C451.6 81.138 452.861 81.2068 453.64 82.0556C454.488 82.9961 454.327 84.4413 454.121 85.6801C453.113 91.8968 452.059 98.0676 451.005 104.261ZM405.266 102.403C409.986 96.0489 414.707 89.6946 419.427 83.3632C417.892 85.9095 416.448 88.5017 415.096 91.1398C415.646 91.7821 414.73 92.9291 413.973 92.5391C414.271 93.5484 413.561 94.5349 412.919 95.3377C401.508 109.423 390.073 123.485 378.661 137.57C380.563 136.951 381.915 135.345 383.175 133.785C386.406 129.816 389.637 125.871 392.868 121.902C389.179 126.88 385.49 131.858 381.777 136.859C394.908 135.551 408.13 134.932 421.329 135.001C416.792 135.276 412.278 135.551 407.74 135.804C411.728 136.469 415.807 136.629 419.84 136.285C420.733 136.216 421.696 136.056 422.269 135.368C428.57 127.591 434.872 119.814 441.174 112.015C441.586 111.51 441.747 110.409 441.082 110.478C436.774 115.249 432.443 120.021 428.135 124.792C433.978 115.617 443.626 109.262 449.171 99.9028C449.355 100.499 449.561 101.119 449.744 101.715C451.967 96.4847 453.25 90.8645 453.456 85.1754C453.502 84.1431 453.434 82.9503 452.609 82.3538C452.013 81.895 451.188 81.918 450.432 81.9638C449.034 82.0327 447.636 82.1015 446.238 82.1703C446.605 82.5373 446.971 82.8814 447.361 83.2485C425.683 81.9409 403.937 81.8721 382.259 83.0879C382.832 83.1338 382.213 84.0055 381.64 84.0743C375.842 84.7396 369.953 84.6019 364.201 83.6385C363.56 83.5238 362.987 84.0514 362.529 84.5331C356.273 91.0709 350.017 97.5858 343.761 104.124C342.661 105.271 341.515 106.464 340.897 107.932C340.301 109.331 340.163 110.868 340.049 112.382C339.522 119.333 338.972 126.306 338.445 133.257C338.353 134.427 339.247 135.482 340.324 135.964C341.401 136.446 342.592 136.469 343.761 136.469C346.236 136.492 348.711 136.515 351.208 136.561C351.942 136.561 352.652 136.583 353.363 136.4C354.852 136.01 355.975 134.84 357.006 133.693C362.529 127.591 367.639 121.076 372.222 114.24C372.336 115.984 371.145 117.521 370.022 118.874C365.278 124.609 360.512 130.344 355.769 136.079C356.433 136.423 357.144 135.804 357.625 135.253C372.451 118.232 386.842 100.797 400.751 83.0191C388.721 102.334 371.557 117.933 358.725 136.698C364.247 136.996 369.793 137.111 375.315 137.042C376.209 137.019 377.126 136.996 377.905 136.606C378.661 136.216 379.211 135.505 379.738 134.817C385.604 127.132 391.471 119.425 397.314 111.74C395.825 114.011 394.335 116.282 392.846 118.553C396.237 115.823 398.964 112.267 400.683 108.253C401.851 108.138 402.447 106.876 402.997 105.844C403.639 104.605 404.464 103.504 405.266 102.403ZM369.587 78.8211C376.117 79.8305 382.694 80.5875 389.294 81.0692C388.652 80.7251 388.01 80.4039 387.392 80.0598C390.187 80.014 392.96 80.1975 395.733 80.5875C396.581 80.7022 397.36 79.9451 397.543 79.0964C397.727 78.2476 397.497 77.3759 397.268 76.5501C396.879 76.573 396.466 76.573 396.077 76.5959C397.016 76.183 397.818 75.449 398.322 74.5543C398.185 76.5042 398.07 78.4311 397.933 80.381C398.437 80.748 399.193 80.4269 399.491 79.8993C399.789 79.3717 399.789 78.7064 399.766 78.087C399.285 62.0751 403.501 46.1548 402.63 30.1429C402.585 29.1335 401.255 28.8124 400.224 28.8124C390.531 28.6289 380.815 28.5371 371.122 28.56C370.549 28.56 369.862 28.6059 369.518 29.0647C369.243 29.4088 369.243 29.8905 369.243 30.3264C369.243 31.2669 369.266 32.2304 369.266 33.1709C370.274 32.4139 371.282 31.6569 372.291 30.8999C373.322 32.4369 374.811 33.6297 376.53 34.295C374.628 34.3179 372.772 33.2397 371.832 31.5881C368.739 33.8821 368.693 38.4012 368.853 42.2551C369.334 53.9085 368.876 65.6078 367.501 77.1924C367.387 78.1788 368.624 78.6605 369.587 78.8211ZM438.584 44.0214C438.584 43.8379 438.584 43.6315 438.493 43.4709C438.012 42.6909 436.797 44.2508 435.995 43.815C438.287 43.058 439.73 40.3052 439.043 37.9653C438.928 37.5754 438.424 37.1625 438.218 37.4836C438.562 34.5014 438.928 31.5422 439.272 28.56C429.441 28.4453 419.588 28.3306 409.757 28.2159C407.145 44.7785 405.724 61.5016 405.495 78.2476C405.495 78.5688 405.495 78.9358 405.701 79.1881C405.999 79.5552 406.526 79.5552 406.984 79.5093C415.692 78.9129 424.423 78.8211 433.154 79.234C433.841 79.257 434.666 79.234 435.033 78.6376C435.17 78.4082 435.216 78.11 435.239 77.8347C435.743 73.912 436.224 69.9663 436.728 66.0436C436.957 64.3002 437.164 62.5339 437.37 60.7904C438.012 55.239 438.424 49.6188 438.584 44.0214ZM340.392 98.4576C340.232 99.5816 340.095 100.706 340.14 101.83C340.255 103.688 340.874 105.775 339.728 107.221C347.152 99.3063 354.577 91.3921 362.002 83.4779C355.86 84.0284 349.696 84.579 343.555 85.1525C343.165 85.1984 342.73 85.2442 342.432 85.5195C342.134 85.7948 342.065 86.2307 342.019 86.6436C341.469 90.5433 340.92 94.5119 340.392 98.4576ZM406.893 36.8413C407.191 33.9968 407.718 30.9687 409.665 28.9041C408.107 28.7435 406.572 28.6059 405.014 28.4453C404.487 28.3995 403.891 28.3765 403.547 28.7665C403.249 29.0876 403.249 29.5694 403.272 30.0052C403.432 33.9738 403.57 37.9195 403.73 41.888C403.776 42.9892 403.799 44.1591 403.295 45.1455C402.882 45.9713 402.791 46.9119 402.722 47.8524C401.92 57.9688 401.141 68.0853 400.339 78.2017C400.27 79.0505 400.224 79.9681 400.751 80.6333C401.324 81.0921 401.989 80.1287 402.103 79.4175C402.607 76.6189 403.112 73.8202 403.616 71.0216C404.074 68.5211 404.532 65.9978 404.876 63.4744C406.091 54.6426 405.953 45.6961 406.893 36.8413ZM381.617 14.7503C384.619 18.1454 388.308 20.9211 392.387 22.8939C396.077 24.6832 400.041 25.7843 404.005 26.8625C404.097 26.8854 404.212 26.9084 404.303 26.8854C404.624 26.7707 404.464 26.3119 404.257 26.0367C399.583 20.0723 394.518 13.8098 387.415 11.1717C385.948 10.6211 384.275 10.2541 382.832 10.8964C381.411 11.5387 380.563 13.5804 381.617 14.7503ZM404.212 20.8064C400.797 15.5991 396.168 11.1717 390.783 8.02892C387.438 6.0561 383.359 4.56502 379.715 5.87259C379.096 6.10198 378.432 6.81312 378.89 7.27191C377.424 7.59307 376.53 9.24473 376.599 10.7588C376.69 12.2728 377.515 13.6262 378.455 14.8191C382.167 19.5676 387.644 22.5269 393.006 25.2796C393.739 25.6696 394.931 25.8761 395.16 25.0732C390.302 23.0545 385.788 20.1641 381.938 16.5625C380.884 15.5761 379.807 14.3832 379.807 12.938C379.807 11.4928 380.953 10.2541 382.305 9.77235C383.657 9.29061 385.146 9.42825 386.544 9.77235C393.418 11.424 398.46 17.159 403.02 22.5727C403.707 23.3756 404.395 24.2015 404.876 25.142C405.243 25.8302 405.472 26.5872 405.609 27.3672C406.641 25.2796 405.495 22.7792 404.212 20.8064ZM406.48 26.5413C407.259 27.5736 408.84 27.4589 410.078 27.1378C414.157 26.1514 418.075 24.4079 421.306 21.724C423.231 20.1182 424.904 18.1224 425.614 15.7367C425.889 14.7732 425.958 13.5574 425.179 12.9151C424.881 12.6628 424.514 12.5251 424.148 12.4563C422.475 12.0663 420.688 12.5022 419.175 13.328C417.663 14.1538 416.38 15.3238 415.119 16.5166C411.865 19.4988 408.611 22.6416 406.48 26.5413ZM445.597 134.381C446.124 134.519 446.605 134.932 447.132 134.909C448.071 134.863 448.461 133.716 448.621 132.798C449.08 129.977 449.4 127.132 449.63 124.265C449.034 124.563 448.644 125.182 448.301 125.756C446.215 129.082 443.717 132.133 440.899 134.863C442.274 135.712 444.038 133.945 445.597 134.381ZM338.307 119.241C337.734 122.544 337.299 125.894 337.001 129.22C337.597 128.784 337.872 128.027 338.055 127.316C338.972 123.783 339.086 120.113 339.224 116.465C339.315 113.85 339.407 111.212 339.499 108.597C339.155 108.505 338.949 108.987 338.903 109.354C338.513 112.726 338.124 116.075 337.734 119.447C337.666 119.998 337.597 120.549 337.711 121.076C337.872 120.48 338.101 119.86 338.307 119.241ZM439.409 32.9645C439.203 33.3544 438.951 33.8821 439.249 34.2032C439.936 34.9373 439.959 36.0613 439.891 37.0707C439.661 40.7181 439.043 44.3885 439.639 47.9671C440.441 47.1871 440.486 45.9484 440.509 44.8243C440.532 40.0758 440.578 35.3043 440.601 30.5558C440.601 30.3035 440.601 30.0511 440.464 29.8447C440.326 29.6382 440.028 29.5235 439.822 29.6611C440.097 30.7623 439.936 31.9551 439.409 32.9645ZM404.051 70.104C404.097 72.8568 403.707 75.6095 402.837 78.2017C402.676 78.7064 402.493 79.234 402.539 79.7616C402.607 80.2893 402.997 80.8398 403.524 80.8398C403.982 80.8627 404.372 80.4957 404.532 80.0828C404.716 79.6699 404.693 79.2111 404.693 78.7523C404.67 76.1142 404.647 73.4532 404.624 70.8151C404.647 70.4481 404.395 69.8975 404.051 70.104ZM380.586 83.9826C380.884 83.7073 381.205 83.432 381.502 83.1567C377.355 82.3997 373.115 82.3079 368.945 82.8814C368.876 83.4549 369.678 83.6843 370.274 83.7073C372.611 83.7302 374.972 83.6614 377.309 83.5238C378.432 83.432 379.646 83.3632 380.586 83.9826ZM401.805 27.0001C400.201 26.5643 398.597 26.1055 396.993 25.6696C396.512 25.532 395.916 25.4402 395.618 25.8302C397.383 27.413 399.903 28.0783 402.218 27.5966C402.447 27.3901 402.103 27.0689 401.805 27.0001ZM454.556 97.0353C455.175 95.3377 455.817 93.6402 456.435 91.9427C456.71 91.2086 456.985 90.3369 456.619 89.6487C456.092 90.2681 455.794 91.0709 455.771 91.8968C454.877 93.4108 454.442 95.223 454.556 97.0353ZM339.407 97.7923C339.728 95.4295 340.026 93.0896 340.347 90.7268C340.392 90.3139 340.392 89.7863 340.026 89.6028C339.728 89.901 339.659 90.3828 339.613 90.7957C339.43 92.6997 339.224 94.6037 339.04 96.5077C339.018 96.9894 339.018 97.5629 339.407 97.7923ZM360.145 133.854C359.183 134.358 358.312 135.001 357.556 135.781C357.258 136.079 356.983 136.561 357.258 136.882C358.518 136.262 359.573 135.161 360.145 133.854ZM367.112 48.4488C367.753 47.6918 367.914 46.6595 368.051 45.6731C368.12 45.1455 368.143 44.5032 367.707 44.205C367.066 45.5125 366.86 47.0266 367.112 48.4488ZM469.658 77.0318C469.818 76.7565 469.428 76.5042 469.131 76.4354C467.779 76.1601 466.335 76.3207 465.075 76.8483C466.449 76.963 467.801 77.0547 469.176 77.1694C469.337 77.1694 469.566 77.1694 469.658 77.0318ZM388.629 136.4C388.629 136.79 389.087 136.973 389.477 136.996C390.073 137.065 390.692 137.019 391.287 136.882C390.646 136.194 389.5 135.987 388.629 136.4ZM455.908 94.6496C455.84 95.0166 456.069 95.4066 456.413 95.5442C456.573 95.1083 456.756 94.6954 456.917 94.2596C456.527 94.1678 456.115 94.3055 455.863 94.6037L455.908 94.6496ZM337.574 134.955C337.849 134.588 337.895 134.083 337.688 133.693C337.413 133.9 337.139 134.129 337.07 134.473C337.001 134.817 337.345 135.207 337.666 135.047L337.574 134.955ZM455.381 109.239C455.336 108.758 454.694 108.482 454.327 108.758C454.419 108.987 454.533 109.193 454.625 109.423C454.9 109.492 455.198 109.446 455.45 109.331L455.381 109.239ZM367.707 43.5397C368.051 43.0121 368.12 42.301 367.868 41.7275C367.547 42.2321 367.433 42.8974 367.593 43.4938L367.707 43.5397ZM336.428 131.055C336.428 131.261 336.428 131.468 336.405 131.674C336.68 131.812 337.001 131.514 337.001 131.216C337.001 130.917 336.818 130.642 336.634 130.413C336.543 130.619 336.428 130.826 336.336 131.032L336.428 131.055ZM351.208 83.3632C350.842 83.4091 350.475 83.4549 350.109 83.4779C350.429 83.7073 350.796 83.8679 351.208 83.9367C351.392 83.7532 351.438 83.2714 351.186 83.3632H351.208ZM448.369 102.931C448.69 102.862 448.873 102.472 448.782 102.174C448.484 102.357 448.209 102.541 447.911 102.701C447.682 102.931 448.255 103.275 448.369 102.977V102.931ZM452.127 110.455C451.692 110.616 451.555 111.281 451.898 111.602C452.242 111.304 452.334 110.776 452.104 110.386L452.127 110.455ZM404.647 68.0165C404.739 67.6724 404.716 67.1677 404.372 67.1448C404.441 67.81 404.509 68.4523 404.578 69.1176C404.716 68.7735 404.739 68.4064 404.67 68.0394L404.647 68.0165ZM404.074 104.628C404.189 104.468 403.845 104.261 403.753 104.445C403.684 104.697 403.593 104.95 403.524 105.225C403.684 105.362 403.959 105.362 404.12 105.225C404.097 105.041 404.097 104.835 404.074 104.628ZM354.44 83.2944C354.073 83.1338 353.615 83.1567 353.248 83.3402C353.615 83.4779 354.004 83.6155 354.371 83.7532C354.394 83.5926 354.44 83.4549 354.462 83.2944H354.44ZM381.136 137.065C380.975 137.157 380.815 137.226 380.655 137.318C380.746 137.501 380.838 137.685 380.953 137.845C381.273 137.73 381.525 137.432 381.594 137.088C381.434 137.065 381.296 137.019 381.136 136.996V137.065ZM391.929 82.6291C392.089 82.1703 391.196 81.8492 391.035 82.3079C391.264 82.5144 391.585 82.6062 391.883 82.6062L391.929 82.6291ZM455.519 97.7464C455.129 97.6088 454.74 98.2282 455.061 98.5034C455.313 98.3658 455.496 98.0676 455.496 97.7923L455.519 97.7464ZM407.213 136.148C407.259 135.987 407.236 135.804 407.122 135.666C406.961 135.62 406.778 135.666 406.618 135.758C406.595 136.056 406.961 136.308 407.213 136.148ZM444.955 128.899C444.932 129.059 445.092 129.22 445.253 129.197C445.344 128.967 445.459 128.738 445.551 128.509C445.322 128.394 445.001 128.646 445.047 128.899H444.955ZM405.495 21.2193C405.243 21.0358 404.922 21.5405 405.197 21.701C405.334 21.7928 405.541 21.7699 405.632 21.6552C405.724 21.5175 405.632 21.2881 405.472 21.2881L405.495 21.2193ZM386.086 82.5144C386.131 82.3309 386.086 82.1244 385.971 81.9868C385.811 82.1015 385.65 82.1932 385.513 82.3079C385.581 82.5373 385.879 82.652 386.108 82.5603L386.086 82.5144Z" fill="#3A3A3A"/>
</g>
<g clip-path="url(#clip1)">
<path d="M367.134 140.108C365.984 139.566 364.901 138.84 363.977 137.952C363.469 137.475 362.984 136.882 362.887 136.195C364.387 137.423 365.795 138.719 367.134 140.108Z" fill="#3A3A3A"/>
<path d="M246.845 131.243C246.838 130.143 247.06 129.065 247.512 128.054C247.896 127.203 248.419 126.42 248.964 125.661C248.679 127.656 247.958 129.563 246.845 131.243Z" fill="#3A3A3A"/>
<path d="M249.214 135.627C249.458 137.849 249.519 140.071 249.443 142.317C249.061 140.097 248.977 137.852 249.214 135.627Z" fill="#3A3A3A"/>
<path d="M401.901 172.668C401.787 172.829 401.673 172.967 401.56 173.129C400.891 172.675 400.633 171.714 400.972 170.978C401.547 171.295 401.919 171.958 401.854 172.622L401.901 172.668Z" fill="#3A3A3A"/>
<path d="M367.668 154.679C367.303 154.934 366.819 154.639 366.473 154.343C365.273 153.297 364.05 152.274 362.851 151.228C363.239 150.951 363.745 151.268 364.092 151.587C365.291 152.61 366.491 153.656 367.668 154.679Z" fill="#3A3A3A"/>
<path d="M300.168 160.173C300.505 159.025 301.186 157.966 302.121 157.181C301.808 158.351 301.104 159.41 300.168 160.173Z" fill="#3A3A3A"/>
<path d="M323.731 50.9586C324.769 51.7766 325.624 52.8021 326.251 53.9666C325.191 53.1946 324.312 52.1693 323.731 50.9586Z" fill="#3A3A3A"/>
<path d="M240.107 104.844C240.892 105.503 241.676 106.185 242.438 106.845C242.669 107.049 242.9 107.369 242.718 107.599C241.658 106.873 240.757 105.939 240.107 104.844Z" fill="#3A3A3A"/>
<path d="M320.732 48.4808C321.538 48.9796 322.344 49.4783 323.151 50C322.121 50.3048 320.9 49.5339 320.732 48.4808Z" fill="#3A3A3A"/>
<path d="M339.77 61.8737C342.613 61.5568 345.359 60.5072 347.687 58.8187C348.851 57.963 350.085 57.1986 351.365 56.5025C349.843 58.7126 347.398 60.1039 344.927 61.1746C343.303 61.873 341.472 62.4581 339.77 61.8737Z" fill="#3A3A3A"/>
<path d="M303.228 147.686C303.253 148.052 303.003 148.444 302.637 148.561C302.7 147.621 302.946 146.68 303.399 145.852C303.334 146.471 303.27 147.09 303.205 147.686L303.228 147.686Z" fill="#3A3A3A"/>
<path d="M347.263 190.702C347.673 190.309 348.292 190.191 348.821 190.416C348.206 191.085 347.222 191.389 346.349 191.166C346.507 190.844 346.896 190.658 347.263 190.702Z" fill="#3A3A3A"/>
<path d="M233.574 98.7231C234.222 99.5895 234.893 100.433 235.541 101.299C235.68 101.482 235.82 101.756 235.66 101.917C234.782 100.961 234.087 99.8883 233.574 98.7231Z" fill="#3A3A3A"/>
<path d="M362.611 94.9257C361.784 94.8167 361.001 94.3636 360.492 93.6796C361.364 93.7196 362.17 94.1954 362.611 94.9257Z" fill="#3A3A3A"/>
<path d="M369.513 183.495C369.4 183.725 369.148 183.887 368.896 183.934C368.709 183.34 369.14 182.65 369.736 182.554C369.853 182.874 369.764 183.264 369.49 183.495L369.513 183.495Z" fill="#3A3A3A"/>
<path d="M356.78 87.4255C356.893 87.2643 357.007 87.1261 357.121 86.9649C357.515 87.6268 357.567 88.4743 357.227 89.1641C357.04 88.6154 356.945 88.0431 356.918 87.4704L356.78 87.4255Z" fill="#3A3A3A"/>
<path d="M363.342 138.988C363.112 138.875 362.882 138.785 362.675 138.672C362.628 138.511 362.672 138.328 362.763 138.19C363.223 138.347 363.638 138.619 363.916 139.007C363.779 139.168 363.481 139.147 363.388 138.965L363.342 138.988Z" fill="#3A3A3A"/>
<path d="M385.099 171.314C385.467 171.426 385.835 171.561 386.203 171.673C385.701 172.066 384.897 171.911 384.549 171.386C384.733 171.339 384.916 171.292 385.099 171.222L385.099 171.314Z" fill="#3A3A3A"/>
<path d="M341.161 183.891C341.233 184.326 340.523 184.514 340.223 184.218C339.9 183.922 339.896 183.418 339.916 182.983C340.308 183.301 340.724 183.619 341.116 183.96L341.161 183.891Z" fill="#3A3A3A"/>
<path d="M398.674 156.74C398.443 156.536 398.213 156.354 398.005 156.149C398.717 156.259 399.362 156.667 399.756 157.283C399.365 157.194 398.997 156.99 398.72 156.717L398.674 156.74Z" fill="#3A3A3A"/>
<path d="M361.175 185.407C361.017 185.82 360.468 186.053 360.054 185.85C360.167 185.597 360.28 185.321 360.509 185.205C360.737 185.066 361.128 185.178 361.153 185.453L361.175 185.407Z" fill="#3A3A3A"/>
<path d="M320.746 47.1975C321.274 47.1481 321.804 47.5341 321.922 48.0375C321.462 47.926 321.024 47.631 320.769 47.2202L320.746 47.1975Z" fill="#3A3A3A"/>
<path d="M380.987 184.106C380.965 184.312 380.967 184.541 380.945 184.747C380.484 184.361 380.57 183.49 381.095 183.211C381.051 183.509 381.008 183.808 380.941 184.106L380.987 184.106Z" fill="#3A3A3A"/>
<path d="M282.186 170.789C282.21 170.949 282.234 171.109 282.258 171.269C282.075 171.362 281.915 171.478 281.732 171.571C281.638 171.251 281.842 170.883 282.14 170.789L282.186 170.789Z" fill="#3A3A3A"/>
<path d="M356.501 182.78C356.179 182.782 355.858 182.761 355.537 182.764C355.833 182.464 356.497 182.299 356.523 182.711L356.501 182.78Z" fill="#3A3A3A"/>
<path d="M354.009 187.472C353.849 187.587 353.663 187.268 353.823 187.129C353.983 186.99 354.212 187.035 354.396 187.125C354.58 187.193 354.81 187.283 354.993 187.19C354.903 187.351 354.835 187.535 354.744 187.696C354.491 187.606 354.238 187.516 354.008 187.426L354.009 187.472Z" fill="#3A3A3A"/>
<path d="M262.723 148.851C263.045 148.94 263.367 149.03 263.688 149.119C263.391 149.328 262.909 149.239 262.701 148.92L262.723 148.851Z" fill="#3A3A3A"/>
<path d="M361.776 186.09C361.821 185.838 362.187 185.767 362.395 185.926C362.602 186.085 362.673 186.359 362.72 186.611C362.4 186.797 361.917 186.479 361.96 186.112L361.776 186.09Z" fill="#3A3A3A"/>
<path d="M361.929 119.909C361.95 116.196 361.971 112.484 361.969 108.771C361.964 108.038 361.982 107.282 362.138 106.547C362.737 106.933 362.766 107.78 362.724 108.491C362.452 112.297 362.202 116.103 361.929 119.909Z" fill="#3A3A3A"/>
<path d="M378 162.928C378.208 163.042 378.37 163.247 378.417 163.499C378.234 163.477 378.027 163.432 377.911 163.273C377.795 163.113 377.839 162.838 378.046 162.836L378 162.928Z" fill="#3A3A3A"/>
<path d="M375.088 187.055C374.952 187.308 374.494 187.334 374.331 187.083C374.56 186.944 374.881 186.942 375.134 187.078L375.088 187.055Z" fill="#3A3A3A"/>
<path d="M223.175 145.655C223.222 145.839 222.879 145.91 222.786 145.727C222.693 145.567 222.76 145.36 222.828 145.177C222.921 145.336 223.036 145.496 223.129 145.679L223.175 145.655Z" fill="#3A3A3A"/>
<path d="M384.776 181.33C384.547 181.309 384.613 180.873 384.842 180.849C385.071 180.801 385.279 181.006 385.463 181.165C385.258 181.281 385.005 181.306 384.776 181.239L384.776 181.33Z" fill="#3A3A3A"/>
<path d="M306.188 89.5975C306.345 89.0924 306.479 88.6102 306.637 88.105C306.826 88.9058 306.739 89.7543 306.4 90.4898C306.124 90.2855 306.052 89.8964 306.188 89.5975Z" fill="#3A3A3A"/>
<path d="M350.938 167.487C350.801 167.533 350.618 167.557 350.502 167.444C350.433 167.375 350.409 167.284 350.432 167.215C351.095 166.958 351.782 166.771 352.493 166.651C352.036 167.044 351.488 167.345 350.938 167.487Z" fill="#3A3A3A"/>
<path d="M338.38 169.404C338.501 170.32 338.461 171.26 338.284 172.154C338.217 172.522 338.082 172.935 337.74 173.144C337.533 173.099 337.371 172.94 337.324 172.757C337.729 171.631 338.066 170.529 338.38 169.404Z" fill="#3A3A3A"/>
<path d="M308.195 77.622C307.878 78.1741 307.745 78.8396 307.84 79.4577C307.263 78.9345 307.439 77.8104 308.172 77.5076L308.195 77.622Z" fill="#3A3A3A"/>
<path d="M306.731 74.8132C306.571 74.8601 306.387 74.8384 306.249 74.7477C306.339 74.4492 306.429 74.1736 306.519 73.8751C306.773 74.1255 306.867 74.5144 306.778 74.8587L306.731 74.8132Z" fill="#3A3A3A"/>
<path d="M334.335 116.908C334.014 116.864 333.714 116.66 333.551 116.363C333.895 116.292 334.264 116.542 334.312 116.885L334.335 116.908Z" fill="#3A3A3A"/>
<path d="M358.609 161.867C358.748 162.164 358.751 162.53 358.615 162.852C358.476 162.555 358.473 162.188 358.609 161.867Z" fill="#3A3A3A"/>
<path d="M306.419 72.7758C306.188 72.5253 306.163 72.113 306.344 71.8368C306.69 72.0178 306.762 72.5443 306.466 72.8213L306.419 72.7758Z" fill="#3A3A3A"/>
<path d="M406.421 152.266C406.214 152.198 406.303 151.831 406.51 151.853C406.67 151.829 406.809 152.011 406.764 152.172C406.72 152.332 406.514 152.402 406.375 152.289L406.421 152.266Z" fill="#3A3A3A"/>
<path d="M307.832 95.2697C307.325 94.9522 306.772 94.6351 306.425 94.1333C305.892 93.4035 305.816 92.3499 306.27 91.5678C306.188 92.9891 307.366 94.1728 308.541 94.9441C309.739 95.7381 311.097 96.4165 311.793 97.6493C310.458 96.8791 309.145 96.0629 307.832 95.2697Z" fill="#3A3A3A"/>
<path d="M351.664 162.807C353.005 164.31 354.345 165.814 355.686 167.294C356.264 167.955 356.864 168.616 357.442 169.253C357.673 169.527 357.815 170.076 357.448 170.101C354.952 167.391 352.457 164.681 349.938 161.948C350.602 161.76 351.225 162.306 351.664 162.807Z" fill="#3A3A3A"/>
<path d="M254.403 119.208C255.023 119.181 255.617 118.902 256.027 118.441C256.961 117.426 256.927 115.754 257.953 114.807C258.032 116.411 257.355 118.019 256.146 119.059C255.712 119.428 255.878 120.183 256.248 120.616C256.618 121.049 257.148 121.366 257.472 121.823C257.796 122.279 257.847 123.08 257.321 123.336C256.509 121.875 255.536 120.483 254.403 119.208Z" fill="#3A3A3A"/>
<path d="M294.517 141.809C296.323 140.903 297.827 139.404 298.756 137.633C298.399 139.194 297.654 140.963 296.097 141.34C295.501 141.482 295.415 142.353 295.786 142.855C296.133 143.357 296.731 143.605 297.193 143.991C297.677 144.377 298.049 145.04 297.777 145.568C296.599 144.385 295.512 143.132 294.517 141.809Z" fill="#3A3A3A"/>
<path d="M257.344 126.636C257.588 128.811 256.043 131.067 253.936 131.631C254.838 132.725 255.763 133.819 256.665 134.936C256.897 135.209 257.128 135.506 257.153 135.849C257.201 136.193 256.952 136.607 256.607 136.586C256.159 134.687 254.361 133.462 253.181 131.911C252.996 131.66 252.924 131.203 253.222 131.155C254.299 131.056 255.235 130.362 255.895 129.51C256.554 128.635 256.96 127.624 257.344 126.636Z" fill="#3A3A3A"/>
<path d="M272.412 139.803C271.977 139.921 271.45 139.993 271.127 139.697C274.011 138.738 276.637 136.979 278.617 134.674C277.395 137.134 275.068 139.052 272.412 139.803Z" fill="#3A3A3A"/>
<path d="M286.594 143.925C286.365 144.018 286.113 144.134 285.883 144.067C285.746 144.022 285.607 143.931 285.538 143.817C287.619 142.841 289.513 141.43 291.039 139.724C290.709 141.835 288.538 143.041 286.594 143.925Z" fill="#3A3A3A"/>
<path d="M262.903 138.079C263.747 137.432 264.615 136.762 265.09 135.819C265.837 134.37 265.504 132.585 264.738 131.169C263.971 129.754 262.771 128.593 261.662 127.409C262.738 127.15 263.883 126.821 264.565 125.969C265.361 124.955 265.351 123.397 266.355 122.588C266.322 124.513 265.279 126.399 263.657 127.418C263.269 127.65 262.837 128.203 263.228 128.453C264.565 129.291 265.628 130.568 266.097 132.077C266.566 133.586 266.371 135.306 265.462 136.573C264.894 137.379 264.095 137.98 263.296 138.581C262.68 139.043 261.972 139.529 261.214 139.397C261.785 138.958 262.332 138.519 262.903 138.079Z" fill="#3A3A3A"/>
<path d="M266.023 114.134C265.613 114.527 265.18 114.919 264.908 115.425C264.659 115.931 264.617 116.596 264.965 117.052C265.751 118.078 266.47 119.15 267.097 120.291C266.984 120.567 266.569 120.341 266.384 120.09C265.458 118.767 264.554 117.421 263.628 116.098C264.356 115.291 265.039 114.485 265.722 113.632C265.837 113.792 265.93 113.952 266.023 114.134Z" fill="#3A3A3A"/>
<path d="M264.761 144.896C263.744 143.734 263.046 142.295 262.738 140.784C264.006 141.738 264.773 143.315 264.761 144.896Z" fill="#3A3A3A"/>
<path d="M290.32 138.583C289.505 136.687 288.62 134.836 287.668 133.032C289.488 134.189 290.558 136.428 290.32 138.583Z" fill="#3A3A3A"/>
<path d="M295.418 129.039C297.124 130.357 298.398 132.181 299.077 134.216C299.124 134.376 299.148 134.628 298.988 134.675C297.668 132.851 296.486 130.98 295.418 129.039Z" fill="#3A3A3A"/>
<path d="M290.256 125.567C289.627 124.128 288.701 122.805 287.592 121.69C289.432 122.434 290.729 124.327 290.766 126.32C290.489 126.139 290.373 125.842 290.256 125.567Z" fill="#3A3A3A"/>
<path d="M277.205 125.838C276.911 126.528 276.387 127.127 275.748 127.544C275.085 127.961 274.261 128.149 273.525 127.948C274.783 127.298 276.017 126.602 277.205 125.838Z" fill="#3A3A3A"/>
<path d="M278.283 132.66C277.449 131.428 276.614 130.196 275.757 128.964C277.298 129.458 278.409 131.055 278.283 132.66Z" fill="#3A3A3A"/>
<path d="M277.761 119.899C277.53 119.58 277.504 119.145 277.685 118.8C278.15 119.622 278.317 120.629 278.163 121.569C277.815 121.091 277.673 120.45 277.807 119.876L277.761 119.899Z" fill="#3A3A3A"/>
<path d="M287.876 119.534C288.809 118.405 289.765 117.275 290.882 116.282C290.342 117.913 289.182 119.342 287.697 120.199C287.558 119.994 287.716 119.718 287.876 119.534Z" fill="#3A3A3A"/>
<path d="M286.745 132.237C286.448 132.399 286.036 132.539 285.851 132.265C287.589 131.475 289.164 130.318 290.416 128.866C290.761 129.047 290.489 129.576 290.193 129.83C289.121 130.754 287.956 131.541 286.745 132.237Z" fill="#3A3A3A"/>
<path d="M275.264 144.367C275.117 142.879 274.259 141.486 272.992 140.67C273.379 140.324 273.956 140.755 274.257 141.189C274.998 142.215 275.533 143.38 275.84 144.615C275.655 144.525 275.471 144.457 275.264 144.367Z" fill="#3A3A3A"/>
<path d="M299.345 122.825C298.828 124.479 298.174 126.064 297.427 127.628C297.223 128.042 296.673 128.091 296.238 128.186C295.803 128.28 295.278 128.696 295.487 129.084C295.028 128.996 295.046 128.262 295.411 127.962C295.776 127.662 296.28 127.612 296.691 127.381C298.269 126.545 297.884 123.889 299.345 122.825Z" fill="#3A3A3A"/>
<path d="M288.044 106.975C286.934 105.63 285.254 104.793 283.51 104.713C285.613 103.622 287.367 101.823 288.385 99.6622C288.777 100.026 288.53 100.715 288.234 101.153C287.462 102.327 286.437 103.319 285.249 104.083C286.332 104.855 287.302 105.857 288.044 106.975Z" fill="#3A3A3A"/>
<path d="M257.621 89.2582C257.33 90.2914 256.371 90.9623 255.48 91.5641C255.115 91.8186 255.417 92.3895 255.717 92.7083C256.526 93.505 257.334 94.3245 258.119 95.1213C257.663 95.491 257.018 95.0141 256.624 94.5584C255.723 93.5103 254.821 92.4852 253.897 91.4372C255.154 90.7184 256.388 89.9998 257.621 89.2582Z" fill="#3A3A3A"/>
<path d="M277.21 85.5292C276.987 86.539 276.489 87.5048 275.76 88.243C275.464 88.5429 275.697 89.0684 275.929 89.4106C277.018 91.0303 278.084 92.6502 279.173 94.2699C278.761 94.4102 278.413 93.9313 278.204 93.5202C277.321 91.7387 276.117 90.1426 274.64 88.8005C275.504 87.7177 276.369 86.6348 277.21 85.5292Z" fill="#3A3A3A"/>
<path d="M283.468 91.6059C284.759 92.5368 286.026 93.4678 287.317 94.3758C287.778 94.7165 288.262 95.0799 288.564 95.5591C288.865 96.0612 288.939 96.7253 288.598 97.2088C288.154 96.0202 287.344 94.9715 286.307 94.2451C285.201 93.4963 283.752 92.9102 283.468 91.6059Z" fill="#3A3A3A"/>
<path d="M260.198 100.63C262.717 100.063 265.001 98.5355 266.501 96.463C265.964 98.3686 264.23 99.8698 262.282 100.158C261.938 100.206 261.781 100.665 261.921 101.008C262.061 101.328 262.36 101.555 262.637 101.76C264.043 102.804 265.177 104.195 265.921 105.771C263.869 104.18 262.567 101.623 260.198 100.63Z" fill="#3A3A3A"/>
<path d="M256.874 83.878C257.753 85.0179 258.404 86.2968 258.803 87.6691C257.625 86.4395 256.675 84.9793 256.022 83.4254C256.343 83.3087 256.666 83.6044 256.874 83.878Z" fill="#3A3A3A"/>
<path d="M274.872 99.5694C276.495 98.596 278.094 97.6229 279.716 96.6495C278.466 98.3766 276.639 99.6492 274.601 100.213C274.371 100.031 274.644 99.7084 274.872 99.5694Z" fill="#3A3A3A"/>
<path d="M278.51 104.907C278.557 105.113 278.604 105.319 278.583 105.526C278.584 105.709 278.471 105.962 278.264 105.917C277.657 104.271 276.889 102.672 275.961 101.166C277.252 102.051 278.178 103.397 278.51 104.907Z" fill="#3A3A3A"/>
<path d="M285.211 91.5484C286.327 90.418 287.56 89.4244 288.884 88.5676C288.275 90.107 286.838 91.2854 285.211 91.5484Z" fill="#3A3A3A"/>
<path d="M295.969 87.9931C295.604 88.2706 295.562 88.8208 295.725 89.2322C295.888 89.6436 296.235 89.985 296.535 90.3267C297.598 91.5112 298.388 92.9496 298.788 94.4823C298.93 95.0772 299.003 95.7871 298.524 96.1799C297.933 93.5714 296.632 91.151 294.807 89.2154C294.391 88.7828 294.96 88.1144 295.417 87.7218C296.899 86.4744 297.736 84.6127 298.527 82.8429C298.563 84.8363 297.59 86.8136 295.969 87.9931Z" fill="#3A3A3A"/>
<path d="M298.001 103.631C298.51 104.407 298.815 105.321 298.867 106.261C298.893 106.787 298.851 107.338 298.648 107.843C298.189 107.8 298.07 107.205 298.044 106.747C298.037 105.716 298.03 104.662 298.001 103.631Z" fill="#3A3A3A"/>
<path d="M262.029 86.3184C262.734 85.4199 263.554 84.5895 264.444 83.8731C264.627 83.7344 265.04 83.7317 264.949 83.9614C264.404 84.7213 263.789 85.4129 263.128 86.0589C262.832 86.3359 262.329 86.6372 262.029 86.3184Z" fill="#3A3A3A"/>
<path d="M284.424 80.2791C285.522 79.7447 286.596 79.2104 287.694 78.6531C287.013 79.7576 285.71 80.4079 284.424 80.2791Z" fill="#3A3A3A"/>
<path d="M255.597 81.6179C256.537 81.5887 257.29 80.8732 258.112 80.4094C258.295 80.3165 258.616 80.2685 258.663 80.4745C257.571 81.7192 255.878 82.4181 254.225 82.3375C254.086 82.0634 254.359 81.7178 254.656 81.6242C254.954 81.5534 255.276 81.62 255.597 81.6179Z" fill="#3A3A3A"/>
<path d="M288.491 84.6517C288.054 84.4942 287.821 83.9458 287.979 83.5322C288.279 83.8052 288.488 84.1934 288.514 84.6057L288.491 84.6517Z" fill="#3A3A3A"/>
<path d="M298.15 98.5427C298.132 99.2074 297.861 99.8737 297.382 100.335C297.154 100.566 296.812 100.774 296.489 100.639C296.989 99.9254 297.535 99.2114 298.15 98.5427Z" fill="#3A3A3A"/>
<path d="M266.815 91.9924C266.885 92.1294 266.955 92.2893 266.933 92.427C266.911 92.5188 266.865 92.6108 266.774 92.6572C266.264 91.8127 265.913 90.8755 265.746 89.9142C266.095 90.5993 266.444 91.3074 266.815 91.9924Z" fill="#3A3A3A"/>
<path d="M311.831 171.736C310.59 171.377 309.573 170.307 309.267 169.072C310.258 169.844 311.113 170.732 311.831 171.736Z" fill="#3A3A3A"/>
<path d="M321.653 172.335C321.424 172.313 321.217 172.246 321.032 172.133C320.733 171.928 320.547 171.586 320.407 171.243C321.464 171.465 322.543 171.687 323.6 171.84C323.052 172.256 322.342 172.422 321.653 172.335Z" fill="#3A3A3A"/>
<path d="M247.724 101.493C247.955 101.72 248.003 102.11 247.822 102.386C247.499 102.205 247.404 101.747 247.632 101.448L247.724 101.493Z" fill="#3A3A3A"/>
<path d="M276.677 81.3392C276.932 81.7042 277.051 82.3679 276.616 82.4167C276.262 80.9754 275.244 79.7218 273.909 79.0662C273.816 78.9064 273.999 78.7218 274.159 78.7208C274.343 78.7195 274.481 78.8561 274.62 78.9698C275.359 79.6752 276.075 80.4725 276.677 81.3392Z" fill="#3A3A3A"/>
<path d="M257.774 98.3548C258.126 99.6128 256.895 100.698 256.099 101.735C255.917 101.988 255.736 102.287 255.715 102.585C255.7 103.8 257.927 104.106 257.82 105.321C256.669 104.664 255.699 103.731 254.981 102.613C254.841 102.385 254.724 102.042 254.93 101.88C256.093 100.91 257.072 99.7115 257.774 98.3548Z" fill="#3A3A3A"/>
<path d="M315.391 168.962C315.488 169.741 314.828 170.547 314.048 170.575C313.544 170.601 313.548 171.335 313.712 171.792C311.889 170.108 310.156 168.355 308.515 166.51C309.252 166.895 309.966 167.394 310.59 167.963C311.328 168.646 311.976 169.443 312.896 169.827C313.793 170.187 315.099 169.904 315.391 168.962Z" fill="#3A3A3A"/>
<path d="M326.452 63.3608C325.42 63.3677 324.388 63.3746 323.355 63.3815C334.865 72.6999 346.512 81.9028 358.249 90.9447C358.037 86.7755 357.849 82.606 357.637 78.4368C357.53 76.1688 357.03 73.3765 354.869 72.7264C350.777 71.4705 348.863 66.5564 345.02 64.703C343.455 63.9573 341.687 63.7629 339.943 63.5913C326.308 62.3305 311.552 61.6044 301.01 52.8753C301.221 53.5385 301.432 54.2016 301.643 54.8647C299.374 51.7863 296.964 48.113 297.948 44.417C299.09 40.147 304.468 38.209 308.765 39.2801C313.061 40.3284 316.478 43.4908 319.687 46.5401C316.071 44.3414 312.431 42.143 308.815 39.9444C305.89 38.1765 301.703 39.9232 300.279 43.0264C298.854 46.1296 299.89 49.9725 302.155 52.5239C304.42 55.0753 307.71 56.5199 311.042 57.2767C308.138 55.3254 305.095 53.1688 303.789 49.9464C302.483 46.7011 303.966 42.1538 307.403 41.5579C309.214 41.2479 311.055 42.1064 312.371 43.3579C310.323 42.4321 307.908 41.5316 305.942 42.6218C303.223 44.1296 303.549 48.2981 305.332 50.8527C310.568 58.4486 321.918 57.6851 330.204 61.7545C328.887 60.3425 327.569 58.9076 326.229 57.4958C327.221 58.2912 328.213 59.0867 329.205 59.8821C329.289 58.6899 328.845 57.5012 328.036 56.6358C328.979 56.9733 329.809 57.5635 330.41 58.3616C332.743 53.8315 335.49 49.505 338.56 45.4512C336.5 49.6357 334.164 53.7074 331.598 57.6203C338.811 52.2097 341.4 41.4448 349.751 38.0432C342.222 44.3267 336.151 52.3192 332.081 61.2377C342.063 61.5605 351.979 55.6964 356.508 46.8206C357.527 44.843 358.292 42.5692 357.704 40.442C357.116 38.2918 354.673 36.5895 352.637 37.4739C351.631 37.9161 349.845 38.3634 350.021 37.2852C352.176 37.1103 354.234 36.0425 355.645 34.406C349.092 35.5727 343.132 39.6916 339.706 45.3748C341.999 41.7387 344.497 38.0097 348.222 35.8765C351.97 33.7431 357.316 33.8219 359.999 37.1725C362.22 39.9534 361.927 44.0802 360.25 47.208C358.573 50.3358 355.79 52.6918 353.076 54.9557C357.086 50.9874 361.413 46.1919 360.871 40.5812C360.722 38.9551 360.069 37.2637 358.732 36.2873C357.417 35.3107 355.329 35.256 354.236 36.4778C356.395 36.7842 358.06 38.7896 358.464 40.941C358.869 43.0924 358.264 45.3193 357.314 47.2964C353.196 55.8486 343.544 60.1527 334.338 62.5059C340.927 63.2639 347.493 63.999 354.082 64.7569C355.321 64.8861 356.676 65.1062 357.463 66.0863C358.041 66.8387 358.14 67.8463 358.192 68.7855C360.376 103.672 361.367 138.657 361.165 173.605C361.168 174.087 361.264 174.705 361.724 174.839C362.184 174.974 362.199 173.896 361.811 174.174C361.216 177.707 356.448 178.358 352.845 178.107C337.721 177.131 322.574 176.132 307.449 175.157C308.527 175.081 309.605 174.982 310.682 174.906C309.002 174.023 307.004 173.785 305.172 174.255C305.461 162.543 304.969 150.837 303.721 139.181C303.528 141.176 303.313 143.24 302.384 145.033C301.456 146.827 299.63 148.283 297.611 148.159C292.011 147.83 286.411 147.501 280.812 147.194C287.681 148.73 294.751 149.347 301.769 149.002C300.009 149.976 297.874 149.853 295.855 149.729C283.369 148.85 270.884 147.994 258.376 147.116C259.343 147.636 260.31 148.157 261.277 148.677C258.176 148.125 255.052 147.55 251.952 146.998C251.385 147.942 249.632 146.647 250.361 145.84C250.191 137.569 250.044 129.32 249.874 121.048C247.751 126.058 244.754 130.684 241.087 134.696C238.218 137.832 233.603 140.75 229.987 138.506C226.347 136.262 226.884 130.804 228.532 126.852C231.964 118.648 238.226 111.639 245.997 107.348C237.849 103.346 231.105 96.5397 227.219 88.3389C226.893 87.6307 226.567 86.8538 226.745 86.0964C226.924 85.3848 227.494 84.8768 228.088 84.4374C232.037 81.5694 237.678 81.2567 241.916 83.6803C246.153 86.1039 248.733 91.1281 248.261 95.9894C248.164 91.7965 245.934 87.7095 242.455 85.3954C238.975 83.0583 234.338 82.5623 230.425 84.078C229.51 84.4279 228.573 84.9842 228.258 85.9029C228.011 86.6837 228.269 87.5069 228.549 88.2613C230.02 92.0555 232.429 95.4996 235.521 98.183C234.702 95.7823 233.242 93.6151 231.327 91.955C232.225 92.5219 233.124 93.0888 234.022 93.6786C232.541 91.7178 234.585 88.6792 237.015 88.4108C239.445 88.1425 241.704 89.7086 243.436 91.4386C246.23 94.2385 248.341 97.7305 249.559 101.503C250.236 92.9513 250.041 84.3133 249.02 75.7955C251.321 73.4198 255.037 73.3032 258.341 73.4186C265.316 73.6469 272.294 74.173 279.227 74.9745C277.646 75.1684 276.064 75.3623 274.482 75.5563C282.862 76.4626 291.241 77.3919 299.62 78.2982C300.24 78.3628 300.906 78.4729 301.299 78.9286C301.646 79.3388 301.696 79.9343 301.722 80.4611C302.106 89.8311 302.513 99.2239 302.897 108.594C303.027 93.7436 303.18 78.916 303.31 64.0657C303.326 62.9198 303.386 61.6591 304.229 60.8743C305.164 60.0201 306.611 60.1709 307.851 60.3688C314.074 61.3354 320.252 62.3482 326.452 63.3608ZM324.9 109.111C318.515 104.433 312.129 99.7553 305.766 95.0773C308.323 96.5955 310.924 98.0218 313.571 99.3561C314.21 98.8018 315.363 99.7107 314.978 100.47C315.986 100.165 316.977 100.869 317.784 101.505C331.945 112.822 346.083 124.162 360.245 135.48C359.612 133.582 357.998 132.241 356.429 130.991C352.439 127.786 348.472 124.582 344.482 121.377C349.484 125.033 354.487 128.689 359.513 132.368C358.117 119.247 357.409 106.029 357.39 92.8296C357.695 97.3648 358.001 101.877 358.283 106.413C358.922 102.421 359.055 98.3411 358.684 94.3104C358.609 93.4172 358.442 92.4559 357.75 91.8876C349.932 85.6381 342.113 79.3886 334.272 73.1393C333.764 72.7302 332.662 72.5772 332.735 73.2412C337.535 77.5173 342.336 81.8162 347.136 86.0922C337.921 80.3104 331.502 70.7059 322.106 65.2231C322.701 65.0358 323.319 64.8255 323.914 64.6381C318.669 62.4504 313.041 61.2048 307.35 61.0367C306.318 60.9978 305.125 61.0745 304.535 61.9034C304.08 62.5023 304.108 63.3271 304.159 64.083C304.237 65.4803 304.316 66.8776 304.394 68.275C304.758 67.9059 305.1 67.5369 305.464 67.1449C304.302 88.8311 304.379 110.578 305.74 132.247C305.782 131.674 306.658 132.287 306.73 132.859C307.434 138.652 307.336 144.542 306.411 150.3C306.301 150.942 306.832 151.512 307.317 151.967C313.897 158.179 320.453 164.391 327.033 170.603C328.187 171.695 329.388 172.833 330.86 173.442C332.263 174.028 333.801 174.155 335.316 174.26C342.27 174.74 349.247 175.243 356.201 175.724C357.372 175.808 358.421 174.907 358.896 173.827C359.37 172.747 359.385 171.555 359.377 170.386C359.384 167.911 359.39 165.436 359.419 162.938C359.414 162.205 359.432 161.495 359.244 160.785C358.844 159.299 357.667 158.184 356.513 157.16C350.374 151.678 343.825 146.612 336.958 142.075C338.701 141.949 340.246 143.13 341.607 144.244C347.373 148.949 353.14 153.677 358.907 158.381C359.246 157.715 358.622 157.008 358.069 156.531C340.948 141.819 323.418 127.545 305.547 113.755C324.942 125.656 340.656 142.715 359.506 155.421C359.768 149.897 359.845 144.351 359.739 138.829C359.71 137.935 359.681 137.019 359.286 136.242C358.891 135.489 358.176 134.944 357.485 134.421C349.761 128.606 342.014 122.792 334.29 117C336.571 118.474 338.852 119.949 341.133 121.423C338.38 118.05 334.807 115.347 330.781 113.655C330.658 112.487 329.393 111.9 328.357 111.357C327.114 110.723 326.007 109.906 324.9 109.111ZM301.558 144.947C302.523 138.41 303.236 131.828 303.674 125.226C303.334 125.869 303.017 126.513 302.677 127.134C302.613 124.339 302.778 121.565 303.149 118.79C303.258 117.941 302.496 117.167 301.646 116.989C300.796 116.812 299.926 117.047 299.101 117.281C299.127 117.671 299.13 118.083 299.155 118.473C298.736 117.536 297.997 116.739 297.099 116.241C299.049 116.365 300.977 116.467 302.928 116.591C303.292 116.085 302.965 115.331 302.436 115.036C301.906 114.742 301.241 114.746 300.622 114.773C284.613 115.362 268.665 111.252 252.659 112.23C251.65 112.283 251.338 113.614 251.345 114.645C251.226 124.339 251.2 134.056 251.288 143.749C251.291 144.321 251.342 145.009 251.803 145.349C252.149 145.622 252.631 145.619 253.067 145.616C254.007 145.609 254.97 145.58 255.911 145.574C255.147 144.571 254.383 143.567 253.62 142.564C255.15 141.523 256.332 140.025 256.986 138.302C257.022 140.204 255.956 142.067 254.311 143.018C256.625 146.096 261.145 146.112 264.998 145.925C276.647 145.366 288.35 145.746 299.943 147.043C300.93 147.151 301.404 145.911 301.558 144.947ZM266.297 76.184C266.113 76.1852 265.907 76.1866 265.747 76.2793C264.97 76.7657 266.538 77.9698 266.108 78.7747C265.335 76.4883 262.573 75.0631 260.238 75.7662C259.849 75.8834 259.439 76.3903 259.762 76.5944C256.777 76.2706 253.816 75.9238 250.831 75.6001C250.782 85.4313 250.734 95.2854 250.685 105.117C267.264 107.618 283.997 108.927 300.744 109.044C301.065 109.042 301.432 109.039 301.683 108.831C302.048 108.531 302.045 108.004 301.996 107.546C301.341 98.8422 301.191 90.1123 301.545 81.379C301.563 80.6914 301.535 79.8666 300.936 79.504C300.706 79.368 300.407 79.3242 300.132 79.3031C296.206 78.8252 292.257 78.3705 288.331 77.8926C286.586 77.6751 284.818 77.4807 283.074 77.2862C277.518 76.6817 271.895 76.3069 266.297 76.184ZM321.389 174.009C322.514 174.162 323.639 174.292 324.763 174.239C326.62 174.112 328.704 173.479 330.157 174.615C322.193 167.244 314.229 159.872 306.265 152.501C306.857 158.638 307.449 164.799 308.063 170.936C308.112 171.325 308.161 171.76 308.438 172.056C308.715 172.352 309.152 172.418 309.565 172.461C313.468 172.985 317.44 173.509 321.389 174.009ZM259.329 107.923C256.483 107.644 253.451 107.138 251.374 105.204C251.223 106.763 251.096 108.299 250.946 109.858C250.904 110.386 250.885 110.982 251.277 111.323C251.6 111.619 252.082 111.615 252.517 111.589C256.485 111.402 260.43 111.239 264.397 111.052C265.498 110.998 266.667 110.968 267.657 111.465C268.486 111.872 269.427 111.957 270.368 112.02C280.49 112.754 290.611 113.466 300.733 114.2C301.582 114.263 302.5 114.303 303.161 113.771C303.616 113.195 302.648 112.537 301.937 112.427C299.135 111.942 296.333 111.456 293.531 110.971C291.027 110.53 288.501 110.088 285.975 109.761C277.135 108.606 268.19 108.803 259.329 107.923ZM237.408 133.346C240.783 130.322 243.534 126.614 245.479 122.522C247.244 118.82 248.318 114.849 249.37 110.877C249.392 110.785 249.414 110.671 249.391 110.579C249.274 110.259 248.816 110.423 248.542 110.631C242.609 115.345 236.381 120.451 233.791 127.573C233.25 129.043 232.894 130.718 233.546 132.157C234.198 133.574 236.245 134.408 237.408 133.346ZM243.313 110.712C238.128 114.161 233.732 118.819 230.625 124.225C228.675 127.584 227.211 131.673 228.543 135.307C228.777 135.925 229.492 136.584 229.948 136.123C230.279 137.587 231.937 138.47 233.45 138.391C234.963 138.289 236.311 137.455 237.498 136.508C242.221 132.764 245.144 127.267 247.861 121.887C248.246 121.151 248.444 119.958 247.64 119.734C245.654 124.606 242.794 129.139 239.218 133.013C238.239 134.074 237.053 135.159 235.608 135.168C234.163 135.178 232.916 134.041 232.425 132.692C231.935 131.343 232.062 129.853 232.397 128.453C234.003 121.567 239.704 116.488 245.087 111.891C245.885 111.198 246.706 110.506 247.644 110.018C248.329 109.647 249.085 109.413 249.864 109.27C247.769 108.253 245.277 109.415 243.313 110.712ZM249.032 108.405C250.059 107.619 249.934 106.038 249.605 104.803C248.591 100.731 246.821 96.824 244.116 93.611C242.497 91.6969 240.49 90.0375 238.1 89.3431C237.134 89.0746 235.918 89.014 235.281 89.7974C235.031 90.097 234.896 90.4645 234.829 90.8316C234.45 92.507 234.898 94.2915 235.734 95.7983C236.57 97.3051 237.749 98.5805 238.95 99.8329C241.954 103.067 245.118 106.3 249.032 108.405ZM356.608 68.567C356.742 68.039 357.152 67.555 357.125 67.0281C357.073 66.0889 355.923 65.7071 355.005 65.5528C352.18 65.1134 349.333 64.8117 346.465 64.6017C346.767 65.1955 347.389 65.5809 347.964 65.9208C351.305 67.9838 354.372 70.461 357.121 73.2613C357.96 71.8807 356.182 70.1281 356.608 68.567ZM342.186 175.955C345.493 176.506 348.845 176.919 352.174 177.195C351.734 176.602 350.975 176.332 350.263 176.153C346.724 175.26 343.053 175.17 339.404 175.057C336.789 174.983 334.15 174.909 331.534 174.835C331.445 175.179 331.928 175.382 332.295 175.426C335.67 175.793 339.022 176.16 342.397 176.527C342.948 176.592 343.499 176.657 344.025 176.539C343.428 176.382 342.807 176.157 342.186 175.955ZM255.235 75.4331C255.626 75.6367 256.155 75.8852 256.474 75.5852C257.204 74.8928 258.328 74.8624 259.338 74.9244C262.986 75.1291 266.661 75.7232 270.235 75.1035C269.45 74.3067 268.211 74.2691 267.087 74.2537C262.338 74.2626 257.567 74.2487 252.818 74.2576C252.566 74.2593 252.313 74.261 252.108 74.3999C251.902 74.5388 251.79 74.8374 251.929 75.0427C253.028 74.7604 254.222 74.9128 255.235 75.4331ZM292.61 110.542C295.363 110.478 298.118 110.849 300.716 111.702C301.222 111.859 301.75 112.039 302.278 111.99C302.805 111.917 303.353 111.524 303.349 110.997C303.369 110.539 302.999 110.151 302.585 109.994C302.171 109.813 301.713 109.839 301.254 109.842C298.616 109.883 295.955 109.924 293.317 109.964C292.95 109.944 292.401 110.2 292.61 110.542ZM306.646 133.914C306.368 133.618 306.091 133.299 305.814 133.003C305.084 137.155 305.021 141.395 305.622 145.562C306.196 145.627 306.42 144.823 306.439 144.227C306.447 141.89 306.362 139.53 306.209 137.194C306.109 136.071 306.032 134.857 306.646 133.914ZM249.522 113.076C249.097 114.683 248.649 116.29 248.224 117.897C248.09 118.379 248.002 118.976 248.394 119.271C249.965 117.496 250.613 114.971 250.116 112.66C249.908 112.432 249.589 112.778 249.522 113.076ZM319.203 59.8574C317.501 59.2501 315.799 58.6198 314.098 58.0125C313.362 57.7424 312.488 57.4733 311.802 57.8445C312.425 58.3674 313.23 58.6599 314.056 58.6773C315.576 59.5608 317.391 59.9841 319.203 59.8574ZM320.731 174.999C318.366 174.694 316.024 174.412 313.659 174.107C313.246 174.064 312.718 174.067 312.537 174.435C312.837 174.731 313.32 174.797 313.733 174.84C315.638 175.01 317.543 175.204 319.449 175.374C319.93 175.394 320.504 175.39 320.731 174.999ZM356.652 154.02C357.163 154.979 357.812 155.845 358.597 156.596C358.897 156.892 359.38 157.164 359.7 156.887C359.072 155.63 357.964 154.584 356.652 154.02ZM271.203 147.625C270.442 146.989 269.408 146.835 268.421 146.705C267.893 146.639 267.25 146.621 266.955 147.058C268.267 147.691 269.782 147.887 271.203 147.625ZM299.098 44.8905C298.822 44.7319 298.572 45.1232 298.506 45.4215C298.239 46.7753 298.41 48.2179 298.946 49.4747C299.051 48.099 299.134 46.7464 299.239 45.3708C299.238 45.2104 299.237 44.9812 299.098 44.8905ZM359.008 125.52C359.398 125.517 359.578 125.057 359.599 124.668C359.663 124.071 359.613 123.453 359.472 122.858C358.788 123.504 358.589 124.652 359.008 125.52ZM316.808 58.5214C317.175 58.5877 317.564 58.3559 317.699 58.0113C317.262 57.8538 316.848 57.6732 316.411 57.5157C316.322 57.9059 316.462 58.3175 316.762 58.5675L316.808 58.5214ZM357.905 176.583C357.536 176.311 357.031 176.268 356.642 176.477C356.85 176.751 357.082 177.024 357.426 177.091C357.771 177.157 358.158 176.811 357.996 176.491L357.905 176.583ZM331.401 58.9507C330.919 58.9998 330.648 59.6432 330.926 60.008C331.155 59.9148 331.361 59.7989 331.589 59.7057C331.656 59.4302 331.608 59.1327 331.492 58.8814L331.401 58.9507ZM266.29 147.063C265.76 146.722 265.048 146.658 264.477 146.914C264.983 147.232 265.649 147.342 266.245 147.177L266.29 147.063ZM354.013 177.755C354.219 177.754 354.425 177.752 354.632 177.774C354.768 177.498 354.468 177.179 354.169 177.181C353.871 177.183 353.597 177.368 353.369 177.553C353.576 177.644 353.783 177.757 353.99 177.847L354.013 177.755ZM306.223 163.295C306.271 163.661 306.32 164.027 306.345 164.394C306.572 164.071 306.73 163.704 306.796 163.291C306.612 163.109 306.13 163.066 306.223 163.317L306.223 163.295ZM325.139 66.0049C325.068 65.6845 324.677 65.5038 324.38 65.5975C324.565 65.8941 324.751 66.1679 324.913 66.4647C325.144 66.6923 325.484 66.1172 325.185 66.0046L325.139 66.0049ZM332.638 62.1965C332.802 62.6308 333.468 62.7638 333.787 62.4179C333.486 62.0762 332.958 61.9881 332.57 62.2198L332.638 62.1965ZM290.519 109.96C290.174 109.871 289.669 109.897 289.649 110.241C290.314 110.168 290.955 110.095 291.62 110.021C291.275 109.886 290.908 109.866 290.541 109.937L290.519 109.96ZM327.134 110.288C326.972 110.174 326.768 110.519 326.952 110.61C327.205 110.677 327.458 110.767 327.734 110.834C327.87 110.672 327.868 110.397 327.73 110.238C327.546 110.262 327.34 110.263 327.134 110.288ZM306.132 160.064C305.974 160.432 306 160.89 306.186 161.255C306.321 160.888 306.456 160.497 306.592 160.13C306.431 160.108 306.293 160.063 306.132 160.041L306.132 160.064ZM359.723 133.008C359.816 133.168 359.886 133.328 359.979 133.488C360.162 133.395 360.345 133.302 360.504 133.186C360.388 132.866 360.088 132.616 359.743 132.55C359.721 132.71 359.676 132.848 359.654 133.009L359.723 133.008ZM305.216 122.58C304.756 122.423 304.441 123.318 304.901 123.476C305.106 123.245 305.196 122.924 305.194 122.626L305.216 122.58ZM319.907 58.8902C319.772 59.2807 320.394 59.6661 320.667 59.3434C320.528 59.0923 320.229 58.911 319.953 58.9128L319.907 58.8902ZM358.631 106.937C358.47 106.893 358.287 106.917 358.15 107.032C358.105 107.193 358.152 107.376 358.245 107.536C358.543 107.557 358.793 107.188 358.631 106.937ZM351.13 69.2453C351.29 69.2671 351.45 69.1057 351.426 68.9454C351.196 68.8553 350.966 68.7423 350.736 68.6521C350.622 68.882 350.877 69.2012 351.129 69.1536L351.13 69.2453ZM243.717 109.426C243.535 109.679 244.042 109.996 244.201 109.72C244.291 109.582 244.267 109.376 244.152 109.285C244.014 109.194 243.785 109.288 243.786 109.448L243.717 109.426ZM305.141 128.424C304.957 128.379 304.751 128.427 304.614 128.542C304.73 128.702 304.822 128.861 304.938 128.998C305.167 128.928 305.28 128.629 305.186 128.401L305.141 128.424Z" fill="#3A3A3A"/>
<rect x="94" y="-35" width="404" height="755" rx="34" stroke="#3A3A3A" stroke-width="2"/>
<rect x="96" y="-35" width="404" height="755" rx="34" stroke="#3A3A3A" stroke-width="2"/>
</g>
<path fill-rule="evenodd" clip-rule="evenodd" d="M0 94L0 201H500V94.0002C422.329 118.048 338.056 131.216 250 131.216C161.944 131.216 77.6715 118.047 0 94Z" fill="white"/>
<defs>
<clipPath id="clip0">
<rect width="156.832" height="184" fill="white" transform="translate(323)"/>
</clipPath>
<clipPath id="clip1">
<rect width="156.832" height="184" fill="white" transform="translate(223.05 192.061) rotate(-90.3837)"/>
</clipPath>
</defs>
</svg>
