<svg width="300" height="151" viewBox="0 0 300 151" fill="none" xmlns="http://www.w3.org/2000/svg">
<g clip-path="url(#clip0)">
<path d="M207.344 93.4537C207.7 92.7116 208.174 92.0139 208.752 91.4202C209.064 91.0937 209.449 90.7819 209.894 90.7226C209.093 91.6874 208.248 92.5928 207.344 93.4537Z" fill="#3A3A3A"/>
<path d="M213.601 15.6597C214.313 15.6597 215.01 15.8082 215.662 16.105C216.211 16.3574 216.715 16.6988 217.204 17.055C215.914 16.862 214.683 16.3871 213.601 15.6597Z" fill="#3A3A3A"/>
<path d="M210.754 17.1738C209.316 17.3222 207.877 17.3519 206.424 17.2925C207.863 17.055 209.316 17.0105 210.754 17.1738Z" fill="#3A3A3A"/>
<path d="M186.126 115.808C186.022 115.734 185.933 115.659 185.829 115.585C186.126 115.155 186.748 114.991 187.223 115.214C187.015 115.585 186.585 115.823 186.155 115.778L186.126 115.808Z" fill="#3A3A3A"/>
<path d="M197.913 93.7357C197.75 93.4983 197.943 93.1865 198.136 92.9639C198.818 92.192 199.485 91.4053 200.167 90.6335C200.345 90.8858 200.138 91.2124 199.93 91.435C199.263 92.2069 198.581 92.9787 197.913 93.7357Z" fill="#3A3A3A"/>
<path d="M194.651 50.0369C195.393 50.2596 196.075 50.7049 196.579 51.3134C195.823 51.1056 195.141 50.6455 194.651 50.0369Z" fill="#3A3A3A"/>
<path d="M265.216 65.756C264.682 66.424 264.015 66.9732 263.258 67.374C263.762 66.6912 264.43 66.1271 265.216 65.756Z" fill="#3A3A3A"/>
<path d="M230.712 11.4146C230.282 11.9192 229.837 12.4239 229.407 12.9137C229.274 13.0622 229.066 13.2106 228.918 13.0918C229.392 12.4091 230 11.8302 230.712 11.4146Z" fill="#3A3A3A"/>
<path d="M266.832 63.8264C266.506 64.3459 266.179 64.8655 265.838 65.385C265.646 64.717 266.15 63.9303 266.832 63.8264Z" fill="#3A3A3A"/>
<path d="M258.084 76.087C258.276 77.9276 258.944 79.7088 260.026 81.2228C260.575 81.9798 261.064 82.7814 261.509 83.6126C260.085 82.6181 259.196 81.0298 258.514 79.4268C258.069 78.3729 257.698 77.1854 258.084 76.087Z" fill="#3A3A3A"/>
<path d="M202.717 52.0705C202.48 52.0853 202.228 51.922 202.154 51.6845C202.762 51.7291 203.37 51.8923 203.903 52.1892C203.503 52.1447 203.103 52.1002 202.717 52.0556V52.0705Z" fill="#3A3A3A"/>
<path d="M174.694 80.3768C174.946 80.6439 175.02 81.0447 174.872 81.3861C174.442 80.9853 174.249 80.3471 174.397 79.783C174.605 79.8869 174.723 80.1393 174.694 80.3768Z" fill="#3A3A3A"/>
<path d="M234.7 7.21387C234.137 7.62948 233.588 8.05994 233.025 8.47555C232.906 8.56461 232.728 8.65367 232.625 8.54977C233.247 7.98572 233.944 7.54042 234.7 7.21387Z" fill="#3A3A3A"/>
<path d="M236.599 90.7226C236.673 90.1882 236.969 89.6835 237.414 89.357C237.384 89.921 237.073 90.4405 236.599 90.7226Z" fill="#3A3A3A"/>
<path d="M179.261 94.8045C179.112 94.7303 179.009 94.567 178.979 94.4037C179.365 94.285 179.809 94.567 179.869 94.9529C179.661 95.0271 179.409 94.9678 179.261 94.7896V94.8045Z" fill="#3A3A3A"/>
<path d="M241.476 86.982C241.58 87.0562 241.669 87.1305 241.773 87.2047C241.343 87.457 240.794 87.4867 240.35 87.2641C240.705 87.1453 241.076 87.0859 241.447 87.0711L241.476 86.982Z" fill="#3A3A3A"/>
<path d="M208.085 91.0046C208.159 90.8561 208.219 90.7077 208.293 90.5741C208.397 90.5444 208.515 90.5741 208.604 90.6335C208.5 90.9303 208.322 91.1975 208.07 91.3756C207.967 91.2866 207.981 91.0936 208.1 91.0343L208.085 91.0046Z" fill="#3A3A3A"/>
<path d="M187.075 104.942C187.001 105.18 186.912 105.417 186.837 105.655C186.585 105.328 186.689 104.809 187.03 104.586C187.06 104.705 187.09 104.824 187.134 104.942H187.075Z" fill="#3A3A3A"/>
<path d="M179.127 76.4581C178.845 76.5026 178.726 76.0425 178.919 75.8495C179.112 75.6417 179.438 75.6417 179.72 75.6566C179.512 75.9089 179.305 76.1761 179.082 76.4284L179.127 76.4581Z" fill="#3A3A3A"/>
<path d="M196.446 113.789C196.579 113.641 196.698 113.492 196.831 113.359C196.757 113.819 196.49 114.234 196.09 114.487C196.149 114.234 196.283 113.997 196.461 113.819L196.446 113.789Z" fill="#3A3A3A"/>
<path d="M178.06 89.4015C177.793 89.2976 177.644 88.9414 177.778 88.6742C177.941 88.7484 178.119 88.8226 178.193 88.9711C178.282 89.1195 178.208 89.3718 178.03 89.3867L178.06 89.4015Z" fill="#3A3A3A"/>
<path d="M267.662 63.8412C267.692 64.1826 267.439 64.524 267.113 64.5983C267.187 64.3014 267.38 64.0194 267.647 63.8561L267.662 63.8412Z" fill="#3A3A3A"/>
<path d="M178.816 102.226C178.682 102.211 178.534 102.211 178.4 102.196C178.652 101.9 179.216 101.959 179.394 102.3C179.201 102.271 179.008 102.241 178.816 102.196V102.226Z" fill="#3A3A3A"/>
<path d="M187.861 38.3552C187.757 38.3701 187.653 38.3849 187.549 38.3998C187.49 38.281 187.416 38.1771 187.356 38.0584C187.564 37.999 187.801 38.1326 187.861 38.3256V38.3552Z" fill="#3A3A3A"/>
<path d="M179.779 86.3883C179.779 86.1805 179.794 85.9727 179.794 85.7649C179.987 85.9579 180.091 86.3883 179.824 86.4032L179.779 86.3883Z" fill="#3A3A3A"/>
<path d="M176.755 84.7555C176.681 84.6516 176.888 84.5329 176.977 84.6368C177.066 84.7407 177.036 84.8891 176.977 85.0079C176.933 85.1266 176.873 85.275 176.933 85.3938C176.829 85.3344 176.71 85.2899 176.606 85.2305C176.666 85.0672 176.725 84.904 176.784 84.7555H176.755Z" fill="#3A3A3A"/>
<path d="M202.139 25.8571C202.08 26.0649 202.021 26.2727 201.961 26.4805C201.828 26.2876 201.887 25.9759 202.095 25.8423L202.139 25.8571Z" fill="#3A3A3A"/>
<path d="M177.615 89.7874C177.778 89.8171 177.822 90.0546 177.718 90.1882C177.615 90.3218 177.437 90.3663 177.274 90.396C177.155 90.1882 177.363 89.8765 177.6 89.9062L177.615 89.7874Z" fill="#3A3A3A"/>
<path d="M220.437 90.1733C222.839 90.203 225.241 90.2327 227.643 90.2476C228.117 90.2476 228.606 90.2624 229.081 90.3663C228.829 90.7522 228.28 90.7671 227.821 90.7374C225.359 90.5444 222.898 90.3663 220.437 90.1733Z" fill="#3A3A3A"/>
<path d="M192.531 100.386C192.457 100.519 192.323 100.623 192.16 100.653C192.175 100.534 192.205 100.4 192.308 100.326C192.412 100.252 192.59 100.282 192.59 100.415L192.531 100.386Z" fill="#3A3A3A"/>
<path d="M176.933 98.3966C176.77 98.3075 176.755 98.0106 176.918 97.9067C177.007 98.0552 177.007 98.263 176.918 98.4263L176.933 98.3966Z" fill="#3A3A3A"/>
<path d="M204.378 0.282022C204.259 0.311709 204.215 0.0890584 204.333 0.0296849C204.437 -0.0296885 204.571 0.0148416 204.689 0.0593717C204.586 0.118745 204.482 0.192962 204.363 0.252335L204.378 0.282022Z" fill="#3A3A3A"/>
<path d="M180.595 104.69C180.61 104.542 180.891 104.586 180.906 104.735C180.936 104.883 180.802 105.017 180.699 105.135C180.624 105.002 180.61 104.839 180.654 104.69H180.595Z" fill="#3A3A3A"/>
<path d="M240.29 54.2376C240.616 54.3415 240.928 54.4306 241.254 54.5345C240.735 54.6532 240.186 54.5939 239.712 54.3712C239.845 54.1931 240.097 54.1486 240.29 54.2376Z" fill="#3A3A3A"/>
<path d="M189.699 82.8556C189.669 82.7665 189.655 82.6478 189.729 82.5736C189.773 82.529 189.833 82.5142 189.877 82.529C190.04 82.9595 190.159 83.4048 190.233 83.8649C189.981 83.5681 189.788 83.2118 189.699 82.8556Z" fill="#3A3A3A"/>
<path d="M188.513 74.7214C187.919 74.7957 187.312 74.766 186.733 74.6472C186.496 74.6027 186.229 74.5136 186.096 74.291C186.125 74.1574 186.229 74.0535 186.348 74.0238C187.074 74.291 187.786 74.5136 188.513 74.7214Z" fill="#3A3A3A"/>
<path d="M248.03 55.5884C247.675 55.3806 247.245 55.2915 246.844 55.3509C247.185 54.9798 247.912 55.0985 248.105 55.5735L248.03 55.5884Z" fill="#3A3A3A"/>
<path d="M249.854 54.6532C249.825 54.5493 249.84 54.4306 249.899 54.3415C250.092 54.4009 250.27 54.4603 250.462 54.5196C250.299 54.6829 250.047 54.7423 249.825 54.6829L249.854 54.6532Z" fill="#3A3A3A"/>
<path d="M222.498 72.3316C222.527 72.1238 222.661 71.9309 222.853 71.827C222.898 72.0496 222.735 72.2871 222.512 72.3168L222.498 72.3316Z" fill="#3A3A3A"/>
<path d="M193.302 87.843C193.109 87.932 192.872 87.932 192.665 87.843C192.857 87.7539 193.095 87.7539 193.302 87.843Z" fill="#3A3A3A"/>
<path d="M251.174 54.4602C251.337 54.3118 251.604 54.297 251.782 54.4157C251.663 54.6384 251.322 54.6829 251.144 54.4899L251.174 54.4602Z" fill="#3A3A3A"/>
<path d="M199.307 118.821C199.351 118.687 199.589 118.747 199.574 118.88C199.589 118.984 199.47 119.073 199.366 119.044C199.263 119.014 199.218 118.88 199.292 118.791L199.307 118.821Z" fill="#3A3A3A"/>
<path d="M236.614 55.2766C236.821 54.9501 237.029 54.5938 237.355 54.3712C237.829 54.0298 238.511 53.9853 239.016 54.2821C238.096 54.2227 237.325 54.9798 236.821 55.7368C236.302 56.5086 235.857 57.3844 235.057 57.8297C235.561 56.9688 236.095 56.1227 236.614 55.2766Z" fill="#3A3A3A"/>
<path d="M192.724 83.3454C191.745 84.2063 190.767 85.0673 189.803 85.9282C189.373 86.2993 188.943 86.6852 188.528 87.0563C188.35 87.2047 187.994 87.2938 187.979 87.0563C189.743 85.4532 191.508 83.8501 193.287 82.2322C193.406 82.6626 193.05 83.0634 192.724 83.3454Z" fill="#3A3A3A"/>
<path d="M221.356 20.6026C221.37 21.0033 221.548 21.3893 221.845 21.6564C222.497 22.265 223.58 22.2502 224.188 22.9181C223.15 22.9627 222.112 22.5174 221.445 21.7307C221.207 21.4486 220.718 21.5525 220.436 21.79C220.155 22.0275 219.947 22.3689 219.65 22.5767C219.354 22.7845 218.835 22.8142 218.672 22.4728C219.621 21.9533 220.525 21.3299 221.356 20.6026Z" fill="#3A3A3A"/>
<path d="M206.558 46.4597C207.136 47.6323 208.1 48.612 209.242 49.2206C208.233 48.9831 207.092 48.4932 206.854 47.4839C206.765 47.0979 206.202 47.0386 205.876 47.2761C205.55 47.4987 205.386 47.8846 205.134 48.1815C204.882 48.4932 204.452 48.7307 204.111 48.5526C204.882 47.7956 205.698 47.098 206.558 46.4597Z" fill="#3A3A3A"/>
<path d="M216.537 22.4728C215.128 22.6213 213.675 21.6119 213.319 20.2463C212.608 20.8252 211.896 21.419 211.169 21.9978C210.991 22.1463 210.799 22.2947 210.576 22.3096C210.354 22.3392 210.087 22.176 210.102 21.9533C211.332 21.6713 212.133 20.5135 213.141 19.7565C213.304 19.6378 213.601 19.5932 213.631 19.7862C213.69 20.4838 214.135 21.0924 214.683 21.5229C215.247 21.9533 215.899 22.2205 216.537 22.4728Z" fill="#3A3A3A"/>
<path d="M207.952 32.1655C207.877 31.8835 207.833 31.5421 208.026 31.3343C208.634 33.2046 209.76 34.9116 211.243 36.2029C209.657 35.4014 208.426 33.8874 207.952 32.1655Z" fill="#3A3A3A"/>
<path d="M205.223 41.3239C205.164 41.1754 205.09 41.0122 205.134 40.8637C205.164 40.7747 205.223 40.6856 205.297 40.6411C205.92 41.9918 206.825 43.2238 207.922 44.2183C206.558 43.9957 205.787 42.5856 205.223 41.3239Z" fill="#3A3A3A"/>
<path d="M209.108 26.0204C209.523 26.5696 209.953 27.1337 210.561 27.4454C211.495 27.9352 212.652 27.7274 213.571 27.2376C214.491 26.7477 215.247 25.9759 216.018 25.2634C216.181 25.961 216.388 26.7032 216.937 27.1485C217.59 27.668 218.598 27.668 219.117 28.3211C217.871 28.2914 216.655 27.6086 216.003 26.5548C215.855 26.3024 215.499 26.0204 215.336 26.2727C214.787 27.1337 213.957 27.8165 212.978 28.1133C212 28.4102 210.887 28.2766 210.072 27.6829C209.553 27.3118 209.167 26.7923 208.782 26.2727C208.485 25.872 208.174 25.4118 208.263 24.922C208.545 25.2931 208.826 25.6493 209.108 26.0204Z" fill="#3A3A3A"/>
<path d="M224.588 28.143C224.336 27.8758 224.084 27.5938 223.758 27.4157C223.431 27.2524 223.001 27.2227 222.705 27.4454C222.038 27.95 221.341 28.4102 220.599 28.8109C220.421 28.7367 220.57 28.4695 220.733 28.3508C221.593 27.7571 222.468 27.1782 223.328 26.5844C223.847 27.0594 224.366 27.5047 224.914 27.95C224.81 28.0242 224.707 28.0836 224.588 28.143Z" fill="#3A3A3A"/>
<path d="M204.689 27.193C205.446 26.5399 206.38 26.0946 207.358 25.9016C206.736 26.718 205.713 27.2079 204.689 27.193Z" fill="#3A3A3A"/>
<path d="M208.664 43.7582C209.894 43.2387 211.095 42.6746 212.267 42.0661C211.51 43.2387 210.057 43.9215 208.664 43.7582Z" fill="#3A3A3A"/>
<path d="M214.817 47.098C213.957 48.1964 212.77 49.0127 211.451 49.4432C211.347 49.4729 211.184 49.4877 211.154 49.3838C212.34 48.5378 213.556 47.7808 214.817 47.098Z" fill="#3A3A3A"/>
<path d="M217.086 43.7731C218.02 43.3723 218.88 42.7786 219.606 42.0661C219.117 43.2535 217.886 44.0848 216.596 44.0996C216.715 43.9215 216.908 43.8473 217.086 43.7731Z" fill="#3A3A3A"/>
<path d="M216.967 35.3272C216.522 35.1342 216.137 34.7928 215.87 34.3772C215.603 33.9467 215.484 33.4124 215.618 32.9374C216.033 33.7538 216.478 34.5553 216.967 35.3272Z" fill="#3A3A3A"/>
<path d="M212.548 35.9951C213.349 35.4608 214.15 34.9264 214.95 34.3772C214.624 35.3717 213.586 36.0842 212.548 35.9951Z" fill="#3A3A3A"/>
<path d="M220.807 35.7131C221.015 35.5647 221.296 35.5498 221.519 35.6686C220.985 35.9654 220.333 36.0693 219.725 35.9654C220.036 35.7428 220.451 35.6537 220.822 35.7428L220.807 35.7131Z" fill="#3A3A3A"/>
<path d="M221 42.259C221.726 42.8676 222.453 43.491 223.09 44.2183C222.038 43.8621 221.118 43.1051 220.57 42.1403C220.703 42.0512 220.881 42.1551 221 42.259Z" fill="#3A3A3A"/>
<path d="M212.785 41.4723C212.682 41.2794 212.593 41.0122 212.771 40.8934C213.275 42.0215 214.016 43.0457 214.95 43.8621C214.832 44.0848 214.491 43.9066 214.327 43.7137C213.734 43.016 213.23 42.259 212.785 41.4723Z" fill="#3A3A3A"/>
<path d="M204.986 33.9913C205.95 33.9022 206.855 33.353 207.388 32.5366C207.611 32.789 207.329 33.16 207.047 33.353C206.38 33.828 205.624 34.1694 204.823 34.3624C204.883 34.2436 204.927 34.1249 204.986 33.9913Z" fill="#3A3A3A"/>
<path d="M218.82 49.6659C217.753 49.3245 216.73 48.894 215.721 48.4042C215.454 48.2706 215.425 47.9143 215.365 47.6323C215.306 47.3503 215.039 47.0089 214.787 47.1425C214.846 46.8456 215.321 46.8605 215.514 47.098C215.706 47.3354 215.736 47.662 215.884 47.9292C216.418 48.9534 218.138 48.7159 218.82 49.6659Z" fill="#3A3A3A"/>
<path d="M229.125 42.4223C230 41.7098 230.549 40.6263 230.608 39.4982C231.305 40.8638 232.462 42.0067 233.855 42.6747C233.618 42.927 233.173 42.7637 232.892 42.5707C232.135 42.0661 231.498 41.3981 231.009 40.6263C230.504 41.3239 229.852 41.9473 229.125 42.4223Z" fill="#3A3A3A"/>
<path d="M240.721 22.8142C240.053 22.6213 239.623 21.9979 239.238 21.419C239.075 21.1815 238.704 21.3744 238.496 21.5674C237.977 22.0869 237.444 22.6064 236.925 23.1111C236.687 22.8142 236.999 22.3986 237.295 22.1463C237.977 21.5674 238.645 20.9885 239.327 20.3948C239.786 21.2112 240.246 22.0127 240.721 22.8142Z" fill="#3A3A3A"/>
<path d="M243.048 35.5053C242.396 35.3569 241.773 35.0303 241.299 34.5553C241.106 34.3624 240.765 34.5108 240.542 34.6592C239.49 35.3569 238.437 36.0397 237.384 36.7373C237.295 36.4701 237.607 36.2475 237.873 36.1139C239.03 35.5498 240.068 34.778 240.943 33.828C241.64 34.392 242.337 34.9561 243.048 35.5053Z" fill="#3A3A3A"/>
<path d="M239.089 39.5278C238.482 40.3591 237.874 41.1754 237.28 42.0067C237.058 42.3035 236.821 42.6152 236.509 42.8082C236.183 43.0012 235.753 43.0457 235.442 42.8231C236.213 42.541 236.895 42.0215 237.369 41.3536C237.859 40.6411 238.244 39.706 239.089 39.5278Z" fill="#3A3A3A"/>
<path d="M233.351 24.4322C233.707 26.0649 234.685 27.5493 236.02 28.5289C234.789 28.1727 233.826 27.0446 233.648 25.7829C233.618 25.5603 233.321 25.4564 233.099 25.5454C232.891 25.6345 232.743 25.8274 232.61 26.0056C231.928 26.911 231.023 27.6383 230 28.1133C231.038 26.7923 232.699 25.961 233.351 24.4322Z" fill="#3A3A3A"/>
<path d="M244.205 22.3541C243.464 22.9181 242.633 23.3337 241.744 23.5861C242.544 22.8291 243.493 22.2205 244.502 21.8049C244.576 22.0127 244.383 22.2205 244.205 22.3541Z" fill="#3A3A3A"/>
<path d="M233.974 33.9319C234.597 34.9858 235.219 36.0248 235.842 37.0787C234.73 36.2623 233.914 35.0748 233.559 33.7538C233.677 33.6053 233.885 33.7835 233.974 33.9319Z" fill="#3A3A3A"/>
<path d="M230.504 36.2623C230.371 36.292 230.237 36.3217 230.104 36.3068C229.985 36.3068 229.822 36.2326 229.852 36.099C230.919 35.7131 231.957 35.2233 232.936 34.6295C232.358 35.4608 231.483 36.0545 230.504 36.2623Z" fill="#3A3A3A"/>
<path d="M239.119 40.6559C239.846 41.3833 240.483 42.1848 241.032 43.0457C240.038 42.645 239.282 41.7098 239.119 40.6559Z" fill="#3A3A3A"/>
<path d="M241.373 47.6323C241.195 47.3948 240.839 47.3652 240.572 47.4691C240.305 47.573 240.083 47.7956 239.86 47.9886C239.089 48.6714 238.155 49.176 237.162 49.4284C236.776 49.5174 236.317 49.562 236.064 49.2503C237.755 48.8792 239.327 48.0479 240.587 46.8753C240.869 46.6081 241.299 46.9792 241.551 47.2761C242.351 48.2409 243.552 48.7901 244.694 49.3096C243.404 49.3245 242.129 48.6862 241.373 47.6323Z" fill="#3A3A3A"/>
<path d="M231.246 48.8792C230.742 49.2057 230.149 49.3987 229.541 49.4283C229.2 49.4432 228.844 49.4135 228.518 49.2799C228.547 48.9831 228.933 48.9088 229.229 48.894C229.897 48.894 230.579 48.894 231.246 48.8792Z" fill="#3A3A3A"/>
<path d="M242.604 25.679C243.182 26.1392 243.716 26.6735 244.175 27.2524C244.264 27.3712 244.264 27.6383 244.116 27.579C243.627 27.2227 243.182 26.822 242.767 26.3915C242.589 26.1985 242.396 25.872 242.604 25.679Z" fill="#3A3A3A"/>
<path d="M246.414 40.1958C246.755 40.9083 247.096 41.6059 247.452 42.3184C246.74 41.8731 246.325 41.027 246.414 40.1958Z" fill="#3A3A3A"/>
<path d="M245.673 21.5377C245.688 22.1463 246.147 22.6361 246.444 23.1705C246.503 23.2892 246.533 23.497 246.399 23.5267C245.599 22.8142 245.154 21.7158 245.213 20.6471C245.391 20.558 245.614 20.7362 245.673 20.9291C245.717 21.1221 245.673 21.3299 245.673 21.5377Z" fill="#3A3A3A"/>
<path d="M243.567 42.8082C243.671 42.5262 244.027 42.3778 244.294 42.4817C244.116 42.6746 243.864 42.8082 243.597 42.8231L243.567 42.8082Z" fill="#3A3A3A"/>
<path d="M234.537 48.9979C234.107 48.9831 233.677 48.8049 233.381 48.4932C233.232 48.3448 233.099 48.1221 233.188 47.9143C233.647 48.2409 234.107 48.5971 234.537 48.9979Z" fill="#3A3A3A"/>
<path d="M238.911 28.7516C238.822 28.7961 238.719 28.8406 238.63 28.8258C238.57 28.811 238.511 28.7813 238.481 28.7219C239.03 28.3953 239.638 28.1727 240.261 28.0688C239.816 28.2914 239.356 28.5141 238.911 28.7516Z" fill="#3A3A3A"/>
<path d="M187.119 57.5328C187.356 56.7313 188.053 56.0782 188.854 55.8852C188.35 56.5235 187.772 57.0727 187.119 57.5328Z" fill="#3A3A3A"/>
<path d="M186.689 63.8858C186.704 63.7374 186.748 63.6038 186.822 63.485C186.956 63.2921 187.178 63.1733 187.401 63.0843C187.252 63.7671 187.104 64.4647 187 65.1475C186.734 64.7912 186.63 64.3311 186.689 63.8858Z" fill="#3A3A3A"/>
<path d="M232.847 16.3574C232.699 16.5058 232.446 16.5355 232.269 16.4167C232.387 16.2089 232.684 16.1496 232.876 16.298L232.847 16.3574Z" fill="#3A3A3A"/>
<path d="M245.762 35.1787C245.525 35.342 245.095 35.4162 245.065 35.1342C245.999 34.9116 246.815 34.2585 247.245 33.3975C247.348 33.3382 247.467 33.4569 247.467 33.5608C247.467 33.6796 247.378 33.7686 247.304 33.8577C246.844 34.3327 246.325 34.7928 245.762 35.1787Z" fill="#3A3A3A"/>
<path d="M234.834 22.8736C234.018 23.0963 233.321 22.2947 232.654 21.7752C232.491 21.6564 232.298 21.5377 232.105 21.5229C231.32 21.508 231.112 22.9478 230.326 22.8736C230.756 22.1314 231.364 21.508 232.091 21.0479C232.239 20.9588 232.461 20.8846 232.565 21.0182C233.188 21.7752 233.959 22.4135 234.834 22.8736Z" fill="#3A3A3A"/>
<path d="M188.898 59.8484C188.394 59.9078 187.875 59.4773 187.861 58.9726C187.846 58.6461 187.371 58.6461 187.075 58.75C188.172 57.5774 189.314 56.4641 190.515 55.4102C190.263 55.8852 189.936 56.3454 189.566 56.7461C189.121 57.2211 188.602 57.6367 188.35 58.2305C188.113 58.8094 188.291 59.6554 188.898 59.8484Z" fill="#3A3A3A"/>
<path d="M257.179 67.463C257.179 66.7951 257.179 66.1271 257.179 65.4592C251.1 72.866 245.094 80.3619 239.193 87.9172C241.892 87.7984 244.59 87.6945 247.289 87.5758C248.757 87.5164 250.566 87.2047 250.996 85.8094C251.826 83.1673 255.014 81.9502 256.23 79.4713C256.719 78.462 256.853 77.319 256.971 76.1909C257.846 67.374 258.38 57.8297 264.074 51.0463C263.644 51.1799 263.214 51.3135 262.784 51.4471C264.785 49.9924 267.173 48.4487 269.56 49.1018C272.318 49.8588 273.548 53.347 272.837 56.1227C272.14 58.8984 270.079 61.0952 268.092 63.1585C269.53 60.8281 270.968 58.4828 272.407 56.1524C273.563 54.2673 272.451 51.551 270.449 50.6158C268.448 49.6807 265.957 50.3338 264.296 51.7885C262.635 53.2431 261.686 55.3657 261.182 57.518C262.457 55.6477 263.866 53.6884 265.957 52.8572C268.062 52.026 270.998 53.0056 271.369 55.2321C271.562 56.4047 270.998 57.5922 270.183 58.4383C270.791 57.1172 271.384 55.5587 270.687 54.2821C269.723 52.5158 267.024 52.7087 265.364 53.8517C260.426 57.2063 260.871 64.5537 258.202 69.8973C259.121 69.0513 260.055 68.2052 260.975 67.3443C260.456 67.9826 259.937 68.6208 259.418 69.2591C260.189 69.3185 260.96 69.0364 261.523 68.5169C261.301 69.1255 260.915 69.6599 260.396 70.0458C263.317 71.5746 266.105 73.3707 268.715 75.3745C266.016 74.0238 263.392 72.4949 260.871 70.8176C264.341 75.5081 271.295 77.23 273.459 82.6478C269.426 77.7495 264.281 73.7863 258.528 71.1145C258.276 77.5714 262.027 84.0134 267.751 86.982C269.026 87.65 270.494 88.1547 271.873 87.7836C273.267 87.4125 274.379 85.8391 273.815 84.5181C273.534 83.8649 273.252 82.7072 273.949 82.8259C274.053 84.2212 274.735 85.5571 275.787 86.4774C275.061 82.2322 272.422 78.3581 268.759 76.1167C271.102 77.6159 273.504 79.2487 274.868 81.6681C276.232 84.1024 276.158 87.5609 273.978 89.2828C272.169 90.7077 269.501 90.4999 267.484 89.4015C265.467 88.3031 263.955 86.4922 262.502 84.7259C265.052 87.3383 268.136 90.1585 271.769 89.832C272.822 89.7429 273.919 89.3273 274.557 88.4664C275.194 87.6203 275.239 86.2696 274.453 85.5571C274.245 86.9524 272.941 88.0211 271.547 88.2734C270.153 88.5258 268.715 88.125 267.439 87.5016C261.924 84.8001 259.181 78.5362 257.698 72.5691C257.179 76.8292 256.675 81.0744 256.156 85.3344C256.067 86.136 255.919 87.0117 255.281 87.5164C254.792 87.8875 254.139 87.9469 253.531 87.9766C230.949 89.2382 208.307 89.7281 185.696 89.446C185.384 89.446 184.984 89.5054 184.895 89.8023C184.806 90.0991 185.503 90.114 185.325 89.8617C183.041 89.4609 182.641 86.3735 182.819 84.0431C183.516 74.2613 184.228 64.4647 184.924 54.6829C184.969 55.3805 185.028 56.0782 185.073 56.7758C185.651 55.6923 185.814 54.4009 185.518 53.2134C193.094 53.4509 200.671 53.1837 208.218 52.4267C206.928 52.2931 205.594 52.1447 204.437 51.5361C203.281 50.9275 202.347 49.7401 202.436 48.4339C202.673 44.8121 202.91 41.1903 203.133 37.5685C202.11 42.0067 201.68 46.5784 201.872 51.1205C201.25 49.9776 201.339 48.5971 201.427 47.2909C202.05 39.2161 202.658 31.1414 203.281 23.0517C202.94 23.6751 202.599 24.2986 202.258 24.922C202.629 22.9181 203.014 20.8994 203.385 18.8956C202.777 18.5245 203.622 17.3964 204.141 17.8714C209.494 17.7972 214.832 17.7378 220.184 17.6636C216.952 16.2683 213.972 14.309 211.392 11.9192C209.375 10.049 207.507 7.05059 208.975 4.72019C210.443 2.37494 213.972 2.74602 216.522 3.82959C221.815 6.08578 226.323 10.1677 229.066 15.2144C231.69 9.95989 236.124 5.62563 241.447 3.14679C241.907 2.93898 242.411 2.73118 242.9 2.84992C243.36 2.96867 243.686 3.33976 243.968 3.72568C245.806 6.29358 245.984 9.94505 244.398 12.6762C242.811 15.4074 239.549 17.055 236.406 16.7285C239.119 16.6839 241.773 15.259 243.286 13.0176C244.813 10.7763 245.154 7.77792 244.19 5.2397C243.968 4.64597 243.612 4.03739 243.019 3.82959C242.514 3.66631 241.981 3.82959 241.491 4.00771C239.03 4.94284 236.791 6.48655 235.041 8.47555C236.598 7.95604 238.007 7.02091 239.089 5.78891C238.719 6.3678 238.348 6.94669 237.962 7.52558C239.238 6.57561 241.195 7.91151 241.358 9.4849C241.521 11.0583 240.498 12.5129 239.371 13.6262C237.547 15.4222 235.279 16.773 232.832 17.5448C238.363 18.0198 243.953 17.9308 249.469 17.3073C250.996 18.8065 251.055 21.2112 250.966 23.3486C250.788 27.861 250.418 32.3734 249.869 36.856C249.75 35.8319 249.632 34.8077 249.513 33.7835C248.89 39.2013 248.253 44.6191 247.63 50.0369C247.585 50.4377 247.511 50.8682 247.215 51.1205C246.948 51.3432 246.562 51.3728 246.221 51.3877C240.157 51.5955 234.078 51.8181 228.013 52.026C237.621 52.1744 247.215 52.3377 256.823 52.4861C257.564 52.5009 258.38 52.5455 258.884 53.0947C259.433 53.7033 259.329 54.6384 259.195 55.4399C258.543 59.4625 257.861 63.4553 257.179 67.463ZM227.583 66.2607C230.638 62.1491 233.692 58.0375 236.747 53.9407C235.753 55.5884 234.819 57.2657 233.944 58.9726C234.3 59.3883 233.707 60.1304 233.218 59.8781C233.41 60.5312 232.951 61.1695 232.536 61.689C225.151 70.8028 217.753 79.9018 210.368 89.0156C211.599 88.6148 212.474 87.5758 213.289 86.5664C215.38 83.9985 217.471 81.4455 219.562 78.8776C217.174 82.0986 214.787 85.3196 212.385 88.5554C220.881 87.7094 229.437 87.3086 237.977 87.3531C235.041 87.5312 232.12 87.7094 229.185 87.8726C231.765 88.3031 234.404 88.407 237.013 88.1844C237.592 88.1398 238.215 88.0359 238.585 87.5906C242.663 82.5587 246.74 77.5268 250.818 72.4801C251.085 72.1535 251.189 71.4411 250.759 71.4856C247.971 74.573 245.169 77.6604 242.381 80.7478C246.162 74.8105 252.404 70.6989 255.993 64.6428C256.111 65.0287 256.245 65.4295 256.363 65.8154C257.802 62.4311 258.632 58.7945 258.765 55.1134C258.795 54.4454 258.751 53.6736 258.217 53.2876C257.831 52.9908 257.297 53.0056 256.808 53.0353C255.904 53.0798 254.999 53.1244 254.095 53.1689C254.332 53.4064 254.569 53.629 254.821 53.8665C240.794 53.0205 226.723 52.9759 212.696 53.7626C213.067 53.7923 212.667 54.3564 212.296 54.4009C208.545 54.8313 204.734 54.7423 201.012 54.1189C200.597 54.0446 200.226 54.386 199.93 54.6978C195.882 58.9281 191.834 63.1436 187.786 67.374C187.074 68.1161 186.333 68.888 185.933 69.838C185.547 70.7434 185.458 71.7379 185.384 72.7176C185.043 77.2151 184.687 81.7275 184.346 86.225C184.287 86.982 184.865 87.6648 185.562 87.9766C186.259 88.2883 187.03 88.3031 187.786 88.3031C189.388 88.318 190.989 88.3328 192.605 88.3625C193.08 88.3625 193.539 88.3773 193.999 88.2586C194.963 88.0062 195.689 87.2492 196.356 86.5071C199.93 82.5587 203.236 78.3432 206.202 73.9199C206.276 75.048 205.505 76.0425 204.778 76.9183C201.709 80.6291 198.625 84.3399 195.556 88.0508C195.986 88.2734 196.445 87.8726 196.757 87.5164C206.35 76.5026 215.662 65.2217 224.662 53.7181C216.878 66.2162 205.772 76.3097 197.469 88.4515C201.042 88.6445 204.63 88.7187 208.204 88.6742C208.782 88.6593 209.375 88.6445 209.879 88.3922C210.368 88.1398 210.724 87.6797 211.065 87.2344C214.861 82.2619 218.657 77.2745 222.438 72.302C221.474 73.7715 220.51 75.241 219.547 76.7104C221.741 74.9441 223.506 72.6434 224.618 70.0458C225.374 69.9716 225.759 69.1552 226.115 68.4872C226.53 67.6857 227.064 66.9732 227.583 66.2607ZM204.497 51.0018C208.723 51.6549 212.978 52.1447 217.248 52.4564C216.833 52.2338 216.418 52.026 216.018 51.8033C217.827 51.7736 219.621 51.8924 221.415 52.1447C221.964 52.2189 222.468 51.7291 222.586 51.1799C222.705 50.6307 222.557 50.0666 222.408 49.5323C222.156 49.5471 221.889 49.5471 221.637 49.562C222.245 49.2948 222.764 48.8198 223.09 48.2409C223.001 49.5026 222.927 50.7494 222.838 52.0111C223.165 52.2486 223.654 52.0408 223.847 51.6994C224.039 51.358 224.039 50.9275 224.025 50.5268C223.713 40.1661 226.441 29.8648 225.878 19.5042C225.848 18.8511 224.988 18.6433 224.321 18.6433C218.049 18.5245 211.762 18.4651 205.49 18.48C205.12 18.48 204.675 18.5097 204.452 18.8065C204.274 19.0292 204.274 19.3409 204.274 19.6229C204.274 20.2315 204.289 20.8549 204.289 21.4635C204.942 20.9737 205.594 20.4838 206.246 19.994C206.914 20.9885 207.877 21.7604 208.99 22.1908C207.759 22.2057 206.558 21.508 205.95 20.4393C203.948 21.9236 203.919 24.8478 204.022 27.3415C204.334 34.8819 204.037 42.452 203.147 49.9479C203.073 50.5861 203.874 50.8979 204.497 51.0018ZM249.142 28.4844C249.142 28.3656 249.142 28.2321 249.083 28.1282C248.772 27.6235 247.986 28.6328 247.467 28.3508C248.95 27.861 249.884 26.0798 249.439 24.5657C249.365 24.3134 249.039 24.0462 248.905 24.254C249.128 22.3244 249.365 20.4096 249.587 18.48C243.226 18.4058 236.85 18.3315 230.489 18.2573C228.799 28.9742 227.88 39.795 227.731 50.6307C227.731 50.8385 227.731 51.076 227.865 51.2393C228.058 51.4767 228.399 51.4767 228.695 51.4471C234.33 51.0611 239.979 51.0018 245.628 51.2689C246.073 51.2838 246.607 51.2689 246.844 50.883C246.933 50.7346 246.963 50.5416 246.978 50.3635C247.304 47.8253 247.615 45.2722 247.941 42.734C248.09 41.6059 248.223 40.463 248.357 39.3349C248.772 35.7428 249.039 32.1062 249.142 28.4844ZM185.607 63.7077C185.503 64.435 185.414 65.1623 185.443 65.8896C185.518 67.092 185.918 68.4427 185.177 69.3778C189.981 64.2569 194.785 59.1359 199.589 54.015C195.615 54.3712 191.627 54.7274 187.653 55.0985C187.401 55.1282 187.119 55.1579 186.926 55.336C186.733 55.5141 186.689 55.7962 186.659 56.0633C186.303 58.5867 185.948 61.1546 185.607 63.7077ZM228.636 23.8384C228.829 21.9979 229.17 20.0385 230.43 18.7026C229.422 18.5987 228.428 18.5097 227.42 18.4058C227.079 18.3761 226.694 18.3612 226.471 18.6136C226.278 18.8214 226.278 19.1331 226.293 19.4151C226.397 21.983 226.486 24.5361 226.59 27.104C226.619 27.8164 226.634 28.5735 226.308 29.2117C226.041 29.7461 225.982 30.3547 225.937 30.9632C225.418 37.5092 224.914 44.0551 224.395 50.601C224.351 51.1502 224.321 51.7439 224.662 52.1744C225.033 52.4713 225.463 51.8478 225.537 51.3877C225.863 49.5768 226.189 47.7659 226.516 45.955C226.812 44.3371 227.109 42.7043 227.331 41.0716C228.117 35.3569 228.028 29.568 228.636 23.8384ZM212.281 9.54428C214.224 11.7411 216.611 13.5371 219.25 14.8137C221.637 15.9714 224.203 16.6839 226.768 17.3816C226.827 17.3964 226.901 17.4113 226.96 17.3964C227.168 17.3222 227.064 17.0253 226.931 16.8472C223.906 12.9879 220.629 8.9357 216.033 7.22871C215.084 6.87247 214.001 6.63498 213.067 7.05059C212.148 7.46621 211.599 8.78727 212.281 9.54428ZM226.901 13.4629C224.692 10.0935 221.697 7.22871 218.212 5.19517C216.047 3.91865 213.408 2.95383 211.051 3.7999C210.65 3.94833 210.22 4.40848 210.517 4.70534C209.568 4.91315 208.99 5.98187 209.034 6.96153C209.093 7.94119 209.627 8.81695 210.235 9.58881C212.637 12.6614 216.181 14.5762 219.65 16.3574C220.125 16.6097 220.896 16.7433 221.044 16.2238C217.901 14.9176 214.98 13.0473 212.489 10.7169C211.807 10.0786 211.11 9.30678 211.11 8.37165C211.11 7.43652 211.851 6.63498 212.726 6.32327C213.601 6.01156 214.565 6.10062 215.469 6.32327C219.917 7.39199 223.179 11.1028 226.13 14.6059C226.575 15.1254 227.02 15.6597 227.331 16.2683C227.568 16.7136 227.717 17.2034 227.806 17.7081C228.473 16.3574 227.731 14.7394 226.901 13.4629ZM228.369 17.1738C228.873 17.8417 229.896 17.7675 230.697 17.5597C233.336 16.9214 235.872 15.7933 237.962 14.0567C239.208 13.0176 240.29 11.7262 240.75 10.1825C240.928 9.55912 240.972 8.77242 240.468 8.35681C240.276 8.19353 240.038 8.10447 239.801 8.05994C238.719 7.8076 237.562 8.08963 236.583 8.62399C235.605 9.15835 234.775 9.91536 233.959 10.6872C231.854 12.6169 229.748 14.6504 228.369 17.1738ZM253.68 86.9524C254.021 87.0414 254.332 87.3086 254.673 87.2938C255.281 87.2641 255.533 86.5219 255.637 85.9282C255.933 84.1024 256.141 82.2619 256.289 80.4064C255.904 80.5994 255.652 81.0002 255.429 81.3713C254.08 83.5235 252.464 85.4977 250.64 87.2641C251.53 87.8133 252.671 86.6703 253.68 86.9524ZM184.257 77.1557C183.887 79.2932 183.605 81.4603 183.412 83.6126C183.798 83.3306 183.976 82.8407 184.094 82.3806C184.687 80.0947 184.761 77.7198 184.85 75.3597C184.91 73.6676 184.969 71.9606 185.028 70.2684C184.806 70.2091 184.672 70.5208 184.643 70.7583C184.391 72.9402 184.139 75.1074 183.887 77.2893C183.842 77.6456 183.798 78.0018 183.872 78.3432C183.976 77.9573 184.124 77.5565 184.257 77.1557ZM249.676 21.3299C249.543 21.5822 249.38 21.9236 249.572 22.1314C250.017 22.6064 250.032 23.3338 249.988 23.9869C249.839 26.347 249.439 28.7219 249.824 31.0375C250.343 30.5328 250.373 29.7312 250.388 29.0039C250.403 25.9313 250.432 22.8439 250.447 19.7713C250.447 19.6081 250.447 19.4448 250.358 19.3112C250.269 19.1776 250.077 19.1034 249.943 19.1925C250.121 19.9049 250.017 20.6768 249.676 21.3299ZM226.797 45.3613C226.827 47.1425 226.575 48.9237 226.011 50.601C225.908 50.9275 225.789 51.2689 225.819 51.6103C225.863 51.9517 226.115 52.308 226.456 52.308C226.753 52.3228 227.005 52.0853 227.109 51.8181C227.227 51.551 227.213 51.2541 227.213 50.9572C227.198 49.2502 227.183 47.5284 227.168 45.8214C227.183 45.5839 227.02 45.2277 226.797 45.3613ZM211.614 54.3415C211.807 54.1634 212.014 53.9853 212.207 53.8072C209.523 53.3173 206.78 53.2579 204.082 53.629C204.037 54.0001 204.556 54.1485 204.942 54.1634C206.454 54.1782 207.981 54.1337 209.494 54.0446C210.22 53.9853 211.006 53.9407 211.614 54.3415ZM225.344 17.4706C224.306 17.1886 223.268 16.8917 222.23 16.6097C221.919 16.5207 221.534 16.4613 221.341 16.7136C222.483 17.7378 224.114 18.1683 225.611 17.8566C225.759 17.723 225.537 17.5152 225.344 17.4706ZM259.477 62.7874C259.877 61.689 260.293 60.5906 260.693 59.4922C260.871 59.0172 261.049 58.4531 260.812 58.0078C260.471 58.4086 260.278 58.9281 260.263 59.4625C259.685 60.4421 259.403 61.6148 259.477 62.7874ZM184.969 63.2772C185.177 61.7483 185.369 60.2343 185.577 58.7055C185.607 58.4383 185.607 58.0969 185.369 57.9781C185.177 58.1711 185.132 58.4828 185.102 58.75C184.984 59.982 184.85 61.214 184.732 62.446C184.717 62.7577 184.717 63.1288 184.969 63.2772ZM198.388 86.611C197.765 86.9375 197.202 87.3531 196.712 87.8578C196.52 88.0508 196.342 88.3625 196.52 88.5703C197.335 88.1695 198.017 87.457 198.388 86.611ZM202.895 31.3492C203.311 30.8593 203.414 30.1914 203.503 29.5531C203.548 29.2117 203.563 28.7961 203.281 28.6031C202.866 29.4492 202.732 30.4289 202.895 31.3492ZM269.248 49.844C269.352 49.6659 269.1 49.5026 268.907 49.4581C268.033 49.2799 267.098 49.3838 266.283 49.7252C267.173 49.7994 268.047 49.8588 268.937 49.933C269.041 49.933 269.189 49.933 269.248 49.844ZM216.818 88.2586C216.818 88.5109 217.115 88.6297 217.367 88.6445C217.753 88.689 218.153 88.6593 218.538 88.5703C218.123 88.125 217.382 87.9914 216.818 88.2586ZM260.352 61.2437C260.307 61.4812 260.456 61.7335 260.678 61.8226C260.782 61.5405 260.901 61.2734 261.004 60.9913C260.752 60.932 260.485 61.021 260.322 61.214L260.352 61.2437ZM183.783 87.3234C183.961 87.0859 183.99 86.7594 183.857 86.5071C183.679 86.6406 183.501 86.7891 183.457 87.0117C183.412 87.2344 183.634 87.4867 183.842 87.3828L183.783 87.3234ZM260.011 70.684C259.981 70.3723 259.566 70.1942 259.329 70.3723C259.388 70.5208 259.462 70.6544 259.522 70.8028C259.7 70.8473 259.892 70.8176 260.055 70.7434L260.011 70.684ZM203.281 28.1727C203.503 27.8313 203.548 27.3711 203.385 27.0001C203.177 27.3266 203.103 27.7571 203.207 28.143L203.281 28.1727ZM183.041 84.8001C183.041 84.9337 183.041 85.0673 183.027 85.2008C183.204 85.2899 183.412 85.0969 183.412 84.904C183.412 84.711 183.293 84.5329 183.175 84.3845C183.116 84.518 183.041 84.6516 182.982 84.7852L183.041 84.8001ZM192.605 53.9407C192.368 53.9704 192.131 54.0001 191.893 54.015C192.101 54.1634 192.338 54.2673 192.605 54.3118C192.724 54.1931 192.753 53.8814 192.59 53.9407H192.605ZM255.474 66.6021C255.681 66.5576 255.8 66.3053 255.741 66.1123C255.548 66.231 255.37 66.3498 255.177 66.4537C255.029 66.6021 255.4 66.8248 255.474 66.6318V66.6021ZM257.905 71.4707C257.624 71.5746 257.535 72.0051 257.757 72.2129C257.98 72.0199 258.039 71.6786 257.891 71.4262L257.905 71.4707ZM227.183 44.0105C227.242 43.7879 227.227 43.4613 227.005 43.4465C227.049 43.877 227.094 44.2926 227.138 44.723C227.227 44.5004 227.242 44.2629 227.198 44.0254L227.183 44.0105ZM226.812 67.7005C226.886 67.5966 226.664 67.463 226.605 67.5818C226.56 67.7451 226.501 67.9083 226.456 68.0865C226.56 68.1755 226.738 68.1755 226.842 68.0865C226.827 67.9677 226.827 67.8341 226.812 67.7005ZM194.696 53.8962C194.459 53.7923 194.162 53.8072 193.925 53.9259C194.162 54.015 194.414 54.104 194.651 54.1931C194.666 54.0892 194.696 54.0001 194.711 53.8962H194.696ZM211.97 88.689C211.866 88.7484 211.762 88.7929 211.658 88.8523C211.718 88.9711 211.777 89.0898 211.851 89.1937C212.059 89.1195 212.222 88.9265 212.266 88.7039C212.163 88.689 212.074 88.6593 211.97 88.6445V88.689ZM218.954 53.4658C219.057 53.1689 218.479 52.9611 218.375 53.2579C218.524 53.3915 218.731 53.4509 218.924 53.4509L218.954 53.4658ZM260.1 63.2475C259.848 63.1585 259.596 63.5592 259.803 63.7374C259.966 63.6483 260.085 63.4553 260.085 63.2772L260.1 63.2475ZM228.844 88.0953C228.873 87.9914 228.858 87.8726 228.784 87.7836C228.68 87.7539 228.562 87.7836 228.458 87.843C228.443 88.0359 228.68 88.1992 228.844 88.0953ZM253.264 83.4048C253.25 83.5087 253.353 83.6126 253.457 83.5978C253.516 83.4493 253.591 83.3009 253.65 83.1525C253.502 83.0782 253.294 83.2415 253.324 83.4048H253.264ZM227.731 13.7301C227.568 13.6114 227.361 13.9379 227.539 14.0418C227.628 14.1012 227.761 14.0863 227.82 14.0121C227.88 13.9231 227.82 13.7746 227.717 13.7746L227.731 13.7301ZM215.173 53.3915C215.202 53.2728 215.173 53.1392 215.098 53.0501C214.995 53.1244 214.891 53.1837 214.802 53.2579C214.846 53.4064 215.039 53.4806 215.187 53.4212L215.173 53.3915Z" fill="#3A3A3A"/>
</g>
<g clip-path="url(#clip1)">
<path d="M202.91 90.6581C202.166 90.3072 201.465 89.8374 200.867 89.2631C200.539 88.9539 200.224 88.5705 200.162 88.1261C201.132 88.9203 202.043 89.7594 202.91 90.6581Z" fill="#3A3A3A"/>
<path d="M125.076 84.9219C125.071 84.2102 125.215 83.5124 125.508 82.858C125.756 82.3077 126.094 81.8013 126.447 81.3096C126.263 82.6008 125.796 83.8347 125.076 84.9219Z" fill="#3A3A3A"/>
<path d="M126.609 87.7586C126.767 89.1959 126.807 90.6339 126.757 92.0874C126.51 90.6507 126.456 89.198 126.609 87.7586Z" fill="#3A3A3A"/>
<path d="M225.406 111.726C225.332 111.83 225.259 111.92 225.185 112.024C224.753 111.73 224.585 111.109 224.805 110.633C225.177 110.838 225.418 111.266 225.376 111.697L225.406 111.726Z" fill="#3A3A3A"/>
<path d="M203.256 100.086C203.019 100.251 202.706 100.06 202.482 99.869C201.706 99.1922 200.915 98.5302 200.138 97.8533C200.389 97.6737 200.717 97.8791 200.941 98.0852C201.718 98.7472 202.494 99.4241 203.256 100.086Z" fill="#3A3A3A"/>
<path d="M159.58 103.641C159.797 102.898 160.238 102.213 160.843 101.705C160.64 102.462 160.185 103.147 159.58 103.641Z" fill="#3A3A3A"/>
<path d="M174.826 32.9731C175.497 33.5024 176.051 34.166 176.457 34.9195C175.771 34.4199 175.202 33.7565 174.826 32.9731Z" fill="#3A3A3A"/>
<path d="M120.717 67.8398C121.224 68.2664 121.732 68.7079 122.224 69.1346C122.374 69.267 122.524 69.4736 122.406 69.6227C121.72 69.1528 121.137 68.5487 120.717 67.8398Z" fill="#3A3A3A"/>
<path d="M172.886 31.3699C173.407 31.6926 173.929 32.0153 174.451 32.3529C173.784 32.5501 172.994 32.0512 172.886 31.3699Z" fill="#3A3A3A"/>
<path d="M185.204 40.0358C187.044 39.8307 188.82 39.1516 190.327 38.0591C191.08 37.5054 191.879 37.0107 192.707 36.5604C191.722 37.9904 190.14 38.8907 188.541 39.5835C187.49 40.0353 186.305 40.414 185.204 40.0358Z" fill="#3A3A3A"/>
<path d="M161.559 95.5613C161.575 95.7984 161.414 96.0516 161.177 96.1273C161.217 95.5191 161.376 94.9101 161.67 94.3743C161.628 94.7749 161.586 95.1756 161.544 95.5614L161.559 95.5613Z" fill="#3A3A3A"/>
<path d="M190.052 123.395C190.318 123.141 190.718 123.064 191.06 123.21C190.663 123.643 190.026 123.84 189.461 123.695C189.563 123.487 189.815 123.367 190.052 123.395Z" fill="#3A3A3A"/>
<path d="M116.49 63.8794C116.909 64.4401 117.343 64.9858 117.762 65.5465C117.852 65.6645 117.942 65.8418 117.839 65.9463C117.271 65.3273 116.821 64.6335 116.49 63.8794Z" fill="#3A3A3A"/>
<path d="M199.983 61.4224C199.448 61.3518 198.942 61.0587 198.612 60.616C199.176 60.6419 199.698 60.9498 199.983 61.4224Z" fill="#3A3A3A"/>
<path d="M204.449 118.732C204.376 118.88 204.213 118.985 204.05 119.016C203.929 118.631 204.208 118.185 204.594 118.123C204.669 118.33 204.612 118.582 204.434 118.732L204.449 118.732Z" fill="#3A3A3A"/>
<path d="M196.21 56.5693C196.284 56.465 196.357 56.3755 196.431 56.2712C196.686 56.6995 196.719 57.2479 196.5 57.6942C196.379 57.3392 196.317 56.9689 196.299 56.5983L196.21 56.5693Z" fill="#3A3A3A"/>
<path d="M200.456 89.9331C200.307 89.86 200.158 89.8017 200.024 89.7284C199.994 89.6248 200.023 89.506 200.082 89.4167C200.379 89.5185 200.648 89.6946 200.827 89.9455C200.739 90.0499 200.546 90.0363 200.486 89.9181L200.456 89.9331Z" fill="#3A3A3A"/>
<path d="M214.534 110.85C214.772 110.922 215.01 111.01 215.248 111.082C214.924 111.337 214.403 111.236 214.178 110.897C214.297 110.866 214.416 110.836 214.534 110.791L214.534 110.85Z" fill="#3A3A3A"/>
<path d="M186.104 118.988C186.15 119.269 185.691 119.391 185.497 119.2C185.288 119.008 185.285 118.682 185.298 118.4C185.552 118.606 185.821 118.812 186.075 119.033L186.104 118.988Z" fill="#3A3A3A"/>
<path d="M223.318 101.42C223.169 101.287 223.02 101.17 222.885 101.037C223.346 101.108 223.763 101.372 224.018 101.771C223.765 101.713 223.527 101.582 223.348 101.405L223.318 101.42Z" fill="#3A3A3A"/>
<path d="M199.054 119.969C198.952 120.236 198.597 120.387 198.329 120.255C198.402 120.092 198.475 119.913 198.623 119.838C198.771 119.748 199.024 119.821 199.04 119.999L199.054 119.969Z" fill="#3A3A3A"/>
<path d="M172.895 30.5395C173.236 30.5075 173.579 30.7573 173.655 31.083C173.358 31.0109 173.075 30.82 172.91 30.5542L172.895 30.5395Z" fill="#3A3A3A"/>
<path d="M211.874 119.127C211.86 119.26 211.861 119.409 211.847 119.542C211.549 119.292 211.604 118.728 211.944 118.548C211.916 118.741 211.888 118.934 211.844 119.127L211.874 119.127Z" fill="#3A3A3A"/>
<path d="M147.943 110.51C147.959 110.614 147.975 110.717 147.99 110.821C147.872 110.881 147.768 110.956 147.65 111.016C147.589 110.809 147.721 110.571 147.914 110.51L147.943 110.51Z" fill="#3A3A3A"/>
<path d="M196.03 118.269C195.822 118.271 195.614 118.257 195.406 118.258C195.598 118.064 196.028 117.958 196.044 118.225L196.03 118.269Z" fill="#3A3A3A"/>
<path d="M194.417 121.305C194.314 121.38 194.194 121.173 194.297 121.083C194.4 120.994 194.549 121.022 194.668 121.081C194.787 121.124 194.936 121.183 195.054 121.123C194.996 121.227 194.952 121.346 194.893 121.45C194.729 121.392 194.566 121.333 194.417 121.275L194.417 121.305Z" fill="#3A3A3A"/>
<path d="M135.35 96.3151C135.558 96.373 135.766 96.4309 135.975 96.4888C135.783 96.6235 135.471 96.5663 135.336 96.3596L135.35 96.3151Z" fill="#3A3A3A"/>
<path d="M199.443 120.411C199.472 120.248 199.709 120.202 199.843 120.305C199.978 120.408 200.023 120.585 200.054 120.748C199.847 120.868 199.534 120.663 199.562 120.425L199.443 120.411Z" fill="#3A3A3A"/>
<path d="M199.542 77.5876C199.556 75.1854 199.57 72.7832 199.568 70.3811C199.565 69.9067 199.577 69.4173 199.678 68.9421C200.065 69.1916 200.084 69.7401 200.057 70.1999C199.881 72.6625 199.719 75.125 199.542 77.5876Z" fill="#3A3A3A"/>
<path d="M209.941 105.424C210.075 105.497 210.18 105.63 210.211 105.793C210.092 105.779 209.958 105.75 209.883 105.647C209.809 105.544 209.837 105.365 209.971 105.364L209.941 105.424Z" fill="#3A3A3A"/>
<path d="M208.057 121.035C207.969 121.199 207.672 121.216 207.567 121.054C207.715 120.964 207.923 120.962 208.087 121.05L208.057 121.035Z" fill="#3A3A3A"/>
<path d="M109.761 94.2474C109.791 94.3658 109.569 94.4118 109.509 94.2936C109.449 94.1902 109.492 94.0564 109.536 93.9375C109.596 94.0409 109.671 94.1442 109.731 94.2624L109.761 94.2474Z" fill="#3A3A3A"/>
<path d="M214.326 117.331C214.177 117.317 214.22 117.035 214.368 117.019C214.517 116.989 214.651 117.121 214.771 117.224C214.637 117.299 214.474 117.315 214.326 117.272L214.326 117.331Z" fill="#3A3A3A"/>
<path d="M163.475 57.9747C163.576 57.6478 163.663 57.3359 163.765 57.009C163.887 57.5271 163.832 58.0761 163.612 58.5521C163.433 58.4198 163.387 58.1681 163.475 57.9747Z" fill="#3A3A3A"/>
<path d="M192.431 108.373C192.342 108.404 192.223 108.419 192.148 108.346C192.104 108.301 192.088 108.242 192.103 108.198C192.532 108.032 192.977 107.91 193.436 107.833C193.141 108.087 192.786 108.282 192.431 108.373Z" fill="#3A3A3A"/>
<path d="M184.304 109.614C184.383 110.207 184.357 110.815 184.242 111.394C184.199 111.631 184.112 111.899 183.89 112.034C183.756 112.005 183.652 111.902 183.621 111.783C183.884 111.055 184.102 110.342 184.304 109.614Z" fill="#3A3A3A"/>
<path d="M164.773 50.2259C164.568 50.5831 164.482 51.0137 164.544 51.4137C164.171 51.0751 164.284 50.3478 164.758 50.1519L164.773 50.2259Z" fill="#3A3A3A"/>
<path d="M163.826 48.4084C163.722 48.4388 163.604 48.4247 163.514 48.366C163.572 48.1729 163.63 47.9946 163.688 47.8014C163.853 47.9634 163.914 48.2151 163.856 48.4379L163.826 48.4084Z" fill="#3A3A3A"/>
<path d="M181.687 75.6462C181.479 75.6179 181.285 75.4857 181.18 75.2937C181.403 75.2477 181.641 75.4092 181.672 75.6314L181.687 75.6462Z" fill="#3A3A3A"/>
<path d="M197.394 104.737C197.484 104.929 197.486 105.166 197.398 105.375C197.307 105.182 197.306 104.945 197.394 104.737Z" fill="#3A3A3A"/>
<path d="M163.624 47.0901C163.475 46.928 163.458 46.6612 163.576 46.4825C163.799 46.5996 163.846 46.9403 163.654 47.1195L163.624 47.0901Z" fill="#3A3A3A"/>
<path d="M228.331 98.5245C228.197 98.481 228.255 98.2433 228.388 98.2573C228.492 98.2417 228.582 98.3598 228.553 98.4637C228.524 98.5677 228.391 98.6131 228.301 98.5396L228.331 98.5245Z" fill="#3A3A3A"/>
<path d="M164.538 61.6449C164.21 61.4395 163.852 61.2343 163.628 60.9096C163.283 60.4374 163.234 59.7557 163.527 59.2496C163.474 60.1693 164.236 60.9352 164.997 61.4343C165.772 61.948 166.651 62.387 167.101 63.1847C166.237 62.6863 165.387 62.1582 164.538 61.6449Z" fill="#3A3A3A"/>
<path d="M192.9 105.345C193.768 106.318 194.635 107.291 195.503 108.249C195.877 108.677 196.265 109.104 196.639 109.517C196.789 109.694 196.88 110.049 196.643 110.065C195.028 108.312 193.413 106.558 191.783 104.789C192.213 104.668 192.616 105.021 192.9 105.345Z" fill="#3A3A3A"/>
<path d="M129.967 77.1342C130.368 77.1167 130.752 76.9362 131.017 76.6379C131.622 75.9814 131.6 74.8991 132.263 74.2867C132.315 75.3244 131.877 76.3652 131.094 77.0377C130.814 77.2769 130.921 77.7655 131.16 78.0456C131.4 78.3257 131.743 78.531 131.952 78.8261C132.162 79.1213 132.195 79.6401 131.855 79.8054C131.329 78.86 130.7 77.9597 129.967 77.1342Z" fill="#3A3A3A"/>
<path d="M155.923 91.7586C157.091 91.1725 158.064 90.2022 158.665 89.0564C158.435 90.0662 157.953 91.2112 156.945 91.4552C156.559 91.5467 156.504 92.1106 156.744 92.4352C156.968 92.7599 157.355 92.9204 157.654 93.1705C157.967 93.4204 158.208 93.8488 158.032 94.1911C157.27 93.4251 156.567 92.6143 155.923 91.7586Z" fill="#3A3A3A"/>
<path d="M131.87 81.9406C132.027 83.3481 131.028 84.808 129.665 85.173C130.248 85.8808 130.847 86.5885 131.43 87.3112C131.58 87.4881 131.73 87.6799 131.746 87.9022C131.777 88.1244 131.616 88.3924 131.393 88.379C131.103 87.1503 129.94 86.3574 129.176 85.3542C129.056 85.1919 129.01 84.8956 129.202 84.8647C129.9 84.8007 130.505 84.3518 130.932 83.8003C131.359 83.234 131.621 82.5798 131.87 81.9406Z" fill="#3A3A3A"/>
<path d="M141.619 90.4606C141.338 90.5366 140.997 90.5833 140.788 90.392C142.654 89.7715 144.353 88.6333 145.635 87.1419C144.844 88.7338 143.338 89.9746 141.619 90.4606Z" fill="#3A3A3A"/>
<path d="M150.796 93.1275C150.648 93.1878 150.485 93.263 150.336 93.2195C150.247 93.1904 150.158 93.1317 150.113 93.0579C151.459 92.4261 152.685 91.5134 153.672 90.4095C153.459 91.7751 152.054 92.5556 150.796 93.1275Z" fill="#3A3A3A"/>
<path d="M135.467 89.3452C136.013 88.9264 136.574 88.4926 136.882 87.8826C137.365 86.9452 137.15 85.7901 136.654 84.8741C136.158 83.9581 135.381 83.2071 134.663 82.4408C135.36 82.2731 136.101 82.0605 136.542 81.5089C137.057 80.853 137.051 79.8448 137.7 79.3215C137.679 80.5671 137.004 81.7875 135.955 82.447C135.703 82.597 135.424 82.9547 135.677 83.1161C136.542 83.659 137.23 84.4847 137.534 85.4613C137.837 86.4379 137.711 87.5508 137.123 88.3703C136.755 88.8917 136.238 89.2807 135.721 89.6697C135.322 89.9689 134.864 90.2834 134.374 90.1977C134.743 89.9135 135.097 89.6294 135.467 89.3452Z" fill="#3A3A3A"/>
<path d="M137.486 73.8514C137.22 74.1053 136.94 74.3592 136.764 74.6866C136.603 75.0139 136.576 75.4441 136.801 75.7392C137.31 76.403 137.775 77.0968 138.181 77.8355C138.107 78.0139 137.839 77.8674 137.719 77.7051C137.12 76.8491 136.535 75.9782 135.936 75.1222C136.407 74.6001 136.849 74.0781 137.291 73.5265C137.366 73.6298 137.426 73.7332 137.486 73.8514Z" fill="#3A3A3A"/>
<path d="M136.669 93.7558C136.011 93.004 135.56 92.0729 135.36 91.0956C136.181 91.7129 136.677 92.7327 136.669 93.7558Z" fill="#3A3A3A"/>
<path d="M153.207 89.6713C152.679 88.4441 152.107 87.2469 151.491 86.0796C152.669 86.8279 153.361 88.2764 153.207 89.6713Z" fill="#3A3A3A"/>
<path d="M156.506 83.4956C157.61 84.3482 158.434 85.5289 158.873 86.8457C158.904 86.9493 158.92 87.1123 158.816 87.1426C157.962 85.9621 157.197 84.7514 156.506 83.4956Z" fill="#3A3A3A"/>
<path d="M153.166 81.2493C152.759 80.3179 152.159 79.4619 151.442 78.7401C152.632 79.2215 153.472 80.4465 153.495 81.7364C153.317 81.619 153.241 81.4267 153.166 81.2493Z" fill="#3A3A3A"/>
<path d="M144.721 81.4245C144.531 81.8706 144.192 82.2584 143.778 82.5281C143.349 82.7978 142.816 82.92 142.34 82.7898C143.154 82.3691 143.952 81.9189 144.721 81.4245Z" fill="#3A3A3A"/>
<path d="M145.418 85.8385C144.878 85.0414 144.339 84.2443 143.784 83.4473C144.781 83.7669 145.5 84.8 145.418 85.8385Z" fill="#3A3A3A"/>
<path d="M145.081 77.5817C144.931 77.3751 144.914 77.0935 145.032 76.8703C145.332 77.4021 145.44 78.0538 145.34 78.6624C145.116 78.3525 145.024 77.9379 145.11 77.5666L145.081 77.5817Z" fill="#3A3A3A"/>
<path d="M151.625 77.3451C152.229 76.6145 152.847 75.8838 153.57 75.2413C153.221 76.2964 152.47 77.2208 151.509 77.7759C151.419 77.643 151.522 77.4644 151.625 77.3451Z" fill="#3A3A3A"/>
<path d="M150.894 85.5646C150.701 85.6697 150.435 85.7604 150.315 85.5833C151.439 85.0716 152.459 84.3234 153.269 83.3838C153.492 83.501 153.316 83.8432 153.124 84.0076C152.431 84.6053 151.677 85.1145 150.894 85.5646Z" fill="#3A3A3A"/>
<path d="M143.465 93.4138C143.369 92.4506 142.814 91.5498 141.994 91.0215C142.245 90.7974 142.618 91.0767 142.813 91.3571C143.292 92.0211 143.639 92.775 143.837 93.5744C143.718 93.5159 143.599 93.4722 143.465 93.4138Z" fill="#3A3A3A"/>
<path d="M159.047 79.4751C158.713 80.5449 158.289 81.5709 157.806 82.5824C157.674 82.8502 157.318 82.8822 157.036 82.9434C156.755 83.0046 156.415 83.2738 156.55 83.525C156.253 83.4676 156.265 82.9931 156.501 82.7987C156.737 82.6044 157.064 82.5726 157.33 82.4225C158.35 81.8819 158.101 80.1635 159.047 79.4751Z" fill="#3A3A3A"/>
<path d="M151.734 69.2187C151.016 68.3487 149.929 67.8073 148.8 67.7556C150.161 67.0495 151.296 65.8854 151.955 64.4871C152.209 64.7227 152.048 65.1686 151.857 65.4516C151.358 66.2112 150.694 66.8532 149.926 67.3477C150.627 67.8471 151.254 68.4953 151.734 69.2187Z" fill="#3A3A3A"/>
<path d="M132.049 57.7551C131.86 58.4237 131.24 58.8578 130.663 59.2472C130.427 59.4119 130.622 59.7813 130.817 59.9876C131.34 60.503 131.863 61.0333 132.371 61.5489C132.076 61.7881 131.658 61.4795 131.404 61.1847C130.82 60.5065 130.237 59.8432 129.639 59.1651C130.452 58.7 131.25 58.235 132.049 57.7551Z" fill="#3A3A3A"/>
<path d="M144.724 55.3423C144.58 55.9957 144.258 56.6206 143.786 57.0983C143.594 57.2923 143.745 57.6323 143.895 57.8538C144.6 58.9018 145.289 59.95 145.994 60.998C145.728 61.0888 145.503 60.7789 145.367 60.5129C144.796 59.3602 144.017 58.3274 143.061 57.459C143.62 56.7583 144.18 56.0577 144.724 55.3423Z" fill="#3A3A3A"/>
<path d="M148.773 59.2742C149.608 59.8766 150.429 60.479 151.264 61.0666C151.562 61.287 151.875 61.5221 152.071 61.8322C152.266 62.1571 152.313 62.5868 152.093 62.8997C151.805 62.1305 151.281 61.452 150.61 60.982C149.894 60.4974 148.957 60.1182 148.773 59.2742Z" fill="#3A3A3A"/>
<path d="M133.716 65.1134C135.347 64.7467 136.824 63.7581 137.795 62.4171C137.447 63.6502 136.326 64.6215 135.065 64.8079C134.843 64.839 134.741 65.1362 134.831 65.358C134.922 65.565 135.116 65.712 135.295 65.8443C136.205 66.5203 136.938 67.4198 137.42 68.4397C136.092 67.4107 135.25 65.7556 133.716 65.1134Z" fill="#3A3A3A"/>
<path d="M131.565 54.2738C132.134 55.0114 132.556 55.839 132.814 56.7269C132.052 55.9313 131.437 54.9864 131.014 53.981C131.222 53.9055 131.431 54.0968 131.565 54.2738Z" fill="#3A3A3A"/>
<path d="M143.212 64.4271C144.261 63.7973 145.296 63.1676 146.346 62.5378C145.537 63.6553 144.355 64.4787 143.036 64.8434C142.887 64.7258 143.064 64.517 143.212 64.4271Z" fill="#3A3A3A"/>
<path d="M145.565 67.881C145.596 68.0143 145.627 68.1475 145.613 68.281C145.613 68.3997 145.54 68.5633 145.406 68.5345C145.013 67.4695 144.517 66.4349 143.916 65.4603C144.751 66.033 145.351 66.9038 145.565 67.881Z" fill="#3A3A3A"/>
<path d="M149.901 59.237C150.623 58.5056 151.421 57.8627 152.278 57.3083C151.884 58.3044 150.954 59.0668 149.901 59.237Z" fill="#3A3A3A"/>
<path d="M156.862 56.9366C156.626 57.1161 156.599 57.4721 156.704 57.7383C156.81 58.0045 157.034 58.2254 157.229 58.4465C157.917 59.213 158.427 60.1437 158.686 61.1354C158.778 61.5204 158.826 61.9797 158.516 62.2338C158.133 60.546 157.292 58.9799 156.11 57.7275C155.841 57.4475 156.21 57.0151 156.505 56.761C157.464 55.9539 158.005 54.7492 158.517 53.604C158.541 54.8939 157.911 56.1733 156.862 56.9366Z" fill="#3A3A3A"/>
<path d="M158.177 67.0552C158.506 67.5571 158.703 68.1489 158.737 68.7566C158.754 69.0976 158.727 69.4536 158.596 69.7807C158.299 69.753 158.222 69.368 158.205 69.0716C158.2 68.4044 158.196 67.7223 158.177 67.0552Z" fill="#3A3A3A"/>
<path d="M134.901 55.8529C135.358 55.2716 135.888 54.7342 136.464 54.2707C136.582 54.1809 136.849 54.1791 136.791 54.3278C136.438 54.8195 136.04 55.267 135.613 55.685C135.421 55.8642 135.096 56.0592 134.901 55.8529Z" fill="#3A3A3A"/>
<path d="M149.392 51.9451C150.102 51.5993 150.798 51.2537 151.508 50.893C151.067 51.6077 150.224 52.0285 149.392 51.9451Z" fill="#3A3A3A"/>
<path d="M130.739 52.8114C131.348 52.7925 131.834 52.3296 132.367 52.0295C132.485 51.9694 132.693 51.9383 132.723 52.0716C132.016 52.877 130.921 53.3292 129.852 53.277C129.761 53.0997 129.938 52.8761 130.131 52.8155C130.323 52.7697 130.531 52.8128 130.739 52.8114Z" fill="#3A3A3A"/>
<path d="M152.023 54.7745C151.741 54.6726 151.59 54.3177 151.692 54.0501C151.886 54.2268 152.021 54.4779 152.038 54.7447L152.023 54.7745Z" fill="#3A3A3A"/>
<path d="M158.274 63.7628C158.262 64.1928 158.086 64.624 157.777 64.9226C157.629 65.0719 157.407 65.2069 157.199 65.1193C157.522 64.6575 157.876 64.1954 158.274 63.7628Z" fill="#3A3A3A"/>
<path d="M137.998 59.5243C138.043 59.613 138.089 59.7165 138.074 59.8055C138.06 59.8649 138.031 59.9244 137.971 59.9545C137.641 59.4081 137.415 58.8016 137.306 58.1796C137.532 58.6229 137.758 59.0811 137.998 59.5243Z" fill="#3A3A3A"/>
<path d="M167.126 111.123C166.322 110.891 165.665 110.199 165.466 109.399C166.108 109.899 166.661 110.474 167.126 111.123Z" fill="#3A3A3A"/>
<path d="M173.482 111.51C173.333 111.496 173.199 111.453 173.08 111.38C172.886 111.247 172.766 111.026 172.675 110.804C173.359 110.948 174.058 111.091 174.741 111.19C174.387 111.46 173.927 111.567 173.482 111.51Z" fill="#3A3A3A"/>
<path d="M125.645 65.6716C125.794 65.8189 125.826 66.0708 125.708 66.2495C125.499 66.1323 125.438 65.8361 125.585 65.6424L125.645 65.6716Z" fill="#3A3A3A"/>
<path d="M144.379 52.6311C144.544 52.8673 144.621 53.2967 144.339 53.3283C144.111 52.3957 143.452 51.5845 142.588 51.1603C142.528 51.0569 142.646 50.9375 142.75 50.9368C142.869 50.936 142.958 51.0244 143.048 51.0979C143.526 51.5544 143.99 52.0703 144.379 52.6311Z" fill="#3A3A3A"/>
<path d="M132.148 63.6411C132.376 64.4551 131.579 65.1574 131.064 65.8281C130.946 65.992 130.829 66.1855 130.815 66.3784C130.806 67.1643 132.247 67.3622 132.178 68.1486C131.433 67.7236 130.805 67.1198 130.34 66.3964C130.25 66.2487 130.175 66.0268 130.307 65.9221C131.06 65.2943 131.693 64.519 132.148 63.6411Z" fill="#3A3A3A"/>
<path d="M169.429 109.328C169.492 109.832 169.065 110.354 168.56 110.372C168.234 110.389 168.237 110.863 168.343 111.159C167.163 110.07 166.042 108.936 164.98 107.742C165.457 107.991 165.919 108.314 166.323 108.682C166.801 109.123 167.22 109.639 167.815 109.888C168.396 110.121 169.24 109.937 169.429 109.328Z" fill="#3A3A3A"/>
<path d="M176.587 40.998C175.919 41.0025 175.251 41.007 174.583 41.0114C182.03 47.041 189.566 52.9958 197.161 58.8464C197.024 56.1487 196.902 53.4508 196.765 50.7531C196.696 49.2856 196.372 47.4787 194.974 47.0581C192.326 46.2455 191.088 43.0658 188.601 41.8665C187.588 41.384 186.445 41.2582 185.316 41.1472C176.493 40.3314 166.945 39.8615 160.124 34.2133C160.261 34.6424 160.397 35.0715 160.533 35.5006C159.065 33.5087 157.506 31.1318 158.143 28.7403C158.881 25.9774 162.361 24.7234 165.142 25.4165C167.922 26.0948 170.133 28.141 172.209 30.1141C169.869 28.6914 167.514 27.2689 165.174 25.8463C163.281 24.7024 160.573 25.8326 159.651 27.8405C158.729 29.8485 159.399 32.335 160.865 33.9859C162.33 35.6368 164.459 36.5716 166.615 37.0613C164.736 35.7987 162.768 34.4032 161.922 32.3181C161.077 30.2183 162.037 27.2759 164.261 26.8903C165.432 26.6897 166.623 27.2452 167.475 28.055C166.15 27.456 164.587 26.8733 163.316 27.5787C161.556 28.5543 161.767 31.2516 162.921 32.9046C166.308 37.8196 173.653 37.3255 179.014 39.9586C178.162 39.045 177.31 38.1166 176.442 37.2031C177.084 37.7177 177.726 38.2324 178.368 38.7471C178.422 37.9757 178.135 37.2066 177.611 36.6466C178.221 36.8649 178.758 37.2469 179.148 37.7632C180.657 34.832 182.434 32.0325 184.421 29.4095C183.088 32.1171 181.577 34.7517 179.916 37.2836C184.584 33.7826 186.259 26.8172 191.662 24.6161C186.791 28.6819 182.862 33.8535 180.229 39.6243C186.687 39.8331 193.104 36.0387 196.034 30.2955C196.694 29.0159 197.189 27.5447 196.808 26.1682C196.428 24.777 194.847 23.6755 193.53 24.2477C192.879 24.5338 191.723 24.8233 191.837 24.1256C193.231 24.0125 194.563 23.3215 195.476 22.2626C191.236 23.0176 187.379 25.6827 185.163 29.3601C186.646 27.0073 188.263 24.5944 190.673 23.2141C193.098 21.8337 196.557 21.8847 198.293 24.0527C199.73 25.8521 199.54 28.5224 198.456 30.5462C197.371 32.5701 195.57 34.0946 193.813 35.5595C196.409 32.9917 199.208 29.8888 198.857 26.2583C198.761 25.2062 198.338 24.1117 197.473 23.4799C196.623 22.848 195.272 22.8126 194.565 23.6032C195.961 23.8015 197.039 25.0991 197.3 26.4911C197.562 27.8832 197.171 29.3241 196.556 30.6034C193.892 36.1372 187.646 38.9222 181.689 40.4449C185.953 40.9353 190.201 41.411 194.464 41.9014C195.267 41.985 196.143 42.1274 196.652 42.7616C197.027 43.2484 197.09 43.9004 197.124 44.5081C198.537 67.0815 199.178 89.7193 199.048 112.333C199.05 112.644 199.112 113.044 199.409 113.131C199.707 113.218 199.717 112.521 199.466 112.7C199.08 114.987 195.996 115.408 193.664 115.245C183.878 114.614 174.077 113.968 164.291 113.336C164.988 113.287 165.685 113.223 166.383 113.174C165.295 112.603 164.003 112.449 162.817 112.753C163.004 105.175 162.686 97.6 161.879 90.058C161.754 91.3489 161.614 92.6843 161.013 93.8449C160.412 95.0055 159.231 95.9476 157.924 95.8673C154.301 95.6544 150.678 95.4414 147.055 95.2432C151.5 96.2366 156.074 96.6359 160.615 96.4128C159.476 97.0432 158.095 96.9635 156.788 96.8832C148.71 96.3146 140.631 95.7607 132.537 95.1922C133.163 95.529 133.789 95.8659 134.414 96.2027C132.408 95.8454 130.387 95.4735 128.38 95.1162C128.013 95.7266 126.88 94.889 127.351 94.3669C127.241 89.0148 127.146 83.6774 127.036 78.3253C125.662 81.5669 123.723 84.5603 121.351 87.1562C119.494 89.1853 116.508 91.0736 114.168 89.6213C111.813 88.1691 112.16 84.6377 113.227 82.0802C115.448 76.7718 119.499 72.237 124.527 69.4602C119.255 66.871 114.892 62.4667 112.377 57.1603C112.166 56.7021 111.955 56.1993 112.071 55.7092C112.186 55.2488 112.555 54.9201 112.939 54.6358C115.495 52.7801 119.145 52.5777 121.887 54.1459C124.628 55.7141 126.298 58.9651 125.992 62.1106C125.93 59.3975 124.487 56.753 122.235 55.2557C119.984 53.7435 116.983 53.4225 114.452 54.4033C113.859 54.6297 113.253 54.9896 113.049 55.5841C112.89 56.0893 113.056 56.622 113.238 57.1101C114.189 59.5651 115.748 61.7937 117.749 63.53C117.219 61.9766 116.274 60.5743 115.035 59.5001C115.616 59.8669 116.198 60.2337 116.779 60.6154C115.821 59.3466 117.143 57.3805 118.716 57.2068C120.288 57.0332 121.749 58.0465 122.87 59.1659C124.678 60.9777 126.044 63.2372 126.833 65.6785C127.271 60.1448 127.144 54.5555 126.484 49.044C127.973 47.5068 130.377 47.4313 132.515 47.506C137.028 47.6537 141.543 47.9942 146.029 48.5128C145.006 48.6382 143.983 48.7637 142.959 48.8892C148.381 49.4757 153.803 50.0769 159.225 50.6634C159.626 50.7052 160.057 50.7765 160.311 51.0713C160.536 51.3367 160.568 51.722 160.585 52.0629C160.833 58.1259 161.097 64.2035 161.345 70.2664C161.429 60.6574 161.528 51.0632 161.612 41.4542C161.622 40.7127 161.661 39.8969 162.207 39.3891C162.812 38.8364 163.748 38.934 164.55 39.062C168.577 39.6875 172.574 40.3428 176.587 40.998ZM175.583 70.6011C171.451 67.5742 167.319 64.5474 163.201 61.5204C164.856 62.5028 166.539 63.4257 168.252 64.289C168.665 63.9304 169.411 64.5185 169.162 65.0095C169.814 64.8124 170.455 65.2677 170.978 65.6794C180.141 73.0023 189.289 80.3402 198.452 87.6631C198.043 86.4351 196.998 85.5672 195.983 84.7585C193.402 82.6851 190.835 80.6115 188.253 78.5381C191.49 80.9037 194.727 83.2693 197.979 85.6496C197.076 77.1593 196.618 68.6068 196.605 60.066C196.803 63.0006 197 65.9204 197.183 68.855C197.596 66.2722 197.683 63.6323 197.443 61.0242C197.394 60.4462 197.286 59.8242 196.838 59.4565C191.779 55.4127 186.72 51.3689 181.646 47.3253C181.318 47.0606 180.605 46.9616 180.652 47.3912C183.758 50.1581 186.864 52.9397 189.97 55.7066C184.008 51.9654 179.854 45.7507 173.774 42.2031C174.16 42.0819 174.559 41.9457 174.945 41.8245C171.551 40.409 167.909 39.603 164.227 39.4942C163.558 39.469 162.787 39.5187 162.405 40.055C162.11 40.4425 162.129 40.9762 162.162 41.4653C162.212 42.3695 162.263 43.2736 162.313 44.1778C162.549 43.939 162.77 43.7002 163.006 43.4466C162.254 57.4787 162.304 71.55 163.184 85.5713C163.212 85.2004 163.778 85.5969 163.825 85.9673C164.281 89.7157 164.217 93.5269 163.619 97.2527C163.547 97.6683 163.891 98.0367 164.205 98.3312C168.462 102.351 172.705 106.37 176.962 110.39C177.709 111.096 178.486 111.833 179.439 112.227C180.347 112.606 181.342 112.688 182.322 112.756C186.822 113.067 191.336 113.393 195.836 113.703C196.593 113.758 197.272 113.175 197.579 112.476C197.886 111.777 197.896 111.006 197.891 110.25C197.895 108.648 197.899 107.047 197.918 105.43C197.915 104.956 197.927 104.496 197.805 104.037C197.546 103.075 196.784 102.354 196.038 101.692C192.065 98.1446 187.828 94.8664 183.385 91.9306C184.512 91.8489 185.512 92.6132 186.393 93.3339C190.124 96.3783 193.855 99.4375 197.587 102.482C197.806 102.05 197.402 101.593 197.044 101.284C185.966 91.765 174.623 82.5291 163.06 73.606C175.61 81.3066 185.777 92.3446 197.975 100.566C198.144 96.9918 198.194 93.4032 198.125 89.8301C198.107 89.2519 198.088 88.659 197.832 88.1565C197.576 87.6689 197.114 87.3161 196.666 86.9781C191.668 83.2156 186.656 79.4533 181.658 75.7057C183.134 76.6596 184.61 77.6135 186.086 78.5674C184.305 76.3848 181.992 74.6358 179.387 73.5412C179.308 72.7855 178.489 72.4054 177.819 72.0541C177.015 71.6443 176.298 71.1153 175.583 70.6011ZM160.479 93.7892C161.103 89.559 161.565 85.3004 161.848 81.0281C161.628 81.4447 161.423 81.8613 161.203 82.2631C161.161 80.4544 161.268 78.6595 161.508 76.8637C161.579 76.3146 161.085 75.8138 160.535 75.6988C159.985 75.5839 159.422 75.7359 158.889 75.8878C158.906 76.1397 158.907 76.4066 158.924 76.6586C158.653 76.0525 158.174 75.5367 157.593 75.2144C158.855 75.2949 160.103 75.3607 161.365 75.4412C161.6 75.1134 161.389 74.6255 161.047 74.435C160.704 74.2446 160.273 74.2475 159.873 74.265C149.514 74.6457 139.195 71.9865 128.838 72.6193C128.186 72.6533 127.983 73.5147 127.988 74.1819C127.911 80.4546 127.894 86.7417 127.951 93.0135C127.953 93.3842 127.986 93.8288 128.284 94.0492C128.508 94.2257 128.82 94.2236 129.102 94.2217C129.71 94.2176 130.334 94.1986 130.942 94.1945C130.448 93.5454 129.954 92.8963 129.46 92.2472C130.45 91.5733 131.215 90.6044 131.638 89.4895C131.661 90.72 130.972 91.9257 129.907 92.5408C131.405 94.5325 134.329 94.5426 136.822 94.4221C144.36 94.0602 151.932 94.3061 159.434 95.1455C160.072 95.2154 160.379 94.4126 160.479 93.7892ZM137.663 49.2954C137.544 49.2961 137.41 49.297 137.307 49.357C136.804 49.6718 137.819 50.4509 137.54 50.9717C137.041 49.4923 135.253 48.5701 133.742 49.025C133.49 49.1009 133.225 49.4289 133.434 49.5609C131.503 49.3514 129.587 49.127 127.656 48.9175C127.624 55.2789 127.592 61.6551 127.561 68.0164C138.289 69.6349 149.115 70.4818 159.952 70.5575C160.16 70.5561 160.397 70.5545 160.56 70.42C160.796 70.2256 160.793 69.8846 160.762 69.5882C160.338 63.9565 160.241 58.3078 160.47 52.6568C160.482 52.2119 160.464 51.6782 160.076 51.4436C159.927 51.3556 159.734 51.3272 159.556 51.3136C157.015 51.0044 154.46 50.7101 151.92 50.4009C150.791 50.2602 149.647 50.1344 148.518 50.0085C144.923 49.6174 141.285 49.3749 137.663 49.2954ZM173.311 112.594C174.039 112.693 174.767 112.777 175.494 112.742C176.695 112.66 178.043 112.251 178.984 112.986C173.831 108.216 168.678 103.446 163.524 98.6768C163.907 102.648 164.29 106.634 164.688 110.605C164.719 110.857 164.751 111.139 164.93 111.33C165.11 111.522 165.392 111.564 165.659 111.592C168.185 111.931 170.755 112.27 173.311 112.594ZM133.154 69.8324C131.312 69.652 129.351 69.3241 128.006 68.0727C127.909 69.0817 127.827 70.0757 127.73 71.0846C127.702 71.4259 127.69 71.8115 127.944 72.0322C128.153 72.2235 128.465 72.2215 128.747 72.2047C131.314 72.0838 133.866 71.9777 136.433 71.8567C137.146 71.8223 137.902 71.8024 138.543 72.1243C139.079 72.3876 139.688 72.4429 140.297 72.4833C146.846 72.9584 153.395 73.4187 159.944 73.8938C160.494 73.9346 161.088 73.9603 161.516 73.6164C161.81 73.2437 161.184 72.8179 160.724 72.7468C158.91 72.4328 157.097 72.1187 155.284 71.8046C153.665 71.5189 152.03 71.2333 150.396 71.0218C144.676 70.2743 138.888 70.402 133.154 69.8324ZM118.97 86.2825C121.154 84.3254 122.934 81.9262 124.192 79.2785C125.334 76.8835 126.029 74.3137 126.71 71.7439C126.724 71.6845 126.739 71.6102 126.723 71.551C126.648 71.344 126.352 71.4497 126.174 71.5844C122.336 74.635 118.305 77.9389 116.629 82.5467C116.279 83.4981 116.049 84.582 116.471 85.5134C116.893 86.4299 118.217 86.9696 118.97 86.2825ZM122.79 71.6367C119.436 73.8685 116.591 76.8828 114.581 80.3808C113.319 82.5541 112.372 85.1998 113.234 87.5516C113.385 87.951 113.848 88.3779 114.143 88.0793C114.357 89.0269 115.43 89.598 116.409 89.547C117.388 89.4811 118.26 88.9414 119.028 88.3284C122.084 85.9058 123.975 82.3493 125.733 78.8678C125.983 78.3916 126.111 77.6197 125.59 77.4749C124.305 80.627 122.455 83.5605 120.141 86.0671C119.507 86.7534 118.74 87.4554 117.805 87.4617C116.87 87.468 116.063 86.732 115.746 85.8593C115.428 84.9866 115.511 84.0222 115.728 83.1162C116.766 78.6609 120.455 75.3741 123.939 72.4C124.455 71.9517 124.986 71.5034 125.593 71.1879C126.037 70.9477 126.525 70.7961 127.03 70.7038C125.674 70.0456 124.061 70.7978 122.79 71.6367ZM126.491 70.1439C127.156 69.6354 127.075 68.6128 126.862 67.8135C126.206 65.1785 125.061 62.6506 123.31 60.5716C122.263 59.3331 120.964 58.2594 119.417 57.8101C118.793 57.6363 118.006 57.5971 117.594 58.104C117.432 58.2979 117.344 58.5357 117.301 58.7732C117.056 59.8573 117.346 61.0119 117.887 61.9869C118.428 62.962 119.19 63.7872 119.968 64.5975C121.911 66.6901 123.959 68.7819 126.491 70.1439ZM196.099 44.3667C196.186 44.0251 196.451 43.7119 196.434 43.371C196.4 42.7633 195.656 42.5162 195.062 42.4164C193.234 42.1321 191.392 41.9368 189.536 41.801C189.731 42.1852 190.134 42.4346 190.506 42.6545C192.668 43.9894 194.652 45.5923 196.431 47.4042C196.974 46.5109 195.824 45.3769 196.099 44.3667ZM186.767 113.853C188.907 114.209 191.076 114.477 193.23 114.655C192.945 114.271 192.454 114.097 191.993 113.981C189.703 113.403 187.328 113.345 184.967 113.272C183.275 113.224 181.568 113.176 179.875 113.128C179.817 113.351 180.13 113.482 180.368 113.51C182.551 113.748 184.72 113.985 186.904 114.223C187.26 114.265 187.617 114.307 187.957 114.231C187.571 114.129 187.169 113.984 186.767 113.853ZM130.505 48.8095C130.758 48.9412 131.1 49.1021 131.307 48.9079C131.779 48.4599 132.506 48.4402 133.16 48.4803C135.521 48.6128 137.898 48.9972 140.211 48.5962C139.703 48.0806 138.901 48.0563 138.174 48.0464C135.101 48.0521 132.014 48.0432 128.941 48.0489C128.778 48.05 128.615 48.0511 128.482 48.141C128.349 48.2308 128.276 48.4241 128.366 48.5569C129.077 48.3742 129.849 48.4728 130.505 48.8095ZM154.689 71.5269C156.47 71.4853 158.253 71.7254 159.934 72.2776C160.261 72.3792 160.603 72.4956 160.944 72.4636C161.285 72.4169 161.64 72.1624 161.638 71.8214C161.65 71.5247 161.411 71.2743 161.143 71.1723C160.875 71.0554 160.579 71.0723 160.282 71.0742C158.575 71.1005 156.853 71.1269 155.146 71.1531C154.909 71.1399 154.554 71.3054 154.689 71.5269ZM163.771 86.6498C163.591 86.4582 163.412 86.2518 163.232 86.0603C162.76 88.7472 162.719 91.4907 163.108 94.1867C163.48 94.2287 163.625 93.7088 163.637 93.3232C163.642 91.8107 163.587 90.2838 163.488 88.772C163.424 88.0459 163.374 87.2604 163.771 86.6498ZM126.809 73.1667C126.533 74.2065 126.244 75.2464 125.968 76.2862C125.882 76.5981 125.825 76.984 126.078 77.1751C127.095 76.0266 127.514 74.3927 127.193 72.8972C127.058 72.7498 126.852 72.9737 126.809 73.1667ZM171.896 38.7311C170.795 38.3381 169.693 37.9303 168.592 37.5374C168.116 37.3626 167.551 37.1885 167.107 37.4287C167.51 37.767 168.031 37.9563 168.566 37.9675C169.549 38.5392 170.724 38.8131 171.896 38.7311ZM172.884 113.234C171.354 113.037 169.839 112.854 168.309 112.657C168.041 112.629 167.7 112.631 167.583 112.869C167.777 113.061 168.089 113.103 168.356 113.131C169.589 113.242 170.822 113.367 172.055 113.477C172.367 113.49 172.738 113.487 172.884 113.234ZM196.128 99.6595C196.459 100.28 196.878 100.841 197.386 101.327C197.58 101.518 197.893 101.694 198.1 101.515C197.693 100.702 196.976 100.025 196.128 99.6595ZM140.837 95.5221C140.344 95.1102 139.676 95.0109 139.037 94.9262C138.695 94.884 138.28 94.872 138.089 95.155C138.937 95.5645 139.918 95.6914 140.837 95.5221ZM158.887 29.0467C158.708 28.9441 158.547 29.1972 158.504 29.3903C158.331 30.2663 158.441 31.1997 158.788 32.0129C158.857 31.1228 158.91 30.2476 158.978 29.3575C158.978 29.2537 158.977 29.1054 158.887 29.0467ZM197.652 81.2183C197.904 81.2166 198.021 80.9193 198.034 80.6671C198.076 80.2813 198.044 79.8812 197.952 79.4963C197.51 79.9144 197.381 80.6567 197.652 81.2183ZM170.346 37.8667C170.584 37.9095 170.835 37.7596 170.923 37.5366C170.64 37.4347 170.372 37.3178 170.089 37.2159C170.032 37.4684 170.123 37.7347 170.317 37.8965L170.346 37.8667ZM196.938 114.259C196.699 114.083 196.373 114.056 196.121 114.191C196.256 114.368 196.406 114.545 196.629 114.588C196.852 114.631 197.102 114.407 196.997 114.2L196.938 114.259ZM179.789 38.1445C179.477 38.1762 179.302 38.5926 179.481 38.8286C179.63 38.7683 179.763 38.6933 179.911 38.633C179.954 38.4547 179.923 38.2622 179.848 38.0996L179.789 38.1445ZM137.658 95.1579C137.315 94.9377 136.855 94.8963 136.485 95.0619C136.813 95.2673 137.244 95.3386 137.629 95.2322L137.658 95.1579ZM194.42 115.018C194.553 115.017 194.687 115.016 194.821 115.03C194.908 114.851 194.714 114.645 194.521 114.646C194.328 114.648 194.151 114.767 194.003 114.887C194.137 114.946 194.271 115.019 194.405 115.077L194.42 115.018ZM163.497 105.661C163.528 105.898 163.56 106.135 163.576 106.372C163.723 106.164 163.825 105.926 163.868 105.658C163.749 105.541 163.437 105.513 163.497 105.676L163.497 105.661ZM175.737 42.7089C175.691 42.5016 175.438 42.3847 175.246 42.4453C175.366 42.6373 175.486 42.8144 175.591 43.0064C175.74 43.1537 175.96 42.7816 175.767 42.7087L175.737 42.7089ZM180.589 40.2446C180.695 40.5257 181.126 40.6117 181.333 40.388C181.138 40.1668 180.796 40.1098 180.545 40.2598L180.589 40.2446ZM153.336 71.1504C153.112 71.0926 152.786 71.1096 152.773 71.3321C153.203 71.2848 153.618 71.2375 154.048 71.1901C153.825 71.1027 153.587 71.0894 153.35 71.1355L153.336 71.1504ZM177.027 71.3625C176.923 71.289 176.791 71.5123 176.91 71.5708C177.074 71.6142 177.237 71.6724 177.416 71.7157C177.504 71.6113 177.503 71.4334 177.413 71.3302C177.295 71.3458 177.161 71.3467 177.027 71.3625ZM163.439 103.571C163.336 103.808 163.353 104.105 163.473 104.341C163.561 104.104 163.648 103.851 163.736 103.613C163.632 103.599 163.542 103.57 163.438 103.556L163.439 103.571ZM198.115 86.0639C198.175 86.1673 198.22 86.2708 198.28 86.3742C198.399 86.3141 198.517 86.254 198.62 86.1791C198.545 85.9721 198.351 85.8103 198.128 85.7673C198.114 85.8712 198.085 85.9603 198.07 86.0642L198.115 86.0639ZM162.846 79.3162C162.548 79.2144 162.344 79.794 162.642 79.8958C162.774 79.7467 162.832 79.5387 162.831 79.3459L162.846 79.3162ZM172.352 38.1053C172.264 38.358 172.667 38.6073 172.843 38.3986C172.753 38.2361 172.56 38.1187 172.381 38.1199L172.352 38.1053ZM197.408 69.1946C197.304 69.1656 197.185 69.1812 197.097 69.256C197.068 69.36 197.098 69.4784 197.158 69.5818C197.351 69.5953 197.513 69.357 197.408 69.1946ZM192.554 44.8056C192.658 44.8198 192.761 44.7153 192.746 44.6116C192.597 44.5533 192.448 44.4801 192.299 44.4218C192.226 44.5706 192.391 44.7771 192.554 44.7463L192.554 44.8056ZM123.052 70.8046C122.934 70.9685 123.262 71.1739 123.365 70.9952C123.424 70.9059 123.408 70.7725 123.334 70.7137C123.244 70.655 123.096 70.7153 123.097 70.8191L123.052 70.8046ZM162.797 83.0976C162.678 83.0687 162.544 83.0993 162.456 83.174C162.531 83.2773 162.591 83.3807 162.666 83.4692C162.814 83.4237 162.887 83.2305 162.826 83.0826L162.797 83.0976Z" fill="#3A3A3A"/>
<rect x="26.5298" y="-22.2941" width="260.705" height="487.822" rx="34" stroke="#3A3A3A" stroke-width="2"/>
<rect x="27.8237" y="-22.2941" width="260.705" height="487.822" rx="34" stroke="#3A3A3A" stroke-width="2"/>
</g>
<path fill-rule="evenodd" clip-rule="evenodd" d="M0 57V151H300V57.0002C253.397 78.1259 202.834 89.6948 150 89.6948C97.1665 89.6948 46.6029 78.1258 0 57Z" fill="white"/>
<defs>
<clipPath id="clip0">
<rect width="101.479" height="119.059" fill="white" transform="translate(174.353)"/>
</clipPath>
<clipPath id="clip1">
<rect width="101.479" height="119.059" fill="white" transform="translate(109.68 124.274) rotate(-90.3837)"/>
</clipPath>
</defs>
</svg>
