<svg width="23" height="23" viewBox="0 0 23 23" fill="none" xmlns="http://www.w3.org/2000/svg">
<path d="M0 3.69092C0.0473495 3.4773 0.0710242 3.25181 0.142048 3.03818C0.509007 1.73271 1.64539 0.818886 2.98302 0.700207C3.07771 0.688339 3.17241 0.688339 3.27895 0.688339C5.91868 0.688339 8.55841 0.688339 11.1981 0.688339C11.5769 0.688339 11.861 0.890094 11.9557 1.23426C12.0859 1.68524 11.7663 2.14809 11.3047 2.17183C11.2455 2.17183 11.1745 2.17183 11.1153 2.17183C8.51107 2.17183 5.90685 2.17183 3.30262 2.17183C2.40299 2.17183 1.69274 2.75335 1.51518 3.63158C1.49151 3.75026 1.47967 3.88081 1.47967 4.01135C1.47967 9.23323 1.47967 14.4551 1.47967 19.677C1.47967 20.6027 2.08338 21.3385 2.98302 21.4928C3.08955 21.5165 3.19609 21.5165 3.31446 21.5165C8.77149 21.5165 14.2285 21.5165 19.6974 21.5165C20.6917 21.5165 21.5322 20.7332 21.5203 19.677C21.5203 17.2085 21.5203 14.7399 21.5203 12.2714C21.5203 11.8798 21.7334 11.5949 22.0885 11.5C22.5383 11.3813 22.9763 11.7136 23 12.1765C23 12.2121 23 12.2358 23 12.2714C23 14.7399 23 17.2203 23 19.6889C23 21.1249 22.124 22.3591 20.7864 22.822C20.4313 22.9407 20.0762 23 19.7092 23C14.2403 23 8.77149 23 3.29079 23C1.62172 23 0.272259 21.8132 0.0355121 20.1636C0.0236747 20.1042 0.0118374 20.0449 0.0118374 19.9974C0 14.5619 0 9.12642 0 3.69092Z" fill="#58D2D2"/>
<path d="M19.3186 0C19.6027 0.0237358 19.7921 0.201754 19.9934 0.391641C20.8456 1.258 21.7098 2.11249 22.5621 2.96698C22.9409 3.34675 22.9409 3.76213 22.5621 4.1419C18.4071 8.30753 14.2522 12.4732 10.0855 16.6388C9.96711 16.7575 9.81322 16.8524 9.65934 16.8999C8.30988 17.3627 6.94858 17.8019 5.59912 18.2647C5.10195 18.4309 4.6758 18.146 4.59294 17.7425C4.56927 17.612 4.56927 17.4458 4.61662 17.3153C5.06644 15.9267 5.5281 14.5382 6.00159 13.1615C6.04894 13.031 6.1318 12.9004 6.2265 12.8055C10.3933 8.62797 14.56 4.45046 18.7386 0.261094C18.8925 0.106811 19.07 0.0356037 19.2713 0C19.2831 0 19.295 0 19.3186 0ZM16.4895 4.61662C16.4066 4.69969 16.3238 4.79463 16.2409 4.87771C13.3052 7.82095 10.3814 10.7523 7.44575 13.6956C7.3984 13.743 7.35105 13.8024 7.32737 13.8617C7.05512 14.6687 6.78286 15.4757 6.52243 16.2946C6.5106 16.3302 6.5106 16.354 6.49876 16.4014C6.52243 16.3896 6.54611 16.3896 6.55795 16.3896C7.38656 16.1166 8.21518 15.8437 9.03196 15.5588C9.09114 15.5351 9.13849 15.4995 9.18584 15.452C12.1807 12.4494 15.1755 9.44685 18.1586 6.45614C18.1822 6.4324 18.2178 6.3968 18.2414 6.37307C17.6496 5.77967 17.0814 5.21001 16.4895 4.61662ZM19.2831 5.28122C19.8631 4.69969 20.4313 4.13003 21.0114 3.5485C20.4432 2.97884 19.8631 2.39732 19.295 1.82766C18.7268 2.39732 18.1467 2.97884 17.5667 3.56037C18.1467 4.13003 18.7268 4.71156 19.2831 5.28122Z" fill="#58D2D2"/>
</svg>
