<svg width="258" height="193" viewBox="0 0 258 193" fill="none" xmlns="http://www.w3.org/2000/svg">
<g clip-path="url(#clip0)">
<path d="M151.987 144.429C152.536 143.282 153.27 142.204 154.163 141.286C154.645 140.781 155.24 140.3 155.928 140.208C154.691 141.699 153.384 143.098 151.987 144.429Z" fill="#3A3A3A"/>
<path d="M161.657 24.2015C162.757 24.2015 163.834 24.4309 164.842 24.8897C165.69 25.2796 166.469 25.8073 167.225 26.3578C165.232 26.0596 163.33 25.3255 161.657 24.2015Z" fill="#3A3A3A"/>
<path d="M157.257 26.5413C155.034 26.7707 152.811 26.8166 150.566 26.7248C152.789 26.3578 155.034 26.289 157.257 26.5413Z" fill="#3A3A3A"/>
<path d="M119.195 178.976C119.034 178.861 118.897 178.747 118.736 178.632C119.195 177.967 120.157 177.715 120.89 178.059C120.57 178.632 119.905 178.999 119.241 178.93L119.195 178.976Z" fill="#3A3A3A"/>
<path d="M137.412 144.865C137.16 144.498 137.458 144.016 137.756 143.672C138.81 142.479 139.841 141.263 140.896 140.07C141.171 140.46 140.85 140.965 140.529 141.309C139.498 142.502 138.444 143.695 137.412 144.865Z" fill="#3A3A3A"/>
<path d="M132.371 77.33C133.517 77.6741 134.571 78.3623 135.35 79.3028C134.181 78.9817 133.127 78.2705 132.371 77.33Z" fill="#3A3A3A"/>
<path d="M241.425 101.623C240.6 102.656 239.569 103.504 238.4 104.124C239.179 103.068 240.21 102.197 241.425 101.623Z" fill="#3A3A3A"/>
<path d="M188.101 17.6407C187.436 18.4206 186.749 19.2006 186.084 19.9576C185.878 20.187 185.557 20.4164 185.328 20.2329C186.062 19.1777 187.001 18.283 188.101 17.6407Z" fill="#3A3A3A"/>
<path d="M243.923 98.6411C243.419 99.444 242.914 100.247 242.387 101.05C242.089 100.017 242.869 98.8016 243.923 98.6411Z" fill="#3A3A3A"/>
<path d="M230.403 117.589C230.701 120.434 231.732 123.187 233.405 125.527C234.252 126.696 235.009 127.935 235.696 129.22C233.496 127.683 232.121 125.228 231.067 122.751C230.38 121.122 229.807 119.287 230.403 117.589Z" fill="#3A3A3A"/>
<path d="M144.837 80.4728C144.47 80.4957 144.081 80.2434 143.966 79.8763C144.906 79.9452 145.845 80.1975 146.67 80.6563C146.051 80.5875 145.433 80.5187 144.837 80.4498V80.4728Z" fill="#3A3A3A"/>
<path d="M101.527 124.219C101.917 124.632 102.031 125.251 101.802 125.779C101.138 125.159 100.84 124.173 101.069 123.301C101.39 123.462 101.573 123.852 101.527 124.219Z" fill="#3A3A3A"/>
<path d="M194.265 11.1487C193.394 11.7911 192.547 12.4563 191.676 13.0986C191.492 13.2363 191.217 13.3739 191.057 13.2133C192.02 12.3416 193.097 11.6534 194.265 11.1487Z" fill="#3A3A3A"/>
<path d="M197.198 140.208C197.313 139.382 197.771 138.602 198.459 138.098C198.413 138.969 197.932 139.772 197.198 140.208Z" fill="#3A3A3A"/>
<path d="M108.585 146.516C108.356 146.402 108.195 146.149 108.15 145.897C108.745 145.714 109.433 146.149 109.524 146.746C109.204 146.861 108.814 146.769 108.585 146.493V146.516Z" fill="#3A3A3A"/>
<path d="M204.738 134.427C204.898 134.542 205.035 134.657 205.196 134.771C204.531 135.161 203.683 135.207 202.996 134.863C203.546 134.679 204.119 134.588 204.692 134.565L204.738 134.427Z" fill="#3A3A3A"/>
<path d="M153.132 140.644C153.247 140.414 153.339 140.185 153.453 139.979C153.614 139.933 153.797 139.979 153.934 140.07C153.774 140.529 153.499 140.942 153.109 141.217C152.949 141.08 152.972 140.781 153.155 140.69L153.132 140.644Z" fill="#3A3A3A"/>
<path d="M120.661 162.184C120.547 162.551 120.409 162.918 120.295 163.285C119.905 162.781 120.066 161.978 120.593 161.634C120.638 161.817 120.684 162.001 120.753 162.184H120.661Z" fill="#3A3A3A"/>
<path d="M108.379 118.163C107.943 118.232 107.76 117.521 108.058 117.222C108.356 116.901 108.86 116.901 109.295 116.924C108.975 117.314 108.654 117.727 108.31 118.117L108.379 118.163Z" fill="#3A3A3A"/>
<path d="M135.144 175.856C135.35 175.627 135.533 175.398 135.74 175.191C135.625 175.902 135.213 176.545 134.594 176.935C134.685 176.545 134.892 176.178 135.167 175.902L135.144 175.856Z" fill="#3A3A3A"/>
<path d="M106.729 138.166C106.316 138.006 106.087 137.455 106.293 137.042C106.546 137.157 106.82 137.272 106.935 137.501C107.073 137.73 106.958 138.12 106.683 138.143L106.729 138.166Z" fill="#3A3A3A"/>
<path d="M245.206 98.664C245.252 99.1916 244.862 99.7192 244.358 99.8339C244.473 99.3752 244.771 98.9393 245.183 98.687L245.206 98.664Z" fill="#3A3A3A"/>
<path d="M107.898 157.986C107.691 157.963 107.462 157.963 107.256 157.94C107.645 157.482 108.516 157.573 108.791 158.101C108.493 158.055 108.195 158.009 107.898 157.94V157.986Z" fill="#3A3A3A"/>
<path d="M121.876 59.2764C121.715 59.2993 121.555 59.3223 121.395 59.3452C121.303 59.1617 121.188 59.0011 121.097 58.8176C121.418 58.7258 121.784 58.9323 121.876 59.2305V59.2764Z" fill="#3A3A3A"/>
<path d="M109.387 133.51C109.387 133.188 109.41 132.867 109.41 132.546C109.708 132.844 109.868 133.51 109.456 133.532L109.387 133.51Z" fill="#3A3A3A"/>
<path d="M104.712 130.986C104.598 130.826 104.919 130.642 105.056 130.803C105.194 130.963 105.148 131.193 105.056 131.376C104.987 131.56 104.896 131.789 104.987 131.973C104.827 131.881 104.644 131.812 104.483 131.72C104.575 131.468 104.666 131.216 104.758 130.986H104.712Z" fill="#3A3A3A"/>
<path d="M143.943 39.9611C143.852 40.2823 143.76 40.6034 143.668 40.9246C143.462 40.6264 143.554 40.1446 143.875 39.9382L143.943 39.9611Z" fill="#3A3A3A"/>
<path d="M106.041 138.763C106.293 138.809 106.362 139.176 106.202 139.382C106.041 139.589 105.766 139.657 105.514 139.703C105.331 139.382 105.652 138.9 106.018 138.946L106.041 138.763Z" fill="#3A3A3A"/>
<path d="M172.221 139.359C175.933 139.405 179.645 139.451 183.358 139.474C184.091 139.474 184.847 139.497 185.58 139.657C185.191 140.254 184.343 140.277 183.633 140.231C179.829 139.933 176.025 139.657 172.221 139.359Z" fill="#3A3A3A"/>
<path d="M129.094 155.142C128.98 155.348 128.773 155.509 128.521 155.555C128.544 155.371 128.59 155.165 128.75 155.05C128.911 154.935 129.186 154.981 129.186 155.188L129.094 155.142Z" fill="#3A3A3A"/>
<path d="M104.987 152.068C104.735 151.93 104.712 151.471 104.964 151.311C105.102 151.54 105.102 151.861 104.964 152.114L104.987 152.068Z" fill="#3A3A3A"/>
<path d="M147.403 0.43585C147.22 0.48173 147.151 0.137633 147.335 0.0458741C147.495 -0.0458851 147.701 0.0229343 147.885 0.0917537C147.724 0.183513 147.564 0.298212 147.381 0.389971L147.403 0.43585Z" fill="#3A3A3A"/>
<path d="M110.647 161.794C110.67 161.565 111.106 161.634 111.129 161.863C111.174 162.093 110.968 162.299 110.808 162.482C110.693 162.276 110.67 162.024 110.739 161.794H110.647Z" fill="#3A3A3A"/>
<path d="M202.904 83.822C203.408 83.9826 203.89 84.1202 204.394 84.2808C203.592 84.4643 202.744 84.3726 202.011 84.0285C202.217 83.7532 202.606 83.6844 202.904 83.822Z" fill="#3A3A3A"/>
<path d="M124.717 128.05C124.672 127.912 124.649 127.729 124.763 127.614C124.832 127.545 124.924 127.522 124.992 127.545C125.244 128.21 125.428 128.899 125.542 129.61C125.153 129.151 124.855 128.6 124.717 128.05Z" fill="#3A3A3A"/>
<path d="M122.884 115.479C121.967 115.594 121.028 115.548 120.134 115.364C119.768 115.295 119.355 115.158 119.149 114.814C119.195 114.607 119.355 114.447 119.538 114.401C120.661 114.814 121.761 115.158 122.884 115.479Z" fill="#3A3A3A"/>
<path d="M214.866 85.9095C214.316 85.5883 213.652 85.4507 213.033 85.5424C213.56 84.969 214.683 85.1525 214.981 85.8865L214.866 85.9095Z" fill="#3A3A3A"/>
<path d="M217.685 84.4643C217.639 84.3037 217.662 84.1202 217.753 83.9825C218.051 84.0743 218.326 84.1661 218.624 84.2578C218.372 84.5102 217.983 84.6019 217.639 84.5102L217.685 84.4643Z" fill="#3A3A3A"/>
<path d="M175.406 111.786C175.452 111.464 175.658 111.166 175.956 111.006C176.025 111.35 175.773 111.717 175.429 111.763L175.406 111.786Z" fill="#3A3A3A"/>
<path d="M130.286 135.758C129.988 135.895 129.621 135.895 129.3 135.758C129.598 135.62 129.965 135.62 130.286 135.758Z" fill="#3A3A3A"/>
<path d="M219.724 84.1661C219.976 83.9367 220.389 83.9137 220.664 84.0973C220.48 84.4414 219.953 84.5102 219.678 84.212L219.724 84.1661Z" fill="#3A3A3A"/>
<path d="M139.566 183.633C139.635 183.427 140.002 183.518 139.979 183.725C140.002 183.885 139.819 184.023 139.658 183.977C139.498 183.931 139.429 183.725 139.544 183.587L139.566 183.633Z" fill="#3A3A3A"/>
<path d="M197.221 85.4277C197.542 84.923 197.863 84.3725 198.367 84.0284C199.1 83.5008 200.154 83.432 200.934 83.8908C199.513 83.799 198.321 84.9689 197.542 86.1389C196.74 87.3317 196.053 88.6852 194.815 89.3734C195.594 88.0429 196.419 86.7353 197.221 85.4277Z" fill="#3A3A3A"/>
<path d="M129.392 128.807C127.88 130.137 126.367 131.468 124.878 132.798C124.213 133.372 123.549 133.968 122.907 134.542C122.632 134.771 122.082 134.909 122.059 134.542C124.786 132.064 127.513 129.587 130.263 127.086C130.446 127.752 129.896 128.371 129.392 128.807Z" fill="#3A3A3A"/>
<path d="M173.641 31.8404C173.664 32.4598 173.939 33.0562 174.398 33.4691C175.406 34.4097 177.079 34.3867 178.018 35.419C176.414 35.4878 174.81 34.7997 173.779 33.5838C173.412 33.148 172.656 33.3086 172.221 33.6756C171.785 34.0426 171.465 34.5703 171.006 34.8914C170.548 35.2126 169.746 35.2584 169.494 34.7308C170.96 33.9279 172.358 32.9645 173.641 31.8404Z" fill="#3A3A3A"/>
<path d="M150.772 71.8015C151.666 73.6138 153.155 75.1278 154.92 76.0683C153.361 75.7013 151.597 74.9443 151.23 73.3844C151.093 72.7879 150.222 72.6962 149.718 73.0632C149.214 73.4073 148.962 74.0037 148.572 74.4625C148.183 74.9443 147.518 75.3113 146.991 75.036C148.183 73.8661 149.443 72.7879 150.772 71.8015Z" fill="#3A3A3A"/>
<path d="M166.194 34.7309C164.017 34.9602 161.771 33.4003 161.221 31.2899C160.121 32.1845 159.022 33.1021 157.899 33.9968C157.624 34.2262 157.326 34.4556 156.982 34.4785C156.638 34.5244 156.226 34.2721 156.249 33.928C158.151 33.4921 159.388 31.7028 160.946 30.5329C161.198 30.3494 161.657 30.2805 161.703 30.5788C161.794 31.6569 162.482 32.5975 163.33 33.2627C164.2 33.928 165.209 34.3409 166.194 34.7309Z" fill="#3A3A3A"/>
<path d="M152.926 49.7105C152.811 49.2746 152.743 48.747 153.041 48.4259C153.98 51.3163 155.722 53.9544 158.013 55.9501C155.561 54.7114 153.659 52.3715 152.926 49.7105Z" fill="#3A3A3A"/>
<path d="M148.71 63.8644C148.618 63.635 148.503 63.3826 148.572 63.1532C148.618 63.0156 148.71 62.878 148.824 62.8091C149.787 64.8967 151.184 66.8007 152.88 68.3376C150.772 67.9935 149.58 65.8143 148.71 63.8644Z" fill="#3A3A3A"/>
<path d="M154.713 40.2134C155.355 41.0622 156.02 41.9339 156.959 42.4157C158.403 43.1727 160.19 42.8515 161.611 42.0945C163.032 41.3375 164.2 40.1446 165.392 39.0435C165.644 40.1217 165.965 41.2687 166.813 41.9569C167.821 42.7598 169.379 42.7598 170.181 43.7691C168.256 43.7232 166.377 42.668 165.369 41.0393C165.14 40.6493 164.59 40.2134 164.338 40.6034C163.49 41.9339 162.207 42.9892 160.694 43.448C159.182 43.9067 157.463 43.7003 156.203 42.7827C155.401 42.2092 154.805 41.4063 154.209 40.6034C153.751 39.984 153.27 39.2729 153.407 38.5159C153.843 39.0894 154.278 39.64 154.713 40.2134Z" fill="#3A3A3A"/>
<path d="M178.637 43.4938C178.247 43.0809 177.858 42.645 177.354 42.3698C176.85 42.1174 176.185 42.0716 175.727 42.4156C174.696 43.1956 173.619 43.9067 172.473 44.5261C172.198 44.4114 172.427 43.9985 172.679 43.815C174.008 42.8974 175.36 42.0027 176.689 41.0851C177.491 41.8192 178.293 42.5074 179.141 43.1956C178.981 43.3103 178.82 43.4021 178.637 43.4938Z" fill="#3A3A3A"/>
<path d="M147.885 42.0257C149.053 41.0163 150.497 40.3282 152.009 40.0299C151.047 41.2916 149.466 42.0486 147.885 42.0257Z" fill="#3A3A3A"/>
<path d="M154.026 67.6265C155.928 66.8236 157.784 65.9519 159.594 65.0114C158.426 66.8236 156.18 67.8788 154.026 67.6265Z" fill="#3A3A3A"/>
<path d="M163.536 72.7879C162.207 74.4855 160.374 75.7472 158.334 76.4124C158.174 76.4583 157.922 76.4812 157.876 76.3206C159.709 75.0131 161.588 73.8432 163.536 72.7879Z" fill="#3A3A3A"/>
<path d="M167.042 67.6494C168.486 67.0301 169.815 66.1125 170.937 65.0114C170.181 66.8465 168.279 68.1312 166.286 68.1541C166.469 67.8788 166.767 67.7641 167.042 67.6494Z" fill="#3A3A3A"/>
<path d="M166.859 54.5967C166.171 54.2985 165.575 53.7709 165.163 53.1285C164.75 52.4633 164.567 51.6375 164.773 50.9034C165.415 52.1651 166.102 53.4038 166.859 54.5967Z" fill="#3A3A3A"/>
<path d="M160.03 55.629C161.267 54.8031 162.505 53.9773 163.742 53.1285C163.238 54.6655 161.634 55.7666 160.03 55.629Z" fill="#3A3A3A"/>
<path d="M172.794 55.1931C173.114 54.9637 173.55 54.9408 173.894 55.1243C173.069 55.5831 172.06 55.7437 171.121 55.5831C171.602 55.239 172.244 55.1014 172.817 55.239L172.794 55.1931Z" fill="#3A3A3A"/>
<path d="M173.091 65.3096C174.214 66.2501 175.337 67.2136 176.323 68.3376C174.696 67.7871 173.275 66.6171 172.427 65.1261C172.633 64.9884 172.908 65.149 173.091 65.3096Z" fill="#3A3A3A"/>
<path d="M160.396 64.0937C160.236 63.7955 160.099 63.3826 160.374 63.1991C161.153 64.9425 162.298 66.5254 163.742 67.787C163.559 68.1311 163.032 67.8559 162.78 67.5577C161.863 66.4795 161.084 65.3096 160.396 64.0937Z" fill="#3A3A3A"/>
<path d="M148.343 52.5321C149.832 52.3945 151.23 51.5457 152.055 50.284C152.399 50.674 151.964 51.2475 151.528 51.5457C150.497 52.2798 149.328 52.8074 148.091 53.1056C148.183 52.9221 148.251 52.7386 148.343 52.5321Z" fill="#3A3A3A"/>
<path d="M169.723 76.7565C168.073 76.2289 166.492 75.5637 164.934 74.8066C164.521 74.6002 164.475 74.0496 164.384 73.6138C164.292 73.1779 163.88 72.6503 163.49 72.8568C163.582 72.398 164.315 72.4209 164.613 72.7879C164.911 73.155 164.957 73.6597 165.186 74.0726C166.011 75.6554 168.669 75.2884 169.723 76.7565Z" fill="#3A3A3A"/>
<path d="M185.649 65.5619C187.001 64.4608 187.849 62.7862 187.941 61.0428C189.018 63.1532 190.805 64.9196 192.959 65.9519C192.592 66.3419 191.905 66.0895 191.47 65.7913C190.301 65.0114 189.316 63.9791 188.559 62.7862C187.78 63.8644 186.772 64.8279 185.649 65.5619Z" fill="#3A3A3A"/>
<path d="M203.569 35.2584C202.538 34.9602 201.873 33.9968 201.277 33.1021C201.025 32.7351 200.452 33.0333 200.132 33.3315C199.33 34.1344 198.505 34.9373 197.703 35.7172C197.336 35.2584 197.817 34.6161 198.275 34.2262C199.33 33.3315 200.361 32.4368 201.415 31.5193C202.125 32.7809 202.836 34.0197 203.569 35.2584Z" fill="#3A3A3A"/>
<path d="M207.167 54.872C206.158 54.6426 205.196 54.1379 204.463 53.4038C204.165 53.1056 203.638 53.335 203.294 53.5644C201.667 54.6426 200.04 55.6978 198.413 56.776C198.275 56.363 198.757 56.0189 199.169 55.8125C200.956 54.9408 202.561 53.7479 203.913 52.2798C204.99 53.1515 206.067 54.0232 207.167 54.872Z" fill="#3A3A3A"/>
<path d="M201.048 61.0886C200.109 62.3733 199.169 63.6349 198.252 64.9196C197.909 65.3784 197.542 65.8601 197.061 66.1583C196.557 66.4565 195.892 66.5254 195.411 66.1813C196.603 65.7454 197.657 64.9425 198.39 63.9102C199.146 62.8091 199.742 61.3639 201.048 61.0886Z" fill="#3A3A3A"/>
<path d="M192.18 37.7589C192.73 40.2823 194.242 42.5762 196.305 44.0903C194.403 43.5397 192.913 41.7963 192.638 39.8464C192.592 39.5023 192.134 39.3417 191.79 39.4794C191.47 39.617 191.24 39.9152 191.034 40.1905C189.98 41.5898 188.582 42.7139 187.001 43.4479C188.605 41.4063 191.172 40.1217 192.18 37.7589Z" fill="#3A3A3A"/>
<path d="M208.954 34.5473C207.808 35.419 206.525 36.0613 205.15 36.4513C206.387 35.2814 207.854 34.3409 209.412 33.6985C209.527 34.0197 209.229 34.3409 208.954 34.5473Z" fill="#3A3A3A"/>
<path d="M193.142 52.4403C194.105 54.0691 195.067 55.6749 196.03 57.3036C194.311 56.0419 193.051 54.2067 192.501 52.1651C192.684 51.9357 193.005 52.2109 193.142 52.4403Z" fill="#3A3A3A"/>
<path d="M187.78 56.0419C187.574 56.0878 187.368 56.1337 187.161 56.1107C186.978 56.1107 186.726 55.996 186.772 55.7896C188.422 55.1931 190.026 54.4361 191.538 53.5185C190.645 54.8031 189.293 55.7207 187.78 56.0419Z" fill="#3A3A3A"/>
<path d="M201.094 62.8321C202.217 63.9561 203.202 65.1949 204.05 66.5254C202.515 65.906 201.346 64.4608 201.094 62.8321Z" fill="#3A3A3A"/>
<path d="M204.577 73.6138C204.302 73.2467 203.752 73.2008 203.34 73.3614C202.927 73.522 202.583 73.8661 202.24 74.1643C201.048 75.2196 199.604 75.9995 198.069 76.3895C197.473 76.5271 196.763 76.5959 196.373 76.1142C198.986 75.5407 201.415 74.2561 203.363 72.4438C203.798 72.0309 204.463 72.6044 204.852 73.0632C206.09 74.5543 207.946 75.4031 209.71 76.206C207.717 76.2289 205.746 75.2425 204.577 73.6138Z" fill="#3A3A3A"/>
<path d="M188.926 75.5407C188.147 76.0454 187.23 76.3436 186.291 76.3895C185.764 76.4124 185.214 76.3665 184.71 76.1601C184.755 75.7013 185.351 75.5866 185.809 75.5637C186.841 75.5637 187.895 75.5636 188.926 75.5407Z" fill="#3A3A3A"/>
<path d="M206.479 39.6858C207.373 40.397 208.198 41.2228 208.908 42.1174C209.046 42.301 209.046 42.7139 208.816 42.6221C208.06 42.0716 207.373 41.4522 206.731 40.7869C206.456 40.4887 206.158 39.984 206.479 39.6858Z" fill="#3A3A3A"/>
<path d="M212.368 62.1209C212.895 63.2221 213.422 64.3002 213.972 65.4013C212.872 64.7131 212.231 63.4056 212.368 62.1209Z" fill="#3A3A3A"/>
<path d="M211.223 33.2856C211.245 34.2262 211.956 34.9832 212.414 35.809C212.506 35.9925 212.552 36.3137 212.345 36.3596C211.108 35.2585 210.421 33.5609 210.512 31.9092C210.787 31.7716 211.131 32.0469 211.223 32.3451C211.291 32.6433 211.223 32.9645 211.223 33.2856Z" fill="#3A3A3A"/>
<path d="M207.969 66.1583C208.129 65.7225 208.679 65.4931 209.091 65.6537C208.816 65.9519 208.427 66.1583 208.014 66.1813L207.969 66.1583Z" fill="#3A3A3A"/>
<path d="M194.013 75.7242C193.349 75.7013 192.684 75.426 192.226 74.9443C191.997 74.7149 191.79 74.3708 191.928 74.0496C192.638 74.5543 193.349 75.1049 194.013 75.7242Z" fill="#3A3A3A"/>
<path d="M200.773 44.4344C200.636 44.5032 200.475 44.572 200.338 44.5491C200.246 44.5261 200.154 44.4802 200.109 44.3885C200.956 43.8838 201.896 43.5397 202.858 43.3791C202.171 43.7232 201.461 44.0673 200.773 44.4344Z" fill="#3A3A3A"/>
<path d="M120.73 88.9146C121.097 87.6759 122.174 86.6665 123.411 86.3683C122.632 87.3547 121.738 88.2035 120.73 88.9146Z" fill="#3A3A3A"/>
<path d="M120.066 98.7328C120.088 98.5034 120.157 98.297 120.272 98.1135C120.478 97.8153 120.822 97.6317 121.165 97.4941C120.936 98.5493 120.707 99.6275 120.547 100.683C120.134 100.132 119.974 99.421 120.066 98.7328Z" fill="#3A3A3A"/>
<path d="M191.401 25.2796C191.172 25.509 190.782 25.5549 190.507 25.3714C190.69 25.0502 191.149 24.9585 191.447 25.1879L191.401 25.2796Z" fill="#3A3A3A"/>
<path d="M211.36 54.3673C210.993 54.6196 210.329 54.7343 210.283 54.2985C211.727 53.9544 212.987 52.945 213.652 51.6145C213.812 51.5228 213.995 51.7063 213.995 51.8669C213.995 52.0504 213.858 52.188 213.743 52.3256C213.033 53.0597 212.231 53.7709 211.36 54.3673Z" fill="#3A3A3A"/>
<path d="M194.471 35.3502C193.211 35.6943 192.134 34.4556 191.103 33.6527C190.851 33.4691 190.553 33.2856 190.255 33.2627C189.041 33.2397 188.72 35.4649 187.505 35.3502C188.17 34.2032 189.109 33.2397 190.232 32.5286C190.461 32.391 190.805 32.2763 190.965 32.4827C191.928 33.6527 193.119 34.6391 194.471 35.3502Z" fill="#3A3A3A"/>
<path d="M123.48 92.4932C122.701 92.585 121.899 91.9197 121.876 91.1398C121.853 90.6351 121.12 90.6351 120.661 90.7957C122.357 88.9834 124.122 87.2629 125.978 85.6342C125.588 86.3683 125.084 87.0794 124.511 87.6988C123.824 88.4329 123.022 89.0752 122.632 89.9928C122.265 90.8874 122.54 92.195 123.48 92.4932Z" fill="#3A3A3A"/>
<path d="M229.005 104.261C229.005 103.229 229.005 102.197 229.005 101.164C219.61 112.611 210.329 124.196 201.209 135.872C205.379 135.689 209.55 135.528 213.72 135.345C215.989 135.253 218.785 134.771 219.449 132.615C220.732 128.532 225.659 126.651 227.538 122.82C228.294 121.26 228.501 119.493 228.684 117.75C230.036 104.124 230.861 89.3734 239.66 78.8899C238.996 79.0964 238.331 79.3029 237.667 79.5093C240.76 77.2612 244.45 74.8755 248.139 75.8848C252.401 77.0547 254.303 82.4456 253.203 86.7353C252.126 91.0251 248.941 94.4202 245.87 97.6088C248.093 94.0073 250.316 90.3828 252.539 86.7812C254.326 83.8679 252.608 79.6699 249.514 78.2247C246.42 76.7795 242.571 77.7888 240.004 80.0369C237.438 82.285 235.971 85.5654 235.192 88.8917C237.163 86.0013 239.34 82.9732 242.571 81.6886C245.825 80.404 250.362 81.918 250.935 85.359C251.233 87.1712 250.362 89.0064 249.101 90.3139C250.041 88.2723 250.958 85.8636 249.881 83.8908C248.391 81.161 244.221 81.4592 241.654 83.2256C234.023 88.4099 234.711 99.7651 230.586 108.023C232.007 106.716 233.45 105.408 234.871 104.078C234.069 105.064 233.267 106.051 232.465 107.037C233.657 107.129 234.848 106.693 235.719 105.89C235.375 106.831 234.779 107.656 233.977 108.253C238.492 110.616 242.8 113.391 246.833 116.488C242.662 114.401 238.606 112.038 234.711 109.446C240.073 116.695 250.82 119.356 254.166 127.729C247.933 120.159 239.981 114.034 231.09 109.905C230.701 119.883 236.498 129.839 245.343 134.427C247.314 135.459 249.583 136.239 251.714 135.666C253.868 135.092 255.586 132.661 254.716 130.619C254.28 129.61 253.845 127.82 254.922 128.004C255.082 130.16 256.136 132.225 257.763 133.647C256.641 127.086 252.562 121.099 246.902 117.635C250.522 119.952 254.235 122.476 256.343 126.215C258.451 129.977 258.336 135.322 254.968 137.983C252.172 140.185 248.047 139.864 244.931 138.166C241.814 136.469 239.477 133.67 237.231 130.94C241.173 134.978 245.939 139.336 251.553 138.832C253.18 138.694 254.876 138.052 255.861 136.721C256.847 135.414 256.916 133.326 255.701 132.225C255.38 134.381 253.364 136.033 251.21 136.423C249.056 136.813 246.833 136.194 244.862 135.23C236.338 131.055 232.098 121.374 229.807 112.153C229.005 118.736 228.226 125.297 227.424 131.881C227.286 133.12 227.057 134.473 226.072 135.253C225.315 135.826 224.307 135.918 223.368 135.964C188.468 137.914 153.476 138.671 118.53 138.235C118.049 138.235 117.43 138.327 117.293 138.786C117.155 139.245 118.232 139.267 117.957 138.877C114.428 138.258 113.81 133.487 114.085 129.885C115.162 114.768 116.262 99.6275 117.339 84.5102C117.407 85.5883 117.499 86.6665 117.568 87.7447C118.461 86.0701 118.714 84.0743 118.255 82.2391C129.965 82.6062 141.675 82.1933 153.339 81.0233C151.345 80.8169 149.283 80.5875 147.495 79.6469C145.708 78.7064 144.264 76.8712 144.402 74.8525C144.768 69.2552 145.135 63.6579 145.479 58.0606C143.897 64.9196 143.233 71.9851 143.531 79.0046C142.568 77.2383 142.706 75.1049 142.843 73.0862C143.806 60.6069 144.745 48.1277 145.708 35.6255C145.181 36.589 144.654 37.5524 144.127 38.5159C144.699 35.419 145.295 32.2992 145.868 29.2024C144.929 28.6289 146.235 26.8854 147.037 27.6195C155.309 27.5048 163.559 27.4131 171.831 27.2984C166.836 25.142 162.23 22.114 158.242 18.4207C155.126 15.5303 152.239 10.8964 154.507 7.29487C156.776 3.67038 162.23 4.24388 166.171 5.91848C174.352 9.40533 181.318 15.7138 185.557 23.5133C189.613 15.3926 196.465 8.69419 204.692 4.86325C205.402 4.54209 206.181 4.22094 206.937 4.40445C207.648 4.58797 208.152 5.16147 208.587 5.7579C211.429 9.72648 211.704 15.3697 209.252 19.5906C206.8 23.8115 201.759 26.3578 196.9 25.8532C201.094 25.7843 205.196 23.5821 207.533 20.1182C209.893 16.6543 210.42 12.0205 208.931 8.09776C208.587 7.18017 208.037 6.23964 207.121 5.91848C206.342 5.66614 205.517 5.91848 204.76 6.19376C200.956 7.63896 197.496 10.0247 194.792 13.0986C197.198 12.2957 199.375 10.8505 201.048 8.94653C200.475 9.84118 199.902 10.7358 199.307 11.6305C201.277 10.1623 204.302 12.2269 204.554 14.6585C204.806 17.0902 203.225 19.3383 201.484 21.0587C198.665 23.8345 195.159 25.922 191.378 27.1148C199.925 27.8489 208.564 27.7113 217.089 26.7478C219.449 29.0647 219.541 32.781 219.403 36.0843C219.128 43.058 218.555 50.0317 217.708 56.9595C217.524 55.3767 217.341 53.7938 217.158 52.211C216.195 60.584 215.21 68.957 214.247 77.33C214.179 77.9494 214.064 78.6147 213.606 79.0046C213.193 79.3487 212.597 79.3946 212.07 79.4176C202.698 79.7387 193.303 80.0828 183.93 80.404C198.78 80.6334 213.606 80.8857 228.455 81.1151C229.601 81.138 230.861 81.2069 231.64 82.0556C232.488 82.9962 232.327 84.4414 232.121 85.6801C231.113 91.8968 230.059 98.0676 229.005 104.261ZM183.266 102.403C187.986 96.0489 192.707 89.6946 197.428 83.3632C195.892 85.9095 194.449 88.5017 193.097 91.1398C193.646 91.7821 192.73 92.9291 191.974 92.5391C192.272 93.5485 191.561 94.5349 190.92 95.3378C179.508 109.423 168.073 123.485 156.661 137.57C158.563 136.951 159.915 135.345 161.176 133.785C164.407 129.816 167.638 125.871 170.869 121.902C167.179 126.88 163.49 131.858 159.778 136.859C172.908 135.551 186.13 134.932 199.329 135.001C194.792 135.276 190.278 135.551 185.741 135.804C189.728 136.469 193.807 136.629 197.84 136.285C198.734 136.216 199.696 136.056 200.269 135.368C206.571 127.591 212.872 119.815 219.174 112.015C219.587 111.51 219.747 110.409 219.082 110.478C214.774 115.249 210.443 120.021 206.135 124.792C211.979 115.617 221.626 109.262 227.172 99.9028C227.355 100.499 227.561 101.119 227.744 101.715C229.967 96.4847 231.25 90.8645 231.457 85.1754C231.503 84.1431 231.434 82.9503 230.609 82.3538C230.013 81.8951 229.188 81.918 228.432 81.9639C227.034 82.0327 225.636 82.1015 224.238 82.1703C224.605 82.5374 224.972 82.8815 225.361 83.2485C203.683 81.9409 181.937 81.8721 160.259 83.0879C160.832 83.1338 160.213 84.0055 159.64 84.0743C153.843 84.7396 147.953 84.6019 142.202 83.6385C141.56 83.5238 140.987 84.0514 140.529 84.5331C134.273 91.071 128.017 97.5859 121.761 104.124C120.661 105.271 119.516 106.464 118.897 107.932C118.301 109.331 118.164 110.868 118.049 112.382C117.522 119.333 116.972 126.306 116.445 133.257C116.353 134.427 117.247 135.482 118.324 135.964C119.401 136.446 120.593 136.469 121.761 136.469C124.236 136.492 126.711 136.515 129.209 136.561C129.942 136.561 130.652 136.583 131.363 136.4C132.852 136.01 133.975 134.84 135.006 133.693C140.529 127.591 145.639 121.076 150.222 114.24C150.337 115.984 149.145 117.521 148.022 118.874C143.279 124.609 138.512 130.344 133.769 136.079C134.433 136.423 135.144 135.804 135.625 135.253C150.451 118.232 164.842 100.797 178.752 83.0191C166.721 102.334 149.557 117.933 136.725 136.698C142.248 136.996 147.793 137.111 153.316 137.042C154.209 137.019 155.126 136.996 155.905 136.606C156.661 136.216 157.211 135.505 157.738 134.817C163.605 127.132 169.471 119.425 175.314 111.74C173.825 114.011 172.335 116.282 170.846 118.553C174.237 115.823 176.964 112.267 178.683 108.253C179.852 108.138 180.447 106.876 180.997 105.844C181.639 104.605 182.464 103.504 183.266 102.403ZM147.587 78.8211C154.118 79.8305 160.694 80.5875 167.294 81.0692C166.652 80.7251 166.011 80.404 165.392 80.0599C168.188 80.014 170.96 80.1975 173.733 80.5875C174.581 80.7022 175.36 79.9452 175.543 79.0964C175.727 78.2476 175.498 77.3759 175.268 76.5501C174.879 76.573 174.466 76.573 174.077 76.596C175.016 76.183 175.818 75.449 176.323 74.5543C176.185 76.5042 176.07 78.4311 175.933 80.381C176.437 80.7481 177.193 80.4269 177.491 79.8993C177.789 79.3717 177.789 78.7064 177.766 78.087C177.285 62.0751 181.501 46.1549 180.631 30.1429C180.585 29.1335 179.256 28.8124 178.225 28.8124C168.531 28.6289 158.815 28.5371 149.122 28.56C148.549 28.56 147.862 28.6059 147.518 29.0647C147.243 29.4088 147.243 29.8906 147.243 30.3264C147.243 31.2669 147.266 32.2304 147.266 33.1709C148.274 32.4139 149.283 31.6569 150.291 30.8999C151.322 32.4369 152.811 33.6297 154.53 34.295C152.628 34.3179 150.772 33.2398 149.832 31.5881C146.739 33.8821 146.693 38.4012 146.853 42.2551C147.335 53.9085 146.876 65.6078 145.501 77.1924C145.387 78.1788 146.624 78.6605 147.587 78.8211ZM216.585 44.0215C216.585 43.8379 216.585 43.6315 216.493 43.4709C216.012 42.691 214.797 44.2509 213.995 43.815C216.287 43.058 217.73 40.3052 217.043 37.9654C216.928 37.5754 216.424 37.1625 216.218 37.4836C216.562 34.5015 216.928 31.5422 217.272 28.56C207.441 28.4453 197.588 28.3306 187.757 28.216C185.145 44.7785 183.724 61.5016 183.495 78.2476C183.495 78.5688 183.495 78.9358 183.701 79.1882C183.999 79.5552 184.526 79.5552 184.985 79.5093C193.692 78.9129 202.423 78.8211 211.154 79.234C211.841 79.257 212.666 79.234 213.033 78.6376C213.17 78.4082 213.216 78.11 213.239 77.8347C213.743 73.912 214.224 69.9664 214.729 66.0437C214.958 64.3002 215.164 62.5339 215.37 60.7904C216.012 55.239 216.424 49.6188 216.585 44.0215ZM118.393 98.4576C118.232 99.5816 118.095 100.706 118.141 101.83C118.255 103.688 118.874 105.775 117.728 107.221C125.153 99.3063 132.577 91.3921 140.002 83.4779C133.861 84.0285 127.696 84.579 121.555 85.1525C121.165 85.1984 120.73 85.2443 120.432 85.5195C120.134 85.7948 120.066 86.2307 120.02 86.6436C119.47 90.5434 118.92 94.5119 118.393 98.4576ZM184.893 36.8413C185.191 33.9968 185.718 30.9687 187.666 28.9041C186.107 28.7436 184.572 28.6059 183.014 28.4453C182.487 28.3995 181.891 28.3765 181.547 28.7665C181.249 29.0877 181.249 29.5694 181.272 30.0053C181.433 33.9738 181.57 37.9195 181.731 41.8881C181.776 42.9892 181.799 44.1591 181.295 45.1455C180.883 45.9713 180.791 46.9119 180.722 47.8524C179.92 57.9689 179.141 68.0853 178.339 78.2017C178.27 79.0505 178.225 79.9681 178.752 80.6334C179.324 81.0922 179.989 80.1287 180.104 79.4176C180.608 76.6189 181.112 73.8202 181.616 71.0216C182.074 68.5212 182.533 65.9978 182.876 63.4744C184.091 54.6426 183.953 45.6961 184.893 36.8413ZM159.617 14.7503C162.619 18.1454 166.309 20.9211 170.387 22.8939C174.077 24.6832 178.041 25.7843 182.006 26.8625C182.097 26.8854 182.212 26.9084 182.303 26.8854C182.624 26.7707 182.464 26.3119 182.258 26.0367C177.583 20.0723 172.519 13.8098 165.415 11.1717C163.948 10.6211 162.275 10.2541 160.832 10.8964C159.411 11.5387 158.563 13.5804 159.617 14.7503ZM182.212 20.8064C178.797 15.5991 174.169 11.1717 168.783 8.02894C165.438 6.05612 161.359 4.56503 157.715 5.8726C157.097 6.102 156.432 6.81313 156.89 7.27193C155.424 7.59308 154.53 9.24475 154.599 10.7588C154.691 12.2728 155.515 13.6262 156.455 14.8191C160.167 19.5677 165.644 22.5269 171.006 25.2797C171.739 25.6696 172.931 25.8761 173.16 25.0732C168.302 23.0545 163.788 20.1641 159.938 16.5625C158.884 15.5761 157.807 14.3833 157.807 12.9381C157.807 11.4928 158.953 10.2541 160.305 9.77236C161.657 9.29063 163.146 9.42827 164.544 9.77236C171.419 11.424 176.46 17.159 181.02 22.5728C181.708 23.3757 182.395 24.2015 182.876 25.142C183.243 25.8302 183.472 26.5872 183.61 27.3672C184.641 25.2797 183.495 22.7792 182.212 20.8064ZM184.48 26.5413C185.26 27.5736 186.841 27.4589 188.078 27.1378C192.157 26.1514 196.076 24.4079 199.307 21.724C201.231 20.1182 202.904 18.1224 203.615 15.7367C203.89 14.7732 203.958 13.5574 203.179 12.9151C202.881 12.6628 202.515 12.5251 202.148 12.4563C200.475 12.0663 198.688 12.5022 197.175 13.328C195.663 14.1539 194.38 15.3238 193.119 16.5167C189.865 19.4988 186.612 22.6416 184.48 26.5413ZM223.597 134.381C224.124 134.519 224.605 134.932 225.132 134.909C226.072 134.863 226.461 133.716 226.622 132.798C227.08 129.977 227.401 127.132 227.63 124.265C227.034 124.563 226.645 125.182 226.301 125.756C224.215 129.082 221.718 132.133 218.899 134.863C220.274 135.712 222.039 133.945 223.597 134.381ZM116.307 119.241C115.735 122.544 115.299 125.894 115.001 129.22C115.597 128.784 115.872 128.027 116.055 127.316C116.972 123.783 117.087 120.113 117.224 116.465C117.316 113.85 117.407 111.212 117.499 108.597C117.155 108.505 116.949 108.987 116.903 109.354C116.514 112.726 116.124 116.075 115.735 119.447C115.666 119.998 115.597 120.549 115.712 121.076C115.872 120.48 116.101 119.86 116.307 119.241ZM217.41 32.9645C217.203 33.3545 216.951 33.8821 217.249 34.2032C217.937 34.9373 217.96 36.0614 217.891 37.0707C217.662 40.7181 217.043 44.3885 217.639 47.9671C218.441 47.1872 218.487 45.9484 218.51 44.8244C218.532 40.0758 218.578 35.3043 218.601 30.5558C218.601 30.3035 218.601 30.0511 218.464 29.8447C218.326 29.6382 218.028 29.5235 217.822 29.6612C218.097 30.7623 217.937 31.9551 217.41 32.9645ZM182.051 70.104C182.097 72.8568 181.708 75.6095 180.837 78.2017C180.676 78.7064 180.493 79.234 180.539 79.7617C180.608 80.2893 180.997 80.8398 181.524 80.8398C181.983 80.8628 182.372 80.4957 182.533 80.0828C182.716 79.6699 182.693 79.2111 182.693 78.7523C182.67 76.1142 182.647 73.4532 182.624 70.8151C182.647 70.4481 182.395 69.8975 182.051 70.104ZM158.586 83.9826C158.884 83.7073 159.205 83.432 159.503 83.1567C155.355 82.3997 151.116 82.308 146.945 82.8815C146.876 83.4549 147.678 83.6843 148.274 83.7073C150.612 83.7302 152.972 83.6614 155.309 83.5238C156.432 83.432 157.647 83.3632 158.586 83.9826ZM179.806 27.0001C178.202 26.5643 176.598 26.1055 174.993 25.6696C174.512 25.532 173.916 25.4402 173.619 25.8302C175.383 27.4131 177.904 28.0783 180.218 27.5966C180.447 27.3901 180.104 27.069 179.806 27.0001ZM232.557 97.0353C233.175 95.3378 233.817 93.6402 234.436 91.9427C234.711 91.2086 234.986 90.3369 234.619 89.6487C234.092 90.2681 233.794 91.071 233.771 91.8968C232.877 93.4108 232.442 95.2231 232.557 97.0353ZM117.407 97.7923C117.728 95.4295 118.026 93.0897 118.347 90.7269C118.393 90.3139 118.393 89.7863 118.026 89.6028C117.728 89.901 117.659 90.3828 117.614 90.7957C117.43 92.6997 117.224 94.6037 117.041 96.5077C117.018 96.9894 117.018 97.5629 117.407 97.7923ZM138.146 133.854C137.183 134.358 136.312 135.001 135.556 135.781C135.258 136.079 134.983 136.561 135.258 136.882C136.519 136.262 137.573 135.161 138.146 133.854ZM145.112 48.4488C145.754 47.6918 145.914 46.6595 146.051 45.6731C146.12 45.1455 146.143 44.5032 145.708 44.205C145.066 45.5126 144.86 47.0266 145.112 48.4488ZM247.658 77.0318C247.818 76.7565 247.429 76.5042 247.131 76.4354C245.779 76.1601 244.335 76.3207 243.075 76.8483C244.45 76.963 245.802 77.0547 247.177 77.1694C247.337 77.1694 247.566 77.1694 247.658 77.0318ZM166.629 136.4C166.629 136.79 167.088 136.973 167.477 136.996C168.073 137.065 168.692 137.019 169.288 136.882C168.646 136.194 167.5 135.987 166.629 136.4ZM233.909 94.6496C233.84 95.0166 234.069 95.4066 234.413 95.5442C234.573 95.1084 234.757 94.6954 234.917 94.2596C234.527 94.1678 234.115 94.3055 233.863 94.6037L233.909 94.6496ZM115.574 134.955C115.849 134.588 115.895 134.083 115.689 133.693C115.414 133.9 115.139 134.129 115.07 134.473C115.001 134.817 115.345 135.207 115.666 135.047L115.574 134.955ZM233.382 109.239C233.336 108.758 232.694 108.482 232.327 108.758C232.419 108.987 232.534 109.193 232.625 109.423C232.9 109.492 233.198 109.446 233.45 109.331L233.382 109.239ZM145.708 43.5397C146.051 43.0121 146.12 42.301 145.868 41.7275C145.547 42.2322 145.433 42.8974 145.593 43.4939L145.708 43.5397ZM114.428 131.055C114.428 131.261 114.428 131.468 114.405 131.674C114.68 131.812 115.001 131.514 115.001 131.216C115.001 130.917 114.818 130.642 114.635 130.413C114.543 130.619 114.428 130.826 114.337 131.032L114.428 131.055ZM129.209 83.3632C128.842 83.4091 128.475 83.4549 128.109 83.4779C128.43 83.7073 128.796 83.8679 129.209 83.9367C129.392 83.7532 129.438 83.2714 129.186 83.3632H129.209ZM226.37 102.931C226.69 102.862 226.874 102.472 226.782 102.174C226.484 102.357 226.209 102.541 225.911 102.701C225.682 102.931 226.255 103.275 226.37 102.977V102.931ZM230.128 110.455C229.692 110.616 229.555 111.281 229.898 111.602C230.242 111.304 230.334 110.776 230.105 110.386L230.128 110.455ZM182.647 68.0165C182.739 67.6724 182.716 67.1677 182.372 67.1448C182.441 67.81 182.51 68.4523 182.578 69.1176C182.716 68.7735 182.739 68.4065 182.67 68.0394L182.647 68.0165ZM182.074 104.628C182.189 104.468 181.845 104.261 181.753 104.445C181.685 104.697 181.593 104.95 181.524 105.225C181.685 105.362 181.96 105.362 182.12 105.225C182.097 105.041 182.097 104.835 182.074 104.628ZM132.44 83.2944C132.073 83.1338 131.615 83.1567 131.248 83.3402C131.615 83.4779 132.004 83.6155 132.371 83.7532C132.394 83.5926 132.44 83.455 132.463 83.2944H132.44ZM159.136 137.065C158.976 137.157 158.815 137.226 158.655 137.318C158.747 137.501 158.838 137.685 158.953 137.845C159.274 137.73 159.526 137.432 159.594 137.088C159.434 137.065 159.296 137.019 159.136 136.996V137.065ZM169.929 82.6291C170.09 82.1703 169.196 81.8492 169.035 82.308C169.265 82.5144 169.585 82.6062 169.883 82.6062L169.929 82.6291ZM233.519 97.7464C233.13 97.6088 232.74 98.2282 233.061 98.5034C233.313 98.3658 233.496 98.0676 233.496 97.7923L233.519 97.7464ZM185.214 136.148C185.26 135.987 185.237 135.804 185.122 135.666C184.962 135.62 184.778 135.666 184.618 135.758C184.595 136.056 184.962 136.308 185.214 136.148ZM222.955 128.899C222.932 129.059 223.093 129.22 223.253 129.197C223.345 128.967 223.459 128.738 223.551 128.509C223.322 128.394 223.001 128.646 223.047 128.899H222.955ZM183.495 21.2193C183.243 21.0358 182.922 21.5405 183.197 21.701C183.335 21.7928 183.541 21.7699 183.633 21.6552C183.724 21.5175 183.633 21.2881 183.472 21.2881L183.495 21.2193ZM164.086 82.5144C164.132 82.3309 164.086 82.1244 163.971 81.9868C163.811 82.1015 163.65 82.1933 163.513 82.308C163.582 82.5374 163.88 82.6521 164.109 82.5603L164.086 82.5144Z" fill="#3A3A3A"/>
</g>
<g clip-path="url(#clip1)">
<path d="M145.134 140.108C143.984 139.566 142.901 138.84 141.977 137.952C141.469 137.475 140.984 136.882 140.887 136.195C142.387 137.423 143.795 138.719 145.134 140.108Z" fill="#3A3A3A"/>
<path d="M24.845 131.243C24.8376 130.143 25.0598 129.065 25.5118 128.054C25.8961 127.203 26.4185 126.421 26.9639 125.661C26.6791 127.656 25.9578 129.563 24.845 131.243Z" fill="#3A3A3A"/>
<path d="M27.2142 135.627C27.4585 137.849 27.5192 140.071 27.4425 142.317C27.0606 140.097 26.9768 137.852 27.2142 135.627Z" fill="#3A3A3A"/>
<path d="M179.901 172.668C179.787 172.829 179.673 172.967 179.56 173.129C178.891 172.675 178.632 171.714 178.972 170.978C179.547 171.295 179.919 171.958 179.854 172.622L179.901 172.668Z" fill="#3A3A3A"/>
<path d="M145.668 154.679C145.303 154.934 144.819 154.639 144.473 154.343C143.273 153.297 142.05 152.274 140.85 151.228C141.238 150.951 141.745 151.268 142.091 151.587C143.291 152.61 144.491 153.656 145.668 154.679Z" fill="#3A3A3A"/>
<path d="M78.1684 160.173C78.5048 159.025 79.1859 157.966 80.1212 157.181C79.8079 158.351 79.1038 159.41 78.1684 160.173Z" fill="#3A3A3A"/>
<path d="M101.731 50.9586C102.769 51.7766 103.624 52.8021 104.251 53.9666C103.191 53.1946 102.312 52.1693 101.731 50.9586Z" fill="#3A3A3A"/>
<path d="M18.1072 104.844C18.8916 105.503 19.6762 106.185 20.4376 106.845C20.6684 107.049 20.8999 107.369 20.7179 107.599C19.6578 106.873 18.7569 105.939 18.1072 104.844Z" fill="#3A3A3A"/>
<path d="M98.732 48.4809C99.5382 48.9796 100.345 49.4784 101.151 50C100.121 50.3048 98.8996 49.5339 98.732 48.4809Z" fill="#3A3A3A"/>
<path d="M117.77 61.8737C120.613 61.5568 123.359 60.5072 125.687 58.8187C126.851 57.963 128.085 57.1986 129.365 56.5025C127.843 58.7126 125.398 60.1039 122.927 61.1746C121.303 61.873 119.472 62.4581 117.77 61.8737Z" fill="#3A3A3A"/>
<path d="M81.2276 147.686C81.253 148.052 81.0033 148.444 80.637 148.561C80.6995 147.621 80.9456 146.68 81.3988 145.852C81.3342 146.471 81.2695 147.09 81.2047 147.686L81.2276 147.686Z" fill="#3A3A3A"/>
<path d="M125.263 190.702C125.673 190.309 126.292 190.191 126.821 190.416C126.206 191.085 125.222 191.389 124.348 191.166C124.507 190.844 124.895 190.658 125.263 190.702Z" fill="#3A3A3A"/>
<path d="M11.5742 98.7231C12.2223 99.5895 12.8932 100.433 13.5413 101.299C13.6802 101.482 13.8197 101.756 13.6602 101.917C12.782 100.961 12.0866 99.8883 11.5742 98.7231Z" fill="#3A3A3A"/>
<path d="M140.611 94.9257C139.784 94.8167 139.001 94.3636 138.492 93.6796C139.364 93.7196 140.17 94.1954 140.611 94.9257Z" fill="#3A3A3A"/>
<path d="M147.513 183.495C147.399 183.725 147.148 183.887 146.896 183.934C146.709 183.34 147.14 182.65 147.736 182.554C147.852 182.874 147.763 183.264 147.49 183.495L147.513 183.495Z" fill="#3A3A3A"/>
<path d="M134.78 87.4255C134.893 87.2643 135.007 87.126 135.121 86.9649C135.515 87.6268 135.567 88.4743 135.227 89.1641C135.04 88.6154 134.944 88.0431 134.918 87.4704L134.78 87.4255Z" fill="#3A3A3A"/>
<path d="M141.342 138.988C141.112 138.875 140.882 138.785 140.674 138.672C140.627 138.511 140.672 138.328 140.763 138.19C141.223 138.347 141.637 138.619 141.915 139.007C141.779 139.168 141.48 139.147 141.387 138.965L141.342 138.988Z" fill="#3A3A3A"/>
<path d="M163.099 171.314C163.467 171.426 163.835 171.561 164.203 171.673C163.701 172.066 162.897 171.911 162.549 171.386C162.732 171.339 162.916 171.292 163.099 171.222L163.099 171.314Z" fill="#3A3A3A"/>
<path d="M119.161 183.891C119.233 184.326 118.523 184.514 118.223 184.218C117.899 183.922 117.896 183.418 117.916 182.983C118.308 183.301 118.723 183.619 119.116 183.96L119.161 183.891Z" fill="#3A3A3A"/>
<path d="M176.674 156.74C176.443 156.536 176.213 156.354 176.005 156.149C176.717 156.259 177.362 156.667 177.756 157.283C177.365 157.194 176.997 156.99 176.72 156.717L176.674 156.74Z" fill="#3A3A3A"/>
<path d="M139.175 185.407C139.017 185.82 138.468 186.053 138.054 185.85C138.167 185.597 138.28 185.321 138.508 185.205C138.737 185.066 139.128 185.178 139.152 185.453L139.175 185.407Z" fill="#3A3A3A"/>
<path d="M98.7464 47.1975C99.2736 47.1481 99.8039 47.5342 99.9219 48.0375C99.4624 47.926 99.0245 47.631 98.7694 47.2203L98.7464 47.1975Z" fill="#3A3A3A"/>
<path d="M158.987 184.106C158.965 184.312 158.967 184.541 158.945 184.747C158.484 184.361 158.57 183.49 159.095 183.211C159.052 183.509 159.008 183.808 158.941 184.106L158.987 184.106Z" fill="#3A3A3A"/>
<path d="M60.1855 170.789C60.2095 170.949 60.2335 171.109 60.2575 171.269C60.0746 171.362 59.9148 171.478 59.7319 171.571C59.638 171.251 59.842 170.883 60.1396 170.789L60.1855 170.789Z" fill="#3A3A3A"/>
<path d="M134.501 182.78C134.179 182.782 133.858 182.761 133.537 182.764C133.833 182.464 134.497 182.299 134.523 182.711L134.501 182.78Z" fill="#3A3A3A"/>
<path d="M132.009 187.472C131.849 187.587 131.663 187.268 131.823 187.129C131.982 186.99 132.212 187.035 132.396 187.125C132.58 187.193 132.81 187.283 132.993 187.19C132.902 187.351 132.835 187.535 132.744 187.696C132.491 187.606 132.238 187.516 132.008 187.426L132.009 187.472Z" fill="#3A3A3A"/>
<path d="M40.7228 148.851C41.0446 148.94 41.3664 149.03 41.6881 149.119C41.3913 149.328 40.909 149.239 40.7004 148.92L40.7228 148.851Z" fill="#3A3A3A"/>
<path d="M139.776 186.09C139.82 185.838 140.187 185.767 140.394 185.926C140.602 186.085 140.673 186.359 140.72 186.611C140.4 186.797 139.916 186.479 139.96 186.112L139.776 186.09Z" fill="#3A3A3A"/>
<path d="M139.929 119.909C139.95 116.196 139.971 112.484 139.969 108.771C139.965 108.038 139.982 107.282 140.138 106.547C140.737 106.933 140.766 107.78 140.725 108.491C140.452 112.297 140.202 116.103 139.929 119.909Z" fill="#3A3A3A"/>
<path d="M156 162.928C156.208 163.042 156.37 163.247 156.417 163.499C156.233 163.477 156.027 163.432 155.911 163.273C155.795 163.113 155.839 162.838 156.046 162.836L156 162.928Z" fill="#3A3A3A"/>
<path d="M153.088 187.055C152.952 187.308 152.493 187.334 152.331 187.083C152.56 186.944 152.881 186.942 153.134 187.078L153.088 187.055Z" fill="#3A3A3A"/>
<path d="M1.1753 145.655C1.22241 145.839 0.878782 145.91 0.785797 145.727C0.692966 145.567 0.760403 145.36 0.827993 145.177C0.920824 145.336 1.03659 145.496 1.12958 145.679L1.1753 145.655Z" fill="#3A3A3A"/>
<path d="M162.776 181.33C162.547 181.309 162.613 180.873 162.842 180.849C163.071 180.801 163.279 181.006 163.463 181.165C163.258 181.281 163.005 181.306 162.776 181.239L162.776 181.33Z" fill="#3A3A3A"/>
<path d="M84.1879 89.5975C84.3451 89.0923 84.4795 88.6102 84.6367 88.105C84.8256 88.9058 84.7395 89.7543 84.4003 90.4898C84.1237 90.2854 84.0523 89.8963 84.1879 89.5975Z" fill="#3A3A3A"/>
<path d="M128.938 167.487C128.801 167.533 128.618 167.557 128.502 167.444C128.433 167.375 128.409 167.284 128.432 167.215C129.095 166.958 129.782 166.771 130.493 166.651C130.037 167.044 129.488 167.345 128.938 167.487Z" fill="#3A3A3A"/>
<path d="M116.38 169.404C116.501 170.32 116.461 171.26 116.284 172.154C116.217 172.522 116.082 172.935 115.74 173.144C115.533 173.099 115.371 172.94 115.324 172.757C115.73 171.631 116.066 170.529 116.38 169.404Z" fill="#3A3A3A"/>
<path d="M86.1953 77.6221C85.8778 78.1742 85.7446 78.8396 85.8405 79.4577C85.2635 78.9345 85.4395 77.8104 86.1716 77.5076L86.1953 77.6221Z" fill="#3A3A3A"/>
<path d="M84.7312 74.8132C84.571 74.8601 84.3873 74.8384 84.249 74.7477C84.3388 74.4492 84.4287 74.1736 84.5185 73.8751C84.7725 74.1255 84.8669 74.5144 84.7774 74.8587L84.7312 74.8132Z" fill="#3A3A3A"/>
<path d="M112.335 116.908C112.014 116.864 111.714 116.66 111.551 116.363C111.895 116.292 112.264 116.542 112.312 116.885L112.335 116.908Z" fill="#3A3A3A"/>
<path d="M136.609 161.867C136.748 162.164 136.751 162.53 136.615 162.852C136.476 162.555 136.473 162.188 136.609 161.867Z" fill="#3A3A3A"/>
<path d="M84.4194 72.7758C84.1883 72.5253 84.1626 72.113 84.3443 71.8368C84.6896 72.0178 84.7619 72.5443 84.4656 72.8213L84.4194 72.7758Z" fill="#3A3A3A"/>
<path d="M184.421 152.266C184.214 152.198 184.303 151.831 184.51 151.853C184.67 151.829 184.809 152.011 184.764 152.172C184.719 152.332 184.513 152.402 184.375 152.289L184.421 152.266Z" fill="#3A3A3A"/>
<path d="M85.8317 95.2697C85.3249 94.9522 84.7722 94.6351 84.4247 94.1333C83.8922 93.4035 83.8163 92.3499 84.2699 91.5678C84.1877 92.9891 85.3655 94.1728 86.5407 94.9441C87.7389 95.7381 89.0969 96.4165 89.7934 97.6493C88.4577 96.8791 87.1446 96.0629 85.8317 95.2697Z" fill="#3A3A3A"/>
<path d="M129.664 162.807C131.005 164.31 132.345 165.814 133.686 167.294C134.264 167.955 134.865 168.616 135.442 169.253C135.674 169.527 135.815 170.076 135.448 170.101C132.952 167.391 130.457 164.681 127.938 161.948C128.602 161.76 129.225 162.306 129.664 162.807Z" fill="#3A3A3A"/>
<path d="M32.4035 119.208C33.0227 119.181 33.6173 118.902 34.0271 118.441C34.9608 117.426 34.9267 115.754 35.9527 114.807C36.0322 116.411 35.3548 118.019 34.1459 119.059C33.7125 119.428 33.8782 120.183 34.2481 120.616C34.6181 121.049 35.1478 121.366 35.472 121.823C35.7963 122.279 35.8475 123.08 35.3216 123.336C34.5089 121.875 33.5361 120.483 32.4035 119.208Z" fill="#3A3A3A"/>
<path d="M72.5168 141.809C74.323 140.903 75.827 139.404 76.7557 137.633C76.3991 139.194 75.654 140.963 74.0966 141.34C73.5011 141.482 73.4151 142.353 73.7855 142.855C74.133 143.357 74.7311 143.605 75.1925 143.991C75.6768 144.377 76.0483 145.04 75.7766 145.568C74.5987 144.385 73.5121 143.132 72.5168 141.809Z" fill="#3A3A3A"/>
<path d="M35.3437 126.636C35.5877 128.811 34.0428 131.067 31.9361 131.631C32.8381 132.725 33.763 133.819 34.6652 134.936C34.8964 135.209 35.1278 135.506 35.153 135.849C35.2012 136.193 34.9517 136.607 34.6074 136.586C34.1588 134.687 32.3613 133.462 31.1809 131.911C30.9957 131.66 30.9239 131.203 31.2218 131.155C32.2993 131.056 33.2352 130.362 33.8948 129.51C34.5542 128.635 34.9603 127.624 35.3437 126.636Z" fill="#3A3A3A"/>
<path d="M50.4119 139.803C49.9768 139.921 49.4496 139.993 49.1265 139.697C52.0106 138.738 54.6369 136.979 56.6173 134.674C55.395 137.134 53.0679 139.052 50.4119 139.803Z" fill="#3A3A3A"/>
<path d="M64.5936 143.925C64.3649 144.018 64.1133 144.134 63.8834 144.067C63.7455 144.022 63.6072 143.931 63.5377 143.817C65.6187 142.841 67.5133 141.43 69.0389 139.724C68.7089 141.835 66.5376 143.041 64.5936 143.925Z" fill="#3A3A3A"/>
<path d="M40.9031 138.079C41.7475 137.432 42.6147 136.762 43.0902 135.819C43.8375 134.37 43.5044 132.585 42.7379 131.169C41.9714 129.754 40.7707 128.593 39.6616 127.409C40.7381 127.15 41.8829 126.821 42.5654 125.969C43.3615 124.955 43.3511 123.397 44.3551 122.588C44.3221 124.513 43.2794 126.399 41.6575 127.418C41.2691 127.65 40.8369 128.203 41.2286 128.452C42.5647 129.291 43.6285 130.568 44.0974 132.077C44.5664 133.586 44.3714 135.306 43.4623 136.573C42.8942 137.379 42.0953 137.98 41.2964 138.581C40.6801 139.043 39.9722 139.529 39.2143 139.397C39.7849 138.958 40.3325 138.519 40.9031 138.079Z" fill="#3A3A3A"/>
<path d="M44.0232 114.134C43.6129 114.527 43.1796 114.919 42.9077 115.425C42.6588 115.931 42.6173 116.596 42.9645 117.052C43.7513 118.078 44.4697 119.15 45.0967 120.291C44.9838 120.567 44.5694 120.341 44.3842 120.09C43.4577 118.767 42.5541 117.421 41.6276 116.098C42.3563 115.291 43.0391 114.485 43.7216 113.632C43.8373 113.792 43.9302 113.952 44.0232 114.134Z" fill="#3A3A3A"/>
<path d="M42.761 144.896C41.7438 143.734 41.046 142.295 40.7376 140.784C42.0057 141.738 42.7733 143.315 42.761 144.896Z" fill="#3A3A3A"/>
<path d="M68.3201 138.583C67.5045 136.687 66.6204 134.836 65.6677 133.032C67.4877 134.189 68.558 136.428 68.3201 138.583Z" fill="#3A3A3A"/>
<path d="M73.4177 129.039C75.1241 130.357 76.3981 132.181 77.077 134.216C77.1239 134.376 77.1485 134.628 76.9883 134.675C75.6685 132.851 74.486 130.98 73.4177 129.039Z" fill="#3A3A3A"/>
<path d="M68.2559 125.567C67.6268 124.128 66.7004 122.805 65.5918 121.69C67.432 122.434 68.7293 124.327 68.7656 126.32C68.4891 126.139 68.3724 125.842 68.2559 125.567Z" fill="#3A3A3A"/>
<path d="M55.2046 125.838C54.911 126.528 54.3874 127.127 53.7479 127.544C53.0854 127.961 52.2608 128.149 51.5254 127.948C52.7827 127.298 54.0169 126.602 55.2046 125.838Z" fill="#3A3A3A"/>
<path d="M56.2826 132.66C55.4485 131.428 54.6144 130.196 53.7574 128.964C55.2977 129.458 56.4095 131.055 56.2826 132.66Z" fill="#3A3A3A"/>
<path d="M55.7613 119.899C55.5298 119.58 55.5039 119.145 55.6851 118.8C56.1494 119.622 56.3168 120.629 56.1625 121.569C55.8152 121.091 55.6733 120.45 55.8071 119.876L55.7613 119.899Z" fill="#3A3A3A"/>
<path d="M65.8755 119.534C66.8085 118.405 67.7645 117.275 68.8819 116.282C68.3422 117.913 67.1819 119.342 65.6965 120.199C65.5575 119.994 65.7162 119.718 65.8755 119.534Z" fill="#3A3A3A"/>
<path d="M64.7448 132.237C64.4476 132.399 64.0357 132.539 63.8503 132.265C65.5885 131.475 67.1636 130.318 68.4156 128.866C68.7609 129.047 68.4892 129.576 68.1926 129.83C67.1206 130.754 65.956 131.541 64.7448 132.237Z" fill="#3A3A3A"/>
<path d="M53.2641 144.367C53.1165 142.879 52.2584 141.486 50.9912 140.67C51.3788 140.324 51.9552 140.755 52.2564 141.189C52.9973 142.215 53.5328 143.38 53.8393 144.615C53.6551 144.525 53.4711 144.457 53.2641 144.367Z" fill="#3A3A3A"/>
<path d="M77.3448 122.825C76.8283 124.479 76.1736 126.064 75.427 127.628C75.2233 128.042 74.6731 128.091 74.2379 128.186C73.8026 128.28 73.2778 128.696 73.4869 129.084C73.0275 128.996 73.0455 128.262 73.4105 127.962C73.7756 127.662 74.2799 127.612 74.6913 127.381C76.2686 126.545 75.8838 123.889 77.3448 122.825Z" fill="#3A3A3A"/>
<path d="M66.0438 106.975C64.9337 105.63 63.2534 104.793 61.5094 104.713C63.6126 103.622 65.367 101.823 66.3848 99.6622C66.7772 100.026 66.5295 100.715 66.2342 101.153C65.4621 102.327 64.4364 103.319 63.2487 104.083C64.332 104.855 65.3022 105.857 66.0438 106.975Z" fill="#3A3A3A"/>
<path d="M35.621 89.2582C35.3297 90.2914 34.3707 90.9624 33.4801 91.5641C33.1147 91.8186 33.4168 92.3895 33.7171 92.7083C34.5254 93.505 35.3338 94.3245 36.1191 95.1213C35.6628 95.491 35.0172 95.0141 34.6242 94.5584C33.7225 93.5103 32.821 92.4852 31.8963 91.4372C33.1532 90.7184 34.3872 89.9998 35.621 89.2582Z" fill="#3A3A3A"/>
<path d="M55.21 85.5292C54.9874 86.539 54.4891 87.5048 53.76 88.243C53.4638 88.5429 53.6967 89.0684 53.9284 89.4106C55.0174 91.0303 56.0835 92.6502 57.1726 94.2699C56.7606 94.4102 56.4133 93.9313 56.2041 93.5202C55.3204 91.7387 54.1168 90.1426 52.6397 88.8005C53.5041 87.7177 54.3686 86.6348 55.21 85.5292Z" fill="#3A3A3A"/>
<path d="M61.4675 91.6059C62.7584 92.5368 64.0264 93.4678 65.3171 94.3758C65.7782 94.7165 66.2624 95.0799 66.5638 95.5591C66.8654 96.0612 66.9386 96.7253 66.5978 97.2088C66.1539 96.0202 65.344 94.9715 64.3068 94.2451C63.2007 93.4963 61.7515 92.9102 61.4675 91.6059Z" fill="#3A3A3A"/>
<path d="M38.1977 100.63C40.7173 100.063 43.0011 98.5355 44.5013 96.463C43.9635 98.3687 42.2301 99.8698 40.2821 100.158C39.9383 100.206 39.7808 100.665 39.9207 101.008C40.0605 101.328 40.3602 101.555 40.6369 101.76C42.0433 102.804 43.1766 104.195 43.9213 105.771C41.8689 104.18 40.5672 101.623 38.1977 100.63Z" fill="#3A3A3A"/>
<path d="M34.8738 83.878C35.7532 85.0179 36.4041 86.2968 36.8033 87.6691C35.6251 86.4395 34.6747 84.9793 34.022 83.4254C34.3424 83.3087 34.6655 83.6044 34.8738 83.878Z" fill="#3A3A3A"/>
<path d="M52.8724 99.5694C54.4946 98.596 56.0939 97.6229 57.7162 96.6495C56.466 98.3766 54.6393 99.6492 52.6014 100.213C52.3708 100.031 52.6439 99.7084 52.8724 99.5694Z" fill="#3A3A3A"/>
<path d="M56.5097 104.907C56.557 105.113 56.6042 105.319 56.5827 105.526C56.5839 105.709 56.4709 105.962 56.2641 105.917C55.6567 104.271 54.8889 102.672 53.9612 101.166C55.2518 102.051 56.1785 103.397 56.5097 104.907Z" fill="#3A3A3A"/>
<path d="M63.2106 91.5484C64.3271 90.418 65.5592 89.4244 66.884 88.5676C66.2749 90.107 64.8376 91.2854 63.2106 91.5484Z" fill="#3A3A3A"/>
<path d="M73.9687 87.9931C73.6035 88.2706 73.5613 88.8208 73.7247 89.2322C73.888 89.6436 74.2344 89.985 74.5349 90.3267C75.5981 91.5112 76.3877 92.9496 76.788 94.4823C76.9296 95.0772 77.0032 95.7871 76.524 96.1799C75.9331 93.5714 74.6322 91.151 72.807 89.2154C72.3911 88.7828 72.9602 88.1144 73.4163 87.7218C74.8991 86.4744 75.7354 84.6127 76.5265 82.8429C76.5628 84.8363 75.5896 86.8136 73.9687 87.9931Z" fill="#3A3A3A"/>
<path d="M76.0004 103.631C76.5103 104.407 76.8146 105.321 76.8668 106.261C76.8933 106.787 76.8511 107.338 76.648 107.843C76.1889 107.8 76.0702 107.205 76.0442 106.747C76.0373 105.716 76.0303 104.662 76.0004 103.631Z" fill="#3A3A3A"/>
<path d="M40.0288 86.3184C40.7339 85.42 41.5542 84.5895 42.4441 83.8732C42.6267 83.7344 43.0396 83.7317 42.9494 83.9614C42.4039 84.7213 41.7892 85.4129 41.1282 86.059C40.8318 86.3359 40.3292 86.6372 40.0288 86.3184Z" fill="#3A3A3A"/>
<path d="M62.424 80.2791C63.5215 79.7447 64.5962 79.2104 65.6936 78.6531C65.0127 79.7576 63.7095 80.4079 62.424 80.2791Z" fill="#3A3A3A"/>
<path d="M33.597 81.6179C34.5373 81.5887 35.2896 80.8733 36.1123 80.4094C36.2952 80.3165 36.6161 80.2686 36.6633 80.4745C35.5705 81.7193 33.8776 82.4181 32.2254 82.3375C32.0859 82.0634 32.3589 81.7179 32.6565 81.6242C32.9542 81.5535 33.2758 81.62 33.597 81.6179Z" fill="#3A3A3A"/>
<path d="M66.4907 84.6517C66.0538 84.4942 65.8208 83.9458 65.9786 83.5322C66.2786 83.8052 66.4877 84.1934 66.5134 84.6057L66.4907 84.6517Z" fill="#3A3A3A"/>
<path d="M76.1499 98.5427C76.1314 99.2074 75.8606 99.8737 75.3819 100.335C75.1541 100.566 74.8113 100.774 74.4893 100.639C74.9892 99.9254 75.535 99.2114 76.1499 98.5427Z" fill="#3A3A3A"/>
<path d="M44.8154 91.9924C44.8852 92.1294 44.9551 92.2893 44.9331 92.427C44.9107 92.5188 44.8655 92.6108 44.774 92.6572C44.2637 91.8127 43.9133 90.8755 43.7463 89.9142C44.095 90.5993 44.4438 91.3074 44.8154 91.9924Z" fill="#3A3A3A"/>
<path d="M89.8307 171.736C88.5895 171.377 87.573 170.307 87.2665 169.072C88.2581 169.844 89.1128 170.732 89.8307 171.736Z" fill="#3A3A3A"/>
<path d="M99.6531 172.335C99.4236 172.313 99.2167 172.246 99.0324 172.133C98.7328 171.928 98.547 171.586 98.4071 171.243C99.4638 171.465 100.543 171.687 101.6 171.84C101.052 172.256 100.342 172.422 99.6531 172.335Z" fill="#3A3A3A"/>
<path d="M25.7239 101.493C25.9548 101.72 26.0033 102.11 25.8217 102.386C25.4993 102.205 25.4045 101.747 25.6319 101.448L25.7239 101.493Z" fill="#3A3A3A"/>
<path d="M54.6773 81.3392C54.932 81.7042 55.0512 82.3679 54.6157 82.4167C54.2619 80.9754 53.2441 79.7218 51.9092 79.0662C51.8164 78.9064 51.9987 78.7218 52.1592 78.7208C52.3428 78.7195 52.4813 78.8561 52.6197 78.9698C53.3585 79.6752 54.075 80.4725 54.6773 81.3392Z" fill="#3A3A3A"/>
<path d="M35.7737 98.3547C36.1262 99.6128 34.8947 100.698 34.0987 101.735C33.9169 101.988 33.7354 102.287 33.7145 102.585C33.6996 103.8 35.9269 104.106 35.8203 105.321C34.6689 104.664 33.6992 103.731 32.9805 102.613C32.8414 102.385 32.7244 102.042 32.9298 101.88C34.0932 100.91 35.0716 99.7115 35.7737 98.3547Z" fill="#3A3A3A"/>
<path d="M93.3908 168.962C93.4878 169.741 92.8279 170.547 92.0481 170.575C91.5436 170.601 91.5485 171.335 91.7122 171.792C89.8886 170.108 88.1563 168.355 86.5152 166.51C87.2519 166.895 87.9664 167.394 88.5896 167.963C89.3282 168.646 89.9759 169.443 90.8961 169.827C91.7932 170.187 93.0989 169.904 93.3908 168.962Z" fill="#3A3A3A"/>
<path d="M104.452 63.3608C103.42 63.3677 102.387 63.3746 101.355 63.3815C112.865 72.6999 124.511 81.9028 136.248 90.9447C136.037 86.7754 135.849 82.606 135.637 78.4368C135.53 76.1688 135.03 73.3764 132.869 72.7264C128.777 71.4705 126.863 66.5564 123.02 64.703C121.455 63.9573 119.687 63.7629 117.942 63.5912C104.307 62.3305 89.552 61.6044 79.0098 52.8753C79.2207 53.5384 79.4316 54.2016 79.6426 54.8647C77.3738 51.7863 74.9634 48.113 75.948 44.417C77.0894 40.147 82.4674 38.2089 86.7644 39.2801C91.0612 40.3284 94.4776 43.4908 97.6867 46.54C94.0703 44.3414 90.4311 42.143 86.8147 39.9444C83.8894 38.1765 79.7031 39.9232 78.2786 43.0264C76.8542 46.1296 77.8893 49.9725 80.1545 52.5239C82.4197 55.0753 85.7099 56.5199 89.0413 57.2767C86.1377 55.3254 83.0952 53.1688 81.7889 49.9464C80.4825 46.7011 81.9662 42.1538 85.4032 41.5579C87.2134 41.2479 89.0544 42.1064 90.3704 43.3579C88.3225 42.4321 85.9077 41.5316 83.9422 42.6218C81.2224 44.1296 81.5485 48.2981 83.332 50.8527C88.5674 58.4486 99.9177 57.6851 108.203 61.7544C106.886 60.3425 105.569 58.9076 104.229 57.4958C105.221 58.2912 106.213 59.0866 107.205 59.8821C107.288 58.6899 106.844 57.5012 106.036 56.6358C106.979 56.9733 107.808 57.5635 108.41 58.3615C110.743 53.8315 113.489 49.5049 116.559 45.4512C114.5 49.6357 112.164 53.7074 109.598 57.6203C116.811 52.2097 119.4 41.4448 127.75 38.0432C120.222 44.3267 114.151 52.3191 110.081 61.2377C120.062 61.5605 129.979 55.6964 134.508 46.8205C135.527 44.8429 136.292 42.5692 135.704 40.4419C135.116 38.2918 132.673 36.5895 130.637 37.4739C129.631 37.916 127.844 38.3634 128.021 37.2852C130.176 37.1103 132.233 36.0424 133.645 34.406C127.092 35.5727 121.132 39.6916 117.706 45.3748C119.998 41.7387 122.497 38.0096 126.222 35.8764C129.97 33.7431 135.315 33.8219 137.999 37.1725C140.22 39.9534 139.926 44.0802 138.25 47.208C136.573 50.3358 133.79 52.6918 131.075 54.9557C135.086 50.9873 139.413 46.1919 138.871 40.5811C138.722 38.9551 138.068 37.2637 136.731 36.2873C135.417 35.3107 133.329 35.256 132.236 36.4778C134.395 36.7842 136.06 38.7896 136.464 40.941C136.869 43.0924 136.264 45.3193 135.314 47.2964C131.196 55.8486 121.544 60.1527 112.338 62.5059C118.927 63.2638 125.493 63.999 132.081 64.7569C133.321 64.8861 134.676 65.1062 135.463 66.0863C136.041 66.8387 136.14 67.8463 136.192 68.7855C138.375 103.672 139.367 138.657 139.165 173.605C139.168 174.087 139.264 174.705 139.724 174.839C140.183 174.973 140.199 173.896 139.811 174.174C139.215 177.707 134.448 178.358 130.845 178.107C115.721 177.131 100.573 176.132 85.4491 175.157C86.5267 175.081 87.6043 174.982 88.682 174.906C87.0014 174.023 85.004 173.785 83.1719 174.255C83.4605 162.543 82.9692 150.837 81.7212 139.181C81.5281 141.176 81.3125 143.24 80.384 145.033C79.4555 146.827 77.63 148.283 75.6104 148.159C70.0108 147.83 64.4111 147.501 58.8116 147.194C65.6811 148.73 72.7508 149.347 79.7682 149.002C78.0084 149.976 75.8741 149.853 73.8545 149.729C61.3691 148.85 48.8838 147.994 36.3755 147.116C37.3425 147.636 38.3095 148.157 39.2764 148.677C36.1758 148.125 33.0521 147.55 29.9514 146.998C29.3842 147.942 27.6321 146.647 28.3608 145.84C28.1907 137.569 28.0437 129.32 27.8736 121.048C25.7508 126.058 22.7536 130.684 19.0871 134.696C16.2176 137.832 11.6032 140.75 7.98658 138.506C4.34698 136.262 4.88394 130.804 6.53212 126.852C9.96411 118.648 16.2258 111.639 23.9967 107.348C15.8491 103.346 9.10491 96.5397 5.21897 88.3389C4.89306 87.6307 4.56669 86.8538 4.74514 86.0964C4.9239 85.3848 5.49401 84.8768 6.08751 84.4374C10.037 81.5694 15.6782 81.2567 19.9154 83.6803C24.1527 86.1039 26.7327 91.1281 26.2606 95.9894C26.1637 91.7964 23.934 87.7095 20.4546 85.3953C16.9749 83.0583 12.3377 82.5623 8.42502 84.078C7.50975 84.4279 6.57292 84.9841 6.25791 85.9029C6.01079 86.6837 6.26865 87.5069 6.54898 88.2613C8.01963 92.0554 10.4285 95.4996 13.5205 98.183C12.7015 95.7823 11.2417 93.6151 9.32655 91.955C10.225 92.5219 11.1235 93.0888 12.0221 93.6786C10.5408 91.7177 12.5851 88.6792 15.015 88.4108C17.4448 88.1425 19.7035 89.7085 21.4356 91.4385C24.2301 94.2385 26.341 97.7305 27.5592 101.503C28.236 92.9513 28.0405 84.3133 27.02 75.7955C29.3211 73.4198 33.0366 73.3032 36.3408 73.4186C43.3162 73.6469 50.2936 74.173 57.2269 74.9745C55.6453 75.1684 54.0637 75.3623 52.4821 75.5562C60.8614 76.4626 69.2409 77.3919 77.6201 78.2982C78.24 78.3628 78.906 78.4729 79.299 78.9286C79.6459 79.3388 79.6957 79.9342 79.7222 80.4611C80.1061 89.8311 80.5131 99.2239 80.897 108.594C81.027 93.7436 81.18 78.916 81.31 64.0657C81.3252 62.9198 81.3856 61.6591 82.2292 60.8743C83.164 60.0201 84.6102 60.1708 85.8503 60.3688C92.0736 61.3354 98.2514 62.3482 104.452 63.3608ZM102.9 109.111C96.5144 104.433 90.1286 99.7553 83.7658 95.0773C86.3223 96.5955 88.9241 98.0218 91.5712 99.3561C92.2098 98.8018 93.3629 99.7107 92.978 100.47C93.9854 100.165 94.9765 100.869 95.7837 101.505C109.945 112.822 124.083 124.162 138.244 135.48C137.612 133.582 135.997 132.241 134.429 130.991C130.439 127.786 126.472 124.582 122.482 121.377C127.484 125.033 132.487 128.689 137.512 132.368C136.117 119.247 135.409 106.029 135.389 92.8295C135.695 97.3648 136.001 101.877 136.283 106.413C136.922 102.421 137.055 98.3411 136.684 94.3104C136.609 93.4172 136.442 92.4558 135.75 91.8876C127.931 85.6381 120.113 79.3886 112.271 73.1393C111.764 72.7302 110.662 72.5772 110.735 73.2412C115.535 77.5173 120.336 81.8162 125.136 86.0922C115.921 80.3104 109.502 70.7058 100.106 65.2231C100.701 65.0358 101.319 64.8254 101.914 64.6381C96.6692 62.4504 91.0404 61.2048 85.3501 61.0367C84.3176 60.9978 83.1252 61.0745 82.5343 61.9034C82.0795 62.5023 82.1079 63.3271 82.1589 64.0829C82.2371 65.4803 82.3152 66.8776 82.3934 68.275C82.758 67.9059 83.0996 67.5369 83.464 67.1449C82.3017 88.831 82.3785 110.578 83.7394 132.247C83.7815 131.674 84.6573 132.287 84.7299 132.859C85.434 138.652 85.3358 144.542 84.4109 150.3C84.3005 150.942 84.8319 151.512 85.3167 151.967C91.8963 158.179 98.4529 164.391 105.033 170.603C106.187 171.695 107.387 172.833 108.86 173.442C110.263 174.028 111.801 174.155 113.316 174.26C120.27 174.74 127.247 175.243 134.201 175.724C135.372 175.808 136.421 174.907 136.895 173.827C137.37 172.747 137.385 171.555 137.377 170.386C137.383 167.911 137.39 165.436 137.419 162.938C137.414 162.205 137.432 161.495 137.244 160.785C136.844 159.299 135.666 158.184 134.513 157.16C128.374 151.678 121.825 146.612 114.958 142.075C116.701 141.949 118.246 143.13 119.607 144.244C125.373 148.949 131.14 153.677 136.907 158.381C137.246 157.715 136.622 157.008 136.068 156.531C118.948 141.819 101.418 127.545 83.5468 113.755C102.942 125.656 118.656 142.715 137.506 155.421C137.767 149.897 137.845 144.351 137.739 138.829C137.71 137.935 137.681 137.019 137.286 136.242C136.891 135.489 136.176 134.944 135.484 134.421C127.76 128.606 120.014 122.792 112.29 117C114.571 118.474 116.852 119.948 119.133 121.423C116.38 118.05 112.806 115.347 108.78 113.655C108.658 112.487 107.392 111.9 106.356 111.357C105.113 110.723 104.007 109.906 102.9 109.111ZM79.5576 144.947C80.5232 138.41 81.2361 131.828 81.6736 125.226C81.3339 125.869 81.017 126.513 80.6771 127.134C80.6125 124.339 80.7774 121.565 81.1488 118.79C81.2578 117.941 80.4956 117.167 79.6456 116.989C78.7956 116.812 77.9255 117.047 77.1012 117.281C77.1268 117.671 77.1295 118.083 77.1551 118.473C76.7359 117.536 75.9964 116.739 75.0984 116.241C77.0492 116.365 78.9769 116.467 80.9276 116.591C81.2913 116.085 80.9651 115.331 80.4355 115.036C79.9059 114.742 79.2406 114.746 78.6214 114.773C62.613 115.362 46.6649 111.252 30.6592 112.23C29.6501 112.283 29.3379 113.614 29.3448 114.645C29.2262 124.339 29.1995 134.056 29.2873 143.749C29.2912 144.321 29.3417 145.009 29.8027 145.349C30.1487 145.622 30.6304 145.619 31.0662 145.616C32.0068 145.609 32.9701 145.58 33.9106 145.574C33.1468 144.571 32.3831 143.567 31.6193 142.564C33.1493 141.523 34.3322 140.025 34.9859 138.302C35.0216 140.204 33.9559 142.067 32.3106 143.018C34.6252 146.096 39.1446 146.112 42.9973 145.925C54.6472 145.366 66.3493 145.746 77.9428 147.043C78.93 147.151 79.4034 145.911 79.5576 144.947ZM44.2967 76.184C44.1131 76.1852 43.9067 76.1866 43.7467 76.2793C42.97 76.7657 44.538 77.9698 44.1076 78.7747C43.3352 76.4883 40.5728 75.0631 38.2376 75.7662C37.8484 75.8834 37.4389 76.3903 37.7614 76.5944C34.777 76.2706 31.8154 75.9238 28.831 75.6C28.7821 85.4312 28.7334 95.2854 28.6845 105.117C45.2642 107.618 61.9964 108.927 78.7436 109.044C79.0648 109.042 79.4318 109.039 79.6828 108.831C80.0478 108.531 80.0443 108.004 79.9953 107.546C79.3406 98.8422 79.1904 90.1122 79.5448 81.379C79.5631 80.6914 79.5347 79.8666 78.9358 79.5039C78.7055 79.368 78.407 79.3242 78.1315 79.3031C74.2056 78.8252 70.2568 78.3704 66.3308 77.8926C64.5859 77.6751 62.8182 77.4807 61.0734 77.2861C55.5178 76.6817 49.8949 76.3069 44.2967 76.184ZM99.3891 174.009C100.514 174.162 101.639 174.292 102.763 174.239C104.62 174.112 106.703 173.479 108.156 174.615C100.193 167.244 92.2288 159.872 84.265 152.501C84.8567 158.638 85.4485 164.799 86.0631 170.936C86.1116 171.325 86.1604 171.76 86.4377 172.056C86.7149 172.352 87.1512 172.418 87.5645 172.461C91.4678 172.985 95.44 173.509 99.3891 174.009ZM37.3289 107.923C34.4824 107.644 31.4509 107.138 29.3733 105.204C29.2232 106.763 29.0958 108.299 28.9457 109.858C28.9033 110.386 28.8844 110.982 29.2767 111.323C29.5998 111.619 30.0815 111.615 30.5172 111.589C34.4846 111.402 38.4293 111.239 42.3967 111.052C43.4975 110.998 44.6672 110.968 45.657 111.465C46.4856 111.872 47.4267 111.957 48.3677 112.02C58.4893 112.754 68.6107 113.466 78.7323 114.2C79.5815 114.263 80.4994 114.303 81.1611 113.771C81.616 113.195 80.6481 112.537 79.9363 112.427C77.1343 111.942 74.3323 111.456 71.5303 110.971C69.0269 110.53 66.5005 110.088 63.9749 109.761C55.1351 108.606 46.1897 108.803 37.3289 107.923ZM15.4076 133.346C18.7825 130.321 21.5335 126.614 23.4789 122.522C25.2435 118.82 26.318 114.849 27.3696 110.877C27.392 110.785 27.4141 110.671 27.3906 110.579C27.2737 110.259 26.816 110.423 26.5421 110.631C20.6092 115.345 14.3807 120.451 11.7903 127.573C11.2496 129.043 10.8937 130.718 11.5457 132.157C12.1975 133.574 14.2448 134.408 15.4076 133.346ZM21.3123 110.712C16.1279 114.161 11.7317 118.819 8.62504 124.225C6.67466 127.584 5.21092 131.673 6.54286 135.307C6.7764 135.925 7.49196 136.584 7.94768 136.123C8.27865 137.587 9.93626 138.47 11.4498 138.391C12.9632 138.289 14.3111 137.455 15.4976 136.508C20.2212 132.764 23.1437 127.267 25.8605 121.887C26.2455 121.151 26.444 119.958 25.6396 119.734C23.6535 124.606 20.7934 129.139 17.2177 133.013C16.2383 134.074 15.0527 135.159 13.6075 135.168C12.1624 135.178 10.916 134.041 10.4252 132.692C9.93442 131.343 10.0621 129.853 10.3968 128.453C12.0024 121.567 17.7035 116.488 23.0866 111.891C23.8849 111.198 24.7061 110.506 25.6434 110.018C26.3291 109.647 27.0845 109.413 27.8636 109.27C25.7692 108.253 23.2765 109.415 21.3123 110.712ZM27.0319 108.405C28.059 107.619 27.9337 106.038 27.6042 104.803C26.5905 100.731 24.8209 96.824 22.1154 93.611C20.4968 91.6969 18.4898 90.0375 16.0994 89.3431C15.1341 89.0746 13.9179 89.014 13.2808 89.7974C13.0304 90.097 12.8953 90.4645 12.8289 90.8316C12.4501 92.507 12.8979 94.2914 13.7339 95.7983C14.5698 97.3051 15.7483 98.5805 16.9496 99.8328C19.9535 103.067 23.118 106.3 27.0319 108.405ZM134.607 68.567C134.742 68.039 135.151 67.555 135.125 67.0281C135.073 66.0889 133.923 65.7071 133.004 65.5528C130.18 65.1134 127.333 64.8117 124.464 64.6017C124.766 65.1955 125.388 65.5809 125.964 65.9208C129.304 67.9837 132.372 70.461 135.121 73.2613C135.96 71.8807 134.182 70.1281 134.607 68.567ZM120.186 175.955C123.493 176.506 126.845 176.919 130.173 177.195C129.734 176.602 128.975 176.332 128.262 176.153C124.724 175.26 121.052 175.17 117.404 175.057C114.789 174.983 112.15 174.909 109.534 174.835C109.445 175.179 109.928 175.382 110.295 175.426C113.67 175.793 117.022 176.16 120.396 176.527C120.947 176.592 121.498 176.657 122.025 176.539C121.428 176.382 120.807 176.157 120.186 175.955ZM33.2344 75.4331C33.6258 75.6367 34.1551 75.8852 34.4742 75.5852C35.2037 74.8928 36.3275 74.8624 37.3373 74.9243C40.9862 75.1291 44.6606 75.7232 48.2352 75.1034C47.4499 74.3067 46.2108 74.2691 45.0866 74.2537C40.3381 74.2626 35.5664 74.2487 30.8178 74.2576C30.5655 74.2593 30.3131 74.261 30.1076 74.3999C29.9021 74.5387 29.7894 74.8374 29.9284 75.0427C31.0276 74.7604 32.2216 74.9128 33.2344 75.4331ZM70.6099 110.542C73.3623 110.478 76.1176 110.849 78.7156 111.702C79.2213 111.859 79.7501 112.039 80.2774 111.99C80.8046 111.917 81.3525 111.524 81.349 110.997C81.3688 110.539 80.9992 110.151 80.5852 109.994C80.1711 109.813 79.7124 109.839 79.2537 109.842C76.6158 109.883 73.955 109.924 71.3171 109.964C70.95 109.944 70.4011 110.2 70.6099 110.542ZM84.6452 133.914C84.368 133.618 84.0906 133.299 83.8133 133.003C83.0841 137.155 83.0207 141.395 83.6221 145.562C84.196 145.627 84.4201 144.823 84.439 144.227C84.4463 141.89 84.3617 139.53 84.2084 137.194C84.1091 136.071 84.0322 134.857 84.6452 133.914ZM27.522 113.076C27.0969 114.683 26.6489 116.29 26.2238 117.897C26.0893 118.379 26.0016 118.976 26.3935 119.271C27.9645 117.496 28.6129 114.971 28.1157 112.66C27.9077 112.432 27.5888 112.778 27.522 113.076ZM97.2024 59.8574C95.5007 59.25 93.7989 58.6198 92.0973 58.0125C91.3614 57.7424 90.4878 57.4733 89.8021 57.8445C90.425 58.3674 91.2299 58.6599 92.0558 58.6773C93.5758 59.5608 95.3909 59.9841 97.2024 59.8574ZM98.7304 174.999C96.3655 174.694 94.0237 174.412 91.6588 174.107C91.2456 174.064 90.718 174.067 90.537 174.435C90.8372 174.731 91.3194 174.797 91.7326 174.84C93.6378 175.01 95.5431 175.204 97.4483 175.374C97.9302 175.394 98.5036 175.39 98.7304 174.999ZM134.652 154.02C135.163 154.979 135.811 155.845 136.596 156.596C136.897 156.892 137.38 157.164 137.699 156.887C137.072 155.63 135.963 154.584 134.652 154.02ZM49.2025 147.625C48.4413 146.989 47.4079 146.835 46.4206 146.705C45.8925 146.639 45.2501 146.621 44.9548 147.058C46.2666 147.691 47.782 147.887 49.2025 147.625ZM77.0982 44.8905C76.8219 44.7319 76.5721 45.1232 76.5053 45.4215C76.2391 46.7753 76.4093 48.2179 76.9454 49.4747C77.0509 48.099 77.1336 46.7464 77.2391 45.3708C77.238 45.2104 77.2364 44.9812 77.0982 44.8905ZM137.008 125.52C137.398 125.517 137.578 125.057 137.598 124.668C137.663 124.071 137.613 123.453 137.472 122.858C136.788 123.504 136.589 124.652 137.008 125.52ZM94.8076 58.5214C95.1751 58.5877 95.5635 58.3559 95.6989 58.0113C95.262 57.8538 94.8478 57.6732 94.4109 57.5157C94.3218 57.9059 94.4622 58.3174 94.7621 58.5675L94.8076 58.5214ZM135.904 176.583C135.535 176.311 135.03 176.268 134.642 176.477C134.85 176.751 135.081 177.024 135.426 177.091C135.771 177.157 136.158 176.811 135.995 176.491L135.904 176.583ZM109.401 58.9507C108.919 58.9998 108.648 59.6432 108.926 60.008C109.155 59.9148 109.36 59.7989 109.589 59.7057C109.656 59.4302 109.608 59.1326 109.492 58.8814L109.401 58.9507ZM44.2896 147.063C43.7596 146.722 43.0481 146.658 42.4763 146.914C42.9831 147.232 43.6491 147.342 44.2444 147.177L44.2896 147.063ZM132.012 177.755C132.219 177.754 132.425 177.752 132.632 177.774C132.768 177.498 132.467 177.179 132.169 177.181C131.871 177.183 131.597 177.368 131.369 177.553C131.576 177.644 131.783 177.757 131.99 177.847L132.012 177.755ZM84.2226 163.295C84.2709 163.661 84.3193 164.027 84.3447 164.394C84.5719 164.071 84.73 163.704 84.7961 163.291C84.6113 163.109 84.1293 163.066 84.2228 163.317L84.2226 163.295ZM103.139 66.0049C103.068 65.6845 102.677 65.5038 102.379 65.5975C102.565 65.8941 102.75 66.1679 102.913 66.4647C103.144 66.6923 103.484 66.1171 103.185 66.0046L103.139 66.0049ZM110.638 62.1965C110.802 62.6308 111.468 62.7638 111.787 62.4179C111.486 62.0762 110.958 61.9881 110.569 62.2198L110.638 62.1965ZM68.5184 109.96C68.1737 109.871 67.6692 109.897 67.6485 110.241C68.3133 110.168 68.9552 110.095 69.6199 110.021C69.2749 109.886 68.9078 109.866 68.5412 109.937L68.5184 109.96ZM105.133 110.288C104.972 110.174 104.768 110.519 104.952 110.61C105.205 110.677 105.458 110.767 105.733 110.834C105.87 110.672 105.868 110.397 105.729 110.238C105.546 110.262 105.34 110.263 105.133 110.288ZM84.1321 160.064C83.974 160.432 84 160.89 84.186 161.255C84.3212 160.888 84.4562 160.497 84.5914 160.13C84.4307 160.108 84.2927 160.063 84.132 160.041L84.1321 160.064ZM137.723 133.008C137.816 133.168 137.886 133.328 137.979 133.488C138.161 133.395 138.344 133.302 138.504 133.186C138.387 132.866 138.087 132.616 137.743 132.55C137.721 132.71 137.676 132.848 137.654 133.009L137.723 133.008ZM83.2159 122.58C82.756 122.423 82.4408 123.318 82.9007 123.476C83.1056 123.245 83.1952 122.924 83.1932 122.626L83.2159 122.58ZM97.907 58.8902C97.772 59.2807 98.394 59.6661 98.6671 59.3434C98.5278 59.0923 98.2283 58.9109 97.9531 58.9128L97.907 58.8902ZM136.631 106.937C136.47 106.893 136.287 106.917 136.15 107.032C136.105 107.193 136.152 107.376 136.245 107.536C136.543 107.557 136.793 107.188 136.631 106.937ZM129.129 69.2453C129.29 69.2671 129.45 69.1056 129.426 68.9454C129.196 68.8553 128.965 68.7422 128.735 68.6521C128.622 68.882 128.877 69.2011 129.129 69.1536L129.129 69.2453ZM21.7166 109.426C21.5348 109.679 22.0416 109.996 22.2003 109.72C22.2912 109.582 22.2668 109.376 22.1515 109.285C22.0133 109.194 21.7845 109.288 21.7856 109.448L21.7166 109.426ZM83.1403 128.424C82.9565 128.379 82.7503 128.427 82.6135 128.542C82.7292 128.702 82.8221 128.861 82.9377 128.998C83.1666 128.928 83.2793 128.629 83.186 128.401L83.1403 128.424Z" fill="#3A3A3A"/>
<rect x="-128" y="-35" width="404" height="755" rx="34" stroke="#3A3A3A" stroke-width="2"/>
<rect x="-126" y="-35" width="404" height="755" rx="34" stroke="#3A3A3A" stroke-width="2"/>
</g>
<defs>
<clipPath id="clip0">
<rect width="156.832" height="184" fill="white" transform="translate(101)"/>
</clipPath>
<clipPath id="clip1">
<rect width="156.832" height="184" fill="white" transform="translate(1.05019 192.061) rotate(-90.3837)"/>
</clipPath>
</defs>
</svg>
