<svg xmlns="http://www.w3.org/2000/svg" viewBox="0 0 684.41 639.92"><defs><style>.cls-1{fill:#3a3a3a;}</style></defs><title>Asset 3</title><g id="Layer_2" data-name="Layer 2"><g id="Layer_2-2" data-name="Layer 2"><path class="cls-1" d="M222.52,629.64a51.25,51.25,0,0,1,9.53-13.71c2.13-2.19,4.65-4.28,7.69-4.69A230.36,230.36,0,0,1,222.52,629.64Z"/><path class="cls-1" d="M264.71,105.48a34.3,34.3,0,0,1,13.89,3A61.18,61.18,0,0,1,289,114.81,57.32,57.32,0,0,1,264.71,105.48Z"/><path class="cls-1" d="M245.5,115.66a205.72,205.72,0,0,1-29.16.82A105.15,105.15,0,0,1,245.5,115.66Z"/><path class="cls-1" d="M158.9,631.52c-1.11-1.6.23-3.72,1.51-5.18l13.71-15.7c1.2,1.66-.22,3.91-1.58,5.45Z"/><path class="cls-1" d="M136.88,337.1a27.55,27.55,0,0,1,13,8.55A25.07,25.07,0,0,1,136.88,337.1Z"/><path class="cls-1" d="M612.75,443a41.19,41.19,0,0,1-13.17,10.91A34.35,34.35,0,0,1,612.75,443Z"/><path class="cls-1" d="M380.14,76.91l-8.78,10.14c-.85,1-2.31,2-3.29,1.17A36.78,36.78,0,0,1,380.14,76.91Z"/><path class="cls-1" d="M623.73,430l-6.67,10.49A8.63,8.63,0,0,1,623.73,430Z"/><path class="cls-1" d="M564.67,512.65a72.1,72.1,0,0,0,13.09,34.57,145.09,145.09,0,0,1,10,16.09c-9.55-6.75-15.59-17.39-20.16-28.16C564.61,528,562.08,520,564.67,512.65Z"/><path class="cls-1" d="M191.32,350.82a3.8,3.8,0,0,1-3.76-2.63,30,30,0,0,1,11.82,3.36l-8-.86Z"/><path class="cls-1" d="M2.26,541.55a6.57,6.57,0,0,1,1.24,6.78A11.3,11.3,0,0,1,.33,537.49a4,4,0,0,1,2,4Z"/><path class="cls-1" d="M407.05,48.64l-11.27,8.52c-.79.59-1.95,1.18-2.67.49A46.23,46.23,0,0,1,407.05,48.64Z"/><path class="cls-1" d="M419.82,611.25a13.73,13.73,0,0,1,5.47-9.15A11.82,11.82,0,0,1,419.82,611.25Z"/><path class="cls-1" d="M33.08,638.68a3.66,3.66,0,0,1-1.86-2.7,4.91,4.91,0,0,1,6.05,3.72,3.77,3.77,0,0,1-4.09-1.06Z"/><path class="cls-1" d="M452.66,586l2,1.53A10.41,10.41,0,0,1,445,588a27,27,0,0,1,7.44-1.34Z"/><path class="cls-1" d="M227.52,613.11l1.35-2.94a2.75,2.75,0,0,1,2.14.39,10,10,0,0,1-3.65,5,1.47,1.47,0,0,1,.22-2.31Z"/><path class="cls-1" d="M32.2,515.1c-1.89.29-2.7-2.77-1.36-4.14s3.5-1.38,5.41-1.31L32,514.85Z"/><path class="cls-1" d="M25,602.32a3.68,3.68,0,0,1-1.89-4.87,5.33,5.33,0,0,1,2.85,2c.58,1,.09,2.69-1.09,2.78Z"/><path class="cls-1" d="M629.31,430.1a4.93,4.93,0,0,1-3.74,5.12,8.35,8.35,0,0,1,3.56-5Z"/><path class="cls-1" d="M91.1,258.35l-2.13.29c-.42-.77-.85-1.53-1.27-2.29a3,3,0,0,1,3.45,1.8Z"/><path class="cls-1" d="M36.58,582l.08-4.23c1.27,1.33,2,4.2.22,4.35Z"/><path class="cls-1" d="M16.19,571c-.54-.71.94-1.5,1.54-.83a2.46,2.46,0,0,1,0,2.54,3.29,3.29,0,0,0-.35,2.59l-2.18-1.11c.41-1.08.81-2.16,1.21-3.24Z"/><path class="cls-1" d="M187.41,174.21l-1.2,4.17a3.2,3.2,0,0,1,.87-4.26Z"/><path class="cls-1" d="M22,604.93c1.1.18,1.37,1.81.69,2.69A4.88,4.88,0,0,1,19.71,609,2.39,2.39,0,0,1,22,605.7Z"/><path class="cls-1" d="M310.77,607.51l48.65.53a45.37,45.37,0,0,1,9.68.79c-1.65,2.62-5.38,2.69-8.47,2.46Z"/><path class="cls-1" d="M202.51,1.94c-.82.17-1.06-1.29-.35-1.73a2.77,2.77,0,0,1,2.4.19l-2.15,1.31Z"/><path class="cls-1" d="M444.72,365.45l6.5,2a15.65,15.65,0,0,1-10.41-1.12,3.06,3.06,0,0,1,3.85-.82Z"/><path class="cls-1" d="M103.45,558.16a2,2,0,0,1,.16-1.88,1.05,1.05,0,0,1,1-.29,40.12,40.12,0,0,1,2.36,9A18.11,18.11,0,0,1,103.45,558.16Z"/><path class="cls-1" d="M95.49,503.36a37.76,37.76,0,0,1-12-.45c-1.65-.33-3.45-.9-4.27-2.37A2.34,2.34,0,0,1,81,498.76Q88.15,501.29,95.49,503.36Z"/><path class="cls-1" d="M496.94,374.47a12.38,12.38,0,0,0-8-1.59c2.33-2.51,7.19-1.66,8.54,1.48Z"/><path class="cls-1" d="M509.24,368.24a2.5,2.5,0,0,1,.35-2.12l3.81,1.22a4.46,4.46,0,0,1-4.26,1.12Z"/><path class="cls-1" d="M324.74,487.25a4.58,4.58,0,0,1,2.42-3.35,2.93,2.93,0,0,1-2.3,3.3Z"/><path class="cls-1" d="M127.77,591.83a5.1,5.1,0,0,1-4.27,0,5,5,0,0,1,4.26,0Z"/><path class="cls-1" d="M518.13,366.9a3.31,3.31,0,0,1,4.08-.28,2.74,2.74,0,0,1-4.26.52Z"/><path class="cls-1" d="M419.89,372.36c1.39-2.25,2.83-4.56,5-6.12a10.55,10.55,0,0,1,11.2-.62c-6.2-.43-11.36,4.65-14.83,9.81s-6.48,11.08-11.93,14.06Q414.59,380.92,419.89,372.36Z"/><path class="cls-1" d="M123.89,561.55,104.15,579l-8.63,7.61c-1.17,1-3.65,1.56-3.68,0l35.76-32.46C128.53,556.91,126.09,559.6,123.89,561.55Z"/><path class="cls-1" d="M317,138.77a10.59,10.59,0,0,0,3.27,7.14c4.39,4.13,11.72,4,15.78,8.48a23.44,23.44,0,0,1-18.51-8c-1.64-1.91-4.86-1.23-6.81.37s-3.27,3.88-5.34,5.32-5.49,1.55-6.63-.7A87.89,87.89,0,0,0,317,138.77Z"/><path class="cls-1" d="M217.22,313a43.26,43.26,0,0,0,18.1,18.64c-6.8-1.61-14.45-4.9-16.06-11.7-.61-2.58-4.4-3-6.57-1.45s-3.32,4.07-5,6.13-4.55,3.7-6.89,2.45A154.92,154.92,0,0,1,217.22,313Z"/><path class="cls-1" d="M284.54,151.45c-9.52,1-19.25-5.76-21.66-15l-14.47,11.81a8.09,8.09,0,0,1-4,2.15c-1.52.17-3.28-.89-3.25-2.41,8.32-1.87,13.72-9.66,20.54-14.77,1.06-.8,3.13-1.15,3.25.18.4,4.67,3.38,8.81,7.09,11.67S280.19,149.7,284.54,151.45Z"/><path class="cls-1" d="M226.65,216.71c-.52-1.91-.82-4.2.54-5.64a74.41,74.41,0,0,0,21.65,32.82,43.74,43.74,0,0,1-22.19-27.18Z"/><path class="cls-1" d="M208.17,278.39a4.9,4.9,0,0,1-.63-3.12,2.43,2.43,0,0,1,1.13-1.51,75.11,75.11,0,0,0,17.69,24.1C217.19,296.44,212,286.85,208.17,278.39Z"/><path class="cls-1" d="M234.39,175.31c2.8,3.68,5.74,7.47,9.84,9.61,6.27,3.27,14.11,2,20.33-1.42s11.25-8.5,16.49-13.25c1.13,4.67,2.48,9.71,6.24,12.71,4.4,3.5,11.21,3.45,14.7,7.86a25.86,25.86,0,0,1-21-11.9c-1-1.66-3.43-3.59-4.5-1.94a29.44,29.44,0,0,1-15.89,12.35,22.92,22.92,0,0,1-19.64-2.9c-3.5-2.48-6.11-6-8.65-9.45-2-2.68-4.07-5.77-3.52-9.06Z"/><path class="cls-1" d="M338.84,189.61a20.25,20.25,0,0,0-5.63-4.86c-2.24-1.11-5.12-1.29-7.1.22a118.35,118.35,0,0,1-14.17,9.24c-1.24-.49-.2-2.34.9-3.09l17.54-11.87q5.19,4.74,10.66,9.17Z"/><path class="cls-1" d="M204.63,183.18a39.38,39.38,0,0,1,18-8.68A22.74,22.74,0,0,1,204.63,183.18Z"/><path class="cls-1" d="M231.42,294.84q12.39-5.19,24.3-11.42A26,26,0,0,1,231.42,294.84Z"/><path class="cls-1" d="M272.93,317.26A47.17,47.17,0,0,1,250.27,333c-.74.23-1.79.3-2-.43A262.55,262.55,0,0,1,272.93,317.26Z"/><path class="cls-1" d="M288.25,294.87a54.18,54.18,0,0,0,17-11.54A22.53,22.53,0,0,1,285,297,7.34,7.34,0,0,1,288.25,294.87Z"/><path class="cls-1" d="M287.37,238a16.15,16.15,0,0,1-7.36-6.41,12.53,12.53,0,0,1-1.65-9.72Q282.5,230.16,287.37,238Z"/><path class="cls-1" d="M257.57,242.49l16.18-10.87A16.09,16.09,0,0,1,257.57,242.49Z"/><path class="cls-1" d="M313.29,240.58a4.66,4.66,0,0,1,4.75-.34,18.45,18.45,0,0,1-12.1,2,9.11,9.11,0,0,1,7.4-1.47Z"/><path class="cls-1" d="M314.6,284.71a127.07,127.07,0,0,1,14.07,13.17,31.5,31.5,0,0,1-17-14.05C312.6,283.26,313.76,284,314.6,284.71Z"/><path class="cls-1" d="M259.18,279.43c-.72-1.26-1.29-3.12-.1-3.94a57,57,0,0,0,14.68,20c-.84,1.49-3.11.27-4.2-1A99.59,99.59,0,0,1,259.18,279.43Z"/><path class="cls-1" d="M206.59,229a22,22,0,0,0,16.16-9.84c1.46,1.73-.44,4.24-2.29,5.54a44.4,44.4,0,0,1-15,6.8Z"/><path class="cls-1" d="M299.85,334.58A144.35,144.35,0,0,1,279,326c-1.76-.89-1.95-3.26-2.35-5.2s-2.16-4.15-3.93-3.28c.37-2,3.58-1.91,4.89-.34s1.54,3.77,2.48,5.59C283.68,329.79,295.3,328.17,299.85,334.58Z"/><path class="cls-1" d="M369.4,285.76a27.61,27.61,0,0,0,10.05-19.7,48.45,48.45,0,0,0,21.85,21.38c-1.65,1.74-4.55.64-6.53-.7a44.83,44.83,0,0,1-12.65-13.09A47,47,0,0,1,369.4,285.76Z"/><path class="cls-1" d="M447.58,153.68c-4.49-1.27-7.42-5.47-10-9.39-1.07-1.65-3.61-.34-5,1L422,155.77c-1.61-2,.49-4.84,2.45-6.53l13.65-11.76Q442.86,145.58,447.58,153.68Z"/><path class="cls-1" d="M463.29,239.24a24.39,24.39,0,0,1-11.79-6.39c-1.34-1.31-3.56-.33-5.12.69l-21.34,14c-.57-1.85,1.54-3.31,3.28-4.16A69.4,69.4,0,0,0,449,228Z"/><path class="cls-1" d="M436.56,266.29,424.31,283a19.28,19.28,0,0,1-5.23,5.45c-2.18,1.3-5.15,1.63-7.17.1a28.09,28.09,0,0,0,13-9.95C428.3,273.85,430.9,267.54,436.56,266.29Z"/><path class="cls-1" d="M397.92,164.57a47.33,47.33,0,0,0,18,27.6,22.9,22.9,0,0,1-16-18.51c-.21-1.53-2.24-2.2-3.67-1.63s-2.39,1.91-3.33,3.13a47.47,47.47,0,0,1-17.64,14.21C382.29,180.5,393.54,174.94,397.92,164.57Z"/><path class="cls-1" d="M471.07,150.58a50.16,50.16,0,0,1-16.6,8.29,62,62,0,0,1,18.64-12c.47,1.45-.83,2.83-2,3.75Z"/><path class="cls-1" d="M402.11,228.62q6.3,10.57,12.59,21.15a41.61,41.61,0,0,1-15.39-22.44C400.12,226.44,401.5,227.58,402.11,228.62Z"/><path class="cls-1" d="M378.73,244.34a10.08,10.08,0,0,1-2.73.3c-.83,0-1.85-.54-1.75-1.36a114.35,114.35,0,0,0,20.81-9.9A27.43,27.43,0,0,1,378.73,244.34Z"/><path class="cls-1" d="M436.75,273.91a95.23,95.23,0,0,1,12.88,16A21.27,21.27,0,0,1,436.75,273.91Z"/><path class="cls-1" d="M452,320.91c-1.16-1.61-3.56-1.82-5.4-1.09a17.19,17.19,0,0,0-4.76,3.49A43.6,43.6,0,0,1,423.58,333c-2.56.64-5.73.86-7.37-1.2a65.46,65.46,0,0,0,30.52-16c1.94-1.81,4.79.68,6.49,2.72,5.44,6.53,13.47,10.24,21.22,13.74A28,28,0,0,1,452,320.91Z"/><path class="cls-1" d="M383.7,329.3A23.56,23.56,0,0,1,372.25,333a16.71,16.71,0,0,1-6.91-1c.18-2,2.78-2.52,4.76-2.55Z"/><path class="cls-1" d="M460.31,173a66.9,66.9,0,0,1,10.58,10.63c.63.8.57,2.58-.35,2.16a71.55,71.55,0,0,1-9.11-8C460.15,176.48,458.94,174.25,460.31,173Z"/><path class="cls-1" d="M486,270.82l7,14.27A15.33,15.33,0,0,1,486,270.82Z"/><path class="cls-1" d="M481,145.08c.07,4.13,3.24,7.42,5.22,11,.45.82.63,2.18-.28,2.39a24.72,24.72,0,0,1-8-19.45c1.23-.63,2.71.57,3.06,1.9s0,2.74,0,4.12Z"/><path class="cls-1" d="M466.78,288.41a3.89,3.89,0,0,1,4.91-2.16,6.83,6.83,0,0,1-4.73,2.28Z"/><path class="cls-1" d="M405.88,330.07a11.52,11.52,0,0,1-7.85-3.35c-1-1-1.87-2.54-1.32-3.88A81,81,0,0,1,405.88,330.07Z"/><path class="cls-1" d="M435.39,193.66a3,3,0,0,1-1.91.49,1.48,1.48,0,0,1-1-.68,36.46,36.46,0,0,1,12-4.44Z"/><path class="cls-1" d="M86.07,387.64a16.42,16.42,0,0,1,11.74-11.06A60.65,60.65,0,0,1,86.07,387.64Z"/><path class="cls-1" d="M83.17,430.43a6.35,6.35,0,0,1,.93-2.72A8.66,8.66,0,0,1,88,425Q86.46,431.93,85.3,439A12,12,0,0,1,83.17,430.43Z"/><path class="cls-1" d="M394.48,110.17a3.25,3.25,0,0,1-3.86.44,2.81,2.81,0,0,1,4.07-.8Z"/><path class="cls-1" d="M481.6,237c-1.56,1.08-4.47,1.56-4.68-.33a22.22,22.22,0,0,0,14.67-11.74c.65-.41,1.52.36,1.51,1.13a3.14,3.14,0,0,1-1.09,2A66,66,0,0,1,481.6,237Z"/><path class="cls-1" d="M407.89,154.09c-5.52,1.49-10.17-3.89-14.69-7.39a6.75,6.75,0,0,0-3.74-1.67c-5.28-.14-6.72,9.61-12,9.14a36.3,36.3,0,0,1,11.91-12.33c1-.63,2.46-1.14,3.2-.23A49,49,0,0,0,407.89,154.09Z"/><path class="cls-1" d="M98.15,403.16a6.45,6.45,0,0,1-7-5.92c-.07-2.16-3.28-2.18-5.32-1.48q11.06-11.82,23.22-22.54a42.76,42.76,0,0,1-6.43,9c-3,3.18-6.52,6-8.19,10.05S94,401.92,98.15,403.16Z"/><path class="cls-1" d="M558.6,454.48l0-13.54Q497,515.85,437.26,592.2l54.6-2.28c9.88-.42,22.08-2.5,25-11.94,5.58-17.82,27.09-26,35.31-42.73,3.34-6.82,4.21-14.55,5-22.1,5.91-59.36,9.48-123.74,47.89-169.37l-8.69,2.75c13.51-9.84,29.6-20.21,45.72-15.8,18.62,5.08,26.9,28.59,22.15,47.31s-18.65,33.51-32,47.43q14.55-23.62,29.12-47.24c7.81-12.67.34-31-13.17-37.26s-30.27-1.89-41.47,7.92-17.55,24.11-21,38.58c8.61-12.56,18.06-25.8,32.23-31.37s34,1,36.48,16c1.27,7.87-2.53,15.86-8.05,21.61,4.06-8.88,8.1-19.4,3.45-28-6.46-11.93-24.72-10.56-35.94-2.93-33.27,22.62-30.3,72.07-48.28,108.06l18.72-17.17-10.47,12.89a19.41,19.41,0,0,0,14.24-5,23.22,23.22,0,0,1-7.56,10.32,385.35,385.35,0,0,1,56.06,35.92,483.32,483.32,0,0,1-52.87-30.72C607,508.71,654,520.37,668.55,556.88A287.94,287.94,0,0,0,567.88,479.2c-1.67,43.49,23.58,86.89,62.2,107,8.59,4.46,18.48,7.88,27.84,5.39s16.93-13,13.14-21.95c-1.87-4.39-3.78-12.21.93-11.42a36.61,36.61,0,0,0,12.42,24.58A103.49,103.49,0,0,0,637,512.92c15.79,10.1,32,21.05,41.18,37.4s8.69,39.69-6,51.27c-12.15,9.55-30.19,8.19-43.78.84s-23.77-19.59-33.59-31.54c17.21,17.61,38,36.61,62.48,34.4,7.15-.65,14.47-3.44,18.78-9.17s4.59-14.76-.69-19.62c-1.42,9.44-10.22,16.57-19.6,18.31s-19.08-1-27.65-5.2C590.9,571.42,572.34,529.19,562.34,489q-5.21,43-10.4,86c-.65,5.38-1.62,11.34-5.89,14.66-3.28,2.55-7.7,2.89-11.85,3.12Q305.69,605.5,76.68,602.7c-2.13,0-4.84.37-5.37,2.44s4.11,2.13,2.88.39C58.75,602.8,56.13,582,57.26,566.35q7.11-98.89,14.23-197.8l1,14.06a34.5,34.5,0,0,0,3-24,1181.41,1181.41,0,0,0,153.05-5.28c-8.73-.9-17.71-1.88-25.48-6S189,335.2,189.59,326.43q2.39-36.58,4.75-73.17a344,344,0,0,0-8.53,91.31c-4.2-7.72-3.64-17.05-3-25.8L195.32,155.5l-6.94,12.55q3.81-20.31,7.63-40.62c-4.08-2.49,1.61-10.09,5.15-6.87l108.17-1.38a210.22,210.22,0,0,1-59.27-38.72c-13.61-12.63-26.16-32.79-16.34-48.55s33.74-13.31,50.92-6a175.11,175.11,0,0,1,84.62,76.75A178.66,178.66,0,0,1,452.72,21.3c3.1-1.45,6.53-2.84,9.85-2,3.07.79,5.34,3.34,7.19,5.91,12.42,17.29,13.6,41.93,2.89,60.33s-32.72,29.53-53.88,27.26a58.07,58.07,0,0,0,46.4-25,58.07,58.07,0,0,0,6.1-52.38c-1.52-4-3.87-8.15-7.91-9.51-3.36-1.12-7,0-10.32,1.24A111.25,111.25,0,0,0,409.51,57.2a64.28,64.28,0,0,0,27.3-18.09l-7.55,11.65c8.59-6.38,21.81,2.59,22.92,13.23s-5.79,20.44-13.42,27.94a110.13,110.13,0,0,1-44.06,26.42,570.5,570.5,0,0,0,112.17-1.61C517.16,126.82,517.56,143,517,157.41q-1.8,45.65-7.41,91l-2.4-20.69q-6.36,54.75-12.73,109.51c-.3,2.66-.75,5.58-2.8,7.31-1.8,1.52-4.35,1.67-6.71,1.75L362.11,350.6l194.29,3.13c5,.08,10.55.42,13.89,4.11,3.69,4.07,3,10.35,2.08,15.77L558.6,454.48M359,446.41q30.89-41.51,61.76-83Q410.7,380,401.85,397.28c2.42,2.77-1.62,7.84-4.86,6.09,1.27,4.37-1.78,8.69-4.64,12.22L242.82,599.7C251.08,597,257,590,262.54,583.23l42.3-51.8L256.48,596.6A1662.73,1662.73,0,0,1,429,588.54l-59.29,3.53a211.47,211.47,0,0,0,52.83,2c3.86-.34,8.13-1,10.57-4l82.46-101.77c1.82-2.24,2.5-7-.37-6.73L458.76,544c25.51-40,67.56-67.65,91.8-108.47.83,2.62,1.67,5.25,2.5,7.88a203.86,203.86,0,0,0,16.23-72.08c.18-4.48-.13-9.67-3.73-12.34-2.63-1.95-6.2-1.88-9.47-1.72l-18.29.87,4.88,4.7a2450.65,2450.65,0,0,0-284.13-.72c2.54.23-.19,4-2.72,4.32a273.23,273.23,0,0,1-76.09-1.91c-2.84-.48-5.33,1.78-7.33,3.86L90.56,453.8c-4.83,5-9.76,10.22-12.55,16.62-2.65,6.07-3.19,12.81-3.7,19.4l-7,91c-.39,5.1,3.53,9.73,8.19,11.81s9.94,2.17,15,2.23l32.47.36a36.06,36.06,0,0,0,9.4-.73c6.49-1.7,11.42-6.82,15.92-11.79a744.89,744.89,0,0,0,66.4-84.82c.47,7.64-4.7,14.34-9.59,20.23l-62.22,75c2.86,1.45,6-1.2,8.12-3.62q97.1-111.35,188.22-227.74c-52.47,84.17-127.35,152.17-183.38,234q36.18,2,72.43,1.51c3.88-.05,7.91-.16,11.35-1.94s5.72-4.8,8-7.78L324.39,486.9q-9.76,14.85-19.51,29.7a117.79,117.79,0,0,0,34.2-44.87c5.06-.48,7.72-6,10.08-10.5A112.84,112.84,0,0,1,359,446.41M203.34,343.58q42.76,6.59,86,9.83L281,349a225.65,225.65,0,0,1,36.36,2.35c3.71.54,7.09-2.84,7.92-6.5s-.18-7.47-1.2-11.09l-5.18.19a21.05,21.05,0,0,0,9.79-8.86l-1.71,25.42c2.16,1.62,5.49.2,6.84-2.14s1.27-5.21,1.19-7.92c-2.08-69.83,16.28-139.23,12.51-209-.23-4.41-6-5.75-10.46-5.84q-63.52-1.22-127-1.12c-2.54,0-5.46.18-7,2.18-1.17,1.5-1.21,3.56-1.19,5.46l.12,12.39,13.24-9.88a39.88,39.88,0,0,0,18.49,14.82,23.56,23.56,0,0,1-20.49-11.78c-13.52,10-13.68,29.7-13,46.47a945.65,945.65,0,0,1-6,152.34c-.51,4.26,4.93,6.41,9.17,7.06M504.42,191.86a4.14,4.14,0,0,0-.4-2.39c-2.13-3.4-7.38,3.4-10.91,1.51,10-3.35,16.27-15.33,13.26-25.47-.51-1.69-2.68-3.53-3.64-2l4.59-38.9L378.48,123A1540.39,1540.39,0,0,0,360,341.1a6.35,6.35,0,0,0,.9,4.11c1.26,1.56,3.6,1.56,5.61,1.42a997.74,997.74,0,0,1,114.19-1.23c3,.14,6.63,0,8.21-2.57a8.54,8.54,0,0,0,.95-3.46l6.48-51.4c1-7.62,1.92-15.25,2.78-22.89q4.13-36.48,5.27-73.22M75.9,429.16a75.62,75.62,0,0,0-1.05,14.7c.46,8.07,3.2,17.2-1.83,23.52l97.17-103.53-80.55,7.26c-1.72.16-3.59.37-4.85,1.56s-1.6,3.11-1.84,4.86l-7,51.63M366.12,160.64c1.34-12.39,3.56-25.57,12.1-34.64L358,124c-2.25-.22-4.86-.31-6.38,1.36-1.28,1.4-1.28,3.5-1.21,5.39q1,25.88,2,51.76c.18,4.84.31,9.93-1.91,14.23-1.84,3.59-2.19,7.74-2.51,11.76q-5.18,66.14-10.37,132.28c-.28,3.67-.46,7.73,1.83,10.62,2.53,2,5.36-2.15,5.94-5.33q3.3-18.3,6.61-36.6c2-10.94,4-21.9,5.46-32.92,5.22-38.41,4.59-77.39,8.74-115.93M255.75,64.28a150.62,150.62,0,0,0,47,35.46c16.1,7.77,33.44,12.59,50.68,17.32a2.36,2.36,0,0,0,1.31.09c1.38-.46.72-2.53-.18-3.67-20.43-26-42.46-53.28-73.49-64.81-6.41-2.38-13.72-4-20-1.19s-9.91,11.69-5.36,16.8m98.66,26.43A178.07,178.07,0,0,0,295.8,35c-14.63-8.58-32.38-15.13-48.34-9.36-2.66,1-5.62,4.06-3.63,6.08-6.45,1.44-10.33,8.65-10,15.24s4,12.55,8.07,17.75c16.19,20.69,40.08,33.65,63.47,45.6,3.22,1.66,8.37,2.57,9.42-.9a195.53,195.53,0,0,1-57.71-37.07c-4.63-4.29-9.35-9.5-9.33-15.81s5-11.7,10.93-13.82,12.42-1.49,18.51,0c30,7.17,52,32.16,71.88,55.81a63.46,63.46,0,0,1,8.1,11.22,31.7,31.7,0,0,1,3.16,9.68c4.62-9.14-.34-20.1-5.95-28.66m9.92,25c3.38,4.53,10.25,3.95,15.74,2.61C397.83,114,415,106.4,429,94.69c8.36-7,15.72-15.69,18.77-26.14,1.24-4.23,1.45-9.48-1.9-12.34a10.55,10.55,0,0,0-4.53-2c-7.33-1.7-15.13.25-21.74,3.84s-12.23,8.74-17.74,13.86C387.75,85,373.61,98.73,364.33,115.68M535,585.82c2.3.64,4.35,2.38,6.74,2.27,4.08-.2,5.81-5.21,6.45-9.24q2.92-18.51,4.39-37.21c-2.63,1.32-4.28,4-5.85,6.46a211,211,0,0,1-32.26,39.67c6,3.83,13.7-3.87,20.53-1.95m-468.28-66q-3.8,21.63-5.67,43.54c2.65-1.85,3.75-5.17,4.56-8.3,4-15.39,4.54-31.42,5.08-47.31l1.16-34.28c-1.54-.35-2.38,1.73-2.57,3.3q-2.56,22-5.15,44A24.58,24.58,0,0,0,64,527.9q1.35-4,2.72-8.08M508,143.74c-.91,1.7-2,3.95-.67,5.36,3,3.17,3.07,8.09,2.8,12.47-1,15.87-3.68,31.86-1.11,47.55,3.48-3.41,3.73-8.82,3.77-13.69l.42-62.23a5.86,5.86,0,0,0-.56-3.14,2,2,0,0,0-2.75-.8,21.08,21.08,0,0,1-1.9,14.48M353.72,305.6a106.41,106.41,0,0,1-5.27,35.32c-.73,2.21-1.54,4.5-1.28,6.81s2,4.66,4.32,4.74c2,.07,3.68-1.49,4.44-3.3a14.65,14.65,0,0,0,.73-5.79l-.3-34.59c0-1.7-1.21-4.11-2.64-3.19M251.33,366.1l4-3.64a176.17,176.17,0,0,0-54.81-1.21c-.26,2.55,3.2,3.54,5.76,3.57q15.35.18,30.67-.8c4.91-.31,10.22-.61,14.34,2.08m92.59-248.45-21-5.79c-2.06-.57-4.66-1-6,.67a33.64,33.64,0,0,0,28.84,7.72c1-.86-.57-2.25-1.84-2.6M574.12,423q4.13-11.1,8.24-22.21c1.21-3.24,2.4-7,.8-10a15.39,15.39,0,0,0-3.67,9.76A39,39,0,0,0,574.12,423M71.63,426.3l4.11-30.8c.24-1.8.22-4.1-1.43-4.85C73,392,72.73,394,72.54,395.89q-1.23,12.45-2.47,24.9c-.2,2-.19,4.48,1.56,5.51m90.5,157.19a44.69,44.69,0,0,0-11.34,8.44c-1.27,1.31-2.5,3.38-1.35,4.79a27,27,0,0,0,12.69-13.23m30.38-372.26c2.8-3.28,3.49-7.82,4.06-12.1.31-2.3.41-5.1-1.49-6.43a31.13,31.13,0,0,0-2.57,18.53M640,335.76c.73-1.16-1-2.33-2.3-2.6A30.43,30.43,0,0,0,620,335l17.86,1.4c.79.06,1.74.05,2.17-.62M286.43,594.62c0,1.65,2,2.45,3.67,2.64a23.25,23.25,0,0,0,7.93-.46,10.23,10.23,0,0,0-11.6-2.18m293.62-182a3.59,3.59,0,0,0,2.15,3.9c.75-1.86,1.49-3.73,2.24-5.59a4.56,4.56,0,0,0-4.61,1.51M63.62,588.29a5.39,5.39,0,0,0,.53-5.52c-1.17.9-2.43,1.94-2.69,3.39s1.23,3.18,2.55,2.51M577.74,476.2a3.06,3.06,0,0,0-4.62-2.12l1.33,2.92a5.3,5.3,0,0,0,3.65-.43m-383-286.79a8.59,8.59,0,0,0,.67-7.95,9.72,9.72,0,0,0-1.18,7.69m-136,381.82,0,2.65c1.16.61,2.58-.68,2.61-2a5.85,5.85,0,0,0-1.58-3.51c-.44.91-.87,1.82-1.31,2.72m64.74-207.79-4.75.55a12.07,12.07,0,0,0,4.75,2c.82-.84,1-2.89-.13-2.53m424.19,85.21a2.66,2.66,0,0,0,1.78-3.3l-3.76,2.34c-.95,1,1.55,2.52,2,1.19m16.31,32.64a3.21,3.21,0,0,0-1,5.05,4.36,4.36,0,0,0,.92-5.25M356.27,296.48c.43-1.48.35-3.75-1.19-3.8l.9,8.61a9.21,9.21,0,0,0,.44-4.71m-2.61,159.57c.47-.73-1-1.55-1.43-.81l-1.05,3.38a2,2,0,0,0,2.57,0c0-.86,0-1.71,0-2.57m-216.74-93a6,6,0,0,0-5.19.22l4.88,1.83.44-2M253.71,597.5l-2.12,1.08,1.26,2.34a4.65,4.65,0,0,0,2.77-3.26l-2-.41m47.12-237c.66-2-3.18-3.37-3.92-1.36a5.81,5.81,0,0,0,3.72,1.33m277.77,65.92c-1.7-.62-3.36,2.06-2.05,3.31a3.65,3.65,0,0,0,1.88-3.15M367.5,593.51a2.46,2.46,0,0,0-.35-2.12,3,3,0,0,0-2.17.38,1.88,1.88,0,0,0,2.59,1.82m164.61-31.65a1.24,1.24,0,0,0,1.33,1.27l1.31-3a1.64,1.64,0,0,0-2.21,1.7M360,92.55c-1.09-.78-2.48,1.43-1.31,2.08a1.45,1.45,0,0,0,1.91-.25c.41-.58,0-1.59-.72-1.55M275.35,359.69a2.58,2.58,0,0,0-.49-2.33l-2,1.36a2,2,0,0,0,2.58,1.08Z"/></g></g></svg>